<svg width="40" height="36" viewBox="0 0 40 36" fill="none" xmlns="http://www.w3.org/2000/svg">
<g clip-path="url(#clip0_1_3356)">
<path fill-rule="evenodd" clip-rule="evenodd" d="M2.5 18C2.5 17.7016 2.63169 17.4155 2.86612 17.2045C3.10054 16.9935 3.41848 16.875 3.75 16.875H33.2325L25.365 9.79648C25.1303 9.58524 24.9984 9.29873 24.9984 8.99998C24.9984 8.70124 25.1303 8.41473 25.365 8.20348C25.5997 7.99224 25.9181 7.87356 26.25 7.87356C26.5819 7.87356 26.9003 7.99224 27.135 8.20348L37.135 17.2035C37.2514 17.308 37.3438 17.4321 37.4068 17.5688C37.4698 17.7055 37.5022 17.852 37.5022 18C37.5022 18.148 37.4698 18.2945 37.4068 18.4312C37.3438 18.5678 37.2514 18.692 37.135 18.7965L27.135 27.7965C27.0188 27.9011 26.8808 27.9841 26.729 28.0407C26.5771 28.0973 26.4144 28.1264 26.25 28.1264C25.9181 28.1264 25.5997 28.0077 25.365 27.7965C25.1303 27.5852 24.9984 27.2987 24.9984 27C24.9984 26.7012 25.1303 26.4147 25.365 26.2035L33.2325 19.125H3.75C3.41848 19.125 3.10054 19.0065 2.86612 18.7955C2.63169 18.5845 2.5 18.2984 2.5 18Z" fill="black"/>
</g>
<defs>
<clipPath id="clip0_1_3356">
<rect width="36" height="40" fill="white" transform="matrix(0 -1 -1 0 40 36)"/>
</clipPath>
</defs>
</svg>
