<svg width="100" height="66" viewBox="0 0 100 66" fill="none" xmlns="http://www.w3.org/2000/svg">
<path opacity="0.1" d="M23.7001 8.43572C23.7001 9.6532 20.6321 12.1995 20.6321 12.1995C20.6321 12.1995 17.5662 9.6532 17.5662 8.43572C17.5874 7.86056 17.9198 7.31408 18.4927 6.91266C19.0655 6.51124 19.8336 6.2866 20.6332 6.2866C21.4328 6.2866 22.2008 6.51124 22.7737 6.91266C23.3466 7.31408 23.679 7.86056 23.7001 8.43572ZM53.0968 50.4813C52.6941 50.4811 52.2953 50.538 51.9232 50.6488C51.5511 50.7596 51.213 50.9221 50.9283 51.127C50.6435 51.3319 50.4177 51.5751 50.2638 51.8429C50.1098 52.1106 50.0307 52.3975 50.031 52.6873C50.031 53.9048 53.0968 56.4511 53.0968 56.4511C53.0968 56.4511 56.1627 53.9048 56.1627 52.6873C56.1627 52.1022 55.8397 51.5411 55.2647 51.1274C54.6898 50.7137 53.9099 50.4813 53.0968 50.4813ZM78.7139 0C77.9007 0 77.1209 0.232418 76.546 0.646124C75.971 1.05983 75.648 1.62094 75.648 2.206C75.6415 3.41884 78.7139 5.96982 78.7139 5.96982C78.7139 5.96982 81.7733 3.41884 81.7733 2.206C81.7727 1.62186 81.4504 1.0617 80.877 0.648213C80.3035 0.234728 79.5257 0.00163725 78.7139 0ZM10.5336 29.0694C10.131 29.0692 9.73215 29.1262 9.36005 29.237C8.98796 29.3477 8.64987 29.5102 8.36512 29.7151C8.08037 29.92 7.85455 30.1633 7.70057 30.431C7.5466 30.6987 7.46749 30.9857 7.46777 31.2754C7.46777 32.4929 10.5336 35.0377 10.5336 35.0377C10.5336 35.0377 13.5995 32.4929 13.5995 31.2754C13.5995 30.6904 13.2765 30.1293 12.7015 29.7156C12.1266 29.3019 11.3468 29.0694 10.5336 29.0694ZM92.0523 28.2959C91.242 28.2963 90.4648 28.5274 89.8904 28.9387C89.316 29.35 88.991 29.9081 88.9865 30.4911C88.9865 31.7101 92.0523 34.2549 92.0523 34.2549C92.0523 34.2549 95.1182 31.7148 95.1182 30.4911C95.1174 30.2013 95.0372 29.9144 94.8822 29.6469C94.7272 29.3794 94.5004 29.1365 94.2149 28.9321C93.9294 28.7276 93.5907 28.5657 93.2181 28.4555C92.8456 28.3453 92.4465 28.2889 92.0437 28.2898L92.0523 28.2959ZM78.7139 3.14038H77.4239C77.3668 3.14038 77.3122 3.12409 77.2718 3.09507C77.2315 3.06606 77.2089 3.02671 77.2089 2.98569C77.2089 2.94466 77.2315 2.90531 77.2718 2.8763C77.3122 2.84729 77.3668 2.83099 77.4239 2.83099H78.7139C78.7709 2.83099 78.8256 2.84729 78.8659 2.8763C78.9062 2.90531 78.9288 2.94466 78.9288 2.98569C78.9288 3.02671 78.9062 3.06606 78.8659 3.09507C78.8256 3.12409 78.7709 3.14038 78.7139 3.14038ZM65.5409 53.4654C65.5409 53.4244 65.5183 53.3851 65.4779 53.356C65.4376 53.327 65.3829 53.3107 65.3259 53.3107H62.7459C62.6889 53.3107 62.6342 53.327 62.5939 53.356C62.5536 53.3851 62.5309 53.4244 62.5309 53.4654C62.5309 53.5065 62.5536 53.5458 62.5939 53.5748C62.6342 53.6038 62.6889 53.6201 62.7459 53.6201H65.3259C65.3829 53.6201 65.4376 53.6038 65.4779 53.5748C65.5183 53.5458 65.5409 53.5065 65.5409 53.4654ZM60.4025 53.4654C60.4025 53.4244 60.3798 53.3851 60.3395 53.356C60.2992 53.327 60.2445 53.3107 60.1875 53.3107H57.6204C57.5634 53.3107 57.5087 53.327 57.4684 53.356C57.428 53.3851 57.4054 53.4244 57.4054 53.4654C57.4054 53.5065 57.428 53.5458 57.4684 53.5748C57.5087 53.6038 57.5634 53.6201 57.6204 53.6201H60.1875C60.2445 53.6201 60.2992 53.6038 60.3395 53.5748C60.3798 53.5458 60.4025 53.5065 60.4025 53.4654ZM67.9145 53.6062C68.8311 53.5363 69.6765 53.2183 70.2795 52.7167C70.3168 52.6857 70.3355 52.6453 70.3315 52.6044C70.3274 52.5635 70.301 52.5255 70.258 52.4986C70.2149 52.4717 70.1588 52.4583 70.102 52.4612C70.0451 52.4641 69.9922 52.4831 69.9548 52.514C69.4234 52.9558 68.6789 53.2361 67.8715 53.2984C67.8433 53.2995 67.8156 53.3046 67.7901 53.3134C67.7646 53.3222 67.7418 53.3345 67.7229 53.3497C67.7041 53.3648 67.6895 53.3825 67.6802 53.4017C67.6708 53.4209 67.6668 53.4412 67.6683 53.4616C67.6699 53.4819 67.677 53.5018 67.6892 53.5201C67.7015 53.5385 67.7186 53.5549 67.7397 53.5685C67.7607 53.582 67.7853 53.5925 67.812 53.5992C67.8386 53.606 67.8669 53.6089 67.8951 53.6078L67.9145 53.6062ZM55.2791 53.3556C55.2904 53.3369 55.2966 53.3168 55.2971 53.2964C55.2977 53.276 55.2926 53.2557 55.2822 53.2368C55.2718 53.2178 55.2563 53.2005 55.2366 53.1858C55.2169 53.1712 55.1933 53.1595 55.1673 53.1514C54.7996 53.0384 54.4705 52.8691 54.2028 52.6554C53.9351 52.4417 53.7353 52.1886 53.6171 51.9138C53.6086 51.8944 53.5948 51.8764 53.5765 51.8608C53.5583 51.8452 53.5359 51.8324 53.5107 51.823C53.4855 51.8137 53.4581 51.808 53.4298 51.8063C53.4016 51.8046 53.3732 51.807 53.3462 51.8132C53.2922 51.8257 53.2472 51.853 53.221 51.8892C53.1948 51.9254 53.1896 51.9676 53.2065 52.0066C53.3443 52.3229 53.5757 52.6139 53.8849 52.8596C54.1941 53.1053 54.5737 53.2999 54.9974 53.4299C55.0237 53.4384 55.0524 53.4426 55.0813 53.4422C55.1223 53.4429 55.1627 53.4351 55.1978 53.4197C55.2328 53.4044 55.261 53.3821 55.2791 53.3556ZM71.1674 50.9114V49.0658C71.1674 49.0248 71.1448 48.9854 71.1045 48.9564C71.0641 48.9274 71.0094 48.9111 70.9524 48.9111C70.8954 48.9111 70.8407 48.9274 70.8004 48.9564C70.7601 48.9854 70.7374 49.0248 70.7374 49.0658V50.9114C70.7374 50.9524 70.7601 50.9917 70.8004 51.0207C70.8407 51.0498 70.8954 51.0661 70.9524 51.0661C71.0094 51.0661 71.0641 51.0498 71.1045 51.0207C71.1448 50.9917 71.1674 50.9524 71.1674 50.9114ZM53.4924 50.127V48.857C53.4922 48.6566 53.4714 48.4565 53.4301 48.2583C53.4259 48.2382 53.4162 48.2188 53.4016 48.2014C53.387 48.184 53.3678 48.1688 53.345 48.1567C53.3222 48.1446 53.2964 48.1359 53.2689 48.131C53.2415 48.1262 53.2129 48.1253 53.185 48.1283C53.157 48.1314 53.1301 48.1383 53.1059 48.1488C53.0817 48.1593 53.0606 48.1732 53.0438 48.1895C53.027 48.2059 53.0149 48.2245 53.0082 48.2443C53.0014 48.264 53.0001 48.2846 53.0044 48.3047C53.0432 48.4874 53.0626 48.6721 53.0624 48.857V50.127C53.0624 50.1681 53.0851 50.2074 53.1254 50.2364C53.1657 50.2654 53.2204 50.2817 53.2774 50.2817C53.3344 50.2817 53.3891 50.2654 53.4295 50.2364C53.4698 50.2074 53.4924 50.1681 53.4924 50.127ZM71.1674 47.2156V45.3685C71.1674 45.3275 71.1448 45.2881 71.1045 45.2591C71.0641 45.2301 71.0094 45.2138 70.9524 45.2138C70.8954 45.2138 70.8407 45.2301 70.8004 45.2591C70.7601 45.2881 70.7374 45.3275 70.7374 45.3685V47.2172C70.7374 47.2582 70.7601 47.2975 70.8004 47.3265C70.8407 47.3556 70.8954 47.3718 70.9524 47.3718C71.0094 47.3718 71.0641 47.3556 71.1045 47.3265C71.1448 47.2975 71.1674 47.2582 71.1674 47.2172V47.2156ZM52.3723 46.7159C52.395 46.7039 52.4143 46.6887 52.4288 46.6712C52.4434 46.6538 52.4531 46.6345 52.4573 46.6144C52.4615 46.5943 52.4601 46.5737 52.4533 46.554C52.4464 46.5343 52.4343 46.5157 52.4174 46.4994C51.8868 45.9812 51.1907 45.5626 50.3879 45.2788C50.3624 45.268 50.334 45.2612 50.3047 45.2586C50.2753 45.2561 50.2456 45.2579 50.2173 45.2641C50.1889 45.2702 50.1627 45.2804 50.1401 45.2942C50.1176 45.3079 50.0992 45.3249 50.0862 45.344C50.0731 45.3631 50.0657 45.3839 50.0643 45.4051C50.063 45.4264 50.0677 45.4476 50.0783 45.4675C50.0888 45.4873 50.105 45.5054 50.1257 45.5206C50.1464 45.5358 50.1712 45.5477 50.1987 45.5557C50.9397 45.8179 51.5821 46.2047 52.0713 46.6834C52.0881 46.6998 52.1092 46.7136 52.1334 46.7241C52.1576 46.7346 52.1845 46.7416 52.2124 46.7446C52.2404 46.7476 52.2689 46.7466 52.2963 46.7417C52.3237 46.7368 52.3496 46.728 52.3723 46.7159ZM48.0229 45.0328C48.0229 44.9918 48.0002 44.9524 47.9599 44.9234C47.9196 44.8944 47.8649 44.8781 47.8079 44.8781H45.2408C45.1838 44.8781 45.1291 44.8944 45.0888 44.9234C45.0484 44.9524 45.0258 44.9918 45.0258 45.0328C45.0258 45.0738 45.0484 45.1132 45.0888 45.1422C45.1291 45.1712 45.1838 45.1875 45.2408 45.1875H47.8079C47.8649 45.1875 47.9196 45.1712 47.9599 45.1422C48.0002 45.1132 48.0229 45.0738 48.0229 45.0328ZM42.8866 45.0328C42.8866 44.9918 42.8639 44.9524 42.8236 44.9234C42.7833 44.8944 42.7286 44.8781 42.6716 44.8781H40.0916C40.0346 44.8781 39.9799 44.8944 39.9396 44.9234C39.8992 44.9524 39.8766 44.9918 39.8766 45.0328C39.8766 45.0738 39.8992 45.1132 39.9396 45.1422C39.9799 45.1712 40.0346 45.1875 40.0916 45.1875H42.6716C42.7286 45.1875 42.7833 45.1712 42.8236 45.1422C42.8639 45.1132 42.8866 45.0738 42.8866 45.0328ZM37.7503 45.0328C37.7503 44.9918 37.7276 44.9524 37.6873 44.9234C37.647 44.8944 37.5923 44.8781 37.5353 44.8781H34.966C34.909 44.8781 34.8543 44.8944 34.814 44.9234C34.7737 44.9524 34.751 44.9918 34.751 45.0328C34.751 45.0738 34.7737 45.1132 34.814 45.1422C34.8543 45.1712 34.909 45.1875 34.966 45.1875H37.5353C37.5923 45.1875 37.647 45.1712 37.6873 45.1422C37.7276 45.1132 37.7503 45.0738 37.7503 45.0328ZM32.614 45.0328C32.614 44.9918 32.5913 44.9524 32.551 44.9234C32.5107 44.8944 32.456 44.8781 32.399 44.8781H29.819C29.762 44.8781 29.7073 44.8944 29.667 44.9234C29.6266 44.9524 29.604 44.9918 29.604 45.0328C29.604 45.0738 29.6266 45.1132 29.667 45.1422C29.7073 45.1712 29.762 45.1875 29.819 45.1875H32.399C32.456 45.1875 32.5107 45.1712 32.551 45.1422C32.5913 45.1132 32.614 45.0738 32.614 45.0328ZM27.4755 45.0328C27.4755 44.9918 27.4528 44.9524 27.4125 44.9234C27.3722 44.8944 27.3175 44.8781 27.2605 44.8781H24.6934C24.6364 44.8781 24.5817 44.8944 24.5414 44.9234C24.5011 44.9524 24.4784 44.9918 24.4784 45.0328C24.4784 45.0738 24.5011 45.1132 24.5414 45.1422C24.5817 45.1712 24.6364 45.1875 24.6934 45.1875H27.2605C27.3175 45.1875 27.3722 45.1712 27.4125 45.1422C27.4528 45.1132 27.4755 45.0738 27.4755 45.0328ZM22.3392 45.0328C22.3392 44.9918 22.3165 44.9524 22.2762 44.9234C22.2359 44.8944 22.1812 44.8781 22.1242 44.8781H19.5571C19.5001 44.8781 19.4454 44.8944 19.4051 44.9234C19.3648 44.9524 19.3421 44.9918 19.3421 45.0328C19.3421 45.0738 19.3648 45.1132 19.4051 45.1422C19.4454 45.1712 19.5001 45.1875 19.5571 45.1875H22.1242C22.1812 45.1875 22.2359 45.1712 22.2762 45.1422C22.3165 45.1132 22.3392 45.0738 22.3392 45.0328ZM17.2029 45.0328C17.2029 44.9918 17.1802 44.9524 17.1399 44.9234C17.0996 44.8944 17.0449 44.8781 16.9879 44.8781H14.4294C14.3724 44.8781 14.3177 44.8944 14.2774 44.9234C14.2371 44.9524 14.2144 44.9918 14.2144 45.0328C14.2144 45.0738 14.2371 45.1132 14.2774 45.1422C14.3177 45.1712 14.3724 45.1875 14.4294 45.1875H17.0094C17.0626 45.1837 17.1119 45.1657 17.1477 45.1371C17.1835 45.1085 17.2032 45.0713 17.2029 45.0328ZM12.1117 44.7853C12.1372 44.7488 12.1416 44.7064 12.1239 44.6676C12.1061 44.6288 12.0678 44.5965 12.0171 44.578C11.285 44.3133 10.6843 43.8925 10.2971 43.3729C10.2699 43.3376 10.2245 43.3113 10.1707 43.2998C10.1169 43.2882 10.0589 43.2923 10.0092 43.3111C9.95952 43.3299 9.922 43.3619 9.90469 43.4003C9.88739 43.4388 9.89166 43.4806 9.9166 43.5168C10.3437 44.0929 11.0074 44.5602 11.8172 44.8549C11.8473 44.8654 11.8805 44.8707 11.9139 44.8704C11.955 44.871 11.9954 44.8632 12.0304 44.8479C12.0655 44.8325 12.0937 44.8103 12.1117 44.7837V44.7853ZM9.84565 41.6526V39.804C9.84565 39.763 9.823 39.7236 9.78268 39.6946C9.74236 39.6656 9.68768 39.6493 9.63066 39.6493C9.57363 39.6493 9.51895 39.6656 9.47863 39.6946C9.43831 39.7236 9.41566 39.763 9.41566 39.804V41.6526C9.41566 41.6937 9.43831 41.733 9.47863 41.762C9.51895 41.791 9.57363 41.8073 9.63066 41.8073C9.68768 41.8073 9.74236 41.791 9.78268 41.762C9.823 41.733 9.84565 41.6937 9.84565 41.6526ZM9.84565 37.9569V36.1082C9.84565 36.0672 9.823 36.0279 9.78268 35.9988C9.74236 35.9698 9.68768 35.9535 9.63066 35.9535C9.57363 35.9535 9.51895 35.9698 9.47863 35.9988C9.43831 36.0279 9.41566 36.0672 9.41566 36.1082V37.9569C9.41566 37.9979 9.43831 38.0373 9.47863 38.0663C9.51895 38.0953 9.57363 38.1116 9.63066 38.1116C9.68768 38.1116 9.74236 38.0953 9.78268 38.0663C9.823 38.0373 9.84565 37.9979 9.84565 37.9569ZM9.84565 34.2596V33.4861C9.84332 33.1556 9.97888 32.8323 10.2348 32.5579C10.2664 32.5236 10.2779 32.4817 10.2666 32.4414C10.2553 32.4011 10.2222 32.3656 10.1746 32.3429C10.127 32.3201 10.0688 32.3119 10.0127 32.32C9.95666 32.3281 9.9074 32.3519 9.87575 32.3862C9.57481 32.7098 9.41464 33.0905 9.41566 33.4799V34.2534C9.41566 34.2944 9.43831 34.3338 9.47863 34.3628C9.51895 34.3918 9.57363 34.4081 9.63066 34.4081C9.68768 34.4081 9.74236 34.3918 9.78268 34.3628C9.823 34.3338 9.84565 34.2944 9.84565 34.2534V34.2596ZM97.0489 31.69C97.0758 31.6836 97.1006 31.6734 97.1219 31.66C97.1433 31.6466 97.1608 31.6303 97.1734 31.6121C97.186 31.5938 97.1934 31.5739 97.1953 31.5536C97.1972 31.5333 97.1935 31.5129 97.1843 31.4936C97.1662 31.4549 97.1275 31.4229 97.0768 31.4047C97.026 31.3864 96.9673 31.3834 96.9134 31.3961C96.5965 31.4715 96.2647 31.5097 95.9309 31.509H94.4259C94.3689 31.509 94.3142 31.5253 94.2739 31.5544C94.2336 31.5834 94.2109 31.6227 94.2109 31.6637C94.2109 31.7048 94.2336 31.7441 94.2739 31.7731C94.3142 31.8021 94.3689 31.8184 94.4259 31.8184H95.9309C96.3107 31.8185 96.688 31.7751 97.0489 31.69ZM92.076 31.6637C92.076 31.6227 92.0533 31.5834 92.013 31.5544C91.9727 31.5253 91.918 31.509 91.861 31.509H89.2939C89.2369 31.509 89.1822 31.5253 89.1419 31.5544C89.1016 31.5834 89.0789 31.6227 89.0789 31.6637C89.0789 31.7048 89.1016 31.7441 89.1419 31.7731C89.1822 31.8021 89.2369 31.8184 89.2939 31.8184H91.861C91.918 31.8184 91.9727 31.8021 92.013 31.7731C92.0533 31.7441 92.076 31.7048 92.076 31.6637ZM86.9397 31.6637C86.9397 31.6227 86.917 31.5834 86.8767 31.5544C86.8364 31.5253 86.7817 31.509 86.7247 31.509H84.1576C84.1006 31.509 84.0459 31.5253 84.0056 31.5544C83.9653 31.5834 83.9426 31.6227 83.9426 31.6637C83.9426 31.7048 83.9653 31.7441 84.0056 31.7731C84.0459 31.8021 84.1006 31.8184 84.1576 31.8184H86.7247C86.7817 31.8184 86.8364 31.8021 86.8767 31.7731C86.917 31.7441 86.9397 31.7048 86.9397 31.6637ZM81.8034 31.6637C81.8034 31.6227 81.7807 31.5834 81.7404 31.5544C81.7001 31.5253 81.6454 31.509 81.5884 31.509H79.0192C78.9621 31.509 78.9074 31.5253 78.8671 31.5544C78.8268 31.5834 78.8042 31.6227 78.8042 31.6637C78.8042 31.7048 78.8268 31.7441 78.8671 31.7731C78.9074 31.8021 78.9621 31.8184 79.0192 31.8184H81.5884C81.6454 31.8184 81.7001 31.8021 81.7404 31.7731C81.7807 31.7441 81.8034 31.7048 81.8034 31.6637ZM76.6671 31.6637C76.6671 31.6227 76.6444 31.5834 76.6041 31.5544C76.5638 31.5253 76.5091 31.509 76.4521 31.509H73.8721C73.8151 31.509 73.7604 31.5253 73.7201 31.5544C73.6797 31.5834 73.6571 31.6227 73.6571 31.6637C73.6571 31.7048 73.6797 31.7441 73.7201 31.7731C73.7604 31.8021 73.8151 31.8184 73.8721 31.8184H76.4521C76.5091 31.8184 76.5638 31.8021 76.6041 31.7731C76.6444 31.7441 76.6671 31.7048 76.6671 31.6637ZM71.5308 31.6637C71.5308 31.6227 71.5081 31.5834 71.4678 31.5544C71.4275 31.5253 71.3728 31.509 71.3158 31.509H68.7465C68.6895 31.509 68.6348 31.5253 68.5945 31.5544C68.5542 31.5834 68.5315 31.6227 68.5315 31.6637C68.5315 31.7048 68.5542 31.7441 68.5945 31.7731C68.6348 31.8021 68.6895 31.8184 68.7465 31.8184H71.3158C71.3728 31.8184 71.4275 31.8021 71.4678 31.7731C71.5081 31.7441 71.5308 31.7048 71.5308 31.6637ZM66.3923 31.6637C66.3923 31.6227 66.3697 31.5834 66.3293 31.5544C66.289 31.5253 66.2343 31.509 66.1773 31.509H63.6102C63.5532 31.509 63.4985 31.5253 63.4582 31.5544C63.4179 31.5834 63.3952 31.6227 63.3952 31.6637C63.3952 31.7048 63.4179 31.7441 63.4582 31.7731C63.4985 31.8021 63.5532 31.8184 63.6102 31.8184H66.1773C66.2343 31.8184 66.289 31.8021 66.3293 31.7731C66.3697 31.7441 66.3923 31.7048 66.3923 31.6637ZM61.256 31.6637C61.256 31.6227 61.2334 31.5834 61.193 31.5544C61.1527 31.5253 61.098 31.509 61.041 31.509H58.4739C58.4169 31.509 58.3622 31.5253 58.3219 31.5544C58.2816 31.5834 58.2589 31.6227 58.2589 31.6637C58.2589 31.7048 58.2816 31.7441 58.3219 31.7731C58.3622 31.8021 58.4169 31.8184 58.4739 31.8184H61.041C61.098 31.8184 61.1527 31.8021 61.193 31.7731C61.2334 31.7441 61.256 31.7048 61.256 31.6637ZM56.1197 31.6637C56.1197 31.6227 56.097 31.5834 56.0567 31.5544C56.0164 31.5253 55.9617 31.509 55.9047 31.509H53.3441C53.2871 31.509 53.2324 31.5253 53.1921 31.5544C53.1517 31.5834 53.1291 31.6227 53.1291 31.6637C53.1291 31.7048 53.1517 31.7441 53.1921 31.7731C53.2324 31.8021 53.2871 31.8184 53.3441 31.8184H55.9241C55.9777 31.815 56.0275 31.7971 56.0637 31.7685C56.0999 31.7398 56.1199 31.7025 56.1197 31.6637ZM50.9834 31.6637C50.9834 31.6227 50.9607 31.5834 50.9204 31.5544C50.8801 31.5253 50.8254 31.509 50.7684 31.509H48.1884C48.1314 31.509 48.0767 31.5253 48.0364 31.5544C47.9961 31.5834 47.9734 31.6227 47.9734 31.6637C47.9734 31.7048 47.9961 31.7441 48.0364 31.7731C48.0767 31.8021 48.1314 31.8184 48.1884 31.8184H50.7684C50.8247 31.8176 50.8783 31.801 50.9177 31.7721C50.957 31.7431 50.9791 31.7042 50.9791 31.6637H50.9834ZM45.8471 31.6637C45.8471 31.6227 45.8244 31.5834 45.7841 31.5544C45.7438 31.5253 45.6891 31.509 45.6321 31.509H43.0629C43.0058 31.509 42.9512 31.5253 42.9108 31.5544C42.8705 31.5834 42.8479 31.6227 42.8479 31.6637C42.8479 31.7048 42.8705 31.7441 42.9108 31.7731C42.9512 31.8021 43.0058 31.8184 43.0629 31.8184H45.6321C45.6891 31.8184 45.7438 31.8021 45.7841 31.7731C45.8244 31.7441 45.8471 31.7048 45.8471 31.6637ZM40.7086 31.6637C40.7086 31.6227 40.686 31.5834 40.6457 31.5544C40.6053 31.5253 40.5507 31.509 40.4936 31.509H37.9266C37.8695 31.509 37.8148 31.5253 37.7745 31.5544C37.7342 31.5834 37.7116 31.6227 37.7116 31.6637C37.7116 31.7048 37.7342 31.7441 37.7745 31.7731C37.8148 31.8021 37.8695 31.8184 37.9266 31.8184H40.4936C40.5507 31.8184 40.6053 31.8021 40.6457 31.7731C40.686 31.7441 40.7086 31.7048 40.7086 31.6637ZM35.5723 31.6637C35.5723 31.6227 35.5497 31.5834 35.5094 31.5544C35.469 31.5253 35.4144 31.509 35.3573 31.509H32.7903C32.7332 31.509 32.6785 31.5253 32.6382 31.5544C32.5979 31.5834 32.5753 31.6227 32.5753 31.6637C32.5753 31.7048 32.5979 31.7441 32.6382 31.7731C32.6785 31.8021 32.7332 31.8184 32.7903 31.8184H35.3573C35.4144 31.8184 35.469 31.8021 35.5094 31.7731C35.5497 31.7441 35.5723 31.7048 35.5723 31.6637ZM30.436 31.6637C30.436 31.6227 30.4134 31.5834 30.3731 31.5544C30.3327 31.5253 30.278 31.509 30.221 31.509H27.6518C27.5948 31.509 27.5401 31.5253 27.4998 31.5544C27.4595 31.5834 27.4368 31.6227 27.4368 31.6637C27.4368 31.7048 27.4595 31.7441 27.4998 31.7731C27.5401 31.8021 27.5948 31.8184 27.6518 31.8184H30.221C30.278 31.8184 30.3327 31.8021 30.3731 31.7731C30.4134 31.7441 30.436 31.7048 30.436 31.6637ZM25.2997 31.6637C25.2997 31.6227 25.2771 31.5834 25.2367 31.5544C25.1964 31.5253 25.1417 31.509 25.0847 31.509H22.5047C22.4477 31.509 22.393 31.5253 22.3527 31.5544C22.3124 31.5834 22.2897 31.6227 22.2897 31.6637C22.2897 31.7048 22.3124 31.7441 22.3527 31.7731C22.393 31.8021 22.4477 31.8184 22.5047 31.8184H25.0847C25.1417 31.8184 25.1964 31.8021 25.2367 31.7731C25.2771 31.7441 25.2997 31.7048 25.2997 31.6637ZM20.1634 31.6637C20.1634 31.6227 20.1408 31.5834 20.1004 31.5544C20.0601 31.5253 20.0054 31.509 19.9484 31.509H17.3684C17.3114 31.509 17.2567 31.5253 17.2164 31.5544C17.1761 31.5834 17.1534 31.6227 17.1534 31.6637C17.1534 31.7048 17.1761 31.7441 17.2164 31.7731C17.2567 31.8021 17.3114 31.8184 17.3684 31.8184H19.9484C20.0054 31.8184 20.0601 31.8021 20.1004 31.7731C20.1408 31.7441 20.1634 31.7048 20.1634 31.6637ZM15.025 31.6637C15.025 31.6227 15.0023 31.5834 14.962 31.5544C14.9217 31.5253 14.867 31.509 14.81 31.509H12.2429C12.1859 31.509 12.1312 31.5253 12.0909 31.5544C12.0505 31.5834 12.0279 31.6227 12.0279 31.6637C12.0279 31.7048 12.0505 31.7441 12.0909 31.7731C12.1312 31.8021 12.1859 31.8184 12.2429 31.8184H14.81C14.867 31.8184 14.9217 31.8021 14.962 31.7731C15.0023 31.7441 15.025 31.7048 15.025 31.6637ZM99.0892 30.4463C99.3549 30.0811 99.4935 29.675 99.4934 29.2628V28.5713C99.4934 28.5303 99.4708 28.4909 99.4305 28.4619C99.3901 28.4329 99.3354 28.4166 99.2784 28.4166C99.2214 28.4166 99.1667 28.4329 99.1264 28.4619C99.0861 28.4909 99.0634 28.5303 99.0634 28.5713V29.2628C99.0636 29.6249 98.9419 29.9816 98.7087 30.3024C98.6948 30.3204 98.686 30.3403 98.6829 30.3608C98.6798 30.3813 98.6824 30.402 98.6906 30.4218C98.6988 30.4415 98.7124 30.4599 98.7306 30.4758C98.7488 30.4917 98.7712 30.5049 98.7966 30.5145C98.822 30.5241 98.8498 30.5299 98.8783 30.5317C98.9069 30.5334 98.9356 30.5311 98.9629 30.5247C98.9901 30.5183 99.0154 30.5081 99.0371 30.4947C99.0588 30.4812 99.0765 30.4647 99.0892 30.4463ZM99.4934 26.7227V24.8756C99.4934 24.8345 99.4708 24.7952 99.4305 24.7662C99.3901 24.7372 99.3354 24.7209 99.2784 24.7209C99.2214 24.7209 99.1667 24.7372 99.1264 24.7662C99.0861 24.7952 99.0634 24.8345 99.0634 24.8756V26.7227C99.0634 26.7637 99.0861 26.803 99.1264 26.8321C99.1667 26.8611 99.2214 26.8774 99.2784 26.8774C99.3354 26.8774 99.3901 26.8611 99.4305 26.8321C99.4708 26.803 99.4934 26.7637 99.4934 26.7227ZM99.4934 23.0269V22.3865C99.4973 21.9544 99.3494 21.5287 99.0634 21.1489C99.0497 21.1311 99.0313 21.1154 99.0092 21.1028C98.9871 21.0901 98.9618 21.0807 98.9346 21.0751C98.9074 21.0695 98.879 21.0678 98.851 21.0701C98.8229 21.0724 98.7957 21.0787 98.771 21.0885C98.7217 21.1084 98.6852 21.1415 98.6695 21.1806C98.6538 21.2197 98.6602 21.2616 98.6872 21.2974C98.9397 21.6294 99.072 22.0018 99.072 22.3803V23.0207C99.072 23.0618 99.0947 23.1011 99.135 23.1301C99.1753 23.1591 99.23 23.1754 99.287 23.1754C99.344 23.1754 99.3987 23.1591 99.439 23.1301C99.4794 23.1011 99.502 23.0618 99.502 23.0207L99.4934 23.0269ZM97.1284 20.1356C97.1452 20.0964 97.1397 20.054 97.1131 20.0178C97.0865 19.9815 97.041 19.9543 96.9865 19.9422C96.6479 19.868 96.2957 19.8304 95.9417 19.8308H94.37C94.313 19.8308 94.2583 19.8471 94.218 19.8761C94.1777 19.9052 94.155 19.9445 94.155 19.9855C94.155 20.0266 94.1777 20.0659 94.218 20.0949C94.2583 20.1239 94.313 20.1402 94.37 20.1402H95.9417C96.2529 20.1396 96.5624 20.173 96.8597 20.2392C96.8811 20.2416 96.9028 20.2416 96.9242 20.2392C96.9672 20.2379 97.0086 20.2273 97.043 20.2088C97.0775 20.1903 97.1035 20.1648 97.1177 20.1356H97.1284ZM92.0179 19.9809C92.0179 19.9399 91.9953 19.9005 91.955 19.8715C91.9146 19.8425 91.86 19.8262 91.8029 19.8262H89.223C89.1659 19.8262 89.1113 19.8425 89.0709 19.8715C89.0306 19.9005 89.008 19.9399 89.008 19.9809C89.008 20.0219 89.0306 20.0613 89.0709 20.0903C89.1113 20.1193 89.1659 20.1356 89.223 20.1356H91.7922C91.8481 20.1356 91.9018 20.1199 91.942 20.0919C91.9821 20.0639 92.0055 20.0257 92.0072 19.9855L92.0179 19.9809ZM86.8795 19.9809C86.8795 19.9399 86.8568 19.9005 86.8165 19.8715C86.7762 19.8425 86.7215 19.8262 86.6645 19.8262H84.0888C84.0318 19.8262 83.9771 19.8425 83.9368 19.8715C83.8965 19.9005 83.8738 19.9399 83.8738 19.9809C83.8738 20.0219 83.8965 20.0613 83.9368 20.0903C83.9771 20.1193 84.0318 20.1356 84.0888 20.1356H86.6559C86.7114 20.1352 86.7646 20.1194 86.8043 20.0914C86.844 20.0634 86.8671 20.0255 86.8687 19.9855L86.8795 19.9809ZM81.7432 19.9809C81.7432 19.9399 81.7205 19.9005 81.6802 19.8715C81.6399 19.8425 81.5852 19.8262 81.5282 19.8262H78.9504C78.8933 19.8262 78.8386 19.8425 78.7983 19.8715C78.758 19.9005 78.7354 19.9399 78.7354 19.9809C78.7354 20.0219 78.758 20.0613 78.7983 20.0903C78.8386 20.1193 78.8933 20.1356 78.9504 20.1356H81.5088C81.5648 20.1356 81.6185 20.1199 81.6586 20.0919C81.6988 20.0639 81.7222 20.0257 81.7238 19.9855L81.7432 19.9809ZM76.6069 19.9809C76.6069 19.9399 76.5842 19.9005 76.5439 19.8715C76.5036 19.8425 76.4489 19.8262 76.3919 19.8262H73.8119C73.7549 19.8262 73.7002 19.8425 73.6599 19.8715C73.6195 19.9005 73.5969 19.9399 73.5969 19.9809C73.5969 20.0219 73.6195 20.0613 73.6599 20.0903C73.7002 20.1193 73.7549 20.1356 73.8119 20.1356H76.3811C76.437 20.1356 76.4908 20.1199 76.5309 20.0919C76.5711 20.0639 76.5944 20.0257 76.5961 19.9855L76.6069 19.9809ZM71.4706 19.9809C71.4706 19.9399 71.4479 19.9005 71.4076 19.8715C71.3673 19.8425 71.3126 19.8262 71.2556 19.8262H68.6756C68.6186 19.8262 68.5639 19.8425 68.5236 19.8715C68.4832 19.9005 68.4606 19.9399 68.4606 19.9809C68.4606 20.0219 68.4832 20.0613 68.5236 20.0903C68.5639 20.1193 68.6186 20.1356 68.6756 20.1356H71.2448C71.3007 20.1356 71.3545 20.1199 71.3946 20.0919C71.4347 20.0639 71.4581 20.0257 71.4598 19.9855L71.4706 19.9809ZM66.3343 19.9809C66.3343 19.9399 66.3116 19.9005 66.2713 19.8715C66.231 19.8425 66.1763 19.8262 66.1193 19.8262H63.5393C63.4823 19.8262 63.4276 19.8425 63.3873 19.8715C63.3469 19.9005 63.3243 19.9399 63.3243 19.9809C63.3243 20.0219 63.3469 20.0613 63.3873 20.0903C63.4276 20.1193 63.4823 20.1356 63.5393 20.1356H66.1085C66.1644 20.1356 66.2182 20.1199 66.2583 20.0919C66.2984 20.0639 66.3218 20.0257 66.3235 19.9855L66.3343 19.9809ZM61.1958 19.9809C61.1958 19.9399 61.1732 19.9005 61.1328 19.8715C61.0925 19.8425 61.0378 19.8262 60.9808 19.8262H58.403C58.346 19.8262 58.2913 19.8425 58.251 19.8715C58.2106 19.9005 58.188 19.9399 58.188 19.9809C58.188 20.0219 58.2106 20.0613 58.251 20.0903C58.2913 20.1193 58.346 20.1356 58.403 20.1356H60.9701C61.026 20.1356 61.0797 20.1199 61.1199 20.0919C61.16 20.0639 61.1834 20.0257 61.1851 19.9855L61.1958 19.9809ZM56.0595 19.9809C56.0595 19.9399 56.0368 19.9005 55.9965 19.8715C55.9562 19.8425 55.9015 19.8262 55.8445 19.8262H53.2667C53.2097 19.8262 53.155 19.8425 53.1146 19.8715C53.0743 19.9005 53.0517 19.9399 53.0517 19.9809C53.0517 20.0219 53.0743 20.0613 53.1146 20.0903C53.155 20.1193 53.2097 20.1356 53.2667 20.1356H55.8338C55.8897 20.1356 55.9434 20.1199 55.9835 20.0919C56.0237 20.0639 56.0471 20.0257 56.0487 19.9855L56.0595 19.9809ZM50.9232 19.9809C50.9232 19.9399 50.9005 19.9005 50.8602 19.8715C50.8199 19.8425 50.7652 19.8262 50.7082 19.8262H48.1282C48.0712 19.8262 48.0165 19.8425 47.9762 19.8715C47.9359 19.9005 47.9132 19.9399 47.9132 19.9809C47.9132 20.0219 47.9359 20.0613 47.9762 20.0903C48.0165 20.1193 48.0712 20.1356 48.1282 20.1356H50.6974C50.7534 20.1356 50.8071 20.1199 50.8472 20.0919C50.8874 20.0639 50.9108 20.0257 50.9124 19.9855L50.9232 19.9809ZM45.7869 19.9809C45.7869 19.9399 45.7642 19.9005 45.7239 19.8715C45.6836 19.8425 45.6289 19.8262 45.5719 19.8262H42.9919C42.9349 19.8262 42.8802 19.8425 42.8399 19.8715C42.7996 19.9005 42.7769 19.9399 42.7769 19.9809C42.7769 20.0219 42.7996 20.0613 42.8399 20.0903C42.8802 20.1193 42.9349 20.1356 42.9919 20.1356H45.5719C45.6259 20.1337 45.677 20.1171 45.7148 20.0893C45.7527 20.0615 45.7746 20.0244 45.7761 19.9855L45.7869 19.9809ZM40.6506 19.9809C40.6506 19.9399 40.6279 19.9005 40.5876 19.8715C40.5473 19.8425 40.4926 19.8262 40.4356 19.8262H37.8642C37.8072 19.8262 37.7525 19.8425 37.7122 19.8715C37.6719 19.9005 37.6492 19.9399 37.6492 19.9809C37.6492 20.0219 37.6719 20.0613 37.7122 20.0903C37.7525 20.1193 37.8072 20.1356 37.8642 20.1356H40.4334C40.4879 20.134 40.5394 20.1177 40.5777 20.0898C40.6161 20.062 40.6382 20.0247 40.6398 19.9855L40.6506 19.9809ZM35.5121 19.9809C35.5121 19.9399 35.4895 19.9005 35.4492 19.8715C35.4088 19.8425 35.3542 19.8262 35.2971 19.8262H32.7193C32.6623 19.8262 32.6076 19.8425 32.5673 19.8715C32.527 19.9005 32.5043 19.9399 32.5043 19.9809C32.5043 20.0219 32.527 20.0613 32.5673 20.0903C32.6076 20.1193 32.6623 20.1356 32.7193 20.1356H35.2842C35.3402 20.1356 35.3939 20.1199 35.434 20.0919C35.4742 20.0639 35.4976 20.0257 35.4992 19.9855L35.5121 19.9809ZM30.3758 19.9809C30.3758 19.9399 30.3532 19.9005 30.3129 19.8715C30.2725 19.8425 30.2178 19.8262 30.1608 19.8262H27.583C27.526 19.8262 27.4713 19.8425 27.431 19.8715C27.3907 19.9005 27.368 19.9399 27.368 19.9809C27.368 20.0219 27.3907 20.0613 27.431 20.0903C27.4713 20.1193 27.526 20.1356 27.583 20.1356H30.1501C30.206 20.1356 30.2597 20.1199 30.2999 20.0919C30.34 20.0639 30.3634 20.0257 30.3651 19.9855L30.3758 19.9809ZM25.2395 19.9809C25.2395 19.9399 25.2169 19.9005 25.1765 19.8715C25.1362 19.8425 25.0815 19.8262 25.0245 19.8262H22.4445C22.3875 19.8262 22.3328 19.8425 22.2925 19.8715C22.2522 19.9005 22.2295 19.9399 22.2295 19.9809C22.2295 20.0219 22.2522 20.0613 22.2925 20.0903C22.3328 20.1193 22.3875 20.1356 22.4445 20.1356H25.0138C25.0697 20.1356 25.1234 20.1199 25.1636 20.0919C25.2037 20.0639 25.2271 20.0257 25.2288 19.9855L25.2395 19.9809ZM20.2516 19.5168C20.2717 19.5024 20.2877 19.4853 20.2986 19.4664C20.3095 19.4476 20.3152 19.4274 20.3152 19.407C20.3152 19.3865 20.3095 19.3663 20.2986 19.3475C20.2877 19.3286 20.2717 19.3115 20.2516 19.2971C19.9886 19.1181 19.7795 18.9022 19.6371 18.6627C19.4947 18.4232 19.4221 18.1653 19.4238 17.9048V17.7378C19.4238 17.6967 19.4012 17.6574 19.3608 17.6284C19.3205 17.5994 19.2658 17.5831 19.2088 17.5831C19.1518 17.5831 19.0971 17.5994 19.0568 17.6284C19.0165 17.6574 18.9938 17.6967 18.9938 17.7378V17.9048C18.9922 18.207 19.0767 18.5062 19.242 18.7839C19.4073 19.0617 19.6499 19.3122 19.9549 19.5199C19.9947 19.5475 20.0479 19.563 20.1032 19.5632C20.1528 19.5596 20.1992 19.5438 20.2344 19.5183L20.2516 19.5168ZM19.4152 15.8922V14.0451C19.4152 14.0041 19.3926 13.9647 19.3522 13.9357C19.3119 13.9067 19.2572 13.8904 19.2002 13.8904C19.1432 13.8904 19.0885 13.9067 19.0482 13.9357C19.0079 13.9647 18.9852 14.0041 18.9852 14.0451V15.8937C18.9852 15.9348 19.0079 15.9741 19.0482 16.0031C19.0885 16.0321 19.1432 16.0484 19.2002 16.0484C19.2572 16.0484 19.3119 16.0321 19.3522 16.0031C19.3926 15.9741 19.4152 15.9348 19.4152 15.8937V15.8922ZM19.4152 12.1949V11.8082C19.4143 11.3485 19.6045 10.8992 19.9613 10.518C19.977 10.5004 19.9877 10.4808 19.9928 10.4602C19.998 10.4397 19.9974 10.4186 19.9912 10.3982C19.985 10.3778 19.9733 10.3585 19.9568 10.3413C19.9402 10.3242 19.9191 10.3096 19.8947 10.2983C19.8702 10.287 19.843 10.2793 19.8144 10.2756C19.7859 10.2719 19.7566 10.2723 19.7282 10.2768C19.6999 10.2812 19.673 10.2897 19.6492 10.3016C19.6254 10.3135 19.605 10.3287 19.5894 10.3463C19.1833 10.7783 18.9669 11.2881 18.968 11.8097V12.1964C18.968 12.2375 18.9907 12.2768 19.031 12.3058C19.0713 12.3348 19.126 12.3511 19.183 12.3511C19.24 12.3511 19.2947 12.3348 19.335 12.3058C19.3754 12.2768 19.398 12.2375 19.398 12.1964L19.4152 12.1949ZM21.8963 9.56502C22.1359 9.52478 22.3812 9.50453 22.6273 9.50469H24.4096C24.4666 9.50469 24.5213 9.48839 24.5617 9.45938C24.602 9.43037 24.6246 9.39102 24.6246 9.34999C24.6246 9.30896 24.602 9.26962 24.5617 9.2406C24.5213 9.21159 24.4666 9.19529 24.4096 9.19529H22.6273C22.3487 9.19542 22.071 9.21826 21.7995 9.26336C21.772 9.26792 21.746 9.27634 21.723 9.28814C21.7 9.29994 21.6804 9.31489 21.6654 9.33213C21.6505 9.34937 21.6404 9.36857 21.6357 9.38862C21.631 9.40867 21.6319 9.42919 21.6383 9.449C21.6497 9.48361 21.6772 9.51435 21.7164 9.53605C21.7555 9.55774 21.8039 9.56907 21.8533 9.56812C21.8644 9.56576 21.8752 9.56265 21.8855 9.55884L21.8963 9.56502ZM27.0111 9.46756C27.4617 9.41026 27.8922 9.28947 28.2777 9.11213C28.6633 8.93479 28.9964 8.7044 29.2578 8.43418C29.2903 8.40051 29.3028 8.35898 29.2927 8.31867C29.2827 8.27836 29.2508 8.24257 29.2041 8.21914C29.1573 8.19581 29.0996 8.18678 29.0436 8.19403C28.9875 8.20128 28.9378 8.22422 28.9052 8.25782C28.4422 8.73525 27.7346 9.06078 26.938 9.16281C26.881 9.16629 26.8282 9.18594 26.7913 9.21741C26.7544 9.24889 26.7364 9.28963 26.7413 9.33065C26.7461 9.37168 26.7734 9.40965 26.8172 9.43619C26.8609 9.46274 26.9175 9.47569 26.9746 9.4722L27.0111 9.46756ZM29.8663 6.57779V5.32164C29.8663 5.13698 29.8981 4.95304 29.9609 4.774C29.9709 4.75372 29.975 4.73215 29.9728 4.71067C29.9706 4.68919 29.9621 4.66828 29.9481 4.64928C29.934 4.63028 29.9145 4.6136 29.891 4.60032C29.8674 4.58703 29.8403 4.57743 29.8113 4.57213C29.7823 4.56684 29.752 4.56595 29.7225 4.56954C29.693 4.57313 29.6649 4.58112 29.6399 4.59298C29.6149 4.60485 29.5936 4.62034 29.5775 4.63846C29.5613 4.65657 29.5506 4.67692 29.5459 4.6982C29.4733 4.90031 29.4364 5.10823 29.4363 5.317V6.57315C29.4363 6.61418 29.4589 6.65353 29.4993 6.68254C29.5396 6.71155 29.5943 6.72785 29.6513 6.72785C29.7083 6.72785 29.763 6.71155 29.8033 6.68254C29.8436 6.65353 29.8663 6.61418 29.8663 6.57315V6.57779ZM31.3713 3.43586C31.834 3.24195 32.3601 3.13998 32.8956 3.14038H33.7556C33.8126 3.14038 33.8673 3.12409 33.9076 3.09507C33.9479 3.06606 33.9706 3.02671 33.9706 2.98569C33.9706 2.94466 33.9479 2.90531 33.9076 2.8763C33.8673 2.84729 33.8126 2.83099 33.7556 2.83099H32.8956C32.2839 2.83048 31.6829 2.94686 31.1541 3.16823C31.1297 3.17847 31.1083 3.19207 31.0911 3.20827C31.074 3.22447 31.0615 3.24295 31.0543 3.26264C31.0471 3.28233 31.0454 3.30284 31.0492 3.32301C31.0531 3.34318 31.0624 3.3626 31.0767 3.38017C31.0909 3.39777 31.1099 3.41317 31.1324 3.4255C31.1549 3.43782 31.1806 3.44683 31.2079 3.45201C31.2353 3.45718 31.2638 3.45842 31.2918 3.45565C31.3199 3.45288 31.3469 3.44615 31.3713 3.43586ZM75.0589 2.98569C75.0589 2.94466 75.0362 2.90531 74.9959 2.8763C74.9556 2.84729 74.9009 2.83099 74.8439 2.83099H72.279C72.2219 2.83099 72.1673 2.84729 72.1269 2.8763C72.0866 2.90531 72.064 2.94466 72.064 2.98569C72.064 3.02671 72.0866 3.06606 72.1269 3.09507C72.1673 3.12409 72.2219 3.14038 72.279 3.14038H74.8439C74.9009 3.14038 74.9556 3.12409 74.9959 3.09507C75.0362 3.06606 75.0589 3.02671 75.0589 2.98569ZM69.9226 2.98569C69.9226 2.94466 69.8999 2.90531 69.8596 2.8763C69.8193 2.84729 69.7646 2.83099 69.7076 2.83099H67.1427C67.0856 2.83099 67.0309 2.84729 66.9906 2.8763C66.9503 2.90531 66.9277 2.94466 66.9277 2.98569C66.9277 3.02671 66.9503 3.06606 66.9906 3.09507C67.0309 3.12409 67.0856 3.14038 67.1427 3.14038H69.7119C69.7689 3.14038 69.8236 3.12409 69.8639 3.09507C69.9042 3.06606 69.9269 3.02671 69.9269 2.98569H69.9226ZM64.7863 2.98569C64.7863 2.94466 64.7636 2.90531 64.7233 2.8763C64.683 2.84729 64.6283 2.83099 64.5713 2.83099H62.0064C61.9493 2.83099 61.8946 2.84729 61.8543 2.8763C61.814 2.90531 61.7914 2.94466 61.7914 2.98569C61.7914 3.02671 61.814 3.06606 61.8543 3.09507C61.8946 3.12409 61.9493 3.14038 62.0064 3.14038H64.5756C64.6326 3.14038 64.6873 3.12409 64.7276 3.09507C64.7679 3.06606 64.7906 3.02671 64.7906 2.98569H64.7863ZM59.6478 2.98569C59.6478 2.94466 59.6252 2.90531 59.5848 2.8763C59.5445 2.84729 59.4898 2.83099 59.4328 2.83099H56.87C56.813 2.83099 56.7583 2.84729 56.718 2.8763C56.6777 2.90531 56.655 2.94466 56.655 2.98569C56.655 3.02671 56.6777 3.06606 56.718 3.09507C56.7583 3.12409 56.813 3.14038 56.87 3.14038H59.4371C59.4941 3.14038 59.5488 3.12409 59.5891 3.09507C59.6295 3.06606 59.6521 3.02671 59.6521 2.98569H59.6478ZM54.5115 2.98569C54.5115 2.94466 54.4889 2.90531 54.4485 2.8763C54.4082 2.84729 54.3535 2.83099 54.2965 2.83099H51.7337C51.6767 2.83099 51.622 2.84729 51.5817 2.8763C51.5414 2.90531 51.5187 2.94466 51.5187 2.98569C51.5187 3.02671 51.5414 3.06606 51.5817 3.09507C51.622 3.12409 51.6767 3.14038 51.7337 3.14038H54.3008C54.3578 3.14038 54.4125 3.12409 54.4528 3.09507C54.4932 3.06606 54.5158 3.02671 54.5158 2.98569H54.5115ZM49.3752 2.98569C49.3752 2.94466 49.3526 2.90531 49.3122 2.8763C49.2719 2.84729 49.2172 2.83099 49.1602 2.83099H46.5953C46.5383 2.83099 46.4836 2.84729 46.4433 2.8763C46.4029 2.90531 46.3803 2.94466 46.3803 2.98569C46.3803 3.02671 46.4029 3.06606 46.4433 3.09507C46.4836 3.12409 46.5383 3.14038 46.5953 3.14038H49.1645C49.2215 3.14038 49.2762 3.12409 49.3165 3.09507C49.3569 3.06606 49.3795 3.02671 49.3795 2.98569H49.3752ZM44.2389 2.98569C44.2389 2.94466 44.2163 2.90531 44.1759 2.8763C44.1356 2.84729 44.0809 2.83099 44.0239 2.83099H41.459C41.402 2.83099 41.3473 2.84729 41.307 2.8763C41.2666 2.90531 41.244 2.94466 41.244 2.98569C41.244 3.02671 41.2666 3.06606 41.307 3.09507C41.3473 3.12409 41.402 3.14038 41.459 3.14038H44.0282C44.0852 3.14038 44.1399 3.12409 44.1802 3.09507C44.2206 3.06606 44.2432 3.02671 44.2432 2.98569H44.2389ZM39.1026 2.98569C39.1026 2.94466 39.0799 2.90531 39.0396 2.8763C38.9993 2.84729 38.9446 2.83099 38.8876 2.83099H36.3227C36.2657 2.83099 36.211 2.84729 36.1706 2.8763C36.1303 2.90531 36.1077 2.94466 36.1077 2.98569C36.1077 3.02671 36.1303 3.06606 36.1706 3.09507C36.211 3.12409 36.2657 3.14038 36.3227 3.14038H38.8919C38.9489 3.14038 39.0036 3.12409 39.0439 3.09507C39.0842 3.06606 39.1069 3.02671 39.1069 2.98569H39.1026ZM71.1674 43.4935V42.5654C71.1674 42.5243 71.1448 42.485 71.1045 42.456C71.0641 42.427 71.0094 42.4107 70.9524 42.4107C70.8954 42.4107 70.8407 42.427 70.8004 42.456C70.7601 42.485 70.7374 42.5243 70.7374 42.5654V43.4935C70.7374 43.5346 70.7601 43.5739 70.8004 43.6029C70.8407 43.632 70.8954 43.6483 70.9524 43.6483C71.0094 43.6483 71.0641 43.632 71.1045 43.6029C71.1448 43.5739 71.1674 43.5346 71.1674 43.4935Z" fill="black"/>
<path opacity="0.1" d="M15.1559 19.6157V18.8237H14.4464V19.6157H12.6705V18.8237H11.961V19.6157H10.1851V18.8237H9.48421V19.6157H8.70807V24.4114H15.9213V19.6157H15.1559ZM10.9892 23.3223H9.85186V22.504H10.9892V23.3223ZM10.9892 22.0275H9.85186V21.2091H10.9892V22.0275ZM12.8833 23.3223H11.746V22.504H12.8833V23.3223ZM12.8833 22.0275H11.746V21.2091H12.8833V22.0275ZM14.7775 23.3223H13.6401V22.504H14.7775V23.3223ZM14.7775 22.0275H13.6401V21.2091H14.7775V22.0275Z" fill="black"/>
<path opacity="0.1" d="M56.8655 58.7543V57.9623H56.156V58.7543H54.3801V57.9623H53.6706V58.7543H51.8948V57.9623H51.1939V58.7543H50.4285V63.55H57.6417V58.7543H56.8655ZM52.6988 62.4671H51.5615V61.6488H52.6988V62.4671ZM52.6988 61.1723H51.5615V60.3477H52.6988V61.1723ZM54.593 62.4671H53.4556V61.6488H54.593V62.4671ZM54.593 61.1723H53.4556V60.3477H54.593V61.1723ZM56.4871 62.4671H55.3498V61.6488H56.4871V62.4671ZM56.4871 61.1723H55.3498V60.3477H56.4871V61.1723Z" fill="black"/>
<path opacity="0.1" d="M90.4463 1.1617V0.371185H89.7368V1.1617H87.9588V0.371185H87.2493V1.1617H85.4756V0.371185H84.7639V1.1617H83.9985V5.95736H91.2117V1.1617H90.4463ZM86.2797 4.87447H85.1423V4.04992H86.2797V4.87447ZM86.2797 3.57964H85.1423V2.75509H86.2797V3.57964ZM88.1738 4.86828H87.0365V4.04992H88.1738V4.86828ZM88.1738 3.57345H87.0365V2.75509H88.1738V3.57345ZM90.0679 4.86828H88.9306V4.04992H90.0679V4.86828ZM90.0679 3.57345H88.9306V2.75509H90.0679V3.57345Z" fill="black"/>
<path d="M35.2615 7.44092H91.161C91.2767 7.44072 91.3912 7.45693 91.4982 7.48864C91.6051 7.52034 91.7023 7.56692 91.7842 7.62569C91.8661 7.68446 91.931 7.75428 91.9754 7.83115C92.0197 7.90802 92.0425 7.99042 92.0425 8.07364V48.0695H34.3821V8.07364C34.3821 7.99055 34.4049 7.90827 34.4491 7.83151C34.4933 7.75474 34.558 7.68499 34.6397 7.62624C34.7213 7.56749 34.8183 7.52088 34.925 7.48908C35.0317 7.45729 35.146 7.44092 35.2615 7.44092Z" fill="#E5E5E5"/>
<path d="M44.2613 21.0207C44.2617 21.2335 44.1744 21.4416 44.0104 21.6186C43.8463 21.7956 43.613 21.9337 43.3399 22.0153C43.0668 22.0968 42.7661 22.1182 42.4761 22.0768C42.186 22.0354 41.9196 21.9329 41.7105 21.7825C41.5014 21.632 41.359 21.4403 41.3014 21.2316C41.2438 21.0229 41.2736 20.8066 41.387 20.6101C41.5003 20.4136 41.6922 20.2457 41.9383 20.1276C42.1843 20.0096 42.4735 19.9468 42.7692 19.9471C43.1648 19.9475 43.544 20.0607 43.8236 20.262C44.1033 20.4632 44.2607 20.7361 44.2613 21.0207Z" fill="#CCCCCC"/>
<path d="M92.0423 11.977L84.5797 17.1331C83.4866 17.0665 82.387 17.0769 81.2967 17.164C81.2467 17.166 81.1966 17.1606 81.1497 17.1481C81.1027 17.1355 81.0598 17.1162 81.0236 17.0913C79.6261 16.3023 78.3232 10.5553 77.7578 7.44118H77.3493C77.7987 9.91636 79.1123 16.3843 80.7721 17.3218C80.8506 17.3708 80.9422 17.4079 81.0412 17.4308C81.1403 17.4536 81.2447 17.4618 81.3483 17.4548C82.2915 17.3748 83.2429 17.3572 84.1905 17.4022L78.1512 21.5791L69.6545 17.0495C69.2308 16.8236 68.707 16.7169 68.1816 16.7493C67.6562 16.7818 67.1654 16.9513 66.8015 17.2259C65.8878 17.9143 65.1955 18.4712 64.7397 18.8812C64.1377 19.4211 63.1874 20.2734 62.1274 21.2016L58.9691 19.3716C60.8439 17.5925 62.465 16.0548 63.4217 15.2628C65.3675 13.6523 69.8717 9.58995 72.2367 7.44737H71.7164C69.3105 9.62862 65.0041 13.5085 63.1164 15.0709C62.1511 15.8692 60.5365 17.4084 58.6531 19.1906L54.3531 16.6984C54.3773 16.6689 54.3858 16.6341 54.3773 16.6005C54.3687 16.5668 54.3436 16.5365 54.3065 16.5151C54.2695 16.4937 54.2229 16.4826 54.1754 16.4839C54.1279 16.4851 54.0826 16.4987 54.0478 16.522L49.8252 14.0762C49.8049 14.0619 49.7807 14.0507 49.754 14.0435C49.7274 14.0363 49.6989 14.0332 49.6705 14.0344C49.6421 14.0355 49.6143 14.0409 49.589 14.0503C49.5636 14.0596 49.5413 14.0727 49.5234 14.0886C49.5055 14.1045 49.4924 14.123 49.485 14.1427C49.4775 14.1625 49.4759 14.1832 49.4803 14.2034C49.4846 14.2237 49.4948 14.2431 49.5101 14.2603C49.5255 14.2776 49.5457 14.2923 49.5694 14.3036L53.792 16.7494C53.1878 17.3079 51.4915 18.8827 50.281 20.0584L38.9635 13.7807C38.9205 13.7598 38.868 13.7514 38.8168 13.7573C38.7655 13.7632 38.7192 13.783 38.6875 13.8125C38.6557 13.8421 38.6408 13.8793 38.6457 13.9165C38.6507 13.9537 38.6751 13.9881 38.7141 14.0128L50.0402 20.2951C49.7908 20.5395 49.5694 20.7592 49.3953 20.9433C48.0537 22.3356 46.2584 23.6644 43.1087 22.9389C39.8837 22.1964 39.4537 20.49 39.4537 20.4189C39.4456 20.3842 39.4214 20.3526 39.3849 20.3291L36.4438 18.5114C36.6588 17.3821 36.9103 15.7965 37.1855 13.5611C37.4779 11.1957 37.708 8.83347 37.8305 7.43964H37.4328C37.1081 10.9977 36.6029 15.4515 36.0804 18.2856L34.5389 17.3419V17.7287L36.0138 18.6414C35.745 20.0337 35.472 20.9619 35.2204 21.0903C34.983 21.1694 34.755 21.2625 34.5389 21.3687V21.7245C34.804 21.5828 35.0877 21.46 35.386 21.3579C35.5601 21.3022 35.8934 21.2032 36.375 18.8641L39.0538 20.521C39.1506 20.8474 39.7934 22.4856 42.9776 23.2189C43.5622 23.3592 44.1737 23.4328 44.79 23.437C47.1356 23.437 48.6385 22.2397 49.722 21.1166C49.894 20.9371 50.1133 20.7205 50.367 20.4807L54.7229 22.8971C52.3859 25.0629 50.0854 27.074 48.4772 28.1569C46.5594 29.4409 44.1407 30.9415 42.1713 32.145C39.4129 30.8425 36.8265 29.4347 36.7964 29.4161H36.7835L36.7706 29.4084L34.5518 28.5421V28.8747L36.1234 29.4935C35.7472 29.5616 35.1882 29.659 34.5518 29.7534V30.0272C35.5386 29.8818 36.3513 29.7286 36.6308 29.6745C37.0845 29.9205 39.3849 31.1565 41.851 32.3229C39.9912 33.4538 38.6088 34.2675 38.5808 34.2845C38.5408 34.3102 38.5156 34.3456 38.51 34.384C38.5044 34.4223 38.519 34.4608 38.5507 34.4918C38.5867 34.5204 38.6361 34.5383 38.6894 34.542C38.7427 34.5457 38.796 34.535 38.8388 34.5119C38.8668 34.4949 40.2965 33.6518 42.2057 32.4916C42.7733 32.7561 43.3431 33.0144 43.8977 33.2542L45.1877 33.8003C46.2971 34.2721 47.6473 34.8476 48.9825 35.4525L45.0867 38.4985C45.0613 38.5193 45.044 38.5446 45.0369 38.5718C45.0297 38.599 45.0328 38.6272 45.0458 38.6532C45.0608 38.6784 45.0849 38.7003 45.1155 38.7166C45.1461 38.7329 45.1821 38.743 45.22 38.746C45.2565 38.746 48.8234 38.9703 51.7215 41.9081C54.2435 44.4637 56.6364 46.6125 60.8611 48.0682H61.8501C57.1911 46.6403 54.695 44.4157 52.0526 41.7379C49.5866 39.2364 46.6927 38.6346 45.6478 38.4892L49.3329 35.6103C51.9967 36.8339 54.5122 38.1613 54.8111 39.0214C55.241 40.276 57.3609 41.823 58.3779 42.5655C58.638 42.7558 58.8616 42.9198 58.9111 42.9739C59.1949 43.2833 61.061 44.0429 61.4244 44.193L61.4695 44.2053C61.835 44.2796 64.0796 44.7189 65.8598 44.7189C66.7886 44.7189 67.5905 44.5998 67.9345 44.2456C68.4849 43.6825 70.0845 42.7759 71.3745 42.0488C72.2861 41.5322 73.0751 41.0866 73.3632 40.8376C73.4428 40.7679 73.8083 40.5282 74.3931 40.1445L75.911 41.2367L64.3226 48.0635H64.9676L76.2012 41.444L78.205 42.8858L70.1103 48.0635H70.7231L78.6371 43.0018C78.6576 42.9882 78.6739 42.9717 78.6851 42.9533C78.6962 42.9349 78.702 42.9151 78.702 42.895C78.702 42.875 78.6962 42.8552 78.6851 42.8368C78.6739 42.8184 78.6576 42.8019 78.6371 42.7883L76.5108 41.2583L86.2438 35.5221L89.5504 37.4373L77.3235 45.2573C77.1135 45.392 76.9652 45.5693 76.8981 45.7658C76.831 45.9624 76.8484 46.169 76.9478 46.3583C77.0472 46.5476 77.2241 46.7108 77.4551 46.8264C77.686 46.9419 77.9603 47.0043 78.2415 47.0054C78.562 47.0047 78.8723 46.925 79.1209 46.7795L91.8832 38.7878L92.0638 38.893V38.2866L91.8724 38.4057L90.1804 37.4264L92.0638 36.2213V35.83L89.86 37.2393L86.5663 35.3318L92.0423 32.1002V31.7289L86.2158 35.1508L84.1475 33.9519C86.8845 32.2332 89.7052 30.4696 92.038 29.0124V28.6241C90.3954 29.6497 87.1661 31.6686 83.825 33.7663L79.7401 31.4009C83.337 28.8515 88.1745 25.4002 88.9399 24.7272C90.2298 23.5917 90.7394 20.2843 89.5031 18.7033C88.7571 17.7488 86.9232 17.3295 85.1043 17.1717L92.0358 12.3761L92.0423 11.977ZM89.8471 37.6291L91.5349 38.6068L78.8328 46.5614C78.6332 46.6822 78.3751 46.7411 78.1152 46.725C77.8554 46.7089 77.6151 46.6192 77.4471 46.4756C77.2792 46.332 77.1974 46.1462 77.2198 45.9593C77.2422 45.7723 77.3669 45.5993 77.5665 45.4785L89.8471 37.6291ZM65.0536 19.0652C65.4836 18.6677 66.1995 18.103 67.0917 17.4285C67.3876 17.2062 67.786 17.0692 68.2122 17.043C68.6384 17.0168 69.0633 17.1033 69.4073 17.2862L77.8524 21.7818L71.1423 26.4227L62.4413 21.3795C63.8926 20.1048 65.0235 19.0885 65.0536 19.0606V19.0652ZM58.7176 19.6005L61.863 21.4229C60.6719 22.4671 59.3712 23.5886 58.2854 24.4967L55.2754 22.8322C56.4536 21.7493 57.6254 20.6385 58.7176 19.6005ZM50.5949 20.2317C51.7989 19.0606 53.4931 17.4889 54.0994 16.9273L58.3994 19.4164C57.305 20.4575 56.1311 21.5683 54.9594 22.6527L50.5949 20.2317ZM48.7417 28.3549C50.3692 27.272 52.6847 25.2331 55.0325 23.0627L58.0188 24.7195C57.0126 25.5518 56.2322 26.1566 55.9677 26.2665C55.2518 26.562 49.6167 28.5684 46.9959 29.5012C47.6065 29.1083 48.1956 28.7231 48.7438 28.3549H48.7417ZM49.2383 35.2359C47.9075 34.631 46.5422 34.0509 45.3683 33.5512C44.9061 33.3548 44.4761 33.1722 44.0934 33.0067C43.5753 32.7824 43.0442 32.5426 42.5153 32.2966C43.5495 31.6655 44.7018 30.9538 45.8392 30.236C46.2219 30.0999 55.2217 26.9085 56.1591 26.5233C56.4622 26.398 57.3029 25.7498 58.3542 24.8804H58.365C58.3962 24.8806 58.427 24.8755 58.455 24.8655C58.483 24.8556 58.5074 24.8411 58.5262 24.8231C58.5439 24.8067 58.5563 24.7876 58.5626 24.7673C58.569 24.747 58.569 24.7259 58.5628 24.7056C59.6851 23.7774 61.0094 22.6249 62.1704 21.6116L70.8435 26.6238L66.3822 29.707H66.3715L59.44 35.8454L53.2115 32.3322C53.1699 32.3109 53.1193 32.301 53.0684 32.3041C53.0176 32.3072 52.97 32.3232 52.9341 32.3492L49.2383 35.2359ZM67.5755 44.0847C66.8681 44.8118 63.0283 44.227 61.577 43.93C60.7514 43.5943 59.4013 43.0018 59.225 42.8131C59.0447 42.6534 58.8501 42.5025 58.6423 42.3613C57.6512 41.6373 55.5893 40.129 55.1808 38.958C54.8519 38.0097 52.33 36.6591 49.5909 35.3999L53.1083 32.6524L59.3432 36.1811C59.386 36.2031 59.4385 36.2131 59.4908 36.2091C59.5431 36.2051 59.5916 36.1874 59.627 36.1595L66.3758 30.1819L68.4871 43.3823C68.1526 43.5944 67.848 43.8296 67.5776 44.0847H67.5755ZM74.2125 39.8521C73.5395 40.2884 73.1095 40.5761 73.0149 40.6566C72.7548 40.8809 71.94 41.3403 71.08 41.8245C70.3275 42.2515 69.5212 42.7094 68.8483 43.1333L66.737 29.8725L71.1617 26.8141L79.1295 31.4195C77.087 32.8675 75.5175 33.9705 75.4745 33.9999C75.4437 34.0227 75.4234 34.0519 75.4165 34.0834L74.2125 39.8521ZM83.8336 34.1484L85.8912 35.3411L76.1926 41.0557L74.6618 39.9542C76.5237 38.7507 80.0798 36.5075 83.8358 34.1484H83.8336ZM83.5112 33.9612C80.1249 36.0883 76.6721 38.2665 74.6962 39.5443L75.8142 34.1793C76.1346 33.9535 77.6052 32.9185 79.4563 31.6082L83.5112 33.9612ZM79.4262 31.2153L71.4713 26.6037L78.1942 21.9628L86.3212 26.2943C84.3862 27.6882 81.66 29.6312 79.4219 31.2153H79.4262ZM89.1549 18.8394C90.3008 20.309 89.8213 23.4881 88.6303 24.5354C88.3723 24.7628 87.6219 25.3275 86.6007 26.0731L78.4823 21.7415L84.7323 17.4332C86.62 17.5709 88.4712 17.9777 89.1505 18.8456L89.1549 18.8394Z" fill="white"/>
<path d="M90.0562 43.3774H57.6754V47.3949H90.0562V43.3774Z" fill="white"/>
<path d="M61.988 45.2956H59.8574V47.0483H61.988V45.2956Z" fill="#EC2226"/>
<path d="M64.9314 45.2586H62.8007V47.0485H64.9314V45.2586Z" fill="#EC2226"/>
<path d="M67.8747 44.8583H65.7441V47.0488H67.8747V44.8583Z" fill="#EC2226"/>
<path d="M70.8181 45.8806H68.6875V47.0485H70.8181V45.8806Z" fill="#EC2226"/>
<path d="M73.7615 44.7112H71.6309V47.0487H73.7615V44.7112Z" fill="#EC2226"/>
<path d="M76.7067 45.4057H74.5761V47.0486H76.7067V45.4057Z" fill="#EC2226"/>
<path d="M79.6501 46.1714H77.5195V47.0486H79.6501V46.1714Z" fill="#EC2226"/>
<path d="M82.5956 45.7335H80.4628V47.0484H82.5956V45.7335Z" fill="#EC2226"/>
<path d="M85.5368 46.0989H83.4062V47.0487H85.5368V46.0989Z" fill="#EC2226"/>
<path d="M88.4821 44.7112H86.3514V47.0487H88.4821V44.7112Z" fill="#EC2226"/>
<path d="M34.5391 48.0696H48.944C47.9571 47.7292 46.4737 47.194 46.2931 47.0006C46.0222 46.7082 44.5301 44.8518 43.7131 44.7544C42.8961 44.6569 42.6273 45.3407 42.6273 45.3407L44.3903 47.392L43.7131 47.0981C43.7131 47.0981 42.0834 45.828 41.677 45.6331C41.2707 45.4381 41.677 44.6569 41.8125 44.0706C41.9479 43.4843 42.8875 43.0944 43.1691 42.6056C43.4508 42.1167 43.1691 40.6518 43.1691 40.1645C43.1691 39.6772 41.9479 38.2106 41.1331 37.038C40.3183 35.8654 37.605 33.6207 36.1107 33.1318C35.6062 32.9825 35.075 32.8852 34.5327 32.8426L34.5391 48.0696Z" fill="#CCCCCC"/>
<path d="M68.4231 19.0667L66.2516 21.0205L68.9671 23.5607L73.9894 21.7043L68.4231 19.0667Z" fill="#CCCCCC"/>
<path d="M71.1381 27.8582L68.0163 30.007L69.2375 34.7918L72.6302 35.4756L73.718 33.4243L76.9753 31.1781L71.1381 27.8582Z" fill="#CCCCCC"/>
<path d="M35.2615 7.44092H91.161C91.2767 7.44072 91.3912 7.45693 91.4982 7.48864C91.6051 7.52034 91.7023 7.56692 91.7842 7.62569C91.8661 7.68446 91.931 7.75428 91.9754 7.83115C92.0197 7.90802 92.0425 7.99042 92.0425 8.07364V48.0695H34.3821V8.07364C34.3821 7.99055 34.4049 7.90827 34.4491 7.83151C34.4933 7.75474 34.558 7.68499 34.6397 7.62624C34.7213 7.56749 34.8183 7.52088 34.925 7.48908C35.0317 7.45729 35.146 7.44092 35.2615 7.44092Z" stroke="#263238" stroke-linecap="round" stroke-linejoin="round"/>
<path d="M35.2615 7.44092H91.161C91.2767 7.44072 91.3912 7.45693 91.4982 7.48864C91.6051 7.52034 91.7023 7.56692 91.7842 7.62569C91.8661 7.68446 91.931 7.75428 91.9754 7.83115C92.0197 7.90802 92.0425 7.99042 92.0425 8.07364V15.2532H34.3821V8.07364C34.3821 7.99055 34.4049 7.90827 34.4491 7.83151C34.4933 7.75474 34.558 7.68499 34.6397 7.62624C34.7213 7.56749 34.8183 7.52088 34.925 7.48908C35.0317 7.45729 35.146 7.44092 35.2615 7.44092Z" fill="#EC2226" stroke="#263238" stroke-linecap="round" stroke-linejoin="round"/>
<path d="M83.6255 12.3281H38.1534V13.6956H83.6255V12.3281Z" fill="white" stroke="#263238" stroke-linecap="round" stroke-linejoin="round"/>
<path d="M91.204 7.44093H38.1167V10.9588H92.0425V8.03961C92.0423 7.96066 92.0203 7.88252 91.978 7.80967C91.9357 7.73682 91.8738 7.6707 91.7959 7.61509C91.718 7.55947 91.6257 7.51546 91.5241 7.48558C91.4225 7.45569 91.3138 7.44052 91.204 7.44093Z" fill="#808080" stroke="#263238" stroke-linecap="round" stroke-linejoin="round"/>
<path d="M35.2615 7.44092H91.161C91.2767 7.44072 91.3912 7.45693 91.4982 7.48864C91.6051 7.52034 91.7023 7.56692 91.7842 7.62569C91.8661 7.68446 91.931 7.75428 91.9754 7.83115C92.0197 7.90802 92.0425 7.99042 92.0425 8.07364V9.72891H34.3821V8.07364C34.3821 7.99055 34.4049 7.90827 34.4491 7.83151C34.4933 7.75474 34.558 7.68499 34.6397 7.62624C34.7213 7.56749 34.8183 7.52088 34.925 7.48908C35.0317 7.45729 35.146 7.44092 35.2615 7.44092Z" fill="#263238" stroke="#263238" stroke-linecap="round" stroke-linejoin="round"/>
<path d="M89.6688 8.93724C89.9086 8.93724 90.1031 8.79733 90.1031 8.62475C90.1031 8.45216 89.9086 8.31226 89.6688 8.31226C89.4289 8.31226 89.2345 8.45216 89.2345 8.62475C89.2345 8.79733 89.4289 8.93724 89.6688 8.93724Z" fill="white"/>
<path d="M87.8761 8.93724C88.116 8.93724 88.3104 8.79733 88.3104 8.62475C88.3104 8.45216 88.116 8.31226 87.8761 8.31226C87.6363 8.31226 87.4418 8.45216 87.4418 8.62475C87.4418 8.79733 87.6363 8.93724 87.8761 8.93724Z" fill="white"/>
<path d="M86.0829 8.93724C86.3227 8.93724 86.5171 8.79733 86.5171 8.62475C86.5171 8.45216 86.3227 8.31226 86.0829 8.31226C85.843 8.31226 85.6486 8.45216 85.6486 8.62475C85.6486 8.79733 85.843 8.93724 86.0829 8.93724Z" fill="white"/>
<path d="M76.972 21.3639H69.8125C69.6791 21.3637 69.5469 21.3824 69.4235 21.419C69.3002 21.4556 69.188 21.5094 69.0936 21.5772C68.9991 21.645 68.9242 21.7256 68.873 21.8143C68.8219 21.9029 68.7956 21.998 68.7956 22.094V26.933C68.7956 27.029 68.8219 27.1241 68.873 27.2128C68.9242 27.3015 68.9991 27.3821 69.0936 27.4499C69.188 27.5177 69.3002 27.5715 69.4235 27.6081C69.5469 27.6447 69.6791 27.6634 69.8125 27.6632H71.9303L73.4869 29.8723L74.9166 27.6678H76.972C77.2411 27.6678 77.4992 27.5909 77.6895 27.454C77.8798 27.317 77.9868 27.1313 77.9868 26.9377V22.094C77.9868 21.9004 77.8798 21.7147 77.6895 21.5777C77.4992 21.4408 77.2411 21.3639 76.972 21.3639Z" fill="#263238" stroke="#263238" stroke-linecap="round" stroke-linejoin="round"/>
<path d="M72.0483 23.714L72.2955 22.5306H72.8029V24.1982H72.4589V23.0024L72.2074 24.1982H71.8634L71.5903 23.0194V24.1982H71.2743V22.5306H71.7795L72.0483 23.714Z" fill="#EC2226"/>
<path d="M73.0284 22.9314C73.0284 22.8259 73.0866 22.7248 73.1902 22.6503C73.2938 22.5757 73.4344 22.5338 73.5809 22.5338C73.7275 22.5338 73.868 22.5757 73.9716 22.6503C74.0753 22.7248 74.1335 22.8259 74.1335 22.9314V23.7977C74.1335 23.9031 74.0753 24.0043 73.9716 24.0788C73.868 24.1534 73.7275 24.1953 73.5809 24.1953C73.4344 24.1953 73.2938 24.1534 73.1902 24.0788C73.0866 24.0043 73.0284 23.9031 73.0284 23.7977V22.9314ZM73.3917 23.8147C73.3917 23.9338 73.4648 23.9787 73.5809 23.9787C73.697 23.9787 73.768 23.9338 73.768 23.8147V22.9113C73.768 22.7922 73.6949 22.7473 73.5809 22.7473C73.467 22.7473 73.3917 22.7922 73.3917 22.9113V23.8147Z" fill="#EC2226"/>
<path d="M74.6925 22.99V24.1982H74.3657V22.5306H74.8215L75.1956 23.5284V22.5306H75.5203V24.1982H75.1462L74.6925 22.99Z" fill="#EC2226"/>
<path d="M72.7448 25.0332C72.6287 25.0332 72.5578 25.0781 72.5578 25.1972V25.3751H72.2116V25.2204C72.2116 24.9528 72.3987 24.8012 72.7556 24.8012C73.1125 24.8012 73.2974 24.9559 73.2974 25.2204C73.2974 25.7433 72.5728 25.9398 72.5728 26.2136C72.5708 26.2254 72.5708 26.2373 72.5728 26.2492H73.2608V26.4874H72.2073V26.2816C72.2073 25.7912 72.9297 25.7108 72.9297 25.2297C72.934 25.0765 72.8609 25.0332 72.7448 25.0332Z" fill="#EC2226"/>
<path d="M74.0561 25.0332C73.94 25.0332 73.8669 25.0781 73.8669 25.1972V25.3751H73.5229V25.2204C73.5229 24.9528 73.7099 24.8012 74.0668 24.8012C74.4237 24.8012 74.6086 24.9559 74.6086 25.2204C74.6086 25.7433 73.8841 25.9398 73.8841 26.2136C73.882 26.2254 73.882 26.2373 73.8841 26.2492H74.572V26.4874H73.5186V26.2816C73.5186 25.7912 74.241 25.7108 74.241 25.2297C74.2453 25.0765 74.1721 25.0332 74.0561 25.0332Z" fill="#EC2226"/>
<path d="M73.3919 31.5031C73.8301 31.5031 74.1853 31.2475 74.1853 30.9323C74.1853 30.617 73.8301 30.3614 73.3919 30.3614C72.9538 30.3614 72.5986 30.617 72.5986 30.9323C72.5986 31.2475 72.9538 31.5031 73.3919 31.5031Z" fill="#EC2226" stroke="#263238" stroke-linecap="round" stroke-linejoin="round"/>
<path d="M48.9082 17.218C49.3464 17.218 49.7016 16.9625 49.7016 16.6472C49.7016 16.3319 49.3464 16.0764 48.9082 16.0764C48.4701 16.0764 48.1149 16.3319 48.1149 16.6472C48.1149 16.9625 48.4701 17.218 48.9082 17.218Z" fill="#EC2226" stroke="#263238" stroke-linecap="round" stroke-linejoin="round"/>
<path d="M60.157 30.742C60.1566 30.8549 60.1097 30.9651 60.0222 31.0588C59.9348 31.1524 59.8108 31.2253 59.6658 31.2683C59.5208 31.3113 59.3613 31.3224 59.2076 31.3002C59.0538 31.278 58.9127 31.2235 58.8019 31.1436C58.6912 31.0637 58.6158 30.962 58.5854 30.8513C58.555 30.7406 58.5708 30.6259 58.6309 30.5217C58.691 30.4175 58.7927 30.3284 58.9231 30.2657C59.0535 30.2031 59.2068 30.1696 59.3637 30.1696C59.468 30.1696 59.5714 30.1845 59.6678 30.2132C59.7641 30.242 59.8517 30.2842 59.9254 30.3374C59.9991 30.3906 60.0575 30.4537 60.0972 30.5231C60.137 30.5925 60.1573 30.6669 60.157 30.742Z" fill="#EC2226" stroke="#263238" stroke-linecap="round" stroke-linejoin="round"/>
<path d="M42.5095 27.0105C42.9477 27.0105 43.3029 26.7549 43.3029 26.4396C43.3029 26.1243 42.9477 25.8688 42.5095 25.8688C42.0714 25.8688 41.7162 26.1243 41.7162 26.4396C41.7162 26.7549 42.0714 27.0105 42.5095 27.0105Z" fill="#EC2226" stroke="#263238" stroke-linecap="round" stroke-linejoin="round"/>
<path d="M45.8014 40.8079C45.8014 40.9211 45.7548 41.0317 45.6674 41.1259C45.58 41.22 45.4557 41.2934 45.3104 41.3367C45.165 41.38 45.0051 41.3913 44.8507 41.3692C44.6964 41.3472 44.5547 41.2926 44.4434 41.2126C44.3322 41.1326 44.2564 41.0306 44.2257 40.9195C44.195 40.8085 44.2108 40.6934 44.271 40.5888C44.3312 40.4842 44.4332 40.3948 44.564 40.3319C44.6948 40.269 44.8486 40.2355 45.0059 40.2355C45.2169 40.2355 45.4193 40.2958 45.5684 40.4031C45.7176 40.5105 45.8014 40.6561 45.8014 40.8079Z" fill="#EC2226" stroke="#263238" stroke-linecap="round" stroke-linejoin="round"/>
<path d="M82.5809 40.4339C83.0191 40.4339 83.3743 40.1783 83.3743 39.8631C83.3743 39.5478 83.0191 39.2922 82.5809 39.2922C82.1428 39.2922 81.7876 39.5478 81.7876 39.8631C81.7876 40.1783 82.1428 40.4339 82.5809 40.4339Z" fill="#EC2226" stroke="#263238" stroke-linecap="round" stroke-linejoin="round"/>
<path d="M86.6464 22.8508C87.0846 22.8508 87.4398 22.5952 87.4398 22.28C87.4398 21.9647 87.0846 21.7091 86.6464 21.7091C86.2083 21.7091 85.8531 21.9647 85.8531 22.28C85.8531 22.5952 86.2083 22.8508 86.6464 22.8508Z" fill="#EC2226" stroke="#263238" stroke-linecap="round" stroke-linejoin="round"/>
<path d="M82.3918 17.3139C82.83 17.3139 83.1852 17.0583 83.1852 16.7431C83.1852 16.4278 82.83 16.1722 82.3918 16.1722C81.9537 16.1722 81.5985 16.4278 81.5985 16.7431C81.5985 17.0583 81.9537 17.3139 82.3918 17.3139Z" fill="#EC2226" stroke="#263238" stroke-linecap="round" stroke-linejoin="round"/>
<path d="M84.5567 31.5402C84.5567 31.6534 84.51 31.7642 84.4225 31.8583C84.335 31.9525 84.2106 32.0258 84.0651 32.0691C83.9196 32.1124 83.7596 32.1236 83.6052 32.1014C83.4508 32.0792 83.3091 32.0246 83.1979 31.9443C83.0868 31.8641 83.0112 31.762 82.9807 31.6509C82.9503 31.5397 82.9663 31.4246 83.0269 31.32C83.0874 31.2155 83.1897 31.1262 83.3208 31.0635C83.4519 31.0008 83.6059 30.9675 83.7633 30.9678C83.8677 30.9678 83.971 30.9826 84.0674 31.0114C84.1638 31.0402 84.2514 31.0823 84.3251 31.1355C84.3988 31.1887 84.4572 31.2518 84.4969 31.3212C84.5367 31.3907 84.557 31.4651 84.5567 31.5402Z" fill="#EC2226" stroke="#263238" stroke-linecap="round" stroke-linejoin="round"/>
<path d="M62.6721 26.1702C63.1103 26.1702 63.4655 25.9147 63.4655 25.5994C63.4655 25.2841 63.1103 25.0286 62.6721 25.0286C62.234 25.0286 61.8788 25.2841 61.8788 25.5994C61.8788 25.9147 62.234 26.1702 62.6721 26.1702Z" fill="#EC2226" stroke="#263238" stroke-linecap="round" stroke-linejoin="round"/>
</svg>
