<svg width="84" height="72" viewBox="0 0 84 72" fill="none" xmlns="http://www.w3.org/2000/svg">
<path d="M36.2704 50.4947C44.1963 48.2156 49.2817 46.4893 55.0698 46.4292C55.0698 46.4292 63.3141 47.3645 66.7256 46.4292C76.7007 43.6895 77.5695 33.7119 72.1839 26.3458C66.6073 18.7175 56.5708 20.8944 56.5708 20.8944C44.5579 22.8371 36.5433 20.6941 32.3518 18.9097C28.9926 17.4838 24.933 18.0145 22.3448 20.3737C21.7618 20.8828 21.3056 21.4933 21.0053 22.1662C17.3186 31.0563 21.5647 39.7441 23.0794 45.0493C23.6389 47.016 28.3422 52.7739 36.2704 50.4947Z" stroke="#EC2226" stroke-opacity="0.47" stroke-linecap="round" stroke-linejoin="round" stroke-dasharray="2 2"/>
<path d="M39.9407 13.7184C39.62 17.0469 39.2834 20.4215 39.3676 23.7481C39.5654 31.807 40.4842 39.84 41.0665 47.8809C41.4144 52.6735 42.4902 57.7384 41.394 62.5009C40.3683 66.9649 36.3314 70.65 31.0436 70.9804C25.2237 71.3449 21.0185 66.5604 21.653 61.7478C22.1283 58.1429 24.5891 54.8124 24.7347 51.1794C24.928 46.2888 18.4371 46.9196 14.2183 43.7693C9.25351 40.0683 4.35239 35.1476 2.91048 29.4118C2.49428 27.7635 2.38739 26.0071 3.08105 24.423C6.22186 17.2692 19.5538 15.4728 24.7347 21.5531C30.0725 27.8216 27.9687 36.938 36.7043 37.7932C45.4399 38.6484 54.0141 35.3719 62.4267 33.5194C70.8394 31.6669 80.2209 36.2271 78.7653 45.9123C77.3098 55.5975 63.7208 55.3251 57.4119 48.62C51.103 41.9148 54.0141 28.2482 55.3081 22.8268C56.02 19.8548 57.8485 17.1871 59.4519 14.5355C60.7142 12.4447 62.3062 10.2617 61.8968 7.79233C60.6892 0.512409 46.8864 -1.5464 42.6903 4.73616C42.6858 4.74417 40.5547 7.32569 39.9407 13.7184Z" stroke="#EC2226" stroke-opacity="0.47" stroke-linecap="round" stroke-linejoin="round" stroke-dasharray="2 2"/>
<path d="M41.7526 43.0068C39.6258 43.0068 37.5861 42.2629 36.0822 40.9385C34.5783 39.6142 33.7334 37.8181 33.7334 35.9452C33.7334 34.0724 34.5783 32.2762 36.0822 30.9519C37.5861 29.6276 39.6258 28.8836 41.7526 28.8836C43.8794 28.8836 45.9191 29.6276 47.423 30.9519C48.9269 32.2762 49.7718 34.0724 49.7718 35.9452C49.7718 37.8181 48.9269 39.6142 47.423 40.9385C45.9191 42.2629 43.8794 43.0068 41.7526 43.0068Z" fill="#EC2226" fill-opacity="0.47" stroke="#EC2226" stroke-opacity="0.47" stroke-miterlimit="10"/>
<path d="M40.4815 40.2127H42.4351V35.9089H43.7997L43.943 34.4669H42.4351V33.6418C42.4351 33.3033 42.5124 33.1691 42.89 33.1691H43.9452V31.6731H42.5943C41.141 31.6731 40.486 32.2359 40.486 33.3133V34.4629H39.4717V35.9229H40.486L40.4815 40.2127Z" fill="black"/>
<path d="M44.8955 30.1571C45.6474 30.4732 46.332 30.9007 46.9196 31.4208" stroke="white" stroke-width="0.75" stroke-linecap="round" stroke-linejoin="round"/>
<path d="M37.2383 30.9098C37.4043 30.7937 37.5794 30.6835 37.7614 30.5774C38.7313 30.0172 39.8393 29.6694 40.9929 29.5628C42.1465 29.4562 43.3124 29.5939 44.3932 29.9646" stroke="white" stroke-width="0.75" stroke-linecap="round" stroke-linejoin="round"/>
<path d="M40.8658 42.3113C39.8151 42.1978 38.8052 41.8838 37.9065 41.3912C37.0078 40.8987 36.2419 40.2394 35.6622 39.4594C34.8431 38.3598 34.4279 37.0649 34.4731 35.7503C34.5182 34.4358 35.0215 33.1654 35.9147 32.1114" stroke="white" stroke-width="0.75" stroke-linecap="round" stroke-linejoin="round"/>
<path d="M43.5581 42.1612C43.0842 42.2713 42.5988 42.3385 42.1094 42.3615" stroke="white" stroke-width="0.75" stroke-linecap="round" stroke-linejoin="round"/>
<path d="M46.9193 31.4207C47.2649 31.7271 47.5757 32.0625 47.8473 32.4221C48.3725 33.1266 48.7347 33.9155 48.9132 34.7435C49.0917 35.5715 49.083 36.4224 48.8876 37.2474C48.6922 38.0724 48.3139 38.8554 47.7744 39.5515C47.2349 40.2477 46.5448 40.8432 45.7435 41.3042C45.2175 41.607 44.6496 41.8493 44.0537 42.0252" stroke="white" stroke-width="0.75" stroke-linecap="round" stroke-linejoin="round"/>
<path d="M74.9801 43.0068C72.8533 43.0068 70.8136 42.2629 69.3097 40.9385C67.8058 39.6142 66.9609 37.8181 66.9609 35.9452C66.9609 34.0724 67.8058 32.2762 69.3097 30.9519C70.8136 29.6276 72.8533 28.8836 74.9801 28.8836C77.107 28.8836 79.1467 29.6276 80.6506 30.9519C82.1544 32.2762 82.9993 34.0724 82.9993 35.9452C82.9993 37.8181 82.1544 39.6142 80.6506 40.9385C79.1467 42.2629 77.107 43.0068 74.9801 43.0068Z" fill="#EC2226" fill-opacity="0.47" stroke="#EC2226" stroke-opacity="0.47" stroke-miterlimit="10"/>
<path d="M71.166 41.4066C70.4561 41.0224 69.8268 40.5332 69.3057 39.9606" stroke="white" stroke-width="0.75" stroke-linecap="round" stroke-linejoin="round"/>
<path d="M78.8713 41.3721C78.6893 41.4722 78.5029 41.5723 78.3095 41.6545C77.2779 42.1205 76.1347 42.3628 74.9752 42.361C73.8157 42.3593 72.6734 42.1136 71.6436 41.6444" stroke="white" stroke-width="0.75" stroke-linecap="round" stroke-linejoin="round"/>
<path d="M76.6426 29.6987C77.6737 29.9093 78.64 30.3158 79.4741 30.8897C80.3081 31.4636 80.9896 32.1911 81.4709 33.0212C82.1526 34.1911 82.4091 35.5173 82.2057 36.82C82.0023 38.1226 81.3488 39.3387 80.3338 40.3031" stroke="white" stroke-width="0.75" stroke-linecap="round" stroke-linejoin="round"/>
<path d="M73.9404 29.5953C74.4253 29.5325 74.916 29.5141 75.4051 29.5404" stroke="white" stroke-width="0.75" stroke-linecap="round" stroke-linejoin="round"/>
<path d="M69.3054 39.9606C68.998 39.6218 68.7298 39.2568 68.5048 38.8711C68.0678 38.1216 67.8028 37.3035 67.7252 36.4637C67.6475 35.6239 67.7587 34.7789 68.0523 33.977C68.3459 33.175 68.8163 32.432 69.4364 31.7903C70.0565 31.1486 70.8142 30.6209 71.6661 30.2373C72.2255 29.9851 72.8194 29.7973 73.4333 29.6786" stroke="white" stroke-width="0.75" stroke-linecap="round" stroke-linejoin="round"/>
<path d="M74.9799 32.7711C76.1557 32.7711 76.2945 32.7711 76.7584 32.7931C77.0373 32.7962 77.3135 32.8416 77.5749 32.9273C77.7642 32.9924 77.9361 33.0912 78.0797 33.2178C78.2234 33.3443 78.3357 33.4956 78.4096 33.6623C78.5061 33.8926 78.5569 34.1358 78.5597 34.3813C78.5801 34.7818 78.5847 34.912 78.5847 35.9454C78.5847 36.9788 78.5847 37.101 78.5597 37.5096C78.5569 37.755 78.5061 37.9983 78.4096 38.2285C78.3367 38.3957 78.2247 38.5475 78.0809 38.6742C77.9371 38.8008 77.7647 38.8994 77.5749 38.9635C77.3135 39.0493 77.0373 39.0947 76.7584 39.0977C76.3036 39.1157 76.1557 39.1198 74.9799 39.1198C73.8041 39.1198 73.6676 39.1198 73.2037 39.0977C72.9248 39.0947 72.6486 39.0493 72.3872 38.9635C72.1969 38.9012 72.0246 38.8027 71.8823 38.6752C71.7412 38.5487 71.634 38.3961 71.5685 38.2285C71.4719 37.9983 71.4211 37.755 71.4183 37.5096C71.3956 37.109 71.3911 36.9788 71.3911 35.9454C71.3911 34.912 71.3911 34.7899 71.4183 34.3813C71.4211 34.1358 71.4719 33.8926 71.5685 33.6623C71.6386 33.494 71.7514 33.342 71.8982 33.2177C72.0398 33.089 72.2123 32.9897 72.4031 32.9273C72.6645 32.8416 72.9407 32.7962 73.2196 32.7931C73.6745 32.7751 73.8223 32.7711 74.9958 32.7711M74.9958 32.0742C73.8018 32.0742 73.654 32.0742 73.1764 32.0962C72.8119 32.103 72.4513 32.164 72.1097 32.2764C71.817 32.3743 71.5517 32.5266 71.3319 32.723C71.1078 32.9166 70.9347 33.1511 70.8248 33.41C70.6959 33.7104 70.6267 34.0282 70.6201 34.3493C70.5973 34.7618 70.5928 34.894 70.5928 35.9514C70.5928 37.0089 70.5928 37.1351 70.6201 37.5536C70.6268 37.8754 70.696 38.1937 70.8248 38.4949C70.938 38.7517 71.1108 38.985 71.332 39.1798C71.5532 39.3746 71.8181 39.5267 72.1097 39.6264C72.4513 39.7389 72.8119 39.7998 73.1764 39.8067C73.6472 39.8247 73.795 39.8287 74.9958 39.8287C76.1967 39.8287 76.3399 39.8287 76.8153 39.8067C77.1798 39.7996 77.5403 39.7387 77.8819 39.6264C78.1736 39.5267 78.4384 39.3746 78.6597 39.1798C78.8809 38.985 79.0536 38.7517 79.1669 38.4949C79.2957 38.1937 79.3649 37.8754 79.3716 37.5536C79.3943 37.1411 79.3989 37.0089 79.3989 35.9514C79.3989 34.894 79.3989 34.7678 79.3716 34.3493C79.3649 34.0282 79.2957 33.7104 79.1669 33.41C79.057 33.1511 78.8838 32.9166 78.6597 32.723C78.44 32.5266 78.1747 32.3743 77.8819 32.2764C77.5403 32.1642 77.1798 32.1033 76.8153 32.0962C76.3445 32.0782 76.1944 32.0742 74.9958 32.0742Z" fill="black"/>
<path d="M74.9798 33.9561C74.5338 33.9588 74.0987 34.0778 73.7294 34.298C73.3602 34.5182 73.0732 34.8298 72.9047 35.1934C72.7362 35.557 72.6937 35.9564 72.7827 36.3413C72.8716 36.7261 73.0879 37.0791 73.4044 37.3559C73.7209 37.6326 74.1233 37.8206 74.5609 37.8962C74.9986 37.9718 75.4518 37.9316 75.8636 37.7807C76.2753 37.6298 76.6271 37.3749 76.8745 37.0482C77.122 36.7214 77.2541 36.3375 77.2541 35.9448C77.2541 35.4173 77.0161 34.9115 76.5926 34.5385C76.1691 34.1656 75.5946 33.9561 74.9957 33.9561M74.9798 37.2465C74.6896 37.2465 74.406 37.1708 74.1648 37.0288C73.9236 36.8869 73.7355 36.6852 73.6245 36.4491C73.5135 36.2131 73.4844 35.9533 73.541 35.7028C73.5976 35.4522 73.7373 35.222 73.9425 35.0414C74.1476 34.8607 74.409 34.7377 74.6936 34.6878C74.9781 34.638 75.2731 34.6636 75.5411 34.7613C75.8092 34.8591 76.0383 35.0247 76.1995 35.2371C76.3607 35.4495 76.4467 35.6993 76.4467 35.9548C76.447 36.1245 76.4093 36.2926 76.3356 36.4494C76.262 36.6063 76.154 36.7488 76.0177 36.8688C75.8814 36.9888 75.7196 37.0839 75.5415 37.1487C75.3634 37.2136 75.1725 37.2468 74.9798 37.2465Z" fill="black"/>
<path d="M77.8619 33.8789C77.8619 33.9708 77.831 34.0606 77.773 34.137C77.715 34.2134 77.6326 34.273 77.5362 34.3081C77.4398 34.3433 77.3337 34.3525 77.2313 34.3346C77.129 34.3167 77.035 34.2724 76.9612 34.2074C76.8874 34.1424 76.8371 34.0597 76.8168 33.9695C76.7964 33.8794 76.8069 33.786 76.8468 33.7011C76.8867 33.6162 76.9544 33.5436 77.0411 33.4926C77.1279 33.4415 77.2299 33.4142 77.3343 33.4142C77.4742 33.4142 77.6084 33.4632 77.7074 33.5503C77.8063 33.6375 77.8619 33.7556 77.8619 33.8789Z" fill="black"/>
<path d="M41.7526 68.8071C39.6258 68.8071 37.5861 68.0631 36.0822 66.7388C34.5783 65.4145 33.7334 63.6183 33.7334 61.7454C33.7334 59.8724 34.5782 58.0761 36.082 56.7514C37.5859 55.4268 39.6256 54.6824 41.7526 54.6818C43.8796 54.6824 45.9193 55.4268 47.4232 56.7514C48.927 58.0761 49.7718 59.8724 49.7718 61.7454C49.7718 63.6183 48.9269 65.4145 47.423 66.7388C45.9191 68.0631 43.8794 68.8071 41.7526 68.8071Z" fill="#EC2226" fill-opacity="0.47" stroke="#EC2226" stroke-opacity="0.47" stroke-miterlimit="10"/>
<path d="M37.9746 56.258C38.6859 55.8758 39.4669 55.6047 40.283 55.4569" stroke="white" stroke-width="0.75" stroke-linecap="round" stroke-linejoin="round"/>
<path d="M34.497 62.3124C34.4788 62.1262 34.4697 61.9359 34.4697 61.7456C34.4689 60.7243 34.7452 59.7176 35.2757 58.8094C35.8062 57.9012 36.5756 57.1179 37.5196 56.5245" stroke="white" stroke-width="0.75" stroke-linecap="round" stroke-linejoin="round"/>
<path d="M47.311 65.8852C46.6285 66.5977 45.7774 67.1702 44.8172 67.5625C43.857 67.9548 42.811 68.1575 41.7526 68.1563C40.2601 68.1565 38.8036 67.7533 37.5798 67.0012C36.3559 66.249 35.4237 65.1842 34.9092 63.9506" stroke="white" stroke-width="0.75" stroke-linecap="round" stroke-linejoin="round"/>
<path d="M48.6479 63.8199C48.4892 64.2275 48.2843 64.6201 48.0361 64.9915" stroke="white" stroke-width="0.75" stroke-linecap="round" stroke-linejoin="round"/>
<path d="M40.2832 55.4715C40.7667 55.3843 41.2589 55.3407 41.7524 55.3413C43.6826 55.3413 45.5337 56.0165 46.8986 57.2184C48.2634 58.4203 49.0302 60.0503 49.0302 61.75C49.0304 62.3037 48.9493 62.855 48.7891 63.3903" stroke="white" stroke-width="0.75" stroke-linecap="round" stroke-linejoin="round"/>
<path fill-rule="evenodd" clip-rule="evenodd" d="M46.3987 63.8182C46.3033 63.7742 46.2015 63.7418 46.0962 63.7221C45.6021 63.5711 45.1715 63.2918 44.8612 62.921C44.6832 62.7244 44.5406 62.5048 44.4382 62.2701C44.4166 62.2257 44.4067 62.1775 44.4095 62.1293C44.4123 62.081 44.4275 62.034 44.4541 61.9917C44.5662 61.8772 44.7141 61.7943 44.8794 61.7534C45.0887 61.7004 45.2841 61.612 45.4548 61.493C45.488 61.466 45.5157 61.4342 45.5367 61.3989C45.543 61.3874 45.5475 61.3753 45.5504 61.3629C45.5637 61.3189 45.5597 61.2723 45.539 61.2307C45.4937 61.1577 45.4238 61.0989 45.3388 61.0625C45.2869 61.0362 45.229 61.0203 45.1693 61.0158C45.1096 61.0113 45.0495 61.0183 44.9932 61.0364C44.8938 61.0687 44.7919 61.0948 44.6884 61.1145C44.5748 61.139 44.4563 61.139 44.3427 61.1145C44.3427 61.1025 44.3427 61.0785 44.3427 61.0464C44.3427 60.8622 44.3541 60.6739 44.3563 60.4756C44.3778 60.1698 44.3686 59.8629 44.3291 59.5584C44.2049 59.038 43.8548 58.581 43.3534 58.2847C42.9995 58.0698 42.5878 57.9407 42.1594 57.9102C42.0138 57.8981 41.8728 57.8941 41.7295 57.8941C41.1438 57.8847 40.5708 58.0451 40.0989 58.3508C39.7506 58.5915 39.4769 58.9056 39.3028 59.264C39.1681 59.6231 39.1239 60.0038 39.1732 60.3795C39.2002 60.6231 39.2071 60.8681 39.1937 61.1125C39.1942 61.1178 39.1942 61.1232 39.1937 61.1285C39.0582 61.1494 38.9197 61.1494 38.7843 61.1285C38.6888 61.1145 38.5864 61.0805 38.4705 61.0524C38.4177 61.0426 38.3632 61.0429 38.3106 61.0532C38.258 61.0636 38.2086 61.0838 38.1657 61.1125C38.119 61.134 38.0792 61.1654 38.0498 61.2039C38.0204 61.2423 38.0024 61.2867 37.9974 61.3328C37.9963 61.3401 37.9963 61.3475 37.9974 61.3548C38.0124 61.4137 38.0492 61.4666 38.102 61.5051C38.1475 61.5371 38.1862 61.5591 38.2089 61.5751C38.4125 61.6779 38.6283 61.7605 38.8525 61.8215C38.9178 61.8399 38.9774 61.8712 39.0271 61.9128C39.0767 61.9544 39.115 62.0053 39.1391 62.0618C39.1578 62.2136 39.1186 62.3665 39.0277 62.4964C38.7989 62.8903 38.4629 63.2281 38.0497 63.4797C37.8313 63.6111 37.589 63.7086 37.3333 63.7681C37.2333 63.7829 37.1428 63.8292 37.0786 63.8983L37.0649 63.9243C37.056 63.9547 37.0552 63.9864 37.0627 64.017C37.0702 64.0476 37.0858 64.0762 37.1081 64.1006C37.1372 64.1318 37.1737 64.1571 37.215 64.1747C37.4245 64.2687 37.6481 64.3362 37.8791 64.375C38.02 64.3934 38.1586 64.4236 38.2931 64.4651C38.2931 64.4651 38.309 64.5071 38.3363 64.5652C38.3749 64.6674 38.3931 64.7895 38.4363 64.9177C38.443 64.9352 38.4546 64.9508 38.4702 64.9631C38.4857 64.9754 38.5046 64.9839 38.525 64.9878C38.5777 65.0015 38.6343 64.9979 38.6842 64.9778H38.6979C39.0404 64.904 39.3963 64.8924 39.7441 64.9437C40.0935 65.0612 40.4239 65.2188 40.7266 65.4124C40.9582 65.5561 41.2289 65.6431 41.5112 65.6647C41.7326 65.6728 41.9544 65.6688 42.1753 65.6527C42.361 65.6354 42.5398 65.5813 42.6984 65.4945C43.0532 65.3162 43.367 65.104 43.7127 64.9698C43.8459 64.9407 43.9826 64.9266 44.1198 64.9277C44.4071 64.9203 44.6945 64.9331 44.9795 64.9658H45.0068C45.0449 64.9607 45.0797 64.9436 45.1046 64.9177C45.1205 64.9025 45.1315 64.8838 45.1364 64.8636C45.1364 64.8396 45.1524 64.8276 45.1364 64.8476C45.1377 64.841 45.1377 64.8342 45.1364 64.8276C45.1634 64.6953 45.219 64.5688 45.3002 64.4551C45.3506 64.4203 45.4137 64.4032 45.4776 64.407H45.4935C45.7274 64.3739 45.9563 64.3174 46.1758 64.2388C46.284 64.2081 46.3801 64.1512 46.4533 64.0745C46.4689 64.0555 46.4799 64.0337 46.4854 64.0107C46.491 63.9876 46.491 63.9638 46.4854 63.9408C46.4798 63.9178 46.4688 63.896 46.4531 63.877C46.4374 63.8579 46.4173 63.842 46.3941 63.8302L46.3987 63.8182Z" fill="black"/>
<path d="M9.02602 43.0069C7.97235 43.0076 6.92883 42.8256 5.95511 42.471C4.98139 42.1165 4.09655 41.5965 3.35118 40.9407C2.60581 40.2849 2.01451 39.5061 1.61108 38.649C1.20765 37.7918 1 36.8731 1 35.9452C1 35.0174 1.20765 34.0986 1.61108 33.2415C2.01451 32.3843 2.60581 31.6056 3.35118 30.9498C4.09655 30.294 4.98139 29.7739 5.95511 29.4194C6.92883 29.0649 7.97235 28.8828 9.02602 28.8836C11.1528 28.8836 13.1926 29.6276 14.6964 30.9519C16.2003 32.2762 17.0452 34.0724 17.0452 35.9452C17.0452 37.8181 16.2003 39.6142 14.6964 40.9385C13.1926 42.2629 11.1528 43.0069 9.02602 43.0069Z" fill="#EC2226" fill-opacity="0.47" stroke="#EC2226" stroke-opacity="0.47" stroke-miterlimit="10"/>
<path d="M5.24121 30.4596C5.95233 30.0771 6.73337 29.8061 7.54963 29.6585" stroke="white" stroke-width="0.75" stroke-linecap="round" stroke-linejoin="round"/>
<path d="M1.76167 36.5139C1.74347 36.3257 1.73438 36.1374 1.73438 35.9452C1.73352 34.9239 2.00986 33.9172 2.54037 33.009C3.07088 32.1008 3.8402 31.3174 4.78422 30.7241" stroke="white" stroke-width="0.75" stroke-linecap="round" stroke-linejoin="round"/>
<path d="M14.5776 40.0908C13.8948 40.8013 13.0445 41.3723 12.0858 41.7642C11.1271 42.156 10.083 42.3593 9.02599 42.3598C7.53319 42.3615 6.07591 41.9589 4.85175 41.2065C3.62759 40.4542 2.69577 39.3886 2.18262 38.1541" stroke="white" stroke-width="0.75" stroke-linecap="round" stroke-linejoin="round"/>
<path d="M15.9126 38.0194C15.7553 38.4282 15.5503 38.8215 15.3008 39.193" stroke="white" stroke-width="0.75" stroke-linecap="round" stroke-linejoin="round"/>
<path d="M7.5498 29.661C8.03326 29.5739 8.52553 29.5302 9.019 29.5308C10.9492 29.5308 12.8003 30.206 14.1652 31.4079C15.53 32.6098 16.2968 34.2399 16.2968 35.9396C16.2972 36.4932 16.2162 37.0445 16.0557 37.5798" stroke="white" stroke-width="0.75" stroke-linecap="round" stroke-linejoin="round"/>
<path d="M4.74609 38.3085C5.54761 38.763 6.48099 39.0043 7.43432 39.0035C10.6888 39.0035 12.5265 36.5822 12.4173 34.4112C12.7597 34.1915 13.0553 33.9203 13.2907 33.6101C12.9709 33.7339 12.6322 33.8156 12.2854 33.8524C12.6512 33.6601 12.9246 33.3567 13.0541 32.9993C12.7099 33.1782 12.334 33.3048 11.942 33.3738C11.6784 33.1261 11.3294 32.9617 10.9491 32.9062C10.5687 32.8507 10.1782 32.9071 9.83798 33.0668C9.49772 33.2264 9.22668 33.4803 9.06681 33.7892C8.90693 34.0981 8.86713 34.4448 8.95355 34.7757C8.2566 34.745 7.5748 34.5854 6.95253 34.3073C6.33027 34.0292 5.7815 33.6388 5.34196 33.1615C5.11783 33.5016 5.04904 33.904 5.14957 34.2871C5.2501 34.6702 5.5124 35.0053 5.88325 35.2243C5.60427 35.2145 5.33204 35.1458 5.08951 35.024C5.08404 35.3839 5.2215 35.7342 5.47813 36.0143C5.73476 36.2944 6.09445 36.4867 6.49503 36.5581C6.23681 36.6192 5.96625 36.6281 5.70358 36.5842C5.81549 36.8909 6.03353 37.159 6.32716 37.3512C6.6208 37.5433 6.97531 37.6498 7.34107 37.6556C6.97868 37.9096 6.56288 38.098 6.11755 38.21C5.67223 38.3221 5.20615 38.3555 4.74609 38.3085Z" fill="black"/>
<path d="M41.7526 15.5676C39.6258 15.5676 37.5861 14.8236 36.0822 13.4993C34.5783 12.175 33.7334 10.3788 33.7334 8.50596C33.7334 6.6331 34.5783 4.83695 36.0822 3.51264C37.5861 2.18832 39.6258 1.44434 41.7526 1.44434C43.8794 1.44434 45.9191 2.18832 47.423 3.51264C48.9269 4.83695 49.7718 6.6331 49.7718 8.50596C49.7718 10.3788 48.9269 12.175 47.423 13.4993C45.9191 14.8236 43.8794 15.5676 41.7526 15.5676Z" fill="#EC2226" fill-opacity="0.47" stroke="#EC2226" stroke-opacity="0.47" stroke-miterlimit="10"/>
<path fill-rule="evenodd" clip-rule="evenodd" d="M46.3738 8.33377C46.3841 7.32457 45.9387 6.35312 45.1355 5.63312C44.3324 4.91313 43.2374 4.50357 42.0913 4.49454C40.9453 4.48551 39.8421 4.87775 39.0245 5.58498C38.2068 6.2922 37.7417 7.25648 37.7315 8.26568C37.7315 8.31975 37.7315 8.37583 37.7315 8.4299C37.7311 9.11771 37.9451 9.79242 38.3501 10.3806L37.5791 12.4133L39.9717 11.7424C40.6272 12.0601 41.3651 12.2224 42.1132 12.2135C42.8614 12.2047 43.5941 12.0249 44.2396 11.6918C44.8852 11.3587 45.4214 10.8837 45.7959 10.3134C46.1705 9.74299 46.3704 9.09675 46.3761 8.43791C46.3761 8.40787 46.3761 8.36581 46.3738 8.33377ZM42.0527 11.6042C41.3426 11.6058 40.6479 11.4225 40.0558 11.0775L38.6594 11.4781L39.1143 10.2984C38.6678 9.758 38.4288 9.10622 38.432 8.43791C38.432 8.33577 38.432 8.23764 38.4502 8.13149C38.5581 7.34911 38.9897 6.6292 39.6624 6.10938C40.3352 5.58956 41.2018 5.30629 42.0968 5.31373C42.9918 5.32116 43.8522 5.61878 44.5137 6.14968C45.1752 6.68059 45.5913 7.40754 45.6824 8.19157C45.6915 8.27435 45.6961 8.35647 45.6961 8.43791C45.6913 9.2837 45.3053 10.0932 44.6229 10.6884C43.9405 11.2837 43.0177 11.616 42.0572 11.6122L42.0527 11.6042Z" fill="black"/>
<path fill-rule="evenodd" clip-rule="evenodd" d="M44.036 9.19324C43.9292 9.14718 43.4106 8.92287 43.3128 8.89283C43.215 8.86279 43.1445 8.84677 43.0854 8.93889C43.0263 9.03102 42.8102 9.2393 42.7511 9.29939C42.6919 9.35947 42.626 9.36948 42.5236 9.32342C42.2115 9.21523 41.9235 9.05929 41.673 8.86279C41.441 8.67744 41.2423 8.46201 41.084 8.22392C41.0249 8.1318 41.084 8.08173 41.1318 8.03566C41.1795 7.9896 41.2364 7.92752 41.291 7.87344L41.3296 7.82938C41.3524 7.79534 41.3706 7.76329 41.3956 7.71923C41.4109 7.69433 41.4189 7.66645 41.4189 7.63812C41.4189 7.6098 41.4109 7.58192 41.3956 7.55701C41.3683 7.51095 41.1682 7.05433 41.0681 6.87008C40.968 6.68583 40.8907 6.71587 40.8407 6.71587C40.7906 6.71587 40.7087 6.71587 40.6382 6.71587C40.5843 6.7168 40.5312 6.72761 40.4822 6.74761C40.4333 6.76761 40.3896 6.79636 40.354 6.83202C40.2351 6.93098 40.141 7.05065 40.0776 7.1834C40.0141 7.31615 39.9828 7.45907 39.9855 7.60308C39.9864 7.71031 40.0048 7.81687 40.0401 7.91951C40.1224 8.15093 40.2502 8.36785 40.4176 8.56038C40.4699 8.62046 41.15 9.58578 42.2371 9.96229C43.3242 10.3388 43.3128 10.2066 43.5084 10.1906C43.6559 10.1661 43.7958 10.1143 43.9189 10.0387C44.0419 9.9631 44.1455 9.86539 44.2225 9.752C44.2925 9.61384 44.3139 9.46037 44.2839 9.3114C44.2134 9.26334 44.1429 9.2393 44.036 9.19324Z" fill="black"/>
<path d="M37.9746 3.0185C38.6859 2.63625 39.4669 2.36523 40.283 2.21741" stroke="white" stroke-width="0.75" stroke-linecap="round" stroke-linejoin="round"/>
<path d="M34.497 9.07292C34.4788 8.88667 34.4697 8.69641 34.4697 8.50615C34.4689 7.48484 34.7452 6.47815 35.2757 5.56995C35.8062 4.66175 36.5756 3.87835 37.5196 3.28503" stroke="white" stroke-width="0.75" stroke-linecap="round" stroke-linejoin="round"/>
<path d="M47.311 12.6517C46.6281 13.3637 45.7768 13.9356 44.8167 14.3275C43.8566 14.7195 42.8108 14.922 41.7526 14.9208C40.2601 14.921 38.8036 14.5178 37.5798 13.7657C36.3559 13.0135 35.4237 11.9487 34.9092 10.7151" stroke="white" stroke-width="0.75" stroke-linecap="round" stroke-linejoin="round"/>
<path d="M48.6479 10.5804C48.4888 10.9885 48.2839 11.3817 48.0361 11.754" stroke="white" stroke-width="0.75" stroke-linecap="round" stroke-linejoin="round"/>
<path d="M40.2832 2.22192C40.7667 2.13478 41.2589 2.09116 41.7524 2.09174C43.6826 2.09174 45.5337 2.76694 46.8986 3.96882C48.2634 5.17069 49.0302 6.80077 49.0302 8.50047C49.0304 9.05408 48.9493 9.60539 48.7891 10.1407" stroke="white" stroke-width="0.75" stroke-linecap="round" stroke-linejoin="round"/>
<path d="M58.4219 56.6662C63.6886 56.6662 67.958 52.9066 67.958 48.2688C67.958 43.631 63.6886 39.8713 58.4219 39.8713C53.1552 39.8713 48.8857 43.631 48.8857 48.2688C48.8857 52.9066 53.1552 56.6662 58.4219 56.6662Z" fill="black" stroke="#EC2226" stroke-opacity="0.47" stroke-miterlimit="10"/>
<path opacity="0.3" d="M58.4219 56.6662C63.6886 56.6662 67.958 52.9066 67.958 48.2688C67.958 43.631 63.6886 39.8713 58.4219 39.8713C53.1552 39.8713 48.8857 43.631 48.8857 48.2688C48.8857 52.9066 53.1552 56.6662 58.4219 56.6662Z" fill="white" stroke="#EC2226" stroke-opacity="0.47" stroke-miterlimit="10"/>
<path d="M58.4215 39.8709C58.4215 39.8709 53.5977 39.4103 52.829 41.5112C52.0603 43.612 55.3034 43.2395 54.7917 44.2148C54.28 45.1902 52.1467 46.4599 52.9996 47.8939C53.8524 49.3278 55.3876 50.898 53.6819 50.3732C51.9761 49.8485 51.5508 49.6963 51.892 51.3486C52.2331 53.0008 54.023 53.4514 56.9227 53.2251C59.8225 52.9988 59.5655 54.2025 61.1848 54.3527C62.8041 54.5029 64.4257 53.6757 64.4257 51.5729C64.4257 49.47 62.4652 49.9226 64.2551 48.8712C66.045 47.8198 65.7061 45.1161 65.1944 44.291C64.6827 43.4658 63.6592 43.8403 63.6592 42.7889C63.6592 41.7375 61.1984 39.7307 58.4215 39.8709Z" fill="#EC2226" fill-opacity="0.47" stroke="#EC2226" stroke-opacity="0.47" stroke-miterlimit="10"/>
<path d="M55.7677 40.852C55.7677 40.852 53.9823 40.6417 54.0415 41.6371C54.1006 42.6324 57.1982 44.5731 60.1161 44.6271C63.0341 44.6812 63.3297 43.3674 62.9135 43.1051" stroke="white" stroke-width="0.75" stroke-linecap="round" stroke-linejoin="round"/>
<path d="M57.6148 41.6849C57.6148 41.6849 56.1865 41.8411 56.3639 42.6862C56.5413 43.5314 57.4351 43.944 58.8065 44.4166" stroke="white" stroke-width="0.75" stroke-linecap="round" stroke-linejoin="round"/>
<path d="M64.7582 46.8229C64.7582 46.8229 64.6399 48.1347 62.7955 48.9738C60.951 49.8129 59.2885 51.0667 60.8805 51.6995C62.4725 52.3324 63.3823 53.0614 62.7864 53.2196" stroke="white" stroke-width="0.75" stroke-linecap="round" stroke-linejoin="round"/>
<path d="M55.6493 50.7013C55.6493 50.7013 54.9352 52.1693 53.864 51.9029C52.7928 51.6366 52.4335 50.9016 53.1499 50.9016C53.8663 50.9016 53.9231 51.216 53.9231 51.216" stroke="white" stroke-width="0.75" stroke-linecap="round" stroke-linejoin="round"/>
<path d="M61.3352 44.6937C61.3352 44.6937 62.7976 44.6737 62.5588 45.9314C62.3199 47.1891 60.9508 47.2953 60.5938 48.2386" stroke="white" stroke-width="0.75" stroke-linecap="round" stroke-linejoin="round"/>
<path d="M58.4219 56.6737C60.5622 56.6759 62.6406 56.0407 64.3191 54.8712C63.6505 54.4366 62.4587 53.6696 61.7651 53.2691C60.7621 52.6802 59.4248 50.8478 57.6395 51.1742C56.2067 51.4386 52.3722 52.8925 50.9121 53.4573C51.8042 54.4605 52.9441 55.2716 54.2453 55.8289C55.5466 56.3862 56.9749 56.6751 58.4219 56.6737Z" fill="white" stroke="#EC2226" stroke-opacity="0.47" stroke-miterlimit="10"/>
<path d="M57.3487 50.8979C57.3487 50.8979 54.706 51.5728 54.3648 53.5255C54.0237 55.4782 56.5391 54.0702 56.5391 54.0702C56.5391 54.0702 57.8604 55.7786 59.0544 55.2539C60.2484 54.7291 60.419 52.9247 59.7367 51.723C59.0544 50.5214 57.3487 50.8979 57.3487 50.8979Z" fill="white" stroke="#EC2226" stroke-opacity="0.47" stroke-miterlimit="10"/>
<path d="M57.2782 49.4643C57.2922 50.1041 57.1932 50.7419 56.9849 51.3549C56.6505 52.2622 55.5611 53.5119 56.53 54.0726C57.4989 54.6334 58.7406 52.849 59.0636 51.3509C59.3865 49.8529 59.6208 48.0624 59.6208 48.0624L57.2782 49.4643Z" fill="white"/>
<mask id="mask0_1_2032" style="mask-type:luminance" maskUnits="userSpaceOnUse" x="56" y="48" width="4" height="7">
<path d="M57.2782 49.4623C57.2922 50.1021 57.1932 50.7399 56.9849 51.3529C56.6505 52.2601 55.5611 53.5099 56.53 54.0706C57.4989 54.6314 58.7406 52.8469 59.0636 51.3489C59.3865 49.8509 59.6208 48.0604 59.6208 48.0604L57.2782 49.4623Z" fill="white"/>
</mask>
<g mask="url(#mask0_1_2032)">
<g style="mix-blend-mode:multiply" opacity="0.5">
<path d="M57.0527 51.1536C57.365 51.2532 57.6894 51.3204 58.0193 51.3539C58.315 51.3839 58.4332 51.3279 58.4742 51.2618C58.4378 51.6363 58.299 52.6637 57.8146 53.4207C57.6668 53.653 57.5463 53.8493 57.4507 54.0215C58.1694 53.595 58.8403 52.4053 59.0678 51.3559C59.3907 49.8599 59.6159 48.0734 59.6159 48.0734L57.2733 49.4753C57.2846 50.0409 57.2104 50.6053 57.0527 51.1536Z" fill="black"/>
</g>
</g>
<path d="M57.2782 49.4643C57.2922 50.1041 57.1932 50.7419 56.9849 51.3549C56.6505 52.2622 55.5611 53.5119 56.53 54.0726C57.4989 54.6334 58.7406 52.849 59.0636 51.3509C59.3865 49.8529 59.6208 48.0624 59.6208 48.0624L57.2782 49.4643Z" stroke="#EC2226" stroke-opacity="0.47" stroke-miterlimit="10"/>
<path d="M55.8471 43.6562C55.8471 43.6562 55.0283 46.6603 55.0283 47.7799C55.0283 48.8994 56.1973 50.2693 57.6802 50.3834C59.5724 50.5176 60.2683 48.2785 60.6777 47.0028C61.0325 45.8953 61.2736 44.938 61.3327 44.7017C58.4557 45.659 55.8471 43.6562 55.8471 43.6562Z" fill="white"/>
<mask id="mask1_1_2032" style="mask-type:luminance" maskUnits="userSpaceOnUse" x="55" y="43" width="7" height="8">
<path d="M55.8471 43.6572C55.8471 43.6572 55.0283 46.6613 55.0283 47.7808C55.0283 48.9004 56.1973 50.2702 57.6802 50.3844C59.5724 50.5186 60.2683 48.2795 60.6777 47.0038C61.0325 45.8963 61.2736 44.939 61.3327 44.7027C58.4557 45.66 55.8471 43.6572 55.8471 43.6572Z" fill="white"/>
</mask>
<g mask="url(#mask1_1_2032)">
<g style="mix-blend-mode:multiply" opacity="0.5">
<path d="M61.3345 44.694C61.0484 44.7903 60.752 44.8607 60.4498 44.9043C60.3156 45.6674 59.9039 47.5439 58.9601 48.6975C58.1595 49.6768 57.3021 50.0313 56.8154 50.1595C57.0864 50.2785 57.3803 50.3518 57.6819 50.3758C59.5742 50.51 60.2701 48.2709 60.6795 46.9952" fill="black"/>
</g>
</g>
<path d="M55.8471 43.6562C55.8471 43.6562 55.0283 46.6603 55.0283 47.7799C55.0283 48.8994 56.1973 50.2693 57.6802 50.3834C59.5724 50.5176 60.2683 48.2785 60.6777 47.0028C61.0325 45.8953 61.2736 44.938 61.3327 44.7017C58.4557 45.659 55.8471 43.6562 55.8471 43.6562Z" stroke="#EC2226" stroke-opacity="0.47" stroke-miterlimit="10"/>
<path d="M57.4071 45.7834C57.303 46.1102 57.1394 46.42 56.9227 46.7007C56.627 47.0271 55.9948 46.7327 56.1813 46.929C56.2844 47.044 56.4133 47.1389 56.5601 47.2079C56.7069 47.2768 56.8683 47.3182 57.0341 47.3296" stroke="#EC2226" stroke-opacity="0.47" stroke-linecap="round" stroke-linejoin="round"/>
<path d="M55.9766 47.9498C55.9766 47.9498 56.5338 48.6708 57.6846 48.3103" stroke="#EC2226" stroke-opacity="0.47" stroke-linecap="round" stroke-linejoin="round"/>
<path d="M56.8662 45.5502C56.8321 45.7284 56.7138 45.8606 56.6024 45.8426C56.4909 45.8245 56.4272 45.6683 56.4614 45.4901C56.4955 45.3118 56.6137 45.1817 56.7252 45.1977C56.8366 45.2137 56.9003 45.3719 56.8662 45.5502Z" fill="#EC2226" fill-opacity="0.47"/>
<path d="M58.7403 46.0218C58.6903 46.198 58.5629 46.3222 58.4538 46.2982C58.3446 46.2742 58.2946 46.1139 58.3423 45.9377C58.3901 45.7615 58.5174 45.6393 58.6289 45.6613C58.7403 45.6833 58.7881 45.8476 58.7403 46.0218Z" fill="#EC2226" fill-opacity="0.47"/>
<path d="M56.1045 44.6695C56.1045 44.6695 56.4024 44.0487 57.294 44.4092" stroke="#EC2226" stroke-opacity="0.47" stroke-linecap="round" stroke-linejoin="round"/>
<path d="M58.3311 44.9353C58.3311 44.9353 59.1498 44.7069 59.3727 45.4259" stroke="#EC2226" stroke-opacity="0.47" stroke-linecap="round" stroke-linejoin="round"/>
<path d="M25.2256 56.6648C30.4923 56.6648 34.7618 52.9051 34.7618 48.2673C34.7618 43.6295 30.4923 39.8699 25.2256 39.8699C19.9589 39.8699 15.6895 43.6295 15.6895 48.2673C15.6895 52.9051 19.9589 56.6648 25.2256 56.6648Z" fill="black" stroke="#EC2226" stroke-opacity="0.47" stroke-miterlimit="10"/>
<path opacity="0.3" d="M25.2256 56.6648C30.4923 56.6648 34.7618 52.9051 34.7618 48.2673C34.7618 43.6295 30.4923 39.8699 25.2256 39.8699C19.9589 39.8699 15.6895 43.6295 15.6895 48.2673C15.6895 52.9051 19.9589 56.6648 25.2256 56.6648Z" fill="white" stroke="#EC2226" stroke-opacity="0.47" stroke-miterlimit="10"/>
<path d="M19.2598 54.8104C21.1299 56.1371 23.4999 56.7928 25.8956 56.6465C28.2913 56.5002 30.5358 55.5626 32.1801 54.0214C31.1066 52.8037 28.9074 50.7169 26.4602 50.7169C23.7447 50.7169 20.5197 53.5707 19.2598 54.8104Z" fill="white" stroke="#EC2226" stroke-opacity="0.47" stroke-miterlimit="10"/>
<path d="M24.1707 50.0963C24.1707 50.0963 22.5537 50.2585 22.4149 51.358C22.2762 52.4575 23.2451 54.288 23.3383 54.4903C23.4315 54.6925 25.5103 52.864 26.2949 52.864C27.0795 52.864 29.1128 53.8394 29.1128 53.8394C29.1128 53.8394 28.4669 51.5603 27.3115 50.7051C26.1562 49.8499 24.4914 49.7698 24.1707 50.0963Z" fill="white" stroke="#EC2226" stroke-opacity="0.47" stroke-miterlimit="10"/>
<path opacity="0.5" d="M22.0436 46.0584C22.0436 46.0584 21.3499 45.4476 20.9815 45.9362C20.6131 46.4249 20.9337 46.9937 21.4364 47.3602C21.939 47.7267 22.7304 47.7607 22.7304 47.4823C22.7304 47.204 22.0436 46.0584 22.0436 46.0584Z" fill="black" stroke="#EC2226" stroke-opacity="0.47" stroke-miterlimit="10"/>
<path d="M22.0436 46.0584C22.0436 46.0584 21.3499 45.4476 20.9815 45.9362C20.6131 46.4249 20.9337 46.9937 21.4364 47.3602C21.939 47.7267 22.7304 47.7607 22.7304 47.4823C22.7304 47.204 22.0436 46.0584 22.0436 46.0584Z" stroke="#EC2226" stroke-opacity="0.47" stroke-miterlimit="10"/>
<path d="M28.0068 44.6425C28.0068 44.6425 28.3298 43.9095 28.7915 44.6826C29.2532 45.4556 28.3753 46.1466 28.3753 46.1466L28.0068 44.6425Z" fill="white" stroke="#EC2226" stroke-opacity="0.47" stroke-miterlimit="10"/>
<path d="M22.7373 47.4899C22.7373 47.4899 23.6607 50.4199 23.8927 51.4373C24.1246 52.4547 25.1867 53.9207 25.9714 53.44C26.756 52.9594 26.7128 52.0562 26.2488 51.2831C25.9434 50.7487 25.6959 50.1901 25.5097 49.6148L22.7373 47.4899Z" fill="white"/>
<mask id="mask2_1_2032" style="mask-type:luminance" maskUnits="userSpaceOnUse" x="22" y="47" width="5" height="7">
<path d="M22.7383 47.4909C22.7383 47.4909 23.6616 50.4209 23.8936 51.4383C24.1256 52.4557 25.1877 53.9217 25.9723 53.441C26.757 52.9604 26.7138 52.0571 26.2498 51.2841C25.9444 50.7497 25.6969 50.1911 25.5107 49.6158L22.7383 47.4909Z" fill="white"/>
</mask>
<g mask="url(#mask2_1_2032)">
<g style="mix-blend-mode:multiply" opacity="0.5">
<path d="M26.2498 51.2761C25.9444 50.7417 25.6969 50.1831 25.5107 49.6078L22.7383 47.4909C22.7383 47.4909 23.4956 49.8942 23.8095 51.0958C24.2103 51.3715 24.6662 51.5787 25.1536 51.7067C25.5749 51.8081 26.0244 51.7629 26.409 51.5805C26.3633 51.4762 26.3101 51.3745 26.2498 51.2761Z" fill="black"/>
</g>
</g>
<path d="M22.7373 47.4899C22.7373 47.4899 23.6607 50.4199 23.8927 51.4373C24.1246 52.4547 25.1867 53.9207 25.9714 53.44C26.756 52.9594 26.7128 52.0562 26.2488 51.2831C25.9434 50.7487 25.6959 50.1901 25.5097 49.6148L22.7373 47.4899Z" stroke="#EC2226" stroke-opacity="0.47" stroke-miterlimit="10"/>
<path d="M21.0796 44.4383C21.0796 44.4383 23.2515 49.0446 24.1772 50.096C25.1028 51.1475 27.5886 51.2356 28.6598 49.6955C29.731 48.1554 28.5211 46.0745 28.3369 45.1373C28.1527 44.2 27.6546 42.6559 27.9662 42.3715C28.2777 42.0871 29.5832 41.8828 29.076 41.1498C28.5689 40.4168 27.8274 40.7833 27.7365 40.2546C27.6455 39.7259 28.1049 38.4221 26.3946 38.2198C24.6843 38.0176 21.68 39.806 20.4814 41.1899C19.2829 42.5738 18.9008 43.8275 21.0796 44.4383Z" fill="#EC2226" fill-opacity="0.47" stroke="#EC2226" stroke-opacity="0.47" stroke-miterlimit="10"/>
<path d="M21.7626 43.054C21.7626 43.054 20.3388 42.9598 21.053 41.7542C21.7671 40.5486 26.5318 38.9243 26.5909 39.8156C26.65 40.7068 25.5788 40.9691 25.5788 40.9691" stroke="white" stroke-width="0.75" stroke-linecap="round" stroke-linejoin="round"/>
<path d="M23.6766 41.9124C23.6766 41.9124 22.6055 41.7021 22.9625 41.0212C23.3196 40.3403 25.9396 40.0198 25.4643 40.4444C25.1824 40.6931 24.8615 40.9049 24.5113 41.0732" stroke="white" stroke-width="0.75" stroke-linecap="round" stroke-linejoin="round"/>
<path d="M27.127 47.2064C27.127 47.2064 26.3423 48.3039 25.0938 47.7752" stroke="white" stroke-width="0.75" stroke-linecap="round" stroke-linejoin="round"/>
<path d="M28.3299 45.1291C28.157 44.254 27.6999 42.842 27.9069 42.4315C27.7681 42.1371 27.2905 41.4501 25.8805 41.3861C24.0769 41.3039 22.137 42.1992 21.7663 43.0543C21.3955 43.9095 22.2757 43.4549 22.5987 44.0717C22.9216 44.6885 22.0892 45.4155 22.2757 45.8621C22.4622 46.3088 23.3378 48.0651 23.3378 48.0651C23.4765 47.5765 25.5575 46.7614 25.5575 46.7614C25.8585 46.8314 26.1701 46.8591 26.4809 46.8435C26.8971 46.8034 26.6651 46.477 26.6651 46.477L28.7961 46.5891C28.6142 45.9983 28.3981 45.4836 28.3299 45.1291Z" fill="white"/>
<mask id="mask3_1_2032" style="mask-type:luminance" maskUnits="userSpaceOnUse" x="21" y="41" width="8" height="8">
<path d="M28.3299 45.13C28.157 44.2548 27.6999 42.8429 27.9069 42.4323C27.7681 42.1379 27.2905 41.451 25.8805 41.3869C24.0769 41.3048 22.137 42.2 21.7663 43.0552C21.3955 43.9103 22.2757 43.4557 22.5987 44.0726C22.9216 44.6894 22.0892 45.4164 22.2757 45.863C22.4622 46.3096 23.3378 48.066 23.3378 48.066C23.4765 47.5773 25.5575 46.7622 25.5575 46.7622C25.8585 46.8322 26.1701 46.8599 26.4809 46.8443C26.8971 46.8043 26.6651 46.4778 26.6651 46.4778L28.7961 46.59C28.6142 45.9992 28.3981 45.4845 28.3299 45.13Z" fill="white"/>
</mask>
<g mask="url(#mask3_1_2032)">
<g style="mix-blend-mode:multiply" opacity="0.5">
<path d="M23.4091 43.3814C23.3227 42.5803 22.7268 42.4221 22.3311 42.4081C22.0854 42.5804 21.8904 42.8023 21.7625 43.055C21.3941 43.9101 22.272 43.4555 22.5949 44.0723C22.9179 44.6892 22.0855 45.4162 22.272 45.8628C22.4585 46.3094 23.3341 48.0658 23.3341 48.0658C23.3796 47.9096 23.6206 47.7193 23.9299 47.5351C23.4751 46.9643 22.9202 46.2693 22.6063 45.8668C22.015 45.0957 23.5433 44.6231 23.4091 43.3814Z" fill="black"/>
</g>
</g>
<path d="M28.3299 45.1291C28.157 44.254 27.6999 42.842 27.9069 42.4315C27.7681 42.1371 27.2905 41.4501 25.8805 41.3861C24.0769 41.3039 22.137 42.1992 21.7663 43.0543C21.3955 43.9095 22.2757 43.4549 22.5987 44.0717C22.9216 44.6885 22.0892 45.4155 22.2757 45.8621C22.4622 46.3088 23.3378 48.0651 23.3378 48.0651C23.4765 47.5765 25.5575 46.7614 25.5575 46.7614C25.8585 46.8314 26.1701 46.8591 26.4809 46.8435C26.8971 46.8034 26.6651 46.477 26.6651 46.477L28.7961 46.5891C28.6142 45.9983 28.3981 45.4836 28.3299 45.1291Z" stroke="#EC2226" stroke-opacity="0.47" stroke-miterlimit="10"/>
<path d="M24.414 44.9333C24.4731 45.1596 24.414 45.3659 24.298 45.39C24.182 45.414 24.0274 45.2498 23.9705 45.0215C23.9136 44.7931 23.9705 44.5889 24.0865 44.5648C24.2025 44.5408 24.3571 44.705 24.414 44.9333Z" fill="#EC2226" fill-opacity="0.47"/>
<path d="M27.1652 44.4338C27.2244 44.6621 27.1652 44.8664 27.0493 44.8904C26.9333 44.9144 26.7786 44.7502 26.7195 44.5219C26.6604 44.2936 26.7195 44.0893 26.8378 44.0653C26.956 44.0412 27.1061 44.2055 27.1652 44.4338Z" fill="#EC2226" fill-opacity="0.47"/>
<path d="M23.3379 43.8674C23.3379 43.8674 23.5221 42.9722 24.5865 43.3387" stroke="#EC2226" stroke-opacity="0.47" stroke-linecap="round" stroke-linejoin="round"/>
<path d="M27.4475 42.9322C26.6606 42.4836 26.3831 43.1324 26.3831 43.1324C26.3831 43.1324 25.885 43.6131 26.0875 44.5003" stroke="#EC2226" stroke-opacity="0.47" stroke-linecap="round" stroke-linejoin="round"/>
<path d="M23.4766 46.2686L24.8161 45.7819" stroke="#EC2226" stroke-opacity="0.47" stroke-width="0.5" stroke-linecap="round" stroke-linejoin="round"/>
<path d="M26.7129 45.4157L27.8205 45.3336" stroke="#EC2226" stroke-opacity="0.47" stroke-width="0.5" stroke-linecap="round" stroke-linejoin="round"/>
<path d="M60.6515 30.2832C65.772 29.1982 68.9242 24.6633 67.692 20.1542C66.4598 15.6452 61.31 12.8694 56.1895 13.9544C51.069 15.0395 47.9168 19.5744 49.149 24.0835C50.3812 28.5925 55.531 31.3683 60.6515 30.2832Z" fill="black" stroke="#EC2226" stroke-opacity="0.47" stroke-miterlimit="10"/>
<path opacity="0.3" d="M60.6515 30.2832C65.772 29.1982 68.9242 24.6633 67.692 20.1542C66.4598 15.6452 61.31 12.8694 56.1895 13.9544C51.069 15.0395 47.9168 19.5744 49.149 24.0835C50.3812 28.5925 55.531 31.3683 60.6515 30.2832Z" fill="white" stroke="#EC2226" stroke-opacity="0.47" stroke-miterlimit="10"/>
<path d="M66.5652 20.4472C67.8499 17.3972 65.968 13.97 62.362 12.7922C58.756 11.6144 54.7913 13.1321 53.5067 16.1821C52.2221 19.232 54.1039 22.6592 57.7099 23.837C61.3159 25.0148 65.2806 23.4971 66.5652 20.4472Z" fill="#EC2226" fill-opacity="0.47" stroke="#EC2226" stroke-opacity="0.47" stroke-miterlimit="10"/>
<path d="M66.5162 17.1475C66.8315 18.1398 66.8109 19.1915 66.457 20.1736" stroke="white" stroke-width="0.75" stroke-linecap="round" stroke-linejoin="round"/>
<path d="M66.0332 20.9686C66.0332 20.9686 65.6102 21.4473 65.3691 21.7136" stroke="white" stroke-width="0.75" stroke-linecap="round" stroke-linejoin="round"/>
<path d="M56.1447 14.5971C56.1447 14.5971 55.1804 15.5985 55.7831 16.8281" stroke="white" stroke-width="0.75" stroke-linecap="round" stroke-linejoin="round"/>
<path d="M58.4212 30.5176C60.1784 30.5203 61.902 30.0932 63.3997 29.2839C62.2875 28.3807 59.3924 26.1316 58.0278 26.0335C56.5995 25.9313 52.4307 27.1069 51.0957 27.4975C51.9899 28.4437 53.1099 29.2049 54.376 29.7269C55.6421 30.2489 57.0232 30.5188 58.4212 30.5176Z" fill="white" stroke="#EC2226" stroke-opacity="0.47" stroke-miterlimit="10"/>
<path d="M59.829 27.093C59.8676 26.9929 59.9018 26.8928 59.9381 26.8107C59.2058 26.3821 58.5167 26.0696 58.0277 26.0336C57.4341 26.0282 56.842 26.0881 56.2651 26.2118C56.0127 26.8127 55.9467 27.4135 55.7421 28.4369C55.4646 29.8208 55.8808 30.2273 57.0361 29.6986C58.1915 29.1699 59.3673 28.3127 59.829 27.093Z" fill="white" stroke="#EC2226" stroke-opacity="0.47" stroke-miterlimit="10"/>
<path d="M57.0563 24.5271C57.0563 24.5271 57.3337 24.9757 57.0108 26.0331C56.6878 27.0906 55.8736 28.8369 56.2512 29.1694C56.6287 29.5018 58.9053 27.9878 58.9963 26.8482C59.0872 25.7087 59.0895 23.4296 59.0895 23.4296L57.0563 24.5271Z" fill="white"/>
<mask id="mask4_1_2032" style="mask-type:luminance" maskUnits="userSpaceOnUse" x="56" y="23" width="4" height="7">
<path d="M57.0573 24.5271C57.0573 24.5271 57.3347 24.9757 57.0118 26.0331C56.6888 27.0906 55.8746 28.8369 56.2522 29.1694C56.6297 29.5018 58.9063 27.9878 58.9972 26.8482C59.0882 25.7087 59.0905 23.4296 59.0905 23.4296L57.0573 24.5271Z" fill="white"/>
</mask>
<g mask="url(#mask4_1_2032)">
<g style="mix-blend-mode:multiply" opacity="0.5">
<path d="M57.1635 25.2132L58.6236 26.2146L58.5122 27.8168C58.771 27.5386 58.9385 27.2034 58.9966 26.8474C59.0899 25.7079 59.0899 23.4288 59.0899 23.4288L57.0566 24.5263C57.1555 24.7441 57.1922 24.98 57.1635 25.2132Z" fill="black"/>
</g>
</g>
<path d="M57.0563 24.5271C57.0563 24.5271 57.3337 24.9757 57.0108 26.0331C56.6878 27.0906 55.8736 28.8369 56.2512 29.1694C56.6287 29.5018 58.9053 27.9878 58.9963 26.8482C59.0872 25.7087 59.0895 23.4296 59.0895 23.4296L57.0563 24.5271Z" stroke="#EC2226" stroke-opacity="0.47" stroke-miterlimit="10"/>
<path d="M54.7388 19.5223C54.7388 19.5223 54.4158 18.7893 53.9996 19.322C53.5834 19.8547 54.0906 20.5016 54.3226 20.5016C54.5546 20.5016 54.7388 19.5223 54.7388 19.5223Z" fill="white" stroke="#EC2226" stroke-opacity="0.47" stroke-miterlimit="10"/>
<path d="M55.8079 17.1606C55.8079 17.1606 54.4683 19.4797 54.1454 21.0679C53.8224 22.6561 55.162 25.0553 56.5016 25.0553C57.8411 25.0553 59.913 23.2248 59.913 23.2248C59.913 23.2248 61.853 23.2649 62.1305 22.6961C62.4079 22.1273 62.085 21.6787 61.5755 21.6787H60.5589C60.5589 21.6787 60.2814 21.8009 60.4202 20.6614C60.5589 19.5218 60.9751 18.9931 60.9751 18.9931C60.9751 18.9931 57.4681 19.2354 55.8079 17.1606Z" fill="white"/>
<mask id="mask5_1_2032" style="mask-type:luminance" maskUnits="userSpaceOnUse" x="54" y="17" width="9" height="9">
<path d="M55.8089 17.1606C55.8089 17.1606 54.4693 19.4797 54.1464 21.0679C53.8234 22.6561 55.163 25.0553 56.5025 25.0553C57.8421 25.0553 59.914 23.2248 59.914 23.2248C59.914 23.2248 61.854 23.2649 62.1314 22.6961C62.4089 22.1273 62.0859 21.6787 61.5765 21.6787H60.5599C60.5599 21.6787 60.2824 21.8009 60.4212 20.6614C60.5599 19.5218 60.9761 18.9931 60.9761 18.9931C60.9761 18.9931 57.4691 19.2354 55.8089 17.1606Z" fill="white"/>
</mask>
<g mask="url(#mask5_1_2032)">
<g style="mix-blend-mode:multiply" opacity="0.5">
<path d="M59.3606 22.4902C59.0796 23.1198 58.6172 23.6741 58.0191 24.0987C57.4209 24.5232 56.7076 24.8033 55.9492 24.9115H55.9355C56.1104 25.0014 56.3085 25.0503 56.5109 25.0537C57.8505 25.0537 59.9224 23.2232 59.9224 23.2232C59.9224 23.2232 61.8624 23.2632 62.1398 22.6944C62.4173 22.1257 62.0944 21.6771 61.5849 21.6771H60.5683C60.5683 21.6771 60.2908 21.7992 60.4296 20.6597C60.5683 19.5201 60.9845 18.9914 60.9845 18.9914C60.9845 18.9914 60.7571 19.0054 60.3818 18.9914H60.3659" fill="black"/>
</g>
</g>
<path d="M55.8079 17.1606C55.8079 17.1606 54.4683 19.4797 54.1454 21.0679C53.8224 22.6561 55.162 25.0553 56.5016 25.0553C57.8411 25.0553 59.913 23.2248 59.913 23.2248C59.913 23.2248 61.853 23.2649 62.1305 22.6961C62.4079 22.1273 62.085 21.6787 61.5755 21.6787H60.5589C60.5589 21.6787 60.2814 21.8009 60.4202 20.6614C60.5589 19.5218 60.9751 18.9931 60.9751 18.9931C60.9751 18.9931 57.4681 19.2354 55.8079 17.1606Z" stroke="#EC2226" stroke-opacity="0.47" stroke-miterlimit="10"/>
<path d="M56.0541 19.7568C55.9995 19.969 55.8858 20.1273 55.8017 20.1112C55.7175 20.0952 55.6948 19.911 55.7494 19.6947C55.8039 19.4784 55.9177 19.3242 56.0018 19.3402C56.086 19.3562 56.1042 19.5425 56.0541 19.7568Z" fill="#EC2226" fill-opacity="0.47"/>
<path d="M58.226 20.6095C58.1714 20.8218 58.0577 20.982 57.9736 20.964C57.8894 20.946 57.8667 20.7637 57.9212 20.5494C57.9758 20.3351 58.0895 20.1769 58.1737 20.1949C58.2578 20.213 58.2806 20.3972 58.226 20.6095Z" fill="#EC2226" fill-opacity="0.47"/>
<path d="M56.4085 20.295C56.4085 20.295 55.3919 20.9459 55.5306 21.1082C55.91 21.3955 56.3763 21.5792 56.8724 21.6369C57.2886 21.6369 57.1954 21.1903 57.1954 21.1903" stroke="#EC2226" stroke-opacity="0.47" stroke-linecap="round" stroke-linejoin="round"/>
<path d="M55.6699 22.1685C56.1782 22.4124 56.7597 22.5118 57.3347 22.4529C57.572 22.4324 57.8003 22.3627 58.0011 22.2496C58.2019 22.1365 58.3695 21.9831 58.4901 21.802" stroke="#EC2226" stroke-opacity="0.47" stroke-linecap="round" stroke-linejoin="round"/>
<path d="M55.7627 18.7894C55.7627 18.7894 56.0402 18.2607 56.5951 18.8716" stroke="#EC2226" stroke-opacity="0.47" stroke-linecap="round" stroke-linejoin="round"/>
<path d="M58.1191 19.5223C58.1191 19.5223 59.0448 19.278 59.0448 20.0911" stroke="#EC2226" stroke-opacity="0.47" stroke-linecap="round" stroke-linejoin="round"/>
<path d="M26.7736 30.4067C31.9704 29.654 35.4904 25.334 34.6357 20.7578C33.7809 16.1815 28.8751 13.0818 23.6783 13.8345C18.4814 14.5872 14.9615 18.9071 15.8162 23.4834C16.6709 28.0597 21.5767 31.1594 26.7736 30.4067Z" fill="black" stroke="#EC2226" stroke-opacity="0.47" stroke-miterlimit="10"/>
<path opacity="0.3" d="M26.7736 30.4067C31.9704 29.654 35.4904 25.334 34.6357 20.7578C33.7809 16.1815 28.8751 13.0818 23.6783 13.8345C18.4814 14.5872 14.9615 18.9071 15.8162 23.4834C16.6709 28.0597 21.5767 31.1594 26.7736 30.4067Z" fill="white" stroke="#EC2226" stroke-opacity="0.47" stroke-miterlimit="10"/>
<path d="M18.664 26.3798C18.5002 26.9545 17.7543 26.8744 17.9817 27.5814C19.5055 29.1522 21.6337 30.1729 23.9588 30.4482C26.284 30.7235 28.6427 30.234 30.5836 29.0734C31.2659 28.3625 31.6753 27.6154 31.6935 27.0146C31.7549 25.1801 29.5534 23.8103 29.4351 22.9271C29.3168 22.0439 30.2675 20.0471 30.2675 20.0471C30.2675 20.0471 31.9323 19.8368 32.5281 18.5291C33.124 17.2213 30.8588 14.2793 28.8347 13.3881C26.8105 12.4968 23.4218 13.2839 21.757 15.4308C20.0923 17.5778 22.1141 19.4643 21.0429 20.4597C19.9717 21.455 17.1766 21.5071 16.8787 23.4978C16.5807 25.4885 18.8414 25.7509 18.664 26.3798Z" fill="#EC2226" fill-opacity="0.47" stroke="#EC2226" stroke-opacity="0.47" stroke-miterlimit="10"/>
<path d="M28.8421 15.3853C28.8421 15.3853 29.4448 16.6851 27.0977 17.4521C24.7506 18.2192 22.9403 17.8066 22.3353 19.1645C21.7303 20.5223 22.2011 21.4696 22.2693 22.1686C22.3376 22.8675 20.4499 22.7574 19.3128 23.6446C18.1756 24.5318 20.4499 25.5932 21.0571 26.184C21.6644 26.7748 21.5257 27.66 20.4522 27.9564" stroke="white" stroke-width="0.75" stroke-linecap="round" stroke-linejoin="round"/>
<path d="M21.7324 18.1028C21.7324 18.1028 22.6035 16.2122 23.9453 15.9158C25.2872 15.6194 26.7632 16.5066 27.7684 15.6795C28.7737 14.8523 28.5735 14.2635 27.8344 13.7909" stroke="white" stroke-width="0.75" stroke-linecap="round" stroke-linejoin="round"/>
<path d="M29.8467 16.1523C29.8467 16.1523 32.196 17.5122 31.3909 18.5756C30.5858 19.6391 30.3175 18.3393 30.3175 18.3393" stroke="white" stroke-width="0.75" stroke-linecap="round" stroke-linejoin="round"/>
<path d="M20.0537 29.1744C21.8352 30.1882 23.9498 30.6497 26.0627 30.4857C28.1756 30.3218 30.166 29.5417 31.7186 28.2692C31.0165 27.7012 30.2719 27.1753 29.4898 26.695C28.0024 25.8038 26.8129 25.4934 25.9805 25.5415C25.9805 25.5415 25.3255 25.8038 24.077 26.8512C23.2627 27.5342 21.3069 28.5495 20.0537 29.1744Z" fill="white" stroke="#EC2226" stroke-opacity="0.47" stroke-miterlimit="10"/>
<path d="M28.1794 26.9807C28.1801 26.6322 28.1234 26.2855 28.0111 25.9513C27.3813 25.6741 26.6841 25.5366 25.9801 25.5507C25.9801 25.5507 25.4593 25.751 24.4654 26.5521C24.4444 26.7003 24.4338 26.8494 24.4336 26.9987C24.4336 28.3746 25.2705 29.4881 26.3053 29.4881C27.3402 29.4881 28.1794 28.3566 28.1794 26.9807Z" fill="white" stroke="#EC2226" stroke-opacity="0.47" stroke-miterlimit="10"/>
<path d="M25.5029 22.8687C25.5029 22.8687 25.5029 24.3367 25.3255 25.6985C25.1481 27.0604 25.3846 28.5264 26.5149 28.6305C27.6453 28.7346 27.4656 26.3794 27.3473 25.4361C27.2771 24.8443 27.2771 24.2476 27.3473 23.6557L25.5029 22.8687Z" fill="white"/>
<mask id="mask6_1_2032" style="mask-type:luminance" maskUnits="userSpaceOnUse" x="25" y="22" width="3" height="7">
<path d="M25.5019 22.8687C25.5019 22.8687 25.5019 24.3367 25.3245 25.6985C25.1471 27.0604 25.3836 28.5264 26.514 28.6305C27.6443 28.7346 27.4646 26.3794 27.3463 25.4361C27.2762 24.8443 27.2762 24.2476 27.3463 23.6557L25.5019 22.8687Z" fill="white"/>
</mask>
<g mask="url(#mask6_1_2032)">
<g style="mix-blend-mode:multiply" opacity="0.5">
<path d="M25.29 26.0148L27.2982 24.3005C27.2982 24.2464 27.2982 24.1943 27.2982 24.1462L26.8889 23.4753L25.4947 22.8745C25.4947 22.8745 25.4947 24.3425 25.3173 25.7044C25.3105 25.8025 25.2991 25.9086 25.29 26.0148Z" fill="black"/>
</g>
</g>
<path d="M25.5029 22.8687C25.5029 22.8687 25.5029 24.3367 25.3255 25.6985C25.1481 27.0604 25.3846 28.5264 26.5149 28.6305C27.6453 28.7346 27.4656 26.3794 27.3473 25.4361C27.2771 24.8443 27.2771 24.2476 27.3473 23.6557L25.5029 22.8687Z" stroke="#EC2226" stroke-opacity="0.47" stroke-miterlimit="10"/>
<path d="M29.5487 16.3222C29.5487 16.3222 29.667 17.0031 27.6451 17.8423C25.6233 18.6814 24.6112 19.3603 24.4338 20.1454C24.2564 20.9305 24.195 21.2469 24.195 21.2469C24.195 21.2469 23.7788 20.5119 23.0056 20.8784C22.2323 21.2449 22.9464 22.6608 23.6606 22.7129C24.3747 22.765 24.5521 22.5547 24.5521 22.5547C24.5521 22.5547 26.8719 24.5975 28.2387 24.5975C29.6056 24.5975 30.1423 23.4459 30.4403 21.3931C30.7291 19.4224 29.5487 16.3222 29.5487 16.3222Z" fill="white"/>
<mask id="mask7_1_2032" style="mask-type:luminance" maskUnits="userSpaceOnUse" x="22" y="16" width="9" height="9">
<path d="M29.5497 16.3217C29.5497 16.3217 29.668 17.0026 27.6461 17.8418C25.6243 18.6809 24.6122 19.3599 24.4348 20.1449C24.2574 20.93 24.196 21.2464 24.196 21.2464C24.196 21.2464 23.7798 20.5114 23.0065 20.8779C22.2333 21.2444 22.9474 22.6603 23.6615 22.7124C24.3757 22.7645 24.5531 22.5542 24.5531 22.5542C24.5531 22.5542 26.8728 24.597 28.2397 24.597C29.6066 24.597 30.1433 23.4454 30.4412 21.3926C30.7301 19.4219 29.5497 16.3217 29.5497 16.3217Z" fill="white"/>
</mask>
<g mask="url(#mask7_1_2032)">
<g style="mix-blend-mode:multiply" opacity="0.5">
<path d="M25.0852 20.523C25.1574 19.8633 25.4239 19.2316 25.8585 18.6905C25.0102 19.1792 24.5485 19.6398 24.4348 20.1445C24.2551 20.9315 24.196 21.246 24.196 21.246C24.196 21.246 23.7798 20.511 23.0065 20.8775C22.2333 21.244 22.9474 22.6599 23.6615 22.712C24.3757 22.764 24.5531 22.5538 24.5531 22.5538C24.5531 22.5538 26.8728 24.5965 28.2397 24.5965C27.8339 24.4189 27.4524 24.2012 27.1025 23.9477C26.2929 23.4269 25.0193 21.8248 25.0852 20.523Z" fill="black"/>
</g>
</g>
<path d="M29.5487 16.3222C29.5487 16.3222 29.667 17.0031 27.6451 17.8423C25.6233 18.6814 24.6112 19.3603 24.4338 20.1454C24.2564 20.9305 24.195 21.2469 24.195 21.2469C24.195 21.2469 23.7788 20.5119 23.0056 20.8784C22.2323 21.2449 22.9464 22.6608 23.6606 22.7129C24.3747 22.765 24.5521 22.5547 24.5521 22.5547C24.5521 22.5547 26.8719 24.5975 28.2387 24.5975C29.6056 24.5975 30.1423 23.4459 30.4403 21.3931C30.7291 19.4224 29.5487 16.3222 29.5487 16.3222Z" stroke="#EC2226" stroke-opacity="0.47" stroke-miterlimit="10"/>
<path d="M29.1376 19.5009C29.0701 19.6633 29.042 19.8363 29.0554 20.0088C29.0687 20.1813 29.123 20.3495 29.2149 20.5023C29.5265 21.017 29.6834 21.1872 29.5674 21.3254C29.5342 21.3729 29.4906 21.4142 29.4392 21.4468C29.3878 21.4795 29.3296 21.5029 29.2679 21.5157C29.2062 21.5286 29.1423 21.5306 29.0797 21.5216C29.0172 21.5127 28.9572 21.493 28.9033 21.4636" stroke="#EC2226" stroke-opacity="0.47" stroke-linecap="round" stroke-linejoin="round"/>
<path d="M28.9033 22.6954C28.9033 22.6954 27.7662 23.0739 27.3818 22.3509" stroke="#EC2226" stroke-opacity="0.47" stroke-linecap="round" stroke-linejoin="round"/>
<path d="M27.7725 20.2734C27.7725 20.4917 27.702 20.674 27.6156 20.674C27.5292 20.674 27.4609 20.4977 27.4609 20.2734C27.4609 20.0491 27.5292 19.8729 27.6156 19.8729C27.702 19.8729 27.7725 20.0551 27.7725 20.2734Z" fill="#EC2226" fill-opacity="0.47"/>
<path d="M29.6833 20.2216C29.77 20.2216 29.8402 20.045 29.8402 19.8271C29.8402 19.6092 29.77 19.4326 29.6833 19.4326C29.5966 19.4326 29.5264 19.6092 29.5264 19.8271C29.5264 20.045 29.5966 20.2216 29.6833 20.2216Z" fill="#EC2226" fill-opacity="0.47"/>
<path d="M26.6426 19.1243C26.6426 19.1243 26.87 18.5735 27.8116 18.6777" stroke="#EC2226" stroke-opacity="0.47" stroke-linecap="round" stroke-linejoin="round"/>
<path d="M29.1758 18.5737C29.1758 18.5737 29.4487 17.9909 30.0332 18.4715" stroke="#EC2226" stroke-opacity="0.47" stroke-linecap="round" stroke-linejoin="round"/>
</svg>
