<svg width="215" height="140" viewBox="0 0 215 140" fill="none" xmlns="http://www.w3.org/2000/svg">
<path d="M121.9 13.6317V8.99247C121.9 8.8774 121.944 8.76704 122.021 8.68567C122.098 8.60431 122.202 8.55859 122.311 8.55859H123.367C123.629 8.56033 123.884 8.63834 124.106 8.78401C124.328 8.92968 124.508 9.13733 124.625 9.38402C124.742 9.6307 124.793 9.90682 124.77 10.1819C124.748 10.4569 124.655 10.7202 124.5 10.9426C124.729 11.0954 124.917 11.3065 125.048 11.5565C125.179 11.8065 125.248 12.0872 125.249 12.3729C125.25 12.5944 125.209 12.8137 125.129 13.0185C125.05 13.2232 124.932 13.4093 124.784 13.5661C124.636 13.7229 124.46 13.8473 124.267 13.9322C124.073 14.0171 123.866 14.0608 123.656 14.0608H122.302C122.196 14.0583 122.094 14.0122 122.019 13.9321C121.944 13.852 121.902 13.7443 121.9 13.6317ZM122.726 10.6899H123.367C123.446 10.6886 123.523 10.6711 123.595 10.6383C123.666 10.6055 123.731 10.5581 123.786 10.4988C123.84 10.4395 123.883 10.3694 123.912 10.2925C123.941 10.2157 123.955 10.1336 123.954 10.051C123.955 9.96938 123.94 9.88849 123.911 9.81301C123.881 9.73752 123.838 9.66893 123.784 9.61125C123.729 9.55357 123.664 9.50794 123.593 9.47701C123.521 9.44609 123.444 9.43049 123.367 9.43112H122.726V10.6899ZM122.726 13.1882H123.656C123.85 13.1725 124.031 13.0801 124.163 12.9294C124.296 12.7786 124.369 12.5808 124.369 12.3753C124.369 12.1699 124.296 11.972 124.163 11.8213C124.031 11.6705 123.85 11.5781 123.656 11.5624H122.726V13.1882Z" fill="white"/>
<path d="M129.919 13.416C129.951 13.5262 129.943 13.6463 129.897 13.7501C129.851 13.8539 129.77 13.933 129.673 13.97C129.623 13.9866 129.572 13.9946 129.52 13.9939C129.424 13.9951 129.33 13.9653 129.248 13.9079C129.156 13.836 129.079 13.7412 129.024 13.6309C128.911 13.3292 128.862 13.0023 128.879 12.6757C128.877 12.5564 128.848 12.4399 128.795 12.3366C128.739 12.2441 128.667 12.166 128.583 12.1073C128.463 12.0206 128.331 11.9576 128.192 11.921H127.37V13.6309C127.367 13.7466 127.325 13.8566 127.251 13.9371C127.177 14.0176 127.078 14.062 126.975 14.0608C126.925 14.0614 126.875 14.0507 126.828 14.0294C126.781 14.0081 126.738 13.9765 126.703 13.9365C126.667 13.8966 126.638 13.849 126.619 13.7965C126.599 13.744 126.589 13.6877 126.589 13.6309V8.99325C126.589 8.936 126.598 8.87919 126.618 8.82617C126.637 8.77315 126.665 8.72498 126.701 8.68449C126.737 8.64401 126.78 8.61202 126.827 8.5904C126.874 8.56879 126.924 8.55798 126.975 8.55862H128.226C128.622 8.56366 129 8.74483 129.277 9.06253C129.554 9.38023 129.709 9.80864 129.706 10.2542C129.707 10.5015 129.657 10.7456 129.563 10.9688C129.468 11.1919 129.33 11.3884 129.159 11.5437C129.256 11.6238 129.339 11.7224 129.405 11.8351C129.558 12.0852 129.639 12.3817 129.639 12.6852C129.63 12.845 129.639 13.0054 129.664 13.1628C129.721 13.1801 129.774 13.2119 129.818 13.2558C129.862 13.2997 129.896 13.3545 129.919 13.416ZM128.939 10.2542C128.94 10.1467 128.922 10.0401 128.886 9.9405C128.851 9.84089 128.798 9.75025 128.731 9.67384C128.664 9.59743 128.584 9.53676 128.496 9.49536C128.408 9.45396 128.313 9.43265 128.218 9.43266H127.37V11.0565H128.218C128.312 11.0572 128.405 11.0369 128.492 10.9969C128.58 10.957 128.659 10.898 128.726 10.8235C128.793 10.749 128.846 10.6604 128.883 10.5627C128.919 10.465 128.938 10.3602 128.939 10.2542Z" fill="white"/>
<path d="M135.695 12.756H134.23L133.933 13.7767C133.909 13.8584 133.866 13.9285 133.811 13.9778C133.755 14.0272 133.689 14.0535 133.622 14.0534C133.583 14.0633 133.544 14.0633 133.505 14.0534C133.422 14.0126 133.354 13.9306 133.317 13.8251C133.28 13.7196 133.276 13.5994 133.307 13.4905L134.64 8.83074C134.666 8.74807 134.711 8.67775 134.769 8.62916C134.826 8.58058 134.894 8.55606 134.963 8.55887C135.031 8.55567 135.098 8.5801 135.155 8.62879C135.212 8.67749 135.256 8.74805 135.281 8.83074L136.614 13.4667C136.645 13.5755 136.642 13.6958 136.605 13.8012C136.568 13.9067 136.5 13.9888 136.417 14.0295C136.379 14.0398 136.34 14.0398 136.303 14.0295C136.236 14.0315 136.17 14.0058 136.115 13.9561C136.06 13.9064 136.018 13.8353 135.995 13.7529L135.695 12.756ZM135.446 11.8928L134.959 10.1996L134.468 11.8928H135.446Z" fill="white"/>
<path d="M140.675 13.6275C140.674 13.7412 140.638 13.85 140.574 13.9308C140.511 14.0117 140.425 14.0583 140.334 14.0608C140.289 14.0614 140.243 14.0506 140.201 14.0292C140.159 14.0077 140.12 13.9759 140.088 13.9356C140.055 13.8953 140.03 13.8473 140.012 13.7944C139.995 13.7415 139.985 13.6848 139.985 13.6275V9.00585C139.983 8.93536 139.994 8.86518 140.018 8.80142C140.042 8.73766 140.078 8.68223 140.123 8.63997C140.198 8.57328 140.29 8.546 140.38 8.56401C140.471 8.58202 140.552 8.64388 140.606 8.73625L142.644 12.2843V9.01547C142.645 8.90223 142.682 8.79397 142.745 8.71389C142.809 8.63381 142.895 8.58826 142.985 8.58701C143.077 8.58698 143.164 8.63182 143.229 8.7119C143.294 8.79199 143.332 8.90096 143.334 9.01547V13.6275C143.333 13.7428 143.296 13.853 143.231 13.9341C143.165 14.0153 143.077 14.0608 142.985 14.0608C142.936 14.0599 142.887 14.0452 142.843 14.0177C142.798 13.9902 142.759 13.9506 142.729 13.9019C142.714 13.8896 142.702 13.8731 142.694 13.8537L140.675 10.3298V13.6275Z" fill="white"/>
<path d="M146.682 13.6317V8.9925C146.682 8.93534 146.69 8.87864 146.708 8.82571C146.726 8.77278 146.752 8.72469 146.785 8.68428C146.818 8.64386 146.857 8.61192 146.9 8.59035C146.944 8.56877 146.99 8.55798 147.037 8.55862H147.784C148.38 8.55862 148.952 8.84847 149.373 9.36439C149.794 9.88032 150.031 10.5801 150.031 11.3097C150.031 12.0393 149.794 12.7391 149.373 13.255C148.952 13.7709 148.38 14.0608 147.784 14.0608H147.025C146.933 14.0583 146.846 14.012 146.782 13.9318C146.718 13.8516 146.682 13.7438 146.682 13.6317ZM147.395 13.1883H147.784C148.191 13.1883 148.581 12.9903 148.869 12.638C149.157 12.2857 149.318 11.8079 149.318 11.3097C149.318 10.8115 149.157 10.3337 148.869 9.98136C148.581 9.62906 148.191 9.43115 147.784 9.43115H147.395V13.1883Z" fill="white"/>
<path d="M175.483 140V115.395H181.191V109.432L186.005 115.395H211.651V140H175.483Z" fill="white"/>
<path d="M175.593 139.806C175.574 139.574 175.496 115.803 175.483 115.581H175.593L181.253 115.557L181.122 115.715L181.105 109.868V109.432L181.359 109.74L186.146 115.564C185.529 115.388 211.598 115.544 211.462 115.479H211.651V115.71L211.629 139.801V140H211.466C202.525 139.961 184.537 139.875 175.598 139.803L175.593 139.806ZM175.593 139.806C184.532 139.732 202.525 139.646 211.46 139.607L211.299 139.806L211.276 115.715L211.466 115.946L185.967 115.921L185.917 115.861L181.149 110.004L181.399 109.877L181.382 115.715V115.886H181.262L175.602 115.861L175.714 115.726L175.602 139.817L175.593 139.806Z" fill="#EBEBEB"/>
<path d="M202.641 129.193C203.444 128.658 203.737 127.436 203.295 126.464C202.853 125.491 201.845 125.137 201.042 125.672C200.239 126.207 199.947 127.429 200.388 128.401C200.83 129.373 201.839 129.728 202.641 129.193Z" fill="#EBEBEB"/>
<path d="M194.191 129.294C195.039 128.873 195.444 127.7 195.096 126.673C194.749 125.646 193.78 125.155 192.932 125.576C192.085 125.997 191.679 127.171 192.027 128.198C192.375 129.225 193.344 129.716 194.191 129.294Z" fill="#EBEBEB"/>
<path d="M185.48 129.428C186.389 129.293 187.036 128.29 186.925 127.189C186.813 126.087 185.986 125.304 185.076 125.439C184.167 125.574 183.52 126.576 183.632 127.678C183.743 128.779 184.571 129.563 185.48 129.428Z" fill="#EBEBEB"/>
<path d="M36.1953 72.5867C47.9098 68.3827 54.0519 55.0258 49.9141 42.7533C45.7763 30.4807 32.9255 23.9399 21.211 28.1439C9.49648 32.3479 3.35435 45.7047 7.49215 57.9773C11.63 70.2498 24.4808 76.7907 36.1953 72.5867Z" fill="#EBEBEB"/>
<path d="M11.3863 49.8436C11.3211 59.6329 19.2106 67.7 29.0098 67.8583C31.348 67.8892 33.6691 67.4606 35.838 66.5977C38.0069 65.7347 39.9804 64.4545 41.6437 62.8316C43.3069 61.2087 44.6268 59.2754 45.5264 57.1442C46.426 55.0131 46.8875 52.7265 46.884 50.4177C46.9491 40.6234 39.0546 32.5613 29.2604 32.4029C26.9222 32.3721 24.6012 32.8006 22.4323 33.6636C20.2633 34.5265 18.2898 35.8067 16.6266 37.4296C14.9633 39.0526 13.6435 40.9858 12.7438 43.117C11.8442 45.2482 11.3827 47.5347 11.3863 49.8436Z" fill="white"/>
<path d="M16.745 50.5359C16.7125 53.929 18.0201 57.1988 20.3856 59.6392C22.751 62.0796 25.9845 63.495 29.388 63.5797C31.0644 63.6008 32.7283 63.2894 34.283 62.6638C35.8376 62.0382 37.2519 61.1107 38.4437 59.9353C39.6355 58.76 40.5809 57.3602 41.225 55.8174C41.8691 54.2746 42.199 52.6195 42.1956 50.9485C42.228 47.5554 40.9204 44.2856 38.5549 41.8452C36.1895 39.4048 32.956 37.9894 29.5526 37.9048C27.8763 37.8843 26.2127 38.1961 24.6584 38.822C23.104 39.4479 21.69 40.3753 20.4983 41.5506C19.3067 42.7258 18.3613 44.1253 17.7169 45.6678C17.0726 47.2103 16.7422 48.8651 16.745 50.5359Z" fill="#EBEBEB"/>
<path d="M21.4338 49.9971C21.4095 52.0986 22.1641 54.1255 23.5339 55.6382C24.9037 57.151 26.7783 58.0276 28.7511 58.078C29.7216 58.0907 30.6848 57.8979 31.5848 57.5108C32.4847 57.1237 33.3035 56.5501 33.9936 55.8232C34.6836 55.0962 35.2312 54.2305 35.6045 53.2763C35.9777 52.3221 36.1693 51.2985 36.1679 50.2648C36.191 48.1637 35.436 46.1376 34.0664 44.6251C32.6969 43.1126 30.823 42.2356 28.8507 42.1839C27.8801 42.1712 26.9169 42.364 26.0169 42.7511C25.117 43.1382 24.2982 43.7118 23.6081 44.4387C22.9181 45.1657 22.3705 46.0314 21.9972 46.9856C21.624 47.9398 21.4325 48.9634 21.4338 49.9971Z" fill="white"/>
<path d="M24.7823 50.0582C24.7652 51.192 25.1399 52.2873 25.8241 53.1033C26.5083 53.9194 27.4459 54.3895 28.4311 54.4104C28.9167 54.4201 29.3992 54.3183 29.8502 54.111C30.3013 53.9036 30.7119 53.5949 31.0581 53.2027C31.4042 52.8106 31.679 52.343 31.8663 51.8272C32.0536 51.3114 32.1496 50.7578 32.1489 50.1988C32.1645 49.0661 31.7892 47.9724 31.1052 47.1577C30.4211 46.343 29.4843 45.8737 28.5001 45.8528C28.0147 45.8422 27.5324 45.9432 27.0813 46.1499C26.6303 46.3566 26.2196 46.6648 25.8734 47.0564C25.5271 47.4481 25.2523 47.9153 25.0649 48.4308C24.8776 48.9462 24.7815 49.4995 24.7823 50.0582Z" fill="#EBEBEB"/>
<path d="M28.3072 51.3536L50.9038 38.2653L50.7325 37.9038L28.1311 50.9921L28.3072 51.3536Z" fill="#EBEBEB"/>
<path d="M53.0022 37.9039L52.8849 37.8773L50.9038 37.4609L54.8138 36.0698L56.9318 36.5084L53.0022 37.9039Z" fill="#EBEBEB"/>
<path d="M54.9225 34.2361L54.3094 36.076L50.9038 37.9042C51.1709 37.318 51.3727 36.7028 51.5054 36.0701L54.9225 34.2361Z" fill="#EBEBEB"/>
<path d="M28.1311 49.6661L28.496 51.3539L29.4707 51.1439L28.8316 49.8011L28.7674 47.6858L28.1311 49.6661Z" fill="#EBEBEB"/>
<path d="M163.507 85.0578L128.896 98.2241L136.99 120.87L171.601 107.703L163.507 85.0578Z" fill="#EBEBEB"/>
<path d="M164.097 85.5894C163.166 87.4533 162.19 89.2675 161.245 91.1115C160.299 92.9555 159.302 94.7547 158.316 96.5638C157.299 98.451 156.265 100.332 155.215 102.206L155.123 102.38L152.342 107.364L152.2 107.598L151.945 107.508L146.551 105.515L146.358 105.445C144.324 104.688 142.29 103.92 140.257 103.128C138.328 102.353 136.384 101.581 134.425 100.81C132.483 100.008 130.541 99.2501 128.598 98.4228C130.556 99.0258 132.508 99.6887 134.461 100.327C136.413 100.965 138.375 101.642 140.328 102.32C142.499 103.073 144.68 103.84 146.856 104.628L151.752 106.387C152.596 104.892 153.445 103.397 154.294 101.936C155.433 99.9429 156.572 97.9892 157.731 96.0256C158.748 94.2712 159.806 92.5369 160.863 90.7825C161.921 89.0282 163.004 87.2938 164.097 85.5894Z" fill="white"/>
<path d="M146.683 105.764C146.677 105.783 146.667 105.801 146.654 105.817L146.285 106.458C145.689 107.473 145.067 108.469 144.419 109.446C143.632 110.652 142.812 111.839 141.962 113.008C141.112 114.176 140.272 115.334 139.388 116.474C138.503 117.613 137.6 118.738 136.637 119.825C137.339 118.561 138.11 117.345 138.892 116.143C139.673 114.942 140.508 113.75 141.348 112.581C142.188 111.413 143.038 110.25 143.922 109.11C144.63 108.201 145.352 107.296 146.109 106.42C146.282 106.219 146.459 106.018 146.639 105.817C146.639 105.817 146.674 105.793 146.683 105.764Z" fill="white"/>
<path d="M171.465 107.598C169.897 107.332 168.381 106.992 166.859 106.58C165.338 106.168 163.827 105.75 162.316 105.308C160.805 104.865 159.31 104.363 157.82 103.829C156.607 103.405 155.394 102.957 154.202 102.448L153.439 102.127L153.381 102.096H153.444L154.306 102.26C155.54 102.496 156.764 102.793 157.966 103.102C159.487 103.49 160.998 103.926 162.504 104.381C164.01 104.835 165.516 105.32 167.006 105.853C168.496 106.386 170.001 106.944 171.465 107.598Z" fill="white"/>
<path d="M176.069 75.1535L172.277 98.9702L208.678 105.14L212.47 81.3235L176.069 75.1535Z" fill="#EBEBEB"/>
<path d="M211.652 82.0501C209.994 83.2685 208.316 84.4196 206.649 85.6121C204.981 86.8047 203.298 87.9298 201.621 89.0757C199.868 90.2682 198.111 91.4469 196.351 92.6118C196.3 92.6528 196.247 92.6909 196.192 92.7259C194.64 93.7629 193.079 94.7999 191.522 95.8369L191.29 95.982L191.121 95.7695C189.951 94.2624 188.784 92.7518 187.621 91.2378C187.577 91.1876 187.536 91.1339 187.5 91.0771C186.175 89.366 184.865 87.6498 183.56 85.8921C182.313 84.2433 181.07 82.5686 179.828 80.899C178.585 79.2294 177.362 77.5288 176.154 75.8074C177.483 77.3629 178.779 78.9183 180.089 80.4738C181.399 82.0293 182.694 83.6367 183.98 85.2388C185.421 87.0052 186.854 88.7957 188.278 90.6104L191.483 94.6703C192.895 93.7525 194.311 92.8244 195.723 91.9222C197.613 90.7038 199.499 89.4905 201.399 88.2928C203.095 87.2298 204.783 86.1669 206.499 85.1247C208.215 84.0826 209.931 83.0404 211.652 82.0501Z" fill="white"/>
<path d="M188.879 90.4805L188.82 90.522L188.113 90.9913C186.979 91.7337 185.829 92.4345 184.663 93.1057C183.244 93.9372 181.802 94.7211 180.345 95.4814C178.887 96.2416 177.441 96.9781 175.961 97.6789C174.482 98.3798 172.992 99.0628 171.465 99.6508C172.841 98.7124 174.25 97.869 175.67 97.0315C177.09 96.1941 178.542 95.416 179.988 94.6558C181.435 93.8956 182.903 93.1472 184.383 92.4464C185.559 91.8881 186.758 91.3417 187.967 90.8487L188.809 90.5102L188.879 90.4805Z" fill="white"/>
<path d="M208.303 103.93C207.253 103.069 206.248 102.153 205.265 101.227C204.282 100.301 203.321 99.3432 202.365 98.3849C201.408 97.4266 200.479 96.4311 199.567 95.4217C198.824 94.6029 198.095 93.7702 197.397 92.9096L196.952 92.3607L196.916 92.3142L196.965 92.3514C197.161 92.5142 197.352 92.6724 197.539 92.8399C198.366 93.5377 199.162 94.2726 199.954 95.0123C200.941 95.9427 201.902 96.8963 202.854 97.8592C203.806 98.8222 204.735 99.813 205.647 100.822C206.559 101.832 207.453 102.851 208.303 103.93Z" fill="white"/>
<path d="M49.8866 116.49H49.2917V116.107H49.8816H51.2697V116.49H49.8866ZM46.808 116.434C46.1338 116.408 45.4744 116.373 44.825 116.332V115.948C45.4744 115.989 46.1338 116.025 46.808 116.05V116.434ZM53.7485 116.403V116.02C54.3979 115.994 55.0573 115.958 55.7315 115.912L55.7563 116.296C55.0771 116.342 54.4128 116.378 53.7634 116.403H53.7485ZM42.3462 116.122C41.672 116.056 41.0077 115.979 40.3632 115.892L40.4128 115.508C41.0473 115.595 41.7067 115.672 42.3958 115.744L42.3462 116.122ZM58.2103 116.122L58.1805 115.738C58.83 115.682 59.4893 115.616 60.1635 115.544L60.2032 115.923C59.5339 115.984 58.8746 116.045 58.2202 116.107L58.2103 116.122ZM62.672 115.611L62.6225 115.227L64.6055 114.951L64.66 115.329C63.9709 115.437 63.3165 115.529 62.6671 115.616L62.672 115.611ZM37.9191 115.498C37.2548 115.38 36.5955 115.247 35.9659 115.109L36.0402 114.736C36.6699 114.874 37.3242 115.002 37.9786 115.125L37.9191 115.498ZM67.0892 114.946L67.0297 114.567L68.983 114.214L69.0474 114.593L67.0892 114.946ZM33.5466 114.506C32.8873 114.322 32.2477 114.122 31.638 113.912L31.752 113.549C32.3568 113.759 32.9963 113.953 33.6408 114.138L33.5466 114.506ZM71.4865 114.112L71.4122 113.733C72.0517 113.6 72.7011 113.462 73.3506 113.314L73.4299 113.693C72.7705 113.836 72.126 113.979 71.4816 114.138L71.4865 114.112ZM75.8491 113.125L75.7649 112.751C76.4044 112.598 77.0439 112.434 77.6884 112.271L77.7776 112.644C77.1282 112.808 76.5085 112.971 75.8442 113.115L75.8491 113.125ZM29.303 113.017C28.6684 112.741 28.0586 112.45 27.4935 112.143L27.662 111.805C28.2222 112.102 28.8221 112.388 29.4467 112.659L29.303 113.017ZM80.182 111.994L80.0878 111.621C80.7174 111.447 81.3569 111.268 81.9965 111.079L82.0956 111.447C81.466 111.642 80.8116 111.821 80.1771 112L80.182 111.994ZM25.3419 110.818C24.7891 110.432 24.2654 110.002 23.7753 109.534L24.0282 109.253C24.5069 109.712 25.0172 110.134 25.5551 110.516L25.3419 110.818ZM84.4752 110.736L84.3662 110.373C84.9958 110.179 85.6254 109.974 86.2599 109.77L86.374 110.138L84.4752 110.736ZM88.7337 109.35L88.6148 108.987C89.2394 108.777 89.8641 108.557 90.4937 108.332L90.6126 108.696C89.983 108.921 89.3584 109.14 88.7337 109.35ZM92.9526 107.846L92.8286 107.483L94.6877 106.778L94.8166 107.141C94.1969 107.381 93.5723 107.616 92.9526 107.846ZM22.1641 107.529C21.8001 106.937 21.5275 106.29 21.3561 105.611L21.713 105.514C21.8774 106.155 22.133 106.767 22.4715 107.33L22.1641 107.529ZM97.1367 106.225L97.0029 105.867L98.8421 105.115L98.9809 105.473L97.1367 106.225ZM101.276 104.496L101.132 104.143L102.957 103.346L103.106 103.699L101.276 104.496ZM21.594 103.054L21.2272 103.003C21.32 102.318 21.4862 101.645 21.7229 100.998L22.07 101.131C21.8428 101.752 21.6832 102.397 21.594 103.054ZM105.376 102.67L105.222 102.318L105.55 102.164C106.045 101.939 106.541 101.704 107.037 101.469L107.196 101.816L105.708 102.517L105.376 102.67ZM109.421 100.706L109.253 100.359C109.848 100.059 110.438 99.7517 111.023 99.438L111.196 99.7756C110.606 100.093 110.011 100.4 109.421 100.706ZM23.1606 98.8703L22.8433 98.6759C23.1855 98.0848 23.5578 97.5129 23.9588 96.9625L24.2562 97.1927C23.8602 97.732 23.4912 98.292 23.1507 98.8703H23.1606ZM113.387 98.5736L113.209 98.2361C113.789 97.9138 114.369 97.5814 114.944 97.2489L115.123 97.5814C114.553 97.9189 113.972 98.2514 113.392 98.5736H113.387ZM117.274 96.2976L117.086 95.9703C117.656 95.6225 118.221 95.2747 118.786 94.9166L118.98 95.244C118.419 95.602 117.849 95.9498 117.279 96.2976H117.274ZM25.8178 95.2133L25.5402 94.9576C25.9616 94.4717 26.4227 93.9653 26.9085 93.4641L27.1762 93.7352C26.6904 94.2466 26.2343 94.7479 25.8178 95.2133ZM121.087 93.8784L120.888 93.5561L122.554 92.4514L122.757 92.7685L121.087 93.8784ZM28.9659 91.9962L28.718 91.7098C29.2137 91.2648 29.7095 90.8096 30.2052 90.3595L30.4432 90.651C29.9475 91.1216 29.4418 91.5512 28.9659 91.9962ZM124.82 91.3671L124.611 91.05C125.157 90.6715 125.697 90.2879 126.237 89.8992L126.451 90.2112C125.91 90.6101 125.365 90.9886 124.82 91.3671ZM32.3866 89.045L32.1585 88.7433C32.6543 88.3239 33.2045 87.9096 33.74 87.4953L33.963 87.8022C33.4243 88.2113 32.8988 88.6256 32.3866 89.045ZM128.483 88.733L128.265 88.421C128.8 88.0221 129.336 87.6231 129.866 87.2191L130.089 87.526L128.483 88.733ZM35.9609 86.3036L35.7478 85.9916C36.2898 85.596 36.8351 85.2073 37.3837 84.8254L37.592 85.1425C37.0466 85.5261 36.5013 85.9097 35.9609 86.3036ZM132.072 86.0069L131.844 85.7052C132.375 85.2909 132.895 84.8766 133.416 84.4572L133.644 84.7589C133.123 85.163 132.598 85.5773 132.072 86.0069ZM39.6592 83.7462L39.4609 83.424C40.0162 83.0506 40.5764 82.6824 41.1415 82.3244L41.3398 82.6466C40.7747 82.9944 40.2194 83.3575 39.6592 83.7309V83.7462ZM135.597 83.1734L135.364 82.8768L136.906 81.593L137.139 81.8896L135.597 83.1734ZM43.4517 81.3117L43.2634 80.9843C43.8351 80.6433 44.4052 80.3024 44.9737 79.9614L45.1621 80.2939C44.592 80.5956 44.0219 80.9434 43.4517 81.2963V81.3117ZM139.053 80.258L138.815 79.9614C139.31 79.5215 139.831 79.0817 140.327 78.6418L140.57 78.9334L139.053 80.258ZM47.3384 79.005L47.155 78.6725C47.74 78.3349 48.325 78.0076 48.9001 77.6854L49.0736 78.0229C48.4836 78.3349 47.9036 78.6572 47.3186 78.9896L47.3384 79.005ZM142.444 77.2404L142.196 76.954C142.691 76.5039 143.187 76.0487 143.683 75.5986L143.931 75.885C143.435 76.3351 142.939 76.8005 142.444 77.2404ZM51.2251 76.8005L51.0566 76.463L52.8264 75.527L52.995 75.8697C52.4348 76.1766 51.8448 76.4834 51.2251 76.8005ZM55.2209 74.7547L55.0623 74.412C55.6869 74.1051 56.2868 73.8136 56.8668 73.5425L57.0205 73.8903C56.4652 74.1563 55.8604 74.4478 55.2407 74.7547H55.2209ZM145.76 74.1767L145.507 73.8903C146.003 73.43 146.499 72.9646 146.97 72.5042L147.223 72.7855L145.76 74.1767ZM59.3108 72.8623L59.1671 72.5042C59.7372 72.2587 60.2676 72.0388 60.7584 71.8496L60.8873 72.2076C60.4065 72.3968 59.876 72.6168 59.3108 72.8623ZM149.042 71.0261L148.784 70.7499L150.217 69.3331L150.475 69.6093L149.042 71.0261ZM152.249 67.8192L151.987 67.5481C152.483 67.0622 152.934 66.5815 153.395 66.1007L153.657 66.3718C153.206 66.8525 152.735 67.3333 152.259 67.8192H152.249ZM155.402 64.5509L155.135 64.2799C155.606 63.7684 156.062 63.2979 156.513 62.812L156.781 63.0779L155.402 64.5509ZM158.491 61.2213L158.223 60.9553L159.577 59.4619L159.849 59.7227L158.491 61.2213ZM161.525 57.8303L161.252 57.5746C161.708 57.0631 162.15 56.5516 162.576 56.0402L162.854 56.2959C162.437 56.8022 161.991 57.3086 161.535 57.8303H161.525ZM164.5 54.383L164.222 54.1324C164.673 53.5954 165.109 53.0788 165.521 52.598L165.803 52.8435C165.392 53.3294 164.961 53.846 164.504 54.383H164.5ZM167.41 50.8744L167.122 50.6289C167.583 50.0611 168.004 49.5343 168.391 49.0484L168.679 49.2888C168.297 49.7747 167.876 50.3066 167.415 50.8744H167.41ZM170.24 47.2941L169.948 47.0537C170.751 46.0308 171.172 45.4324 171.172 45.4324L171.47 45.6625C171.47 45.6625 171.053 46.2405 170.245 47.2941H170.24Z" fill="#263238"/>
<path d="M172.357 34.5292L170.934 46.2826L177.537 37.9048L205.716 19.1392L172.357 34.5292Z" fill="#EC2226"/>
<path opacity="0.4" d="M172.357 34.5292L170.934 46.2826L177.537 37.9048L205.716 19.1392L172.357 34.5292Z" fill="white"/>
<path d="M179.129 40.1913L170.934 46.2828L177.537 37.905L179.129 40.1913Z" fill="#EC2226"/>
<path opacity="0.3" d="M179.129 40.1913L170.934 46.2828L177.537 37.905L179.129 40.1913Z" fill="white"/>
<path d="M177.537 37.9048L205.715 19.1392L186.143 50.4766L177.537 37.9048Z" fill="#EC2226"/>
<path opacity="0.7" d="M177.537 37.9048L205.715 19.1392L186.143 50.4766L177.537 37.9048Z" fill="white"/>
<path d="M172.358 34.5292L157.694 29.0411L205.717 19.1392L172.358 34.5292Z" fill="#EC2226"/>
<path opacity="0.7" d="M172.358 34.5292L157.694 29.0411L205.717 19.1392L172.358 34.5292Z" fill="white"/>
<path d="M49.6902 14.1264C49.6897 16.7238 50.4579 19.2702 51.909 21.4815C53.3602 23.6927 55.4372 25.4817 57.9083 26.6488C60.3793 27.8159 63.1472 28.3152 65.9029 28.0909C68.6585 27.8666 71.2936 26.9276 73.514 25.3786L80.8289 27.1329L77.7842 20.7396C78.8545 18.8604 79.4545 16.7768 79.5386 14.6471C79.6227 12.5175 79.1887 10.3978 78.2695 8.44935C77.3502 6.50087 75.9701 4.77482 74.2338 3.40241C72.4976 2.02999 70.4511 1.04734 68.2497 0.529152C66.0484 0.01096 63.7502 -0.0291352 61.5298 0.411914C59.3095 0.852962 57.2255 1.76355 55.4362 3.07445C53.6469 4.38535 52.1994 6.06207 51.2037 7.97714C50.2081 9.89222 49.6905 11.9952 49.6902 14.1264Z" fill="white"/>
<path d="M49.6911 14.1264C49.9253 25.8133 63.591 31.9816 73.5638 25.2047L80.8896 26.9181L80.6118 27.225L77.5454 20.8419L77.4963 20.7294C82.1042 12.9398 77.4255 2.82809 68.237 0.674817C59.0049 -1.68815 49.6639 5.16037 49.7183 14.1264H49.6911ZM49.6911 14.1264C49.7292 2.19387 64.5496 -4.33754 74.3645 3.25772C79.7839 7.38013 81.4452 15.1237 78.0192 20.8572V20.6373L81.0421 27.0409L81.2436 27.4705L80.7698 27.3528L73.4658 25.5576C64.1139 32.2067 49.7673 25.9565 49.6856 14.1264H49.6911Z" fill="#263238"/>
<path d="M62.2342 22.7243L55.5402 16.3617L57.7897 14.28L61.6949 17.9932L69.8159 6.04028L72.4793 7.63605L62.2342 22.7243Z" fill="#EC2226"/>
</svg>
