<svg width="59" height="63" viewBox="0 0 59 63" fill="none" xmlns="http://www.w3.org/2000/svg">
<path d="M34.8753 56.5245C47.7974 53.2109 55.785 39.2144 52.7161 25.2624C49.6471 11.3104 36.6838 2.68628 23.7616 5.99982C10.8395 9.31336 2.85198 23.3098 5.92093 37.2618C8.98988 51.2138 21.9532 59.838 34.8753 56.5245Z" fill="#8D1A1C"/>
<path d="M32.8605 28.6854C32.8621 27.5033 32.5393 26.3473 31.9331 25.3637C31.3268 24.38 30.4643 23.6129 29.4548 23.1594C28.4452 22.7059 27.3339 22.5863 26.2614 22.8159C25.189 23.0455 24.2037 23.6139 23.4301 24.4491C22.6565 25.2844 22.1294 26.349 21.9156 27.5082C21.7017 28.6674 21.8107 29.8692 22.2287 30.9614C22.6467 32.0537 23.355 32.9873 24.2639 33.6442C25.1728 34.3011 26.2414 34.6517 27.3347 34.6517C28.7989 34.6517 30.2032 34.0234 31.2393 32.9047C32.2754 31.7861 32.8585 30.2685 32.8605 28.6854Z" stroke="white" stroke-width="2" stroke-linecap="round" stroke-linejoin="round"/>
<path d="M31.0192 33.6128L37.5798 40.3603" stroke="white" stroke-width="2" stroke-linecap="round" stroke-linejoin="round"/>
</svg>
