<svg width="34" height="33" viewBox="0 0 34 33" fill="none" xmlns="http://www.w3.org/2000/svg">
<g filter="url(#filter0_d_0_3392)">
<ellipse cx="17" cy="12.5" rx="13" ry="12.5" fill="white"/>
</g>
<path d="M17.6007 8.37318C17.5433 8.43752 17.511 8.52472 17.511 8.61565C17.511 8.70657 17.5433 8.79378 17.6007 8.85811L20.7539 12.3899H12.5064C12.4251 12.3899 12.3472 12.426 12.2897 12.4904C12.2323 12.5547 12.2 12.642 12.2 12.733C12.2 12.824 12.2323 12.9113 12.2897 12.9756C12.3472 13.0399 12.4251 13.0761 12.5064 13.0761H20.7539L17.6007 16.6079C17.5465 16.6729 17.5171 16.7589 17.5185 16.8478C17.5199 16.9367 17.552 17.0215 17.6082 17.0844C17.6643 17.1472 17.74 17.1833 17.8194 17.1848C17.8988 17.1864 17.9756 17.1534 18.0337 17.0928L21.7104 12.9755C21.7678 12.9111 21.8 12.8239 21.8 12.733C21.8 12.6421 21.7678 12.5549 21.7104 12.4905L18.0337 8.37318C17.9762 8.30893 17.8984 8.27284 17.8172 8.27284C17.736 8.27284 17.6581 8.30893 17.6007 8.37318Z" fill="#175594"/>
<path d="M17.6007 8.37318C17.5433 8.43752 17.511 8.52472 17.511 8.61565C17.511 8.70657 17.5433 8.79378 17.6007 8.85811L20.7539 12.3899H12.5064C12.4251 12.3899 12.3472 12.426 12.2897 12.4904C12.2323 12.5547 12.2 12.642 12.2 12.733C12.2 12.824 12.2323 12.9113 12.2897 12.9756C12.3472 13.0399 12.4251 13.0761 12.5064 13.0761H20.7539L17.6007 16.6079C17.5465 16.6729 17.5171 16.7589 17.5185 16.8478C17.5199 16.9367 17.552 17.0215 17.6082 17.0844C17.6643 17.1472 17.74 17.1833 17.8194 17.1848C17.8988 17.1864 17.9756 17.1534 18.0337 17.0928L21.7104 12.9755C21.7678 12.9111 21.8 12.8239 21.8 12.733C21.8 12.6421 21.7678 12.5549 21.7104 12.4905L18.0337 8.37318C17.9762 8.30893 17.8984 8.27284 17.8172 8.27284C17.736 8.27284 17.6581 8.30893 17.6007 8.37318Z" stroke="#175594"/>
<defs>
<filter id="filter0_d_0_3392" x="0" y="0" width="34" height="33" filterUnits="userSpaceOnUse" color-interpolation-filters="sRGB">
<feFlood flood-opacity="0" result="BackgroundImageFix"/>
<feColorMatrix in="SourceAlpha" type="matrix" values="0 0 0 0 0 0 0 0 0 0 0 0 0 0 0 0 0 0 127 0" result="hardAlpha"/>
<feOffset dy="4"/>
<feGaussianBlur stdDeviation="2"/>
<feComposite in2="hardAlpha" operator="out"/>
<feColorMatrix type="matrix" values="0 0 0 0 0 0 0 0 0 0 0 0 0 0 0 0 0 0 0.25 0"/>
<feBlend mode="normal" in2="BackgroundImageFix" result="effect1_dropShadow_0_3392"/>
<feBlend mode="normal" in="SourceGraphic" in2="effect1_dropShadow_0_3392" result="shape"/>
</filter>
</defs>
</svg>
