<svg width="74" height="61" viewBox="0 0 74 61" fill="none" xmlns="http://www.w3.org/2000/svg">
<path d="M55.4171 8.68014C54.8058 8.32298 54.025 8.60094 53.6653 9.16774C53.3056 9.73454 53.2475 10.2548 53.4249 10.9567C53.2652 10.681 53.0454 10.442 52.7806 10.2559C52.5158 10.0699 52.2122 9.94128 51.8909 9.87896C51.2166 9.72367 50.4552 10.0684 50.2858 10.7393C50.203 11.1541 50.2853 11.5837 50.5165 11.9427C50.7173 12.3161 51.0202 12.6297 51.3924 12.8496C52.7071 13.522 53.262 13.5127 54.6977 13.7891C55.4945 12.6167 55.7736 12.2921 56.1979 10.9209C56.2963 10.5096 56.2768 10.0802 56.1414 9.67864C56.0366 9.27101 55.7785 8.91526 55.4171 8.68014Z" fill="#F5F5F5"/>
<path d="M5.15703 35.5929C5.28377 35.4569 5.36653 35.2882 5.39519 35.1075C5.42384 34.9268 5.39713 34.7421 5.31834 34.5758C5.27802 34.4601 5.21313 34.3539 5.12781 34.2637C5.04249 34.1735 4.93861 34.1014 4.82277 34.052C4.70693 34.0025 4.58167 33.9769 4.45496 33.9766C4.32825 33.9763 4.20287 34.0014 4.08679 34.0503C3.9707 34.0992 3.86646 34.1708 3.7807 34.2606C3.69494 34.3504 3.62952 34.4564 3.58863 34.5718C3.54773 34.6873 3.53225 34.8096 3.54315 34.9312C3.55406 35.0527 3.59113 35.1707 3.652 35.2777C3.72588 35.4482 3.85074 35.5937 4.01073 35.6957C4.17071 35.7978 4.35859 35.8517 4.5505 35.8507C3.35196 36.5837 4.02624 37.9005 4.02624 37.9005L7.07179 36.6225C7.07179 36.6225 6.51365 35.2358 5.15703 35.5929Z" fill="#E0E0E0"/>
<path d="M19.8992 6.40973C20.2685 6.36271 20.6154 6.21268 20.8972 5.97813C21.1789 5.74358 21.3833 5.43477 21.4849 5.08978C21.7849 4.11613 21.2591 3.10831 20.3105 2.83811C19.362 2.56791 18.3522 3.13782 18.0522 4.11147C17.9403 4.45744 17.9372 4.82757 18.0434 5.17521C18.1496 5.52285 18.3604 5.83245 18.649 6.06499C15.889 5.70162 15.1712 8.50611 15.1712 8.50611L21.4171 10.2873C21.4171 10.2873 22.406 7.52625 19.8992 6.40973Z" fill="#EBEBEB"/>
<path d="M63.9422 12.0326C63.8321 11.9411 63.6892 11.8946 63.5439 11.903C63.3987 11.9114 63.2626 11.9741 63.1647 12.0777C63.0667 12.172 62.9913 12.2857 62.9437 12.411C62.896 12.5362 62.8773 12.67 62.8889 12.8029C62.8494 12.6734 62.7813 12.5537 62.6891 12.4521C62.5969 12.3505 62.4829 12.2694 62.3549 12.2143C62.2252 12.1488 62.0741 12.1343 61.9336 12.174C61.793 12.2137 61.674 12.3045 61.6016 12.4271C61.526 12.5927 61.5185 12.7797 61.5806 12.9504C61.6277 13.1244 61.723 13.2827 61.8565 13.4085C62.3404 13.8076 62.5711 13.8526 63.147 14.098C63.5938 13.6818 63.7422 13.5715 64.0519 13.0389C64.1331 12.8768 64.1666 12.6963 64.1487 12.5171C64.1451 12.3365 64.0715 12.1637 63.9422 12.0326Z" fill="#E0E0E0"/>
<path d="M16.4298 12.7932L16.6427 13.2078L17.1186 13.2746L16.775 13.5976L16.8557 14.0526L16.4298 13.8383L16.0056 14.0526L16.0862 13.5976L15.7426 13.2746L16.2169 13.2078L16.4298 12.7932Z" fill="#E0E0E0"/>
<path d="M50.7021 18.2058L51.0876 18.9558L51.9474 19.077L51.3247 19.6609L51.4715 20.4854L50.7021 20.0957L49.9326 20.4854L50.081 19.6609L49.4584 19.077L50.3182 18.9558L50.7021 18.2058Z" fill="#E0E0E0"/>
<path d="M13.2817 22.1553L13.3866 22.3619L13.6253 22.396L13.4527 22.5575L13.493 22.7843L13.2817 22.6771L13.0688 22.7843L13.1091 22.5575L12.9365 22.396L13.1752 22.3619L13.2817 22.1553Z" fill="#E0E0E0"/>
<path d="M43.4947 58.4386C40.7831 56.6155 40.1685 53.2318 40.2685 50.1897C40.2862 49.6819 40.2282 49.1462 40.4782 48.7005C40.7282 48.2548 41.3154 47.952 41.7864 48.1647C42.1784 48.3433 42.3494 48.7859 42.5688 49.1446C42.8619 49.628 43.2907 50.022 43.806 50.2813C44.1416 50.449 44.5577 50.5515 44.8884 50.376C45.3433 50.1338 45.3966 49.5297 45.3933 49.0235C45.3933 48.0824 45.3874 47.1414 45.3756 46.2003C45.3756 45.6957 45.3756 45.1801 45.5369 44.7003C45.6982 44.2204 46.0612 43.7763 46.5596 43.6412C47.0581 43.5061 47.6759 43.7841 47.7807 44.2779C47.8015 44.4869 47.8069 44.6971 47.7969 44.9068C47.8114 45.1164 47.913 45.3494 48.1195 45.4068C48.326 45.4643 48.5389 45.323 48.6954 45.1755C49.2374 44.6661 49.6036 44.0092 49.9472 43.3555C50.2907 42.7017 50.6247 42.034 51.115 41.4765C51.6054 40.919 52.2862 40.4811 53.0379 40.4392C53.7896 40.3972 54.5897 40.8445 54.7784 41.5541C54.9672 42.2638 54.5381 42.989 54.0687 43.5651C53.3721 44.4204 52.5506 45.1742 51.6296 45.8028C51.4512 45.8988 51.3089 46.0466 51.2231 46.2252C51.1086 46.5606 51.4393 46.896 51.7861 47.0016C52.1765 47.1274 52.5927 47.0886 53.0088 47.1336C53.425 47.1787 53.8622 47.3541 54.017 47.7268C54.2316 48.2424 53.7831 48.7843 53.3411 49.1384C52.4577 49.8484 51.4536 50.4063 50.373 50.7875C49.9875 50.9242 49.581 51.0422 49.2696 51.3047C48.9583 51.5671 48.7712 52.019 48.9583 52.3746C49.1454 52.7302 49.6294 52.8404 50.0343 52.7721C50.4392 52.7038 50.8005 52.4895 51.1844 52.3482C51.9055 52.0873 52.8362 52.1354 53.2992 52.7349C53.6025 53.1293 53.6218 53.6775 53.475 54.148C53.2982 54.6088 53.0279 55.0311 52.6798 55.3903C51.537 56.711 50.0508 57.7162 48.3728 58.3035C46.7 58.861 45.1465 59.0131 43.4899 58.4277" fill="#EBEBEB"/>
<path d="M43.4525 60.6935C43.5994 59.2832 43.8862 57.8896 44.3091 56.5318C44.8337 54.875 45.4569 53.2485 46.1754 51.6605L46.732 50.4073C46.9159 49.9958 47.0981 49.5889 47.303 49.2007C47.6957 48.4571 48.1309 47.7349 48.6064 47.0375C49.0565 46.3683 49.5081 45.7487 49.9356 45.1741C50.3631 44.5995 50.7728 44.07 51.168 43.6041C51.79 42.864 52.4718 42.1724 53.207 41.5357C53.4667 41.3105 53.6732 41.1413 53.8151 41.0295L53.9764 40.9037C53.9945 40.8881 54.0139 40.8741 54.0345 40.8618C54.0191 40.8795 54.0018 40.8956 53.9829 40.9099L53.8216 41.0434C53.6845 41.1615 53.4828 41.3338 53.228 41.5621C52.507 42.2071 51.8373 42.9032 51.2245 43.6445C50.8341 44.1104 50.4276 44.643 50.0034 45.2191C49.5791 45.7952 49.1307 46.4164 48.6838 47.0826C48.2143 47.7796 47.7835 48.5001 47.3933 49.2411C47.1917 49.6277 47.011 50.0315 46.8271 50.443C46.6433 50.8545 46.4577 51.2722 46.2706 51.6946C45.5536 53.2799 44.9295 54.9026 44.401 56.5551C43.9761 57.9074 43.6839 59.295 43.5283 60.6998" fill="#E0E0E0"/>
<path d="M47.3306 49.1916C47.3055 49.1216 47.2882 49.0492 47.279 48.9757C47.2516 48.836 47.2193 48.6341 47.1822 48.3825C47.108 47.8794 47.0306 47.1821 46.9467 46.4119C46.8628 45.6417 46.7757 44.9476 46.6951 44.4475C46.6547 44.196 46.6192 43.9941 46.5934 43.8543C46.5759 43.7825 46.5662 43.7091 46.5644 43.6354C46.5939 43.7034 46.616 43.7742 46.6305 43.8466C46.6676 43.9848 46.7128 44.1866 46.7612 44.4351C46.8612 44.9351 46.9596 45.6308 47.0435 46.401C47.1274 47.1713 47.1951 47.8483 47.25 48.3732C47.2758 48.6108 47.2984 48.8111 47.3161 48.9711C47.3296 49.0438 47.3344 49.1178 47.3306 49.1916Z" fill="#E0E0E0"/>
<path d="M54.0749 47.9852C53.9862 48.0035 53.8961 48.0138 53.8055 48.0163C53.6329 48.0303 53.3828 48.0504 53.0731 48.0846C52.4553 48.1498 51.6052 48.2663 50.6744 48.4356C49.7437 48.6048 48.9 48.7958 48.3048 48.9496C48.0031 49.0241 47.7611 49.0909 47.5934 49.1359C47.5078 49.1639 47.4198 49.1847 47.3304 49.198C47.411 49.158 47.4953 49.1253 47.5821 49.1002C47.7434 49.0443 47.987 48.9682 48.287 48.8843C48.8839 48.7151 49.7211 48.5148 50.6567 48.3439C51.4535 48.1952 52.258 48.0868 53.0667 48.0194C53.378 47.993 53.6296 47.9821 53.8039 47.979C53.8942 47.9714 53.985 47.9735 54.0749 47.9852Z" fill="#E0E0E0"/>
<path d="M44.3922 56.4118C44.3728 56.3877 44.3571 56.361 44.3455 56.3326L44.2309 56.0981C44.1309 55.8931 43.9954 55.5934 43.8325 55.2223C43.5808 54.6741 43.2937 53.98 42.6485 52.2827C42.2065 51.1274 41.8 50.0838 41.4919 49.3322L41.1241 48.4455L41.0241 48.2033C41.0108 48.1757 41.0015 48.1464 40.9966 48.1163C41.0151 48.1408 41.0302 48.1674 41.0418 48.1955L41.158 48.43C41.2564 48.635 41.3919 48.9347 41.5548 49.3058C41.8774 50.0497 42.2968 51.0916 42.7388 52.247C43.1808 53.4023 43.5873 54.4443 43.8954 55.1975C44.047 55.5608 44.1712 55.8605 44.2648 56.0826C44.3035 56.1804 44.3358 56.2596 44.3632 56.3248C44.3764 56.3526 44.3862 56.3818 44.3922 56.4118Z" fill="#E0E0E0"/>
<path d="M53.3551 53.6314C53.3266 53.6469 53.2963 53.6589 53.2647 53.6671L53.005 53.751L52.0452 54.0507C51.2387 54.3038 50.1208 54.6718 48.8884 55.0663C47.6559 55.4607 46.5364 55.821 45.7218 56.057C45.3137 56.1766 44.9814 56.2682 44.754 56.3288L44.4878 56.3955C44.4575 56.405 44.426 56.4107 44.3942 56.4126C44.4218 56.3965 44.4517 56.3845 44.483 56.3769L44.7427 56.293L45.7105 55.9933C46.5171 55.7418 47.6366 55.3799 48.8674 54.9778C50.0982 54.5756 51.2193 54.2246 52.0355 53.987C52.442 53.869 52.7743 53.7758 53.0034 53.7168L53.2696 53.6485C53.2973 53.6396 53.326 53.6338 53.3551 53.6314Z" fill="#E0E0E0"/>
<path d="M38.5097 4.12539V6.1255C38.5106 6.2339 38.4891 6.34139 38.4466 6.44177C38.4041 6.54215 38.3414 6.63345 38.2621 6.71039C38.1827 6.78733 38.0884 6.84839 37.9844 6.89006C37.8805 6.93173 37.769 6.95319 37.6564 6.95318H34.0591V8.09765L33.4139 7.01064C33.2226 6.99692 33.0438 6.91405 32.9133 6.77868C32.7829 6.6433 32.7104 6.46544 32.7106 6.28079V4.12539C32.7106 3.90711 32.8006 3.69777 32.961 3.54343C33.1213 3.38908 33.3388 3.30237 33.5655 3.30237H37.6564C37.7686 3.30237 37.8797 3.32367 37.9833 3.36505C38.0869 3.40643 38.1811 3.46708 38.2603 3.54352C38.3396 3.61997 38.4024 3.71071 38.4452 3.81055C38.488 3.9104 38.5099 4.01739 38.5097 4.12539Z" fill="#EBEBEB"/>
<path d="M36.9012 5.57116C37.0954 5.57116 37.2528 5.41959 37.2528 5.23263C37.2528 5.04567 37.0954 4.8941 36.9012 4.8941C36.7069 4.8941 36.5495 5.04567 36.5495 5.23263C36.5495 5.41959 36.7069 5.57116 36.9012 5.57116Z" fill="#E0E0E0"/>
<path d="M35.566 5.57116C35.7602 5.57116 35.9176 5.41959 35.9176 5.23263C35.9176 5.04567 35.7602 4.8941 35.566 4.8941C35.3717 4.8941 35.2143 5.04567 35.2143 5.23263C35.2143 5.41959 35.3717 5.57116 35.566 5.57116Z" fill="#E0E0E0"/>
<path d="M33.8779 5.23263C33.8779 5.29959 33.8986 5.36504 33.9372 5.42071C33.9758 5.47638 34.0308 5.51977 34.095 5.54539C34.1593 5.57101 34.23 5.57772 34.2982 5.56465C34.3664 5.55159 34.4291 5.51935 34.4782 5.47201C34.5274 5.42466 34.5609 5.36434 34.5745 5.29868C34.5881 5.23301 34.5811 5.16494 34.5545 5.10308C34.5279 5.04122 34.4828 4.98835 34.425 4.95116C34.3671 4.91396 34.2991 4.8941 34.2296 4.8941C34.1834 4.8941 34.1377 4.90286 34.095 4.91987C34.0524 4.93689 34.0136 4.96182 33.9809 4.99326C33.9483 5.02469 33.9224 5.06201 33.9047 5.10308C33.887 5.14415 33.8779 5.18818 33.8779 5.23263Z" fill="#E0E0E0"/>
<path d="M44.6781 4.8941L45.2282 5.96714L46.459 6.13951L45.5686 6.97496L45.7783 8.15359L44.6781 7.59766L43.578 8.15359L43.7877 6.97496L42.8989 6.13951L44.1281 5.96714L44.6781 4.8941Z" fill="#E0E0E0"/>
<path d="M29.9622 10.3401L30.238 10.8758L30.8526 10.9612L30.4074 11.379L30.5122 11.9691L29.9622 11.6911L29.4121 11.9691L29.5169 11.379L29.0717 10.9612L29.6879 10.8758L29.9622 10.3401Z" fill="#E0E0E0"/>
<path d="M72.861 60.9423C72.861 60.964 56.5492 60.9827 36.4321 60.9827C16.315 60.9827 0 60.964 0 60.9423C0 60.9206 16.3085 60.9019 36.4321 60.9019C56.5557 60.9019 72.861 60.919 72.861 60.9423Z" fill="#263238"/>
<path d="M41.5926 15.1061L38.3663 15.0906C38.1558 15.0954 37.9556 15.1794 37.8085 15.3245C37.6614 15.4696 37.5791 15.6643 37.5791 15.867V16.4307C37.5792 16.6335 37.4969 16.8282 37.3498 16.9733C37.2027 17.1183 37.0025 17.2023 36.7919 17.2072L30.5121 17.2025C30.2999 17.196 30.0989 17.1092 29.9527 16.9609C29.8065 16.8127 29.727 16.6149 29.7313 16.4105V15.8484C29.7357 15.6443 29.6564 15.4467 29.5106 15.2985C29.3648 15.1503 29.1642 15.0633 28.9522 15.0564H27.823L25.0001 15.0285C24.667 15.027 24.3368 15.0888 24.0284 15.2103C23.7201 15.3317 23.4397 15.5105 23.2031 15.7363C22.9666 15.9621 22.7786 16.2306 22.6499 16.5264C22.5212 16.8222 22.4543 17.1396 22.453 17.4603L22.2804 56.6223C22.2774 57.2698 22.5416 57.8921 23.015 58.3521C23.4884 58.8122 24.1322 59.0725 24.8049 59.0758L41.3974 59.1488C41.7305 59.1502 42.0607 59.0885 42.369 58.967C42.6773 58.8455 42.9578 58.6668 43.1943 58.441C43.4309 58.2151 43.6189 57.9466 43.7476 57.6508C43.8763 57.355 43.9432 57.0377 43.9445 56.717L44.1171 17.555C44.1192 16.9081 43.8545 16.2868 43.3812 15.8277C42.9079 15.3685 42.2645 15.109 41.5926 15.1061Z" fill="white"/>
<path d="M25.7925 21.0097C25.8875 20.9707 25.9687 20.9059 26.026 20.8231C26.0833 20.7404 26.1143 20.6433 26.1151 20.5439C26.1189 20.4789 26.109 20.4138 26.0858 20.3526C26.0626 20.2915 26.0267 20.2355 25.9802 20.1882C25.9338 20.1409 25.8778 20.1032 25.8157 20.0774C25.7536 20.0516 25.6867 20.0383 25.6191 20.0383C25.5514 20.0383 25.4845 20.0516 25.4224 20.0774C25.3603 20.1032 25.3043 20.1409 25.2579 20.1882C25.2114 20.2355 25.1755 20.2915 25.1523 20.3526C25.1291 20.4138 25.1192 20.4789 25.123 20.5439C25.1215 20.645 25.1514 20.7442 25.2089 20.8289C25.2664 20.9136 25.3488 20.9798 25.4456 21.019C25.2889 21.037 25.1412 21.0994 25.0214 21.1984C24.9016 21.2974 24.8151 21.4285 24.773 21.575C24.951 21.7692 25.1953 21.8959 25.4618 21.9321H25.7667C26.0374 21.898 26.2861 21.7705 26.4667 21.5734C26.4275 21.4245 26.3419 21.2906 26.2214 21.1899C26.1008 21.0891 25.9512 21.0262 25.7925 21.0097Z" fill="#455A64"/>
<path d="M25.6069 21.934C25.6069 21.9247 25.7069 21.934 25.8779 21.8843C26.1186 21.8204 26.3299 21.6804 26.478 21.4868C26.587 21.346 26.6578 21.1812 26.684 21.0074C26.7102 20.8336 26.6909 20.6563 26.628 20.4914C26.5545 20.2968 26.4218 20.1279 26.2473 20.0069C26.0609 19.8731 25.8346 19.8008 25.602 19.8008C25.3695 19.8008 25.1432 19.8731 24.9568 20.0069C24.7822 20.1279 24.6496 20.2968 24.5761 20.4914C24.5131 20.6563 24.4939 20.8336 24.5201 21.0074C24.5463 21.1812 24.6171 21.346 24.7261 21.4868C24.875 21.6795 25.086 21.8193 25.3262 21.8843C25.4972 21.9294 25.5988 21.9247 25.5988 21.934C25.5748 21.938 25.5502 21.938 25.5262 21.934C25.4561 21.935 25.3861 21.9272 25.3181 21.9107C25.1035 21.8625 24.908 21.7556 24.7549 21.603C24.6018 21.4504 24.4977 21.2586 24.4551 21.0504C24.4133 20.8425 24.4336 20.6274 24.5135 20.4301C24.5934 20.2328 24.7298 20.0613 24.9068 19.9355C25.107 19.7934 25.3492 19.7167 25.598 19.7167C25.8468 19.7167 26.089 19.7934 26.2892 19.9355C26.48 20.0667 26.6247 20.2509 26.7038 20.4635C26.7734 20.6527 26.789 20.8565 26.749 21.0536C26.7063 21.2617 26.6022 21.4535 26.4491 21.6061C26.2961 21.7587 26.1005 21.8656 25.8859 21.9138C25.8179 21.9303 25.748 21.9381 25.6778 21.9371C25.6542 21.9402 25.6302 21.9391 25.6069 21.934Z" fill="#455A64"/>
<path d="M37.1651 20.7592H28.0994V21.194H37.1651V20.7592Z" fill="#455A64"/>
<path d="M42.1346 20.5719C42.1961 20.5719 42.2459 20.5239 42.2459 20.4648C42.2459 20.4056 42.1961 20.3576 42.1346 20.3576C42.0731 20.3576 42.0233 20.4056 42.0233 20.4648C42.0233 20.5239 42.0731 20.5719 42.1346 20.5719Z" fill="#455A64"/>
<path d="M42.2459 20.8484C42.2459 20.8768 42.2342 20.9041 42.2133 20.9242C42.1924 20.9443 42.1641 20.9556 42.1346 20.9556C42.1051 20.9556 42.0768 20.9443 42.0559 20.9242C42.035 20.9041 42.0233 20.8768 42.0233 20.8484C42.0233 20.82 42.035 20.7928 42.0559 20.7727C42.0768 20.7526 42.1051 20.7413 42.1346 20.7413C42.1641 20.7413 42.1924 20.7526 42.2133 20.7727C42.2342 20.7928 42.2459 20.82 42.2459 20.8484Z" fill="#455A64"/>
<path d="M42.1346 21.3392C42.1961 21.3392 42.2459 21.2912 42.2459 21.232C42.2459 21.1729 42.1961 21.1249 42.1346 21.1249C42.0731 21.1249 42.0233 21.1729 42.0233 21.232C42.0233 21.2912 42.0731 21.3392 42.1346 21.3392Z" fill="#455A64"/>
<path d="M44.1172 22.9418H22.4338V41.0624H44.1172V22.9418Z" fill="#F5F5F5"/>
<path d="M43.1273 39.6569C43.2576 39.6175 43.3947 39.6038 43.5306 39.6165L43.4887 39.6569V39.5808V39.5078C43.4887 39.4612 43.4887 39.4193 43.4967 39.3851C43.5048 39.3137 43.5161 39.2702 43.5274 39.2702C43.5387 39.2702 43.55 39.3137 43.5564 39.3851C43.5564 39.4193 43.5645 39.4612 43.5661 39.5078V39.6631L43.5241 39.705C43.3898 39.7157 43.2547 39.6993 43.1273 39.6569Z" fill="#E0E0E0"/>
<path d="M41.5608 39.6572C41.8191 39.6034 42.0864 39.6034 42.3448 39.6572C42.0867 39.7131 41.8189 39.7131 41.5608 39.6572Z" fill="#E0E0E0"/>
<path d="M39.9965 39.6571C40.1223 39.6177 40.2553 39.604 40.3869 39.6167C40.519 39.6042 40.6525 39.6179 40.7789 39.6571C40.6529 39.6983 40.5192 39.7126 40.3869 39.699C40.2551 39.7126 40.1219 39.6983 39.9965 39.6571Z" fill="#E0E0E0"/>
<path d="M38.4301 39.6571C38.5565 39.6179 38.6899 39.6042 38.822 39.6167C38.9537 39.604 39.0866 39.6177 39.2124 39.6571C39.087 39.6983 38.9538 39.7126 38.822 39.699C38.6898 39.7126 38.556 39.6983 38.4301 39.6571Z" fill="#E0E0E0"/>
<path d="M36.8635 39.6572C37.1219 39.6034 37.3892 39.6034 37.6475 39.6572C37.3894 39.7131 37.1216 39.7131 36.8635 39.6572Z" fill="#E0E0E0"/>
<path d="M35.3015 39.6573C35.5593 39.6034 35.8261 39.6034 36.0839 39.6573C35.8263 39.7133 35.5591 39.7133 35.3015 39.6573Z" fill="#E0E0E0"/>
<path d="M33.7328 39.6572C33.9911 39.6034 34.2584 39.6034 34.5168 39.6572C34.2587 39.7131 33.9909 39.7131 33.7328 39.6572Z" fill="#E0E0E0"/>
<path d="M32.1674 39.6571C32.2932 39.6177 32.4262 39.604 32.5578 39.6167C32.6899 39.6042 32.8234 39.6179 32.9498 39.6571C32.8238 39.6983 32.6901 39.7126 32.5578 39.699C32.426 39.7126 32.2928 39.6983 32.1674 39.6571Z" fill="#E0E0E0"/>
<path d="M30.6009 39.6571C30.7273 39.6179 30.8607 39.6042 30.9929 39.6167C31.1245 39.604 31.2574 39.6177 31.3833 39.6571C31.2579 39.6983 31.1246 39.7126 30.9929 39.699C30.8606 39.7126 30.7269 39.6983 30.6009 39.6571Z" fill="#E0E0E0"/>
<path d="M29.0344 39.6572C29.2928 39.6034 29.5601 39.6034 29.8184 39.6572C29.5603 39.7131 29.2925 39.7131 29.0344 39.6572Z" fill="#E0E0E0"/>
<path d="M27.4702 39.6571C27.596 39.6177 27.7289 39.604 27.8605 39.6167C27.9927 39.6042 28.1261 39.6179 28.2525 39.6571C28.1266 39.6983 27.9928 39.7126 27.8605 39.699C27.7288 39.7126 27.5955 39.6983 27.4702 39.6571Z" fill="#E0E0E0"/>
<path d="M25.9037 39.6572C26.162 39.6034 26.4293 39.6034 26.6876 39.6572C26.4295 39.7131 26.1618 39.7131 25.9037 39.6572Z" fill="#E0E0E0"/>
<path d="M24.7181 39.269C24.759 39.3944 24.7732 39.5264 24.76 39.6572L24.7181 39.6168H24.8794L25.0085 39.6261C25.081 39.6339 25.1262 39.6432 25.1262 39.6541C25.1262 39.665 25.081 39.6758 25.0085 39.6836H24.8794H24.8036H24.7229C24.7036 39.665 24.7649 39.724 24.681 39.6417C24.6684 39.5163 24.681 39.3898 24.7181 39.269Z" fill="#E0E0E0"/>
<path d="M24.7182 37.7392C24.7741 37.9915 24.7741 38.2524 24.7182 38.5048C24.6623 38.2524 24.6623 37.9915 24.7182 37.7392Z" fill="#E0E0E0"/>
<path d="M24.7185 36.2094C24.7594 36.3327 24.7737 36.4627 24.7605 36.5914C24.7736 36.7207 24.7593 36.8512 24.7185 36.975C24.6777 36.8512 24.6635 36.7207 24.6766 36.5914C24.6634 36.4627 24.6776 36.3327 24.7185 36.2094Z" fill="#E0E0E0"/>
<path d="M24.7182 34.6796C24.7741 34.9315 24.7741 35.1918 24.7182 35.4436C24.6623 35.1918 24.6623 34.9315 24.7182 34.6796Z" fill="#E0E0E0"/>
<path d="M24.7185 33.1487C24.7593 33.2725 24.7736 33.403 24.7605 33.5322C24.7737 33.661 24.7594 33.791 24.7185 33.9142C24.6776 33.791 24.6634 33.661 24.6766 33.5322C24.6635 33.403 24.6777 33.2725 24.7185 33.1487Z" fill="#E0E0E0"/>
<path d="M24.7185 31.6189C24.7594 31.7421 24.7737 31.8721 24.7605 32.0009C24.7736 32.1302 24.7593 32.2607 24.7185 32.3845C24.6777 32.2607 24.6635 32.1302 24.6766 32.0009C24.6634 31.8721 24.6776 31.7421 24.7185 31.6189Z" fill="#E0E0E0"/>
<path d="M24.7182 30.0915C24.7741 30.3433 24.7741 30.6037 24.7182 30.8555C24.6623 30.6037 24.6623 30.3433 24.7182 30.0915Z" fill="#E0E0E0"/>
<path d="M24.7185 28.5582C24.7593 28.682 24.7736 28.8125 24.7605 28.9417C24.7737 29.0705 24.7594 29.2005 24.7185 29.3237C24.6776 29.2005 24.6634 29.0705 24.6766 28.9417C24.6635 28.8125 24.6777 28.682 24.7185 28.5582Z" fill="#E0E0E0"/>
<path d="M24.7185 27.0295C24.7594 27.1528 24.7737 27.2828 24.7605 27.4115C24.7736 27.5408 24.7593 27.6713 24.7185 27.7951C24.6777 27.6713 24.6635 27.5408 24.6766 27.4115C24.6634 27.2828 24.6776 27.1528 24.7185 27.0295Z" fill="#E0E0E0"/>
<path d="M24.7182 25.4998C24.7741 25.7516 24.7741 26.0119 24.7182 26.2638C24.6623 26.0119 24.6623 25.7516 24.7182 25.4998Z" fill="#E0E0E0"/>
<path d="M25.1214 24.3452C24.9913 24.3854 24.854 24.3992 24.7181 24.3856L24.7601 24.3452V24.5005C24.7601 24.5471 24.7601 24.589 24.7504 24.6247C24.7504 24.6946 24.7326 24.7381 24.7214 24.7381C24.7101 24.7381 24.6988 24.6946 24.6907 24.6247C24.6907 24.589 24.6907 24.5471 24.6907 24.5005V24.429V24.3452L24.7326 24.3048C24.8637 24.294 24.9957 24.3077 25.1214 24.3452Z" fill="#E0E0E0"/>
<path d="M26.6876 24.3452C26.4293 24.399 26.162 24.399 25.9037 24.3452C26.162 24.2914 26.4293 24.2914 26.6876 24.3452Z" fill="#E0E0E0"/>
<path d="M28.2525 24.3462C28.1263 24.3864 27.9927 24.4001 27.8605 24.3866C27.7289 24.4002 27.5958 24.3865 27.4702 24.3462C27.596 24.3068 27.7289 24.2931 27.8605 24.3058C27.9927 24.2933 28.1261 24.307 28.2525 24.3462Z" fill="#E0E0E0"/>
<path d="M29.8173 24.3452C29.559 24.399 29.2917 24.399 29.0333 24.3452C29.2917 24.2914 29.559 24.2914 29.8173 24.3452Z" fill="#E0E0E0"/>
<path d="M31.3833 24.3462C31.2576 24.3865 31.1245 24.4002 30.9929 24.3866C30.8607 24.4001 30.7271 24.3864 30.6009 24.3462C30.7273 24.307 30.8607 24.2933 30.9929 24.3058C31.1245 24.2931 31.2574 24.3068 31.3833 24.3462Z" fill="#E0E0E0"/>
<path d="M32.9498 24.3462C32.8236 24.3864 32.6899 24.4001 32.5578 24.3866C32.4262 24.4002 32.293 24.3865 32.1674 24.3462C32.2932 24.3068 32.4262 24.2931 32.5578 24.3058C32.6899 24.2933 32.8234 24.307 32.9498 24.3462Z" fill="#E0E0E0"/>
<path d="M34.5168 24.3452C34.2584 24.399 33.9911 24.399 33.7328 24.3452C33.9911 24.2914 34.2584 24.2914 34.5168 24.3452Z" fill="#E0E0E0"/>
<path d="M36.0805 24.3452C35.8227 24.399 35.5559 24.399 35.2982 24.3452C35.5559 24.2914 35.8227 24.2914 36.0805 24.3452Z" fill="#E0E0E0"/>
<path d="M37.6475 24.3452C37.3892 24.399 37.1219 24.399 36.8635 24.3452C37.1219 24.2914 37.3892 24.2914 37.6475 24.3452Z" fill="#E0E0E0"/>
<path d="M39.2124 24.3462C39.0868 24.3865 38.9537 24.4002 38.822 24.3866C38.6899 24.4001 38.5562 24.3864 38.4301 24.3462C38.5565 24.307 38.6899 24.2933 38.822 24.3058C38.9537 24.2931 39.0866 24.3068 39.2124 24.3462Z" fill="#E0E0E0"/>
<path d="M40.7867 24.3462C40.6605 24.3864 40.5269 24.4001 40.3947 24.3866C40.2631 24.4002 40.1299 24.3865 40.0043 24.3462C40.1301 24.3068 40.2631 24.2931 40.3947 24.3058C40.5269 24.2933 40.6603 24.307 40.7867 24.3462Z" fill="#E0E0E0"/>
<path d="M42.3448 24.3452C42.0864 24.399 41.8191 24.399 41.5608 24.3452C41.8191 24.2914 42.0864 24.2914 42.3448 24.3452Z" fill="#E0E0E0"/>
<path d="M43.5283 24.7343C43.4866 24.6091 43.4723 24.4769 43.4864 24.3461C43.5703 24.4269 43.509 24.3694 43.5283 24.3865H43.4477H43.3719L43.2428 24.3787C43.1702 24.371 43.1251 24.3601 43.1251 24.3492C43.1251 24.3384 43.1702 24.3275 43.2428 24.3213C43.2799 24.3213 43.3235 24.3213 43.3719 24.312H43.5332L43.5751 24.3523C43.5859 24.4814 43.57 24.6112 43.5283 24.7343Z" fill="#E0E0E0"/>
<path d="M43.5283 26.2638C43.4724 26.0119 43.4724 25.7516 43.5283 25.4998C43.5842 25.7516 43.5842 26.0119 43.5283 26.2638Z" fill="#E0E0E0"/>
<path d="M43.5292 27.7951C43.4876 27.6715 43.4733 27.5408 43.4872 27.4115C43.4731 27.2828 43.4874 27.1526 43.5292 27.0295C43.5701 27.1528 43.5843 27.2828 43.5711 27.4115C43.5842 27.5408 43.57 27.6713 43.5292 27.7951Z" fill="#E0E0E0"/>
<path d="M43.5292 29.3237C43.4874 29.2007 43.4731 29.0705 43.4872 28.9417C43.4733 28.8125 43.4876 28.6818 43.5292 28.5582C43.57 28.682 43.5842 28.8125 43.5711 28.9417C43.5843 29.0705 43.5701 29.2005 43.5292 29.3237Z" fill="#E0E0E0"/>
<path d="M43.5283 30.8543C43.4724 30.6025 43.4724 30.3422 43.5283 30.0903C43.5842 30.3422 43.5842 30.6025 43.5283 30.8543Z" fill="#E0E0E0"/>
<path d="M43.5292 32.3845C43.4876 32.2608 43.4733 32.1302 43.4872 32.0009C43.4731 31.8721 43.4874 31.742 43.5292 31.6189C43.5701 31.7421 43.5843 31.8721 43.5711 32.0009C43.5842 32.1302 43.57 32.2607 43.5292 32.3845Z" fill="#E0E0E0"/>
<path d="M43.5292 33.9142C43.4874 33.7912 43.4731 33.661 43.4872 33.5322C43.4733 33.403 43.4876 33.2723 43.5292 33.1487C43.57 33.2725 43.5842 33.403 43.5711 33.5322C43.5843 33.661 43.5701 33.791 43.5292 33.9142Z" fill="#E0E0E0"/>
<path d="M43.5283 35.4436C43.4724 35.1918 43.4724 34.9315 43.5283 34.6796C43.5842 34.9315 43.5842 35.1918 43.5283 35.4436Z" fill="#E0E0E0"/>
<path d="M43.5292 36.975C43.4876 36.8513 43.4733 36.7207 43.4872 36.5914C43.4731 36.4627 43.4874 36.3325 43.5292 36.2094C43.5701 36.3327 43.5843 36.4627 43.5711 36.5914C43.5842 36.7207 43.57 36.8512 43.5292 36.975Z" fill="#E0E0E0"/>
<path d="M43.5283 38.5048C43.4724 38.2524 43.4724 37.9915 43.5283 37.7392C43.5842 37.9915 43.5842 38.2524 43.5283 38.5048Z" fill="#E0E0E0"/>
<path d="M30.8444 31.5153V34.1334H35.553V31.5153H34.5448V33.1768H31.8429V31.5153H30.8444Z" fill="#E0E0E0"/>
<path d="M32.6626 32.4939H33.7546V30.7252H34.7919L33.2643 28.3663L31.6237 30.6739H32.6884L32.6626 32.4939Z" fill="#E0E0E0"/>
<path d="M27.3252 43.9722L27.1139 43.879C26.9927 43.9337 26.8546 43.9428 26.7268 43.9046C26.599 43.8664 26.4906 43.7837 26.4229 43.6726C26.3551 43.5615 26.3328 43.4301 26.3605 43.304C26.3881 43.1779 26.4636 43.0664 26.5722 42.9911C26.6808 42.9158 26.8147 42.8823 26.9476 42.897C27.0806 42.9118 27.203 42.9738 27.2909 43.0709C27.3789 43.168 27.426 43.2932 27.4231 43.422C27.4202 43.5508 27.3674 43.6739 27.2752 43.7672L27.3252 43.9722ZM26.8412 42.8635C26.6958 42.8635 26.5563 42.9191 26.4534 43.0181C26.3506 43.1171 26.2928 43.2514 26.2928 43.3914C26.2928 43.5315 26.3506 43.6658 26.4534 43.7648C26.5563 43.8638 26.6958 43.9194 26.8412 43.9194C26.9349 43.9146 27.0258 43.8874 27.1058 43.8402L27.2671 43.9086L27.2365 43.7564V43.7486C27.3308 43.6519 27.3833 43.5241 27.3833 43.3914C27.3833 43.2522 27.3261 43.1186 27.2243 43.0197C27.1225 42.9209 26.9843 42.8647 26.8396 42.8635H26.8412Z" fill="#263238"/>
<path d="M28.6886 43.8947L28.4499 43.3232L27.9982 42.9195H29.1032L28.6886 43.8947ZM28.0999 42.963L28.4854 43.3093L28.6886 43.7969L29.0435 42.963H28.0999Z" fill="#263238"/>
<path d="M29.0658 42.917L28.4596 43.29L28.4813 43.3227L29.0875 42.9497L29.0658 42.917Z" fill="#263238"/>
<path d="M32.9514 43.1236C32.9527 43.1669 32.9405 43.2095 32.9164 43.2461C32.8923 43.2827 32.8574 43.3116 32.8162 43.3289C32.7749 43.3463 32.7293 43.3514 32.685 43.3436C32.6407 43.3358 32.5999 43.3155 32.5677 43.2852C32.5355 43.2549 32.5135 43.216 32.5044 43.1736C32.4954 43.1311 32.4997 43.087 32.5168 43.047C32.534 43.0069 32.5631 42.9727 32.6006 42.9487C32.6381 42.9247 32.6822 42.9121 32.7272 42.9124C32.7859 42.9119 32.8425 42.9339 32.8845 42.9735C32.9265 43.013 32.9505 43.067 32.9514 43.1236Z" fill="#263238"/>
<path d="M33.6496 43.126C33.6509 43.1693 33.6387 43.2119 33.6146 43.2485C33.5905 43.2851 33.5556 43.314 33.5144 43.3313C33.4731 43.3487 33.4274 43.3538 33.3832 43.346C33.3389 43.3382 33.2981 43.3178 33.2659 43.2876C33.2337 43.2573 33.2117 43.2184 33.2026 43.176C33.1936 43.1335 33.1979 43.0894 33.215 43.0494C33.2321 43.0093 33.2613 42.9751 33.2988 42.9511C33.3363 42.9271 33.3803 42.9145 33.4254 42.9148C33.4545 42.9143 33.4835 42.9195 33.5105 42.9299C33.5376 42.9403 33.5623 42.9558 33.5831 42.9754C33.604 42.995 33.6206 43.0185 33.632 43.0443C33.6434 43.0701 33.6494 43.0979 33.6496 43.126Z" fill="#263238"/>
<path d="M34.35 43.1355C34.3513 43.1787 34.3392 43.2213 34.3151 43.2579C34.2911 43.2945 34.2563 43.3233 34.2152 43.3407C34.174 43.3581 34.1284 43.3633 34.0842 43.3556C34.04 43.348 33.9991 43.3278 33.9669 43.2976C33.9347 43.2675 33.9125 43.2288 33.9033 43.1864C33.894 43.1441 33.8981 43.1001 33.915 43.06C33.9319 43.0199 33.9608 42.9856 33.9981 42.9614C34.0353 42.9372 34.0792 42.9243 34.1242 42.9243C34.1534 42.9239 34.1824 42.929 34.2096 42.9394C34.2368 42.9498 34.2616 42.9652 34.2825 42.9848C34.3035 43.0044 34.3203 43.0278 34.3318 43.0537C34.3434 43.0795 34.3496 43.1073 34.35 43.1355Z" fill="#263238"/>
<path d="M41.9465 44.0262L41.49 43.5867L41.056 44.0044V42.7419H41.9465V44.0262ZM41.49 43.5324L41.5045 43.5448L41.9061 43.933V42.7808H41.0996V43.9113L41.49 43.5324Z" fill="#263238"/>
<path d="M41.038 46.1684C41.038 46.1901 37.2311 46.2087 32.537 46.2087C27.8428 46.2087 24.0359 46.1901 24.0359 46.1684C24.0359 46.1466 27.8412 46.128 32.537 46.128C37.2327 46.128 41.038 46.1451 41.038 46.1684Z" fill="#263238"/>
<path d="M32.4999 47.1358C32.4999 47.1575 30.6044 47.1761 28.2687 47.1761C25.9329 47.1761 24.0359 47.1575 24.0359 47.1358C24.0359 47.114 25.9296 47.0954 28.2687 47.0954C30.6077 47.0954 32.4999 47.1125 32.4999 47.1358Z" fill="#263238"/>
<path d="M36.6379 50.0385C36.6379 50.0602 34.7441 50.0788 32.4067 50.0788C30.0693 50.0788 28.1739 50.0602 28.1739 50.0385C28.1739 50.0167 30.0693 49.9965 32.4067 49.9965C34.7441 49.9965 36.6379 50.0152 36.6379 50.0385Z" fill="#263238"/>
<path d="M27.4073 50.0377C27.4073 50.0595 26.6523 50.0781 25.7216 50.0781C24.7908 50.0781 24.0359 50.0595 24.0359 50.0377C24.5966 49.9958 25.1593 49.9818 25.7216 49.9958C26.2838 49.9818 26.8465 49.9958 27.4073 50.0377Z" fill="#263238"/>
<path d="M36.6379 53.4205C36.6379 53.4422 34.7441 53.4609 32.4067 53.4609C30.0693 53.4609 28.1739 53.4422 28.1739 53.4205C28.1739 53.3988 30.0693 53.3801 32.4067 53.3801C34.7441 53.3801 36.6379 53.3972 36.6379 53.4205Z" fill="#263238"/>
<path d="M27.4073 53.4199C27.4073 53.4416 26.6523 53.4603 25.7216 53.4603C24.7908 53.4603 24.0359 53.4416 24.0359 53.4199C24.5967 53.379 25.1593 53.3655 25.7216 53.3795C26.2838 53.3655 26.8464 53.379 27.4073 53.4199Z" fill="#263238"/>
<path d="M33.4207 51.2569C33.4207 51.2802 32.2706 51.2988 30.8527 51.2988C29.4347 51.2988 28.2862 51.2802 28.2862 51.2569C28.2862 51.2336 29.4347 51.2165 30.8527 51.2165C32.2706 51.2165 33.4207 51.2351 33.4207 51.2569Z" fill="#263238"/>
<path d="M33.4207 54.7465C33.4207 54.7698 32.2706 54.7869 30.8527 54.7869C29.4347 54.7869 28.2862 54.7698 28.2862 54.7465C28.2862 54.7233 29.4347 54.7062 30.8527 54.7062C32.2706 54.7062 33.4207 54.7248 33.4207 54.7465Z" fill="#263238"/>
<path d="M25.5947 43.0207C25.5794 42.9443 25.5364 42.8756 25.4734 42.8267C25.4105 42.7779 25.3316 42.7521 25.2507 42.754C25.1699 42.7559 25.0923 42.7852 25.0319 42.8369C24.9714 42.8886 24.9319 42.9592 24.9204 43.0363C24.9089 42.9592 24.8694 42.8886 24.8089 42.8369C24.7485 42.7852 24.6709 42.7559 24.5901 42.754C24.5092 42.7521 24.4303 42.7779 24.3674 42.8267C24.3044 42.8756 24.2614 42.9443 24.2461 43.0207C24.2294 43.1336 24.2589 43.2483 24.3284 43.3406C24.3963 43.4327 24.4766 43.5157 24.5671 43.5875L24.9252 43.8981C25.0478 43.7925 25.1511 43.6931 25.2737 43.5875C25.3643 43.5153 25.4451 43.4324 25.514 43.3406C25.5831 43.2481 25.612 43.1334 25.5947 43.0207Z" fill="#175594"/>
<path d="M41.6173 13.7364L24.9909 13.6619C24.0303 13.6582 23.1075 14.0219 22.4253 14.673C21.7432 15.3241 21.3576 16.2094 21.3534 17.1341L21.1775 57.2574C21.1754 57.715 21.2669 58.1685 21.4469 58.5921C21.6268 59.0156 21.8917 59.4009 22.2263 59.7259C22.561 60.051 22.9588 60.3093 23.3972 60.4864C23.8356 60.6634 24.3059 60.7555 24.7812 60.7575L41.4076 60.8321C41.8833 60.8343 42.3549 60.7463 42.7953 60.5729C43.2357 60.3996 43.6362 60.1444 43.9741 59.8219C44.3119 59.4994 44.5804 59.116 44.7642 58.6935C44.948 58.271 45.0434 57.8179 45.0451 57.3598L45.2209 17.2366C45.2231 16.779 45.1315 16.3255 44.9516 15.9019C44.7716 15.4783 44.5068 15.0931 44.1721 14.768C43.8375 14.443 43.4396 14.1846 43.0013 14.0076C42.5629 13.8306 42.0926 13.7385 41.6173 13.7364ZM43.945 56.7356C43.9437 57.0563 43.8768 57.3736 43.7481 57.6694C43.6194 57.9652 43.4314 58.2337 43.1948 58.4596C42.9583 58.6854 42.6779 58.8641 42.3695 58.9856C42.0612 59.107 41.731 59.1688 41.3979 59.1674L24.8054 59.0929C24.1337 59.09 23.4906 58.8307 23.0173 58.3718C22.544 57.913 22.2792 57.2921 22.2809 56.6455L22.4535 17.4835C22.4548 17.1628 22.5217 16.8455 22.6504 16.5497C22.7791 16.2539 22.9671 15.9854 23.2036 15.7596C23.4402 15.5337 23.7206 15.355 24.029 15.2335C24.3373 15.1121 24.6675 15.0503 25.0006 15.0517L27.8219 15.0641H28.9511C29.1631 15.071 29.3636 15.158 29.5095 15.3062C29.6553 15.4545 29.7346 15.652 29.7302 15.8561V16.426C29.7259 16.6301 29.8052 16.8277 29.951 16.9759C30.0968 17.1241 30.2974 17.2111 30.5094 17.218L36.7924 17.2459C37.0027 17.2407 37.2025 17.1565 37.3493 17.0115C37.496 16.8665 37.5781 16.672 37.578 16.4695V15.9058C37.5748 15.8033 37.5927 15.7012 37.6307 15.6054C37.6687 15.5097 37.726 15.4221 37.7993 15.3477C37.8727 15.2733 37.9606 15.2137 38.058 15.1722C38.1554 15.1308 38.2604 15.1083 38.3668 15.1061L41.5931 15.1216C41.926 15.1228 42.2554 15.1872 42.5625 15.311C42.8696 15.4348 43.1483 15.6157 43.3828 15.8433C43.6172 16.0708 43.8028 16.3406 43.9288 16.6373C44.0549 16.9339 44.1191 17.2515 44.1176 17.572L43.945 56.7356Z" fill="#263238"/>
<path d="M61.0839 27.64L58.1722 26.7083C58.1722 26.7083 56.8817 30.2799 56.4914 30.3109C54.3056 30.5035 51.9746 29.8062 51.1487 29.5345C51.0665 29.446 50.9713 29.3373 50.8648 29.2053C50.7747 29.0917 50.7054 28.9641 50.66 28.8279C50.596 28.6606 50.5564 28.4855 50.5422 28.3077C50.5458 28.2736 50.5382 28.2393 50.5206 28.2095C50.5029 28.1798 50.4761 28.1561 50.4437 28.1417C50.4114 28.1273 50.3752 28.123 50.3403 28.1294C50.3053 28.1358 50.2732 28.1525 50.2486 28.1773C50.1534 28.2953 50.1293 28.7456 50.3454 29.2317C50.5616 29.7177 49.7969 29.3295 49.5163 29.1944C49.2356 29.0593 48.3468 28.6773 48.2355 28.7285C48.0741 28.8015 48.1225 28.9832 48.4064 29.1137C48.6904 29.2441 49.513 29.6882 49.4308 29.8264C49.3485 29.9646 47.9306 29.255 47.9306 29.255C47.9306 29.255 47.6531 29.0546 47.5531 29.213C47.3724 29.4988 48.9404 30.1448 49.0904 30.2038C49.1953 30.2442 49.1114 30.3979 49.0017 30.3497C48.892 30.3016 47.6031 29.609 47.4176 29.8979C47.274 30.1199 48.7 30.4429 48.8839 30.7271C49.0678 31.0113 47.829 30.3777 47.7015 30.5935C47.6531 30.6743 47.6305 30.7488 48.3968 31.0082C48.9586 31.177 49.5294 31.3169 50.1067 31.4274V31.4352C50.1067 31.4352 57.7689 34.7335 59.4208 31.5532C61.171 28.1695 61.0839 27.64 61.0839 27.64Z" fill="#EB996E"/>
<path d="M56.4365 22.5912L34.7966 22.6312L34.8298 39.2858L56.4697 39.2458L56.4365 22.5912Z" fill="#EBEBEB"/>
<path d="M56.4332 22.5955H56.3284H56.0267H54.8524L50.4244 22.6126L34.7934 22.6576L34.8305 22.6219C34.8418 27.5787 34.8547 33.2607 34.8676 39.2734L34.8256 39.233L56.4639 39.2004L56.4332 39.2532C56.4332 34.2359 56.4332 30.0757 56.4332 27.1687C56.4332 25.7152 56.4332 24.5739 56.4332 23.7959C56.4332 23.4061 56.4332 23.1095 56.4332 22.9061C56.4332 22.7027 56.4332 22.5955 56.4332 22.5955C56.4332 22.5955 56.4332 22.6965 56.4332 22.8968C56.4332 23.0971 56.4332 23.3937 56.4332 23.7788C56.4332 24.5553 56.4413 25.6935 56.4478 27.1454C56.4591 30.0571 56.472 34.2235 56.4897 39.2579V39.2921H56.4542L34.8159 39.3371H34.774V39.2936C34.7643 33.2809 34.7546 27.5989 34.7466 22.6421V22.6064H34.7837L50.4309 22.5971H56.4332V22.5955Z" fill="#263238"/>
<path d="M55.6624 23.6413L35.5437 23.6785L35.5727 38.2352L55.6914 38.198L55.6624 23.6413Z" fill="#175594"/>
<path d="M35.5693 38.2403L42.5782 29.1793L46.9433 34.8317L49.8889 31.8005L55.688 38.2046L35.5693 38.2403Z" fill="#175594"/>
<path d="M48.7779 28.0597C48.7785 28.3613 48.6862 28.6563 48.5127 28.9074C48.3392 29.1586 48.0922 29.3545 47.803 29.4705C47.5138 29.5865 47.1953 29.6173 46.8879 29.5591C46.5805 29.5008 46.298 29.3561 46.076 29.1433C45.854 28.9305 45.7026 28.6591 45.6408 28.3634C45.5791 28.0677 45.6098 27.761 45.7291 27.4821C45.8484 27.2033 46.0509 26.9647 46.3111 26.7966C46.5712 26.6286 46.8773 26.5385 47.1906 26.5379C47.3986 26.5375 47.6047 26.5765 47.797 26.6528C47.9894 26.7291 48.1643 26.841 48.3116 26.9823C48.459 27.1237 48.5761 27.2915 48.6561 27.4764C48.7361 27.6613 48.7775 27.8595 48.7779 28.0597Z" fill="#175594"/>
<g opacity="0.2">
<path d="M35.569 38.2406L42.578 29.1796L46.9431 34.832L49.8886 31.8008L55.6878 38.2049L35.569 38.2406Z" fill="black"/>
</g>
<g opacity="0.2">
<path d="M48.7768 28.0588C48.7774 28.3604 48.6851 28.6554 48.5116 28.9065C48.3381 29.1576 48.0911 29.3536 47.8019 29.4696C47.5127 29.5856 47.1943 29.6164 46.8868 29.5581C46.5794 29.4999 46.2969 29.3552 46.0749 29.1424C45.8529 28.9296 45.7015 28.6581 45.6397 28.3625C45.578 28.0668 45.6087 27.7601 45.728 27.4812C45.8473 27.2023 46.0498 26.9638 46.31 26.7957C46.5701 26.6276 46.8762 26.5376 47.1895 26.537C47.3975 26.5366 47.6036 26.5756 47.7959 26.6519C47.9883 26.7281 48.1632 26.8401 48.3105 26.9814C48.4579 27.1227 48.575 27.2906 48.655 27.4755C48.735 27.6603 48.7764 27.8586 48.7768 28.0588Z" fill="black"/>
</g>
<path d="M73.4611 54.5899L67.8153 51.2932L66.7135 53.9501L72.5481 56.7903C72.5481 56.7903 72.1303 58.351 72.2255 58.6926L73.7854 54.7825L73.4611 54.5899Z" fill="#FFBE9D"/>
<path d="M72.219 58.6946L72.3819 58.7551L73.9999 54.7316L73.8257 54.6649L72.219 58.6946Z" fill="#263238"/>
<path d="M72.9018 57.3126C72.9018 57.3359 72.7518 57.3514 72.6002 57.443C72.4485 57.5346 72.3663 57.6542 72.3437 57.6433C72.3211 57.6325 72.3808 57.4772 72.5566 57.3747C72.7324 57.2722 72.905 57.2908 72.9018 57.3126Z" fill="#263238"/>
<path d="M73.361 54.4933C73.3852 54.4933 73.3271 54.7899 73.3513 55.1517C73.3755 55.5135 73.4626 55.7977 73.44 55.8055C73.3262 55.6067 73.2668 55.3833 73.2674 55.1564C73.2391 54.9313 73.2713 54.703 73.361 54.4933Z" fill="#263238"/>
<path d="M73.226 54.5446C73.0957 54.9131 72.9394 55.2727 72.7582 55.6207C72.6031 55.9801 72.4215 56.3283 72.2146 56.6627C72.5006 55.935 72.8386 55.2273 73.226 54.5446Z" fill="#263238"/>
<path d="M57.174 54.0525H54.2026L53.6267 60.3215C53.6267 60.3215 51.9669 60.528 51.67 60.7345L56.0254 60.6833L56.0932 60.3215L57.174 54.0525Z" fill="#FFBE9D"/>
<path d="M51.67 60.7345V60.9023L56.1529 60.8557V60.6755L51.67 60.7345Z" fill="#263238"/>
<path d="M53.2555 60.8386C53.2329 60.8479 53.1619 60.719 53.0167 60.6181C52.8716 60.5171 52.7264 60.4861 52.7296 60.4628C52.7893 60.4508 52.8511 60.4529 52.9098 60.4689C52.9685 60.4848 53.0223 60.5142 53.0667 60.5544C53.2329 60.6631 53.2764 60.8262 53.2555 60.8386Z" fill="#263238"/>
<path d="M56.1446 60.1978C56.1446 60.2211 55.8462 60.2786 55.4993 60.4339C55.1525 60.5891 54.917 60.7739 54.9009 60.7553C55.2218 60.421 55.6659 60.2209 56.1381 60.1978H56.1446Z" fill="#263238"/>
<path d="M56.0448 60.0952C55.641 60.1155 55.2363 60.1093 54.8334 60.0765C54.4292 60.0709 54.026 60.0377 53.6268 59.9772C54.0306 59.9568 54.4353 59.963 54.8382 59.9958C55.2423 60.0024 55.6454 60.0356 56.0448 60.0952Z" fill="#263238"/>
<path d="M60.1807 37.6602C60.1807 37.6602 60.8002 50.549 61.2228 51.0817C61.6454 51.6143 69.3496 56.3615 69.3496 56.3615L71.1676 52.2557C71.1676 52.2557 65.5766 48.5179 65.5814 48.2756C65.5863 48.0334 65.6234 35.483 65.6234 35.483L60.1807 37.6602Z" fill="#455A64"/>
<path d="M61.7728 45.3742C61.7809 45.4064 61.7868 45.4391 61.7905 45.472L61.8292 45.7547L61.9631 46.8137C62.0712 47.7253 62.2212 48.9878 62.3938 50.4599L62.3825 50.4366L63.7682 51.7721L63.844 51.845C64.5676 52.4115 65.3214 52.9412 66.1024 53.4321L67.9994 54.6278C68.5414 54.9725 68.9672 55.2598 69.2657 55.4632C69.4125 55.5657 69.5254 55.648 69.6012 55.7024L69.6867 55.7661C69.706 55.7816 69.7157 55.7893 69.7141 55.7909L69.6818 55.7723L69.5915 55.7148L69.2463 55.4896C68.9479 55.294 68.5123 55.0129 67.9671 54.6759C67.4219 54.339 66.7686 53.9414 66.0507 53.4864C65.268 52.9986 64.5141 52.4693 63.7924 51.9009L63.7166 51.828L62.3341 50.4909L62.3228 50.4801V50.4676C62.1615 49.0002 62.0212 47.7299 61.9212 46.8168C61.876 46.3696 61.8389 46.0109 61.8115 45.7562L61.7873 45.472C61.7783 45.4401 61.7734 45.4073 61.7728 45.3742Z" fill="#263238"/>
<path d="M63.5941 42.3349C63.5962 42.3478 63.5962 42.3609 63.5941 42.3737V42.4886C63.5941 42.5958 63.5941 42.7433 63.6022 42.9297C63.6022 43.321 63.6102 43.8738 63.6167 44.5555C63.6231 45.2372 63.6167 46.0587 63.6247 46.964C63.6247 47.4175 63.6247 47.8958 63.6247 48.388C63.6127 48.636 63.6339 48.8844 63.6877 49.1272C63.8082 49.6259 64.0907 50.0747 64.4942 50.4083C64.6959 50.5636 64.9104 50.7189 65.1153 50.8602C65.5266 51.1537 65.9218 51.4332 66.3106 51.6972L68.3447 53.0948C68.9222 53.497 69.3868 53.8262 69.7046 54.0576L70.0675 54.3278L70.1611 54.3992C70.1815 54.4168 70.1912 54.4261 70.1901 54.4272L70.1562 54.407L70.0578 54.3402L69.6852 54.084L68.3108 53.1414C67.7269 52.7454 67.0333 52.2749 66.2654 51.7438C65.8815 51.4813 65.4798 51.2034 65.0669 50.9099C64.8604 50.7624 64.6507 50.6179 64.4394 50.4549C64.2318 50.2838 64.0537 50.082 63.9119 49.857C63.7699 49.6322 63.6664 49.3868 63.6054 49.1303C63.552 48.8817 63.5308 48.6277 63.5425 48.374C63.5425 47.8802 63.5425 47.4035 63.5425 46.95C63.5425 46.0447 63.5425 45.2295 63.5522 44.5415L63.5651 42.9157C63.5651 42.7293 63.5651 42.5818 63.5651 42.4747V42.3597C63.5731 42.3498 63.5829 42.3414 63.5941 42.3349Z" fill="#263238"/>
<path d="M64.8331 40.2678C64.8346 40.2801 64.8346 40.2926 64.8331 40.305V40.4153C64.8331 40.5178 64.8331 40.6575 64.8331 40.8361C64.8331 41.2073 64.8235 41.7368 64.8154 42.389C64.7912 43.7105 64.7589 45.5351 64.7218 47.5756V47.5834C64.6855 47.7566 64.6855 47.935 64.7218 48.1082C64.7785 48.3648 64.8882 48.6077 65.0445 48.8226C65.1963 49.0348 65.3715 49.2305 65.5671 49.4064C65.9575 49.7465 66.3575 50.0602 66.7318 50.3584C67.4851 50.9547 68.1836 51.4702 68.7788 51.8864C69.3741 52.3026 69.8741 52.6209 70.2209 52.8352L70.6291 53.0743L70.7339 53.1396L70.7678 53.1644C70.7678 53.1644 70.7533 53.1644 70.7291 53.1473L70.621 53.0883C70.5258 53.0371 70.3871 52.9594 70.2113 52.8554C69.8596 52.6488 69.3563 52.3367 68.7595 51.9237C68.1626 51.5106 67.4544 51.0012 66.6963 50.408C66.3188 50.1083 65.922 49.7993 65.5252 49.4546C65.3253 49.2751 65.1458 49.0757 64.9896 48.8598C64.8258 48.6358 64.7106 48.3823 64.6509 48.1144C64.6113 47.9306 64.6113 47.7408 64.6509 47.557V47.5647C64.6976 45.5242 64.738 43.6996 64.7686 42.3797C64.788 41.7259 64.8025 41.1979 64.8138 40.8268C64.8138 40.6498 64.8251 40.5085 64.8299 40.406V40.2973C64.8297 40.2873 64.8308 40.2774 64.8331 40.2678Z" fill="#263238"/>
<path d="M66.0006 34.5955L66.12 35.0613C66.4713 36.4405 66.2557 37.8969 65.5183 39.1268L60.1692 48.0527C59.7903 48.6851 59.514 49.3695 59.3498 50.0823L57.8544 57.123L53.2554 57.0268C53.2554 57.0268 54.1733 51.9023 54.6556 49.0062C55.0202 46.8321 58.0528 40.0554 59.5208 36.858L60.1918 35.5272L66.0006 34.5955Z" fill="#455A64"/>
<path d="M60.6827 36.2086C60.6772 36.2267 60.6702 36.2444 60.6617 36.2614L60.5972 36.4167L60.3375 36.9928C60.223 37.2413 60.0826 37.5456 59.9294 37.9044C59.7761 38.2631 59.5922 38.6637 59.4067 39.1172C59.2212 39.5706 59.0099 40.0629 58.8018 40.5986C58.5937 41.1343 58.3727 41.7074 58.1437 42.3068C57.7001 43.5196 57.2387 44.8644 56.8 46.2868C56.3612 47.7092 55.9934 49.082 55.6869 50.3351C55.5385 50.9563 55.3933 51.5573 55.2756 52.1194C55.1578 52.6815 55.0449 53.2064 54.9529 53.6723C54.861 54.1381 54.7803 54.5838 54.7094 54.9643C54.6384 55.3447 54.5819 55.6739 54.5384 55.9426C54.4948 56.2112 54.4577 56.4084 54.4335 56.5637C54.4206 56.632 54.4109 56.6848 54.4029 56.719C54.4008 56.7376 54.3965 56.7558 54.39 56.7734C54.3878 56.7548 54.3878 56.736 54.39 56.7175C54.39 56.6771 54.4029 56.6243 54.4109 56.5622C54.4319 56.4146 54.4626 56.2066 54.5013 55.941C54.54 55.6755 54.59 55.3416 54.6626 54.9596C54.7352 54.5776 54.7981 54.1428 54.8949 53.6645C54.9917 53.1862 55.0868 52.6613 55.2094 52.1008C55.332 51.5402 55.4691 50.9423 55.6159 50.3134C55.9208 49.0587 56.2886 47.6875 56.7225 46.2604C57.1565 44.8333 57.6259 43.4901 58.0743 42.2773C58.305 41.6716 58.5195 41.0955 58.7405 40.5691C58.9615 40.0427 59.1615 39.5395 59.3551 39.0892C59.5487 38.6389 59.731 38.2351 59.8891 37.8795C60.0471 37.5239 60.1907 37.2211 60.3101 36.9742L60.5843 36.4043L60.6585 36.2568C60.6641 36.2396 60.6722 36.2234 60.6827 36.2086Z" fill="#263238"/>
<path d="M63.2789 35.813C63.273 35.8315 63.2648 35.8492 63.2547 35.8658C63.2338 35.9047 63.2079 35.9559 63.1757 36.0211L62.8627 36.6066C62.7256 36.8597 62.5579 37.1703 62.3788 37.5383C62.1997 37.9063 61.9739 38.3147 61.7513 38.7806C61.6384 39.0104 61.519 39.2465 61.3964 39.5042C61.2738 39.762 61.1528 40.0229 61.0238 40.2962C60.7641 40.8428 60.5076 41.4345 60.2334 42.0556C59.6994 43.2979 59.1445 44.6955 58.6203 46.1614C58.096 47.6273 57.6524 49.0575 57.2765 50.3542C57.0959 51.0064 56.92 51.626 56.7765 52.2176C56.7039 52.5096 56.6281 52.7907 56.5635 53.0624C56.499 53.3342 56.4393 53.595 56.3813 53.8388C56.2619 54.3373 56.1716 54.7908 56.0861 55.1883C56.0006 55.5858 55.9248 55.9275 55.8796 56.2085C55.8344 56.4896 55.7812 56.7039 55.7521 56.8561C55.7376 56.926 55.7263 56.9819 55.7167 57.0238C55.7138 57.0429 55.709 57.0616 55.7021 57.0797C55.6996 57.0606 55.6996 57.0413 55.7021 57.0222C55.7021 56.9803 55.7183 56.9244 55.7296 56.853C55.7554 56.6977 55.7925 56.4818 55.8409 56.2039C55.8893 55.9259 55.9506 55.5827 56.0328 55.179C56.1151 54.7752 56.1941 54.3264 56.3167 53.828L56.4942 53.0438C56.5571 52.7705 56.6313 52.4894 56.7023 52.1975C56.8426 51.612 57.0249 50.9909 57.1943 50.334C57.5669 49.0311 58.0105 47.6071 58.5348 46.1304C59.059 44.6536 59.622 43.27 60.1608 42.023C60.4382 41.4019 60.6963 40.8087 60.9673 40.2636C61.098 39.9918 61.219 39.7247 61.3432 39.4732L61.7045 38.7511C61.9304 38.2852 62.153 37.8784 62.3498 37.5166C62.5466 37.1547 62.7095 36.8442 62.8515 36.5941C62.9934 36.3441 63.1015 36.1516 63.1741 36.0149L63.2612 35.8596C63.2654 35.8436 63.2714 35.828 63.2789 35.813Z" fill="#263238"/>
<path d="M66.3019 35.3283C66.3019 35.3283 66.2906 35.3469 66.2664 35.3795L66.16 35.5271C66.0599 35.6575 65.9196 35.8454 65.7389 36.0861L65.4341 36.4898L65.0856 36.979C64.8388 37.3331 64.5452 37.7275 64.2533 38.184L63.7855 38.8937C63.6241 39.1406 63.4628 39.4061 63.3015 39.6701C62.9595 40.2074 62.6305 40.8022 62.2772 41.4233C61.5916 42.6781 60.8915 44.0834 60.2463 45.5959C59.601 47.1084 59.0897 48.5899 58.6687 49.944C58.4703 50.6257 58.2735 51.2732 58.1267 51.8866C58.0508 52.1972 57.9654 52.4876 57.9057 52.7733C57.846 53.059 57.7831 53.3339 57.725 53.5963C57.6024 54.1197 57.5266 54.5995 57.4459 55.0172C57.4072 55.2269 57.3717 55.4225 57.3395 55.6026C57.3072 55.7828 57.2862 55.9474 57.2653 56.0965C57.2185 56.3884 57.183 56.6182 57.1588 56.7782C57.1459 56.8543 57.1362 56.9117 57.1281 56.9568C57.1261 56.9768 57.1218 56.9966 57.1152 57.0158C57.1142 56.9956 57.1142 56.9754 57.1152 56.9552C57.1152 56.9117 57.1281 56.8527 57.1362 56.7766C57.1588 56.6213 57.1878 56.3853 57.2265 56.0918C57.2475 55.9365 57.2701 55.7812 57.2943 55.5964C57.3185 55.4116 57.3588 55.2206 57.3943 55.0095C57.4701 54.5902 57.5427 54.1103 57.6621 53.5855L57.8379 52.7593C57.8992 52.4736 57.9799 52.1786 58.0541 51.8711C58.1992 51.2499 58.3928 50.607 58.5896 49.9222C59.0074 48.5619 59.5252 47.082 60.1624 45.5617C60.7996 44.0415 61.5142 42.6392 62.203 41.3861C62.5595 40.7649 62.8918 40.1702 63.237 39.6329C63.4064 39.3627 63.5596 39.0987 63.7209 38.8564L64.1952 38.1483C64.492 37.6933 64.7888 37.3004 65.0388 36.9495C65.1663 36.774 65.2824 36.6094 65.3937 36.4619L65.7051 36.0628L66.1374 35.5115L66.2519 35.3702C66.2858 35.3423 66.3003 35.3267 66.3019 35.3283Z" fill="#263238"/>
<path d="M60.1687 48.0488C60.1493 48.0379 61.3301 46.03 62.8061 43.5656C64.2821 41.1012 65.4984 39.112 65.5178 39.1228C65.5371 39.1337 64.3563 41.1416 62.8803 43.606C61.4043 46.0704 60.1897 48.0597 60.1687 48.0488Z" fill="#263238"/>
<path d="M63.962 24.6865L65.2331 24.7082L66.2446 27.4941L65.1718 31.0486C64.9315 31.9803 66.7237 33.7087 66.7237 35.1637L59.1291 36.2104L59.6131 33.1201L58.9565 31.0408V30.8855L56.4885 29.7007L57.3031 27.7798C58.5565 24.9536 60.7455 24.7812 60.7455 24.7812L63.962 24.6865Z" fill="#263238"/>
<path d="M58.9997 30.8545C58.9409 30.839 58.886 30.812 58.8384 30.7753C58.71 30.6876 58.6005 30.5769 58.5158 30.4492C58.3886 30.2532 58.3319 30.0224 58.3545 29.7923C58.3654 29.5418 58.4431 29.2982 58.5802 29.085C58.7172 28.8718 58.9089 28.6961 59.1368 28.5749L59.1158 28.6028C59.1755 28.182 59.2288 27.8264 59.2772 27.5639C59.2923 27.427 59.3187 27.2915 59.3562 27.1586C59.3575 27.2964 59.3472 27.434 59.3255 27.5701C59.2981 27.8279 59.2546 28.1913 59.2013 28.6137V28.6323L59.182 28.6416C58.9679 28.7593 58.7879 28.9266 58.6583 29.1284C58.5286 29.3302 58.4536 29.5601 58.44 29.797C58.4174 30.0133 58.4671 30.2309 58.5819 30.4181C58.6614 30.5446 58.7629 30.657 58.8819 30.7504C58.9231 30.783 58.9624 30.8178 58.9997 30.8545Z" fill="#455A64"/>
<path d="M65.2322 24.7081C65.2322 24.7081 67.6261 24.9799 67.3728 27.7191C67.1147 30.5143 66.6743 30.8544 66.6743 30.8544L63.2981 29.5873C64.003 28.213 64.0224 28.199 64.3595 26.7206L65.2322 24.7019V24.7081Z" fill="#263238"/>
<path d="M64.4874 26.7023C64.4591 26.8476 64.417 26.99 64.3616 27.1278C64.2729 27.3856 64.1487 27.749 63.9922 28.131C63.8357 28.513 63.6696 28.8608 63.547 29.1062C63.487 29.2413 63.4141 29.3708 63.3292 29.4929C63.3706 29.3515 63.4246 29.2138 63.4905 29.0813C63.6002 28.8313 63.7535 28.4866 63.9099 28.1015L64.3019 27.1076C64.3512 26.9675 64.4133 26.8319 64.4874 26.7023Z" fill="#455A64"/>
<path d="M65.0491 19.2703C65.3492 19.8495 65.5089 20.3573 66.1057 20.6492C66.3751 20.7843 66.7026 20.8604 66.8655 21.1073C67.0284 21.3542 66.9591 21.7642 67.1881 21.9987C67.5107 22.3387 68.1769 22.0623 68.5415 22.3636C68.8641 22.6307 68.7625 23.2068 69.1126 23.4506C69.3094 23.5842 69.5787 23.5547 69.803 23.6385C70.1724 23.7752 70.3466 24.1836 70.395 24.5609C70.4451 24.863 70.4054 25.1725 70.2804 25.4538C70.2158 25.5932 70.116 25.7149 69.9901 25.8076C69.8641 25.9004 69.7161 25.9613 69.5594 25.9849C69.1416 26.0268 68.6689 25.7504 68.3302 25.9849C68.2213 26.0823 68.1269 26.1936 68.0495 26.3157C67.9439 26.4448 67.8073 26.5473 67.6515 26.6144C67.4957 26.6815 67.3253 26.7113 67.1549 26.701C66.9846 26.6908 66.8193 26.6409 66.6734 26.5557C66.5274 26.4704 66.4051 26.3524 66.317 26.2116C66.0831 25.8374 66.0976 25.3218 65.7573 25.0345C65.5614 24.9041 65.3429 24.8084 65.112 24.7519C64.891 24.6727 64.6604 24.5392 64.5942 24.3218C64.5176 24.1285 64.4086 23.9485 64.2716 23.7891C64.1006 23.5438 63.8732 23.8435 63.6473 23.7224C63.4215 23.6012 63.507 23.3652 63.486 23.1167" fill="#175594"/>
<path d="M63.9082 24.578C63.9231 24.6284 63.9291 24.6809 63.9259 24.7333C63.9219 24.8801 63.8913 25.0251 63.8356 25.1619C63.7522 25.3676 63.6163 25.5497 63.4404 25.6914C63.2202 25.8619 62.9504 25.9623 62.6684 25.9787C62.3863 25.9951 62.1059 25.9267 61.866 25.783C61.6741 25.6624 61.5166 25.4974 61.4079 25.3032C61.3343 25.1741 61.2862 25.033 61.2659 24.887C61.2554 24.8358 61.2554 24.783 61.2659 24.7317C61.299 24.9238 61.3656 25.1091 61.4627 25.2799C61.5727 25.4606 61.7266 25.613 61.9112 25.724C62.1378 25.8568 62.4014 25.9192 62.6661 25.9026C62.9315 25.8885 63.186 25.7964 63.3952 25.6386C63.5639 25.5062 63.6972 25.3369 63.784 25.1448C63.8576 24.9638 63.8995 24.7722 63.9082 24.578Z" fill="#455A64"/>
<path d="M63.8772 24.7198L64.0933 19.895L62.1011 18.4446L60.2928 19.2971C60.2928 19.2971 60.2331 21.4836 60.2928 22.4324C60.3525 23.3812 61.3478 23.4821 61.3478 23.4821C61.3478 23.4821 61.3252 24.0365 61.3026 24.6219C61.2968 24.7893 61.3261 24.9562 61.3889 25.1124C61.4518 25.2686 61.5468 25.411 61.6682 25.531C61.7897 25.6509 61.9351 25.746 62.0957 25.8105C62.2563 25.875 62.4288 25.9075 62.6028 25.9062C62.9324 25.9025 63.2481 25.7776 63.4851 25.5569C63.7221 25.3363 63.8623 25.0368 63.8772 24.7198Z" fill="#FFBE9D"/>
<path d="M60.492 20.8973C60.492 20.9213 60.4994 20.9447 60.5132 20.9646C60.527 20.9845 60.5467 21 60.5697 21.0092C60.5927 21.0184 60.618 21.0208 60.6424 21.0161C60.6668 21.0114 60.6892 20.9999 60.7068 20.983C60.7244 20.966 60.7364 20.9444 60.7412 20.9209C60.7461 20.8974 60.7436 20.8731 60.7341 20.851C60.7245 20.8288 60.7084 20.8099 60.6877 20.7966C60.667 20.7833 60.6427 20.7762 60.6178 20.7762C60.5845 20.7762 60.5525 20.7889 60.5289 20.8117C60.5053 20.8344 60.492 20.8652 60.492 20.8973Z" fill="#263238"/>
<path d="M60.3698 20.7646C60.3859 20.7802 60.4795 20.7041 60.615 20.6963C60.7505 20.6886 60.8521 20.7522 60.8666 20.7351C60.8811 20.7181 60.8569 20.6979 60.8118 20.6684C60.7521 20.6308 60.6812 20.6133 60.6101 20.6187C60.5383 20.6219 60.4695 20.6481 60.4149 20.6932C60.3746 20.7274 60.3617 20.7584 60.3698 20.7646Z" fill="#263238"/>
<path d="M61.9529 20.8977C61.9532 20.9216 61.9609 20.9449 61.9749 20.9646C61.9889 20.9843 62.0087 20.9996 62.0317 21.0085C62.0547 21.0174 62.0799 21.0196 62.1042 21.0148C62.1285 21.0099 62.1508 20.9982 62.1682 20.9812C62.1857 20.9642 62.1975 20.9427 62.2022 20.9192C62.2069 20.8958 62.2044 20.8715 62.1948 20.8494C62.1852 20.8274 62.1691 20.8086 62.1484 20.7953C62.1278 20.7821 62.1035 20.775 62.0787 20.775C62.0621 20.775 62.0456 20.7782 62.0302 20.7844C62.0148 20.7906 62.0009 20.7996 61.9892 20.811C61.9775 20.8225 61.9682 20.836 61.962 20.8509C61.9558 20.8657 61.9527 20.8817 61.9529 20.8977Z" fill="#263238"/>
<path d="M61.874 20.7641C61.8901 20.7796 61.9837 20.7035 62.1192 20.6973C62.2547 20.6911 62.3563 20.7532 62.3708 20.7346C62.3853 20.7159 62.3611 20.6989 62.316 20.6694C62.2559 20.632 62.185 20.6141 62.1136 20.6183C62.0422 20.6225 61.9741 20.6486 61.9192 20.6927C61.8788 20.7268 61.8659 20.7579 61.874 20.7641Z" fill="#263238"/>
<path d="M66.9621 22.6258C66.8383 22.6303 66.7154 22.6035 66.6056 22.5481C66.4427 22.4647 66.3074 22.3387 66.2153 22.1848C66.1006 21.9927 66.0029 21.7917 65.9233 21.5838C65.7394 21.1443 65.6007 20.7344 65.5055 20.4362L65.4668 20.3089C65.4605 20.2655 65.4519 20.2225 65.441 20.18C64.9022 18.2032 63.0955 17.8352 62.739 17.8352C62.3551 17.8352 61.6857 17.6333 60.7081 18.6116C60.5612 18.7578 60.4368 18.9236 60.3387 19.1039C60.1234 19.3649 59.9743 19.6706 59.9032 19.9968C59.8615 20.1488 59.8538 20.3076 59.8806 20.4626C59.8999 20.4626 59.9032 20.2825 59.979 20.0076C60.0237 19.8461 60.087 19.6898 60.1677 19.5418C60.0838 19.9055 60.1193 20.2853 60.2693 20.6288L60.6194 20.5356L61.8728 20.1241C61.7599 19.7499 61.926 19.2855 62.0212 19.0681L62.0309 19.0604C62.0995 19.4566 62.2977 19.8214 62.5965 20.1018C62.8953 20.3822 63.2792 20.5635 63.6924 20.6195L63.9263 23.7252C65.5942 23.3805 65.5539 21.2406 65.5394 20.7965C65.6152 21.0418 65.7136 21.3245 65.8362 21.6211C65.9185 21.8337 66.0211 22.0385 66.1427 22.2329C66.2464 22.3955 66.3965 22.5259 66.575 22.6087C66.6968 22.6632 66.8325 22.682 66.9654 22.6631C67.0573 22.646 67.1009 22.618 67.0993 22.6134C67.0533 22.6147 67.0075 22.6189 66.9621 22.6258Z" fill="#175594"/>
<path d="M61.3859 21.8618C61.3128 21.8458 61.2382 21.8369 61.1633 21.8354C61.1294 21.8354 61.0956 21.8354 61.0875 21.8043C61.0863 21.7702 61.0947 21.7364 61.1117 21.7065C61.1407 21.6211 61.1714 21.531 61.2052 21.4363C61.2698 21.2437 61.3246 21.0683 61.3666 20.9409C61.3924 20.8728 61.4092 20.8019 61.4166 20.7297C61.3797 20.7926 61.3505 20.8593 61.3295 20.9285C61.2827 21.0543 61.2214 21.2267 61.1569 21.4192C61.1262 21.5155 61.0972 21.6056 61.0681 21.6925C61.0483 21.7354 61.0437 21.7835 61.0552 21.8292C61.0603 21.8408 61.0683 21.8512 61.0784 21.8593C61.0885 21.8674 61.1005 21.873 61.1133 21.8758C61.1325 21.8786 61.1521 21.8786 61.1714 21.8758C61.2432 21.8795 61.3153 21.8748 61.3859 21.8618Z" fill="#263238"/>
<path d="M64.2005 21.8269C64.1855 21.6699 64.203 21.5115 64.2522 21.3611C64.2787 21.2859 64.3255 21.219 64.3879 21.1671C64.4503 21.1152 64.526 21.0803 64.607 21.066C64.7015 21.0624 64.7941 21.0919 64.8676 21.149C64.9412 21.2061 64.9908 21.287 65.0071 21.3766C65.0171 21.4671 64.9993 21.5583 64.956 21.6392C64.9127 21.72 64.8458 21.7869 64.7635 21.8316C64.6795 21.8739 64.5867 21.8972 64.4919 21.8999C64.3972 21.9026 64.3031 21.8846 64.2167 21.8471" fill="#FFBE9D"/>
<path d="M64.488 21.6895C64.488 21.6786 64.5412 21.7019 64.6106 21.6895C64.6538 21.6747 64.6911 21.6473 64.7174 21.6111C64.7438 21.5749 64.7577 21.5318 64.7574 21.4876C64.7613 21.4654 64.7601 21.4427 64.754 21.421C64.7479 21.3993 64.7369 21.3791 64.7219 21.3618C64.7072 21.35 64.6903 21.3412 64.672 21.3359C64.6537 21.3305 64.6344 21.3288 64.6154 21.3308C64.5412 21.3308 64.4896 21.3556 64.4848 21.3432C64.4799 21.3308 64.5187 21.2997 64.6058 21.2749C64.6334 21.2683 64.6621 21.2677 64.69 21.2731C64.7179 21.2785 64.7442 21.2897 64.7671 21.3059C64.7929 21.3296 64.8126 21.3588 64.8244 21.3912C64.8362 21.4236 64.8397 21.4583 64.8348 21.4923C64.8315 21.5574 64.806 21.6196 64.7622 21.6693C64.7249 21.7104 64.6733 21.7369 64.6171 21.7438C64.5235 21.7454 64.4799 21.6942 64.488 21.6895Z" fill="#EB996E"/>
<path d="M63.6597 18.3381C63.5481 18.2968 63.4482 18.2307 63.3683 18.1451C63.2884 18.0596 63.2307 17.957 63.1999 17.8458C63.1729 17.7344 63.1774 17.618 63.2128 17.5088C63.2483 17.3996 63.3134 17.3015 63.4016 17.2247C63.4936 17.1509 63.6066 17.1057 63.7257 17.0949C63.8449 17.0841 63.9647 17.1082 64.0694 17.1641C64.2313 17.2716 64.3489 17.4305 64.4017 17.6129C64.4525 17.7285 64.4665 17.856 64.442 17.9794C64.4118 18.0687 64.3577 18.1488 64.2853 18.2118C64.2128 18.2747 64.1245 18.3183 64.0291 18.3381C63.8386 18.3766 63.6424 18.3819 63.45 18.3536" fill="#175594"/>
<path d="M67.6158 20.9665C67.633 20.9037 67.6363 20.8381 67.6255 20.774C67.6079 20.7003 67.5706 20.6324 67.5174 20.5768C67.4466 20.5044 67.3551 20.4536 67.2545 20.4308C67.1306 20.4018 67.0024 20.3928 66.8754 20.4044C66.7367 20.4137 66.5883 20.437 66.4254 20.4417C66.2506 20.4516 66.0766 20.4116 65.9253 20.3268C65.7742 20.2175 65.6684 20.0601 65.6269 19.8826C65.5249 19.5706 65.3575 19.282 65.1349 19.0348C64.9528 18.8332 64.7382 18.6612 64.4993 18.5254C64.2744 18.4053 64.0363 18.3095 63.7896 18.2397C63.8602 18.2409 63.9303 18.2518 63.9976 18.2723C64.183 18.3174 64.3615 18.3858 64.5284 18.4757C64.7784 18.6085 65.0031 18.7813 65.193 18.9866C65.4267 19.2384 65.6016 19.5354 65.7059 19.8578C65.7427 20.0179 65.8362 20.1607 65.9705 20.2615C66.108 20.3376 66.2653 20.3742 66.4238 20.3671C66.5851 20.3671 66.7286 20.3438 66.8706 20.3376C67.0052 20.328 67.1405 20.3406 67.2706 20.3749C67.3803 20.4043 67.4785 20.4643 67.5529 20.5473C67.6079 20.6103 67.6441 20.6865 67.6578 20.7678C67.665 20.8199 67.66 20.873 67.6433 20.9231C67.6304 20.9526 67.6175 20.9681 67.6158 20.9665Z" fill="#175594"/>
<path d="M64.3825 18.5228C64.0526 18.2094 63.634 17.9966 63.1791 17.9109C63.4181 17.9007 63.6556 17.952 63.8671 18.0596C64.0786 18.1671 64.2566 18.327 64.3825 18.5228Z" fill="#263238"/>
<path d="M61.3489 23.4857C61.817 23.4661 62.2697 23.3185 62.6539 23.0602C62.6539 23.0602 62.3312 23.7605 61.3392 23.7217L61.3489 23.4857Z" fill="#EB996E"/>
<path d="M61.8334 21.9891C61.6261 22.0909 61.4051 22.1646 61.1768 22.208C61.2271 22.2736 61.2986 22.3212 61.3801 22.3434C61.4615 22.3656 61.5483 22.3611 61.6269 22.3307C61.6643 22.3223 61.6996 22.3066 61.7305 22.2846C61.7614 22.2626 61.7873 22.2347 61.8066 22.2027C61.826 22.1708 61.8383 22.1353 61.8429 22.0986C61.8475 22.0618 61.8443 22.0246 61.8334 21.9891Z" fill="white"/>
<path d="M63.6394 29.7078C63.2684 30.6038 62.849 31.5045 62.6505 31.5216C60.4664 31.7141 58.1338 31.0169 57.3095 30.7451C57.2256 30.6551 57.1305 30.5479 57.0256 30.4144C56.9353 30.3006 56.8654 30.1731 56.8191 30.037C56.7563 29.87 56.7172 29.6955 56.703 29.5183C56.707 29.4839 56.6997 29.4491 56.682 29.419C56.6643 29.3888 56.6371 29.3648 56.6044 29.3503C56.5717 29.3359 56.5351 29.3317 56.4998 29.3385C56.4645 29.3452 56.4323 29.3625 56.4078 29.3879C56.3142 29.5059 56.29 29.9563 56.5046 30.4408C56.7191 30.9253 55.9577 30.5401 55.6771 30.405C55.3964 30.2699 54.5076 29.8879 54.3946 29.9392C54.2333 30.0122 54.2833 30.1954 54.5672 30.3243C54.8512 30.4532 55.6722 30.8989 55.59 31.0386C55.5077 31.1784 54.0914 30.4656 54.0914 30.4656C54.0914 30.4656 53.8123 30.2668 53.7139 30.4252C53.5332 30.7094 55.0996 31.357 55.2512 31.416C55.3544 31.4563 55.2722 31.6101 55.1625 31.5604C55.0528 31.5107 53.7639 30.8212 53.5768 31.11C53.4332 31.3306 54.8673 31.6536 55.0447 31.9393C55.2222 32.225 53.9881 31.5883 53.8607 31.8057C53.8139 31.8865 53.7897 31.9533 54.5576 32.2188C55.121 32.3866 55.6934 32.525 56.2723 32.6334V32.6412C56.2723 32.6412 64.104 36.0156 65.5864 32.7592C65.9413 31.9828 66.2897 31.2265 66.4881 30.7808" fill="#FFBE9D"/>
<path d="M45.1653 39.3155L45.2733 22.591L44.17 22.5693L44.0877 39.3155H45.1653Z" fill="#263238"/>
<path d="M15.4389 36.2751L7.33945 43.3547C7.03709 43.6289 6.79624 43.9598 6.63173 44.327C6.46722 44.6942 6.38253 45.09 6.38287 45.4899C6.38287 47.1142 7.8137 48.1763 9.50102 48.1701C13.6161 48.1546 20.2976 47.9186 20.2492 47.9651C20.2008 48.0117 20.3153 45.5287 20.3153 45.5287L10.8544 45.1311L18.3038 39.0144L15.4389 36.2751Z" fill="#CC8F71"/>
<path d="M15.864 38.0336C15.864 38.0336 14.7945 47.2375 14.8832 47.9238C14.9719 48.6102 15.2397 60.0704 15.2397 60.0704L17.7481 59.9757L18.4256 47.8928L20.5226 38.7122L15.864 38.0336Z" fill="#CC8F71"/>
<path d="M14.8148 45.5276C14.827 45.6827 14.827 45.8384 14.8148 45.9935C14.8148 46.2838 14.8148 46.6845 14.8326 47.1286C14.8503 47.5727 14.8922 47.9703 14.9245 48.2591C14.9485 48.4134 14.9626 48.569 14.9664 48.725C14.9152 48.5736 14.8812 48.4175 14.8648 48.2591C14.806 47.8829 14.7672 47.504 14.7487 47.1239C14.7304 46.7436 14.7331 46.3626 14.7567 45.9826C14.7598 45.8294 14.7793 45.6769 14.8148 45.5276Z" fill="#A8674A"/>
<path d="M9.935 45.6593C10.0704 45.5339 10.2249 45.4291 10.3931 45.3487C10.5464 45.2464 10.7151 45.1674 10.8932 45.1142C10.7571 45.2388 10.6028 45.3434 10.4351 45.4248C10.281 45.5257 10.1125 45.6047 9.935 45.6593Z" fill="#A8674A"/>
<path d="M8.18025 27.4745L4.74594 25.1794L4.58624 25.4372L7.99797 27.7618L8.18025 27.4745Z" fill="#263238"/>
<path d="M7.0141 27.4335C7.0141 27.4335 6.58823 26.2906 6.485 26.053C6.38176 25.8154 6.22367 25.3853 6.16237 25.376C6.10107 25.3666 5.86072 25.3977 6.16237 26.1244C6.46402 26.8512 5.78168 26.3931 5.78168 26.3931L5.12353 25.9459C5.12353 25.9459 4.59765 27.4025 4.88156 27.8528C5.10473 28.1902 5.35671 28.5091 5.63489 28.8063L7.0141 27.4335Z" fill="#CC8F71"/>
<path d="M14.4436 20.4626C13.7435 20.9284 14.2533 21.84 13.8516 22.2267C13.7016 22.3695 13.4887 22.4409 13.3419 22.5869C12.837 23.0885 13.4193 24.0358 12.9773 24.5886C12.8273 24.778 12.5869 24.8743 12.3901 25.0203C12.131 25.2253 11.9562 25.5125 11.8971 25.8304C11.838 26.1482 11.8984 26.476 12.0675 26.7548L15.9616 25.9303L15.355 20.8197L14.4436 20.4626Z" fill="#263238"/>
<path d="M19.1513 19.8835C19.3965 20.4426 20.2902 20.3851 20.708 20.8386C20.979 21.1336 20.9967 21.5871 21.2677 21.8805C21.5387 22.174 21.9968 22.2299 22.3582 22.4209C23.0857 22.8045 23.3422 23.6632 23.5325 24.449C22.1608 24.9872 20.7323 25.3804 19.2723 25.6214C19.1013 25.6509 18.4899 25.6618 17.5253 25.8404L17.2027 20.5684L19.1513 19.8835Z" fill="#263238"/>
<path d="M15.9571 26.4725C15.9571 26.1619 15.7958 24.7643 15.7958 24.7643C15.7958 24.7643 14.7586 24.7084 14.6457 23.7254C14.5328 22.7425 14.4844 20.4644 14.4844 20.4644L16.3185 19.4892L18.0268 20.9582L18.4058 25.842L15.9571 26.4725Z" fill="#CC8F71"/>
<path d="M18.3075 21.6658C18.3075 21.6658 16.6105 21.5928 16.2362 20.1331L14.4925 21.849C14.3203 21.5015 14.2617 21.1118 14.3241 20.7315C14.3866 20.3512 14.5674 19.998 14.8425 19.7185C15.8104 18.6548 16.5137 18.8334 16.9105 18.8132C17.2831 18.7961 19.1785 19.0896 19.8431 21.1176C19.8915 21.2652 19.9432 21.6332 19.9786 21.7978L18.3075 21.6658Z" fill="#263238"/>
<path d="M14.7347 22.1098C14.7368 22.1433 14.7525 22.1747 14.7785 22.1971C14.8045 22.2195 14.8386 22.2311 14.8734 22.2294C14.8991 22.2278 14.9238 22.219 14.9443 22.204C14.9648 22.189 14.9802 22.1685 14.9886 22.1451C14.9971 22.1216 14.9981 22.0963 14.9917 22.0723C14.9852 22.0483 14.9715 22.0267 14.9523 22.0102C14.9332 21.9936 14.9093 21.9829 14.8838 21.9794C14.8583 21.9758 14.8323 21.9796 14.8091 21.9903C14.7858 22.0009 14.7663 22.018 14.7531 22.0392C14.7399 22.0605 14.7335 22.0851 14.7347 22.1098Z" fill="#263238"/>
<path d="M14.6002 21.9795C14.618 21.9951 14.7115 21.9112 14.8519 21.8972C14.9922 21.8832 15.1019 21.9423 15.1164 21.9236C15.1309 21.905 15.1035 21.8864 15.0551 21.8584C14.9912 21.8213 14.9162 21.806 14.8422 21.8149C14.7681 21.8228 14.6986 21.8533 14.6438 21.9019C14.6034 21.9392 14.5922 21.9718 14.6002 21.9795Z" fill="#263238"/>
<path d="M16.2535 22.0391C16.2551 22.0638 16.2643 22.0876 16.2798 22.1073C16.2954 22.127 16.3167 22.1419 16.3411 22.15C16.3654 22.1581 16.3917 22.1592 16.4166 22.1529C16.4416 22.1467 16.464 22.1336 16.4812 22.1151C16.4984 22.0966 16.5095 22.0737 16.5132 22.0491C16.5169 22.0246 16.5129 21.9995 16.5019 21.9772C16.4908 21.9548 16.4731 21.936 16.451 21.9233C16.4289 21.9105 16.4034 21.9044 16.3777 21.9055C16.3604 21.9063 16.3434 21.9104 16.3277 21.9176C16.3121 21.9248 16.2981 21.9348 16.2865 21.9473C16.275 21.9597 16.2661 21.9742 16.2604 21.99C16.2547 22.0057 16.2524 22.0224 16.2535 22.0391Z" fill="#263238"/>
<path d="M16.1656 21.9036C16.1833 21.9191 16.2753 21.8352 16.4156 21.8213C16.556 21.8073 16.6656 21.8679 16.6802 21.8492C16.6947 21.8306 16.6673 21.812 16.6205 21.784C16.5561 21.748 16.4814 21.7328 16.4074 21.7406C16.3334 21.7484 16.2639 21.7789 16.2091 21.8275C16.1688 21.8601 16.1575 21.8974 16.1656 21.9036Z" fill="#263238"/>
<path d="M15.715 23.0763C15.6386 23.061 15.5605 23.0553 15.4827 23.0592C15.4472 23.0592 15.4117 23.0592 15.402 23.0297C15.3959 22.9924 15.4009 22.9541 15.4165 22.9195L15.4988 22.6337C15.5777 22.3905 15.6371 22.1419 15.6763 21.8899C15.5811 22.1278 15.503 22.3716 15.4424 22.6197C15.4165 22.7207 15.3907 22.8154 15.3649 22.907C15.3486 22.9533 15.3486 23.0036 15.3649 23.0499C15.3714 23.0615 15.3803 23.0716 15.3912 23.0797C15.402 23.0877 15.4145 23.0934 15.4278 23.0965C15.4481 23.0995 15.4688 23.0995 15.4891 23.0965C15.565 23.0987 15.6408 23.0919 15.715 23.0763Z" fill="#263238"/>
<path d="M16.1883 23.181C16.327 23.0832 15.806 23.4264 15.5172 23.4404C15.5725 23.5066 15.6493 23.553 15.7353 23.5722C15.8214 23.5914 15.9116 23.5821 15.9915 23.546C16.2867 23.4124 16.1883 23.181 16.1883 23.181Z" fill="white"/>
<path d="M15.764 24.7611C16.2496 24.7176 16.7123 24.542 17.0981 24.2549C17.0981 24.2549 16.8271 24.9925 15.7979 25.0018L15.764 24.7611Z" fill="#A8674A"/>
<path d="M16.2796 20.0116C16.2796 20.0116 15.9408 20.7275 16.128 21.2446L14.5149 21.7307C14.5149 21.7307 14.0309 19.7461 16.2796 20.0116Z" fill="#263238"/>
<path d="M18.3958 48.4138L8.16058 41.9088C10.3254 39.6788 12.6773 37.716 15.318 36.1321L21.5284 35.733C22.1834 40.5547 18.4248 44.5424 18.3958 48.4138Z" fill="#263238"/>
<path d="M15.2471 59.8675L15.2325 60.2961C15.2325 60.2961 13.0452 60.7092 13.5678 60.8769C14.034 61.0322 16.9231 60.9995 17.6296 60.9809H17.7909V59.9607L15.2471 59.8675Z" fill="#175594"/>
<g opacity="0.5">
<path d="M16.8612 60.9314C16.9043 60.7244 17.0263 60.5405 17.2032 60.4158C17.3756 60.2898 17.5912 60.2315 17.8065 60.2528L17.7855 60.9407L16.8612 60.9314Z" fill="white"/>
</g>
<g opacity="0.5">
<path d="M14.1702 60.5342C14.1702 60.5342 13.4023 60.7252 13.4926 60.8448C13.583 60.9644 16.5043 61.0451 17.7948 60.9722V60.9163L14.3879 60.8526C14.3879 60.8526 14.3121 60.5451 14.1702 60.5342Z" fill="white"/>
</g>
<path d="M17.8264 60.9215H17.7812H17.6554H17.1908C16.7972 60.9215 16.2536 60.9215 15.6551 60.9059C15.0567 60.8904 14.5131 60.8656 14.1211 60.8423L13.6565 60.8112L13.5307 60.8004H13.4871H13.5242H13.65L14.1162 60.8221C14.5082 60.8407 15.0502 60.8625 15.6487 60.878C16.2472 60.8935 16.7908 60.8997 17.1844 60.9013H17.6489H17.7748C17.7927 60.9062 17.81 60.913 17.8264 60.9215Z" fill="#263238"/>
<path d="M14.3795 60.8962C14.3604 60.8218 14.3334 60.7494 14.2988 60.6804C14.2518 60.6164 14.1977 60.5576 14.1375 60.5049C14.2152 60.5341 14.2793 60.5892 14.3182 60.6602C14.3695 60.7283 14.3914 60.8129 14.3795 60.8962Z" fill="#263238"/>
<path d="M15.1371 60.5486C15.1371 60.5486 15.0951 60.5098 15.0596 60.4523C15.0343 60.4191 15.0166 60.3809 15.008 60.3405C15.0161 60.3405 15.05 60.3793 15.0855 60.4368C15.1209 60.4943 15.1516 60.5439 15.1371 60.5486Z" fill="#263238"/>
<path d="M15.3538 60.447C15.3538 60.447 15.3087 60.4268 15.2667 60.388C15.2248 60.3491 15.1925 60.3119 15.199 60.3057C15.2054 60.2994 15.2441 60.3258 15.2877 60.3662C15.3313 60.4066 15.3603 60.4423 15.3538 60.447Z" fill="#263238"/>
<path d="M15.4926 60.2158C15.4495 60.2295 15.4037 60.2337 15.3587 60.2282C15.2845 60.2282 15.2248 60.2204 15.2248 60.2111C15.2679 60.1974 15.3137 60.1932 15.3587 60.1987C15.4041 60.1952 15.4497 60.201 15.4926 60.2158Z" fill="#263238"/>
<path d="M15.5428 60.0605C15.4979 60.0873 15.4457 60.1008 15.3928 60.0993C15.3377 60.1079 15.2811 60.0992 15.2315 60.0745C15.282 60.0706 15.3327 60.0706 15.3831 60.0745C15.4358 60.0653 15.4893 60.0607 15.5428 60.0605Z" fill="#263238"/>
<path d="M15.0638 60.3309C15.0104 60.3396 14.9558 60.3396 14.9024 60.3309C14.8439 60.3214 14.7861 60.3073 14.7298 60.289C14.6949 60.2781 14.6614 60.2636 14.6298 60.2455C14.6202 60.2403 14.6118 60.2331 14.6051 60.2246C14.5984 60.216 14.5937 60.2062 14.5911 60.1958C14.5888 60.184 14.5901 60.1718 14.595 60.1608C14.5999 60.1497 14.6081 60.1403 14.6185 60.1337C14.6819 60.1054 14.7536 60.0994 14.8211 60.1167C14.8886 60.134 14.9476 60.1735 14.9879 60.2284C15.0129 60.26 15.03 60.2967 15.0379 60.3356C15.0418 60.3493 15.0418 60.3638 15.0379 60.3775C15.023 60.3283 14.9989 60.282 14.967 60.2409C14.9314 60.1983 14.8838 60.1665 14.8299 60.1493C14.7987 60.1366 14.7653 60.1301 14.7315 60.1301C14.6977 60.1301 14.6642 60.1366 14.6331 60.1493C14.6072 60.1679 14.6153 60.1974 14.6444 60.2145C14.6738 60.2304 14.7045 60.2439 14.7363 60.2549C14.7888 60.2742 14.8427 60.2897 14.8976 60.3014C15.0025 60.3247 15.0638 60.3263 15.0638 60.3309Z" fill="#263238"/>
<path d="M15.0216 60.3367C15.0023 60.3032 14.9965 60.2639 15.0055 60.2265C15.0115 60.1854 15.0282 60.1464 15.0539 60.1131C15.0679 60.0896 15.0882 60.0701 15.1125 60.0565C15.1368 60.0429 15.1644 60.0356 15.1926 60.0355C15.2091 60.0395 15.2233 60.0495 15.2323 60.0634C15.2413 60.0773 15.2444 60.094 15.241 60.11C15.2366 60.135 15.2267 60.1588 15.212 60.1799C15.1892 60.214 15.1621 60.2453 15.1313 60.2731C15.1051 60.3014 15.0718 60.3228 15.0345 60.3352C15.0345 60.3352 15.0684 60.3072 15.1152 60.2591C15.1424 60.2307 15.1662 60.1994 15.1861 60.1659C15.2103 60.1333 15.2281 60.0727 15.1861 60.065C15.1442 60.0572 15.1023 60.0976 15.0764 60.1286C15.0523 60.1589 15.0353 60.1939 15.0264 60.2311C15.0206 60.266 15.019 60.3015 15.0216 60.3367Z" fill="#263238"/>
<path d="M17.7928 60.2458C17.7928 60.2458 17.7202 60.2381 17.604 60.2458C17.4532 60.2583 17.3091 60.3114 17.1882 60.399C17.0672 60.4866 16.9743 60.6052 16.9201 60.7412C16.8781 60.8468 16.8717 60.9167 16.8668 60.9167C16.862 60.9167 16.8668 60.8981 16.8668 60.867C16.8731 60.8221 16.8839 60.7779 16.8991 60.735C16.9491 60.5915 17.043 60.4658 17.1685 60.3747C17.2941 60.2835 17.4453 60.231 17.6024 60.2241C17.6493 60.2228 17.6963 60.2254 17.7428 60.2319C17.7601 60.2339 17.777 60.2386 17.7928 60.2458Z" fill="#263238"/>
<path d="M16.547 60.6817C16.4239 60.7057 16.2981 60.714 16.1727 60.7066C16.0468 60.7093 15.921 60.6962 15.7985 60.6677C15.7985 60.66 15.9598 60.6677 16.1727 60.677C16.3857 60.6864 16.5454 60.6817 16.547 60.6817Z" fill="#263238"/>
<path d="M17.0477 60.6954C17.0477 60.6954 17.0331 60.7295 17.0154 60.7653C16.9976 60.801 16.988 60.8336 16.9783 60.8336C16.9686 60.8336 16.967 60.7948 16.988 60.7528C17.0089 60.7109 17.0428 60.6892 17.0477 60.6954Z" fill="#263238"/>
<path d="M17.2441 60.4735C17.2441 60.4735 17.2328 60.5046 17.2054 60.531C17.178 60.5574 17.1506 60.5714 17.1457 60.5652C17.1409 60.5589 17.157 60.5341 17.1828 60.5093C17.2086 60.4844 17.2344 60.4689 17.2441 60.4735Z" fill="#263238"/>
<path d="M17.5166 60.371C17.5166 60.3803 17.4812 60.371 17.4424 60.3911C17.4037 60.4113 17.3779 60.4207 17.3698 60.4144C17.3618 60.4082 17.386 60.3756 17.4328 60.3616C17.4795 60.3477 17.5199 60.371 17.5166 60.371Z" fill="#263238"/>
<path d="M17.7186 60.3344C17.7186 60.3421 17.7073 60.3546 17.6847 60.3623C17.6621 60.3701 17.6444 60.3701 17.6411 60.3623C17.6379 60.3546 17.654 60.3421 17.675 60.3344C17.696 60.3266 17.7073 60.3266 17.7186 60.3344Z" fill="#263238"/>
<path d="M19.9187 47.9938L20.3639 48.0077C20.3639 48.0077 20.7914 50.1134 20.9656 49.6103C21.127 49.1615 21.0947 46.3803 21.0753 45.7002V45.5449L20.0171 45.5371L19.9187 47.9938Z" fill="#175594"/>
<g opacity="0.5">
<path d="M21.0234 46.4393C20.8082 46.3975 20.6167 46.2801 20.4863 46.1101C20.3588 45.9428 20.3012 45.7355 20.325 45.5293L21.0396 45.5495L21.0234 46.4393Z" fill="white"/>
</g>
<g opacity="0.5">
<path d="M20.61 49.0344C20.61 49.0344 20.8085 49.7735 20.9327 49.685C21.0569 49.5965 21.1424 46.7873 21.0649 45.545H21.0085L20.944 48.8278C20.944 48.8278 20.6213 48.893 20.61 49.0344Z" fill="white"/>
</g>
<path d="M21.0123 45.5098C21.0123 45.5098 21.0123 45.5253 21.0123 45.5532C21.0123 45.5812 21.0123 45.6293 21.0123 45.6744C21.0123 45.7955 21.0123 45.9461 21.0123 46.1216C21.0123 46.5005 21.0123 47.0238 20.9962 47.5999C20.9801 48.1761 20.9526 48.6994 20.9284 49.0767C20.9155 49.2538 20.9059 49.4028 20.8962 49.524C20.8962 49.5695 20.8929 49.6099 20.8865 49.6451C20.8882 49.659 20.8882 49.6731 20.8865 49.687C20.8844 49.6731 20.8844 49.659 20.8865 49.6451C20.8865 49.6078 20.8865 49.569 20.8865 49.5224C20.8865 49.4013 20.8994 49.2522 20.9091 49.0752C20.9268 48.6978 20.951 48.1761 20.9671 47.5999C20.9833 47.0238 20.9897 46.5005 20.9913 46.1216C20.9913 45.9461 20.9913 45.7955 20.9913 45.6744C20.9913 45.6293 20.9913 45.589 20.9913 45.5532C20.9957 45.5377 21.0028 45.523 21.0123 45.5098Z" fill="#263238"/>
<path d="M20.9868 48.8285C20.9093 48.8466 20.8342 48.8726 20.7625 48.9061C20.6961 48.9485 20.635 48.998 20.5803 49.0537C20.6106 48.9789 20.6678 48.9172 20.7416 48.8797C20.8137 48.8335 20.9012 48.8152 20.9868 48.8285Z" fill="#263238"/>
<path d="M20.6224 48.092C20.5943 48.1234 20.5597 48.1488 20.5207 48.1665C20.4864 48.1912 20.4467 48.2082 20.4046 48.2162C20.4046 48.2085 20.4449 48.1758 20.5046 48.1401C20.5643 48.1044 20.6224 48.0842 20.6224 48.092Z" fill="#263238"/>
<path d="M20.5208 47.8895C20.5208 47.8895 20.4999 47.9345 20.4579 47.9749C20.416 48.0153 20.3789 48.0463 20.3741 48.0401C20.3692 48.0339 20.395 47.9966 20.4354 47.9547C20.4757 47.9128 20.5144 47.8848 20.5208 47.8895Z" fill="#263238"/>
<path d="M20.2836 47.7568C20.2978 47.7983 20.3022 47.8423 20.2965 47.8857C20.3001 47.9294 20.294 47.9733 20.2787 48.0146C20.2645 47.9731 20.2601 47.929 20.2658 47.8857C20.2622 47.842 20.2683 47.7981 20.2836 47.7568Z" fill="#263238"/>
<path d="M20.1144 47.7091C20.1423 47.7523 20.1558 47.8027 20.1531 47.8535C20.1613 47.9039 20.1528 47.9555 20.1289 48.001C20.125 47.9525 20.125 47.9037 20.1289 47.8551C20.1199 47.8069 20.115 47.7581 20.1144 47.7091Z" fill="#263238"/>
<path d="M20.3992 48.1702C20.4088 48.2215 20.4088 48.2741 20.3992 48.3255C20.391 48.3827 20.3764 48.4389 20.3557 48.4932C20.3457 48.527 20.331 48.5594 20.3121 48.5894C20.3001 48.6075 20.2818 48.6207 20.2605 48.6267C20.248 48.6291 20.235 48.6279 20.2233 48.6232C20.2115 48.6185 20.2014 48.6105 20.1943 48.6003C20.1659 48.5392 20.1601 48.4705 20.178 48.4057C20.1959 48.341 20.2364 48.2841 20.2927 48.2447C20.3259 48.2212 20.3638 48.2048 20.404 48.1966C20.4188 48.1928 20.4344 48.1928 20.4492 48.1966C20.3977 48.2101 20.3494 48.2333 20.3073 48.2649C20.2625 48.2987 20.2294 48.3447 20.2121 48.3969C20.2002 48.4274 20.1948 48.4599 20.1962 48.4924C20.1976 48.5249 20.2057 48.5569 20.2201 48.5863C20.2379 48.6112 20.2685 48.6019 20.2879 48.5755C20.3045 48.5472 20.3185 48.5176 20.3298 48.487C20.3499 48.4364 20.3661 48.3845 20.3782 48.3317C20.3911 48.2292 20.3944 48.1702 20.3992 48.1702Z" fill="#263238"/>
<path d="M20.4062 48.2102C20.3714 48.2289 20.3306 48.2344 20.2917 48.2258C20.2486 48.2197 20.2077 48.2037 20.1723 48.1792C20.1483 48.1654 20.1283 48.1459 20.1144 48.1225C20.1006 48.0991 20.0933 48.0726 20.0933 48.0456C20.0952 48.0377 20.0987 48.0302 20.1036 48.0235C20.1085 48.0169 20.1148 48.0112 20.122 48.0069C20.1292 48.0026 20.1372 47.9996 20.1455 47.9983C20.1539 47.9969 20.1625 47.9972 20.1707 47.999C20.1967 48.0033 20.2215 48.0128 20.2433 48.027C20.2788 48.0489 20.3113 48.075 20.3401 48.1046C20.3689 48.1304 20.391 48.1623 20.4046 48.1978C20.4046 48.1978 20.3756 48.1652 20.324 48.1202C20.295 48.0936 20.2631 48.0701 20.2288 48.0503C20.1933 48.0285 20.132 48.0115 20.1239 48.0503C20.1159 48.0891 20.1578 48.131 20.1901 48.1559C20.2212 48.1788 20.2569 48.1952 20.2949 48.204C20.3317 48.2102 20.369 48.2123 20.4062 48.2102Z" fill="#263238"/>
<path d="M20.3113 45.5432C20.3078 45.6037 20.3078 45.6644 20.3113 45.7249C20.3259 45.8701 20.3817 46.0088 20.4726 46.1255C20.5639 46.242 20.6875 46.3313 20.8291 46.3833C20.8889 46.4034 20.9497 46.4205 21.0114 46.4345C20.9944 46.4378 20.9768 46.4378 20.9598 46.4345C20.913 46.4299 20.867 46.42 20.8227 46.405C20.6736 46.3569 20.5431 46.2665 20.4483 46.1457C20.3536 46.0248 20.2991 45.8792 20.292 45.728C20.2897 45.6828 20.2924 45.6375 20.3 45.5929C20.3 45.5587 20.3097 45.5416 20.3113 45.5432Z" fill="#263238"/>
<path d="M20.7639 46.7416C20.7899 46.86 20.7991 46.9812 20.7913 47.1019C20.7942 47.2232 20.7806 47.3443 20.751 47.4622C20.7413 47.4622 20.751 47.3069 20.7607 47.1019C20.7704 46.8969 20.7559 46.7432 20.7639 46.7416Z" fill="#263238"/>
<path d="M20.783 46.2592C20.783 46.2592 20.8169 46.2747 20.8556 46.2918C20.8943 46.3088 20.9266 46.3182 20.9266 46.3275C20.9266 46.3368 20.8846 46.3384 20.8411 46.3182C20.7975 46.298 20.7717 46.2654 20.783 46.2592Z" fill="#263238"/>
<path d="M20.5484 46.0709C20.5484 46.0709 20.5807 46.0818 20.6065 46.1082C20.6323 46.1346 20.6501 46.161 20.6436 46.1656C20.6371 46.1703 20.6113 46.1548 20.5839 46.1299C20.5565 46.1051 20.542 46.0849 20.5484 46.0709Z" fill="#263238"/>
<path d="M20.4479 45.8078C20.4576 45.8078 20.456 45.842 20.4673 45.8792C20.4785 45.9165 20.4995 45.9414 20.4931 45.9476C20.4866 45.9538 20.4527 45.9336 20.4382 45.887C20.4237 45.8404 20.4398 45.8047 20.4479 45.8078Z" fill="#263238"/>
<path d="M20.4027 45.6193C20.4108 45.6193 20.4237 45.6302 20.4317 45.6519C20.4398 45.6737 20.4317 45.6908 20.4317 45.6939C20.4317 45.697 20.4108 45.6814 20.4043 45.6612C20.3979 45.6411 20.3946 45.6193 20.4027 45.6193Z" fill="#263238"/>
<path d="M6.97644 27.3228C7.04581 27.1675 11.1463 30.6739 11.9771 30.399C12.3658 30.2701 13.4499 29.1955 14.4952 28.0837V28.0588C15.0799 27.1122 15.8322 26.2713 16.718 25.5742C16.9286 25.4107 17.1757 25.2966 17.44 25.2409C17.7043 25.1852 17.9784 25.1894 18.2407 25.2533C18.5029 25.3172 18.7462 25.4389 18.9511 25.6089C19.1561 25.7789 19.3172 25.9924 19.4216 26.2327C20.2281 28.0852 20.1265 30.399 21.0008 33.8821L21.0621 34.0949L21.0492 34.0731C21.1815 34.5856 21.3364 35.1213 21.5154 35.685L21.0621 34.0949C21.1719 34.2785 21.2983 34.4526 21.4396 34.6151C21.6095 34.775 21.7406 34.9691 21.8235 35.1834C21.8816 35.4055 21.7606 35.6897 21.5251 35.7145V35.7332L15.4082 36.1276V36.1462C15.2934 36.1563 15.1783 36.1318 15.0786 36.0762C14.9789 36.0206 14.8996 35.9365 14.8517 35.8356C14.7596 35.6317 14.7447 35.4031 14.8097 35.1897C14.8746 34.977 14.956 34.7694 15.0533 34.5685C15.0823 34.4986 15.1097 34.4272 15.1339 34.3558L14.9549 32.6057C13.6805 33.4939 12.4352 34.2005 11.8109 34.0964C10.2382 33.834 5.31332 29.0418 5.31332 29.0418C5.31332 29.0418 6.9103 27.4703 6.97644 27.3228Z" fill="#455A64"/>
<path d="M19.0622 27.5491C19.0396 27.6335 19.0089 27.7157 18.9703 27.7945C18.9074 27.9498 18.809 28.1734 18.667 28.442C18.5251 28.7107 18.3444 29.0259 18.1331 29.3644C17.8933 29.7284 17.6343 30.0803 17.3572 30.4188C17.0753 30.7537 16.7754 31.074 16.4587 31.3785C16.1635 31.658 15.886 31.8956 15.6424 32.0835C15.3989 32.2714 15.1988 32.419 15.0536 32.5121C14.9816 32.565 14.905 32.6118 14.8246 32.6519C14.89 32.5914 14.9601 32.5359 15.0343 32.4857C15.173 32.3848 15.3682 32.2342 15.6053 32.0401C15.8425 31.8459 16.1135 31.6052 16.4038 31.3273C16.6942 31.0493 16.9942 30.7232 17.291 30.3676C17.5878 30.012 17.8443 29.6548 18.0669 29.3241C18.2895 28.9933 18.4718 28.6827 18.6138 28.4172C18.7557 28.1516 18.8687 27.9342 18.9364 27.7821C18.9719 27.7014 19.014 27.6235 19.0622 27.5491Z" fill="#263238"/>
<path d="M11.9403 31.6923C11.8799 31.4901 11.8458 31.2814 11.8387 31.0711C11.8047 30.8626 11.7982 30.6508 11.8194 30.4407C11.8808 30.6427 11.9155 30.8514 11.9226 31.0618C11.9566 31.2704 11.9626 31.4823 11.9403 31.6923Z" fill="#263238"/>
<path d="M12.2681 31.626C12.1156 31.2695 12.0162 30.8942 11.9729 30.511C12.1254 30.8674 12.2248 31.2428 12.2681 31.626Z" fill="#263238"/>
<path d="M8.9096 17.1062C8.8584 16.8981 8.7344 16.7133 8.55841 16.5827C8.38241 16.4522 8.16514 16.384 7.94306 16.3895C7.72098 16.3949 7.50761 16.4738 7.33877 16.6128C7.16993 16.7517 7.0559 16.9424 7.01581 17.1528C6.97572 16.9424 6.86168 16.7517 6.69284 16.6128C6.524 16.4738 6.31063 16.3949 6.08855 16.3895C5.86647 16.384 5.6492 16.4522 5.47321 16.5827C5.29721 16.7133 5.17321 16.8981 5.12201 17.1062C5.07584 17.424 5.1578 17.7469 5.35108 18.0084C5.54407 18.2657 5.7707 18.4979 6.02536 18.6994C6.36895 18.996 6.68512 19.2755 7.02871 19.5721C7.3723 19.2755 7.66428 18.996 8.00787 18.6994C8.2631 18.498 8.49027 18.2657 8.68376 18.0084C8.87729 17.747 8.95822 17.4237 8.9096 17.1062Z" fill="#175594"/>
<path d="M10.6826 19.5196C10.6826 19.5196 10.6971 19.5584 10.7197 19.6314L10.8213 19.9575C10.9084 20.2479 11.0342 20.6687 11.1972 21.2075L11.2068 21.2401L11.173 21.2308L9.55986 20.8504H9.58406C9.12862 21.1955 8.6062 21.4497 8.04741 21.598C7.48862 21.7463 6.9047 21.7857 6.32988 21.7139C5.75506 21.6422 5.2009 21.4607 4.69988 21.1801C4.19886 20.8996 3.76105 20.5255 3.41212 20.08C3.06319 19.6344 2.81016 19.1263 2.66785 18.5854C2.52554 18.0445 2.49682 17.4816 2.58338 16.9299C2.66993 16.3782 2.87001 15.8486 3.1719 15.3723C3.47378 14.896 3.8714 14.4824 4.34145 14.1559C5.09071 13.6432 5.99034 13.3739 6.90952 13.3873C7.33459 13.3962 7.75635 13.4616 8.16291 13.5814C8.54323 13.7026 8.9059 13.8701 9.24208 14.0798C9.84111 14.4659 10.3347 14.9852 10.681 15.5939C10.9583 16.0988 11.1273 16.6522 11.1778 17.2213C11.2165 17.6499 11.1849 18.0817 11.0842 18.5009C11.021 18.7649 10.9296 19.022 10.8116 19.268C10.7713 19.3534 10.739 19.4155 10.7148 19.4574C10.6906 19.4994 10.6777 19.5196 10.6777 19.5196C10.6777 19.5196 10.6777 19.4978 10.7068 19.4543C10.7358 19.4109 10.7584 19.3472 10.7971 19.2618C10.907 19.0144 10.9923 18.7575 11.052 18.4947C11.1469 18.0783 11.1736 17.6502 11.131 17.226C11.0725 16.6034 10.8679 16.0017 10.5326 15.4664C10.1972 14.9311 9.73997 14.4761 9.1953 14.1357C8.51607 13.7051 7.72274 13.4712 6.90952 13.4618C6.47286 13.4607 6.0383 13.5198 5.61903 13.6373C5.18265 13.7685 4.76973 13.9633 4.39468 14.2149C3.92985 14.5356 3.53634 14.9425 3.23733 15.4118C2.93832 15.8811 2.73984 16.4032 2.65358 16.9474C2.56732 17.4916 2.59502 18.0469 2.73505 18.5807C2.87508 19.1144 3.1246 19.6158 3.46894 20.0553C3.81328 20.4948 4.24547 20.8636 4.74008 21.1399C5.23469 21.4162 5.78172 21.5945 6.34898 21.6643C6.91623 21.734 7.49225 21.6938 8.04312 21.546C8.59399 21.3983 9.1086 21.1459 9.55663 20.8038H9.56631H9.57922L11.1923 21.1982L11.1681 21.2231C11.0068 20.6796 10.8923 20.2541 10.81 19.9621L10.7197 19.636C10.689 19.5568 10.6826 19.5196 10.6826 19.5196Z" fill="#263238"/>
</svg>
