<svg width="95" height="67" viewBox="0 0 95 67" fill="none" xmlns="http://www.w3.org/2000/svg">
<path d="M61.6524 25.1912V32.167C61.663 32.7656 61.9136 33.336 62.35 33.7548C62.7863 34.1735 63.3733 34.4068 63.9839 34.4042H89.4884C89.7948 34.4049 90.0984 34.3462 90.3817 34.2317C90.665 34.1172 90.9226 33.949 91.1395 33.7368C91.3565 33.5246 91.5287 33.2726 91.6463 32.9951C91.7639 32.7176 91.8245 32.4201 91.8247 32.1196V26.2228L95.0001 22.9508L63.9871 22.8559C63.6768 22.8569 63.3698 22.9183 63.084 23.0366C62.7981 23.1549 62.5391 23.3277 62.3219 23.5449C62.1047 23.7622 61.9336 24.0196 61.8187 24.3022C61.7038 24.5848 61.6472 24.887 61.6524 25.1912Z" fill="#F5F5F5"/>
<path d="M88.0581 27.0841L64.9061 26.978L64.9093 26.2803L88.0597 26.3863L88.0581 27.0841Z" fill="#E0E0E0"/>
<path d="M88.0581 29.3796L64.9061 29.2736L64.9093 28.5759L88.0597 28.6819L88.0581 29.3796Z" fill="#E0E0E0"/>
<path d="M78.8987 30.8745L78.8953 31.5722L88.055 31.6161L88.0584 30.9184L78.8987 30.8745Z" fill="#E0E0E0"/>
<path d="M18.1635 60.7547C21.7309 58.3103 22.5393 53.7741 22.3989 49.6953C22.3747 49.0149 22.4506 48.2966 22.1214 47.7002C21.7923 47.1037 21.021 46.6939 20.3982 46.9818C19.8835 47.2192 19.6592 47.8077 19.3704 48.2935C18.9852 48.9422 18.4209 49.471 17.7424 49.8187C17.3003 50.0434 16.7533 50.181 16.3177 49.9453C15.7175 49.6209 15.6481 48.8093 15.6513 48.1321L15.6755 44.3475C15.6755 43.6703 15.6755 42.9789 15.4674 42.3366C15.2592 41.6942 14.7784 41.0977 14.1217 40.9126C13.465 40.7275 12.6534 41.1025 12.5082 41.7654C12.4501 42.0407 12.5082 42.3271 12.4872 42.6087C12.4663 42.8903 12.3356 43.2004 12.0629 43.2795C11.7902 43.3587 11.5111 43.1672 11.3045 42.9631C10.5914 42.2796 10.1089 41.3999 9.65717 40.5234C9.20539 39.6469 8.76652 38.7513 8.11951 38.0061C7.47249 37.2609 6.57862 36.6692 5.58955 36.6138C4.60047 36.5584 3.54686 37.1581 3.29838 38.1106C3.04991 39.063 3.62108 40.0329 4.2326 40.8003C5.14899 41.9488 6.22992 42.9613 7.44184 43.8064C7.65966 43.9646 7.89523 44.1228 7.97913 44.3713C8.12757 44.8238 7.69193 45.2715 7.23854 45.4202C6.72383 45.5879 6.16395 45.5357 5.62504 45.5974C5.08614 45.6591 4.4956 45.8933 4.30036 46.3885C4.01639 47.0799 4.60693 47.8125 5.18779 48.2871C6.35141 49.2395 7.67327 49.9888 9.09567 50.5022C9.60231 50.6841 10.138 50.8439 10.5478 51.1936C10.9576 51.5433 11.2045 52.1524 10.9576 52.6286C10.7108 53.1049 10.0751 53.2615 9.54261 53.1618C9.01015 53.0622 8.53579 52.7821 8.02753 52.5954C7.0788 52.2442 5.85416 52.3075 5.24587 53.1128C4.84734 53.6412 4.81184 54.3785 5.01353 55.0114C5.21522 55.6443 5.62504 56.1838 6.06069 56.6838C7.5806 58.4337 9.52808 59.8481 11.7289 60.5902C13.9297 61.3322 15.9692 61.5395 18.1571 60.7579" fill="#F5F5F5"/>
<path d="M18.2163 63.7766C18.023 61.8859 17.6447 60.0177 17.0869 58.1979C16.3971 55.9763 15.5772 53.7956 14.6311 51.6666C14.3848 51.0981 14.1406 50.538 13.8986 49.9864C13.6566 49.4358 13.4146 48.8899 13.1483 48.3694C12.6316 47.3724 12.059 46.4042 11.4332 45.4692C10.841 44.5721 10.2473 43.7415 9.68415 42.9694C9.12104 42.1973 8.58214 41.4901 8.07066 40.8635C7.2559 39.8719 6.36188 38.9455 5.3971 38.0931C5.05665 37.7909 4.78397 37.5647 4.59035 37.4144L4.37253 37.2419C4.34969 37.2216 4.32482 37.2036 4.29831 37.1881C4.31855 37.2109 4.34068 37.2321 4.36446 37.2514L4.56938 37.4318C4.75009 37.59 5.01793 37.8194 5.35192 38.1263C6.30131 38.9906 7.18314 39.9235 7.98998 40.9173C8.50308 41.5502 9.03714 42.2543 9.59541 43.0279C10.1537 43.8016 10.7442 44.6323 11.3315 45.5294C11.9529 46.4627 12.5217 47.4288 13.0354 48.4232C13.3016 48.9405 13.5388 49.4816 13.7808 50.0338L14.5133 51.7125C15.4569 53.8376 16.2783 56.0128 16.9739 58.2279C17.5338 60.0402 17.919 61.9001 18.1243 63.783" fill="#E0E0E0"/>
<path d="M13.1134 48.3641C13.1474 48.271 13.1701 48.1744 13.1812 48.0761C13.2183 47.8894 13.2602 47.6157 13.3086 47.2851C13.4071 46.611 13.5087 45.676 13.6184 44.6444C13.7281 43.6128 13.8427 42.6809 13.9508 42.0101C14.004 41.6746 14.0492 41.4041 14.0831 41.219C14.1071 41.1231 14.1201 41.0249 14.1218 40.9263C14.0823 41.0173 14.0531 41.1122 14.0347 41.2095C13.9863 41.393 13.9266 41.6636 13.8621 42.0006C13.7314 42.6698 13.6007 43.6033 13.4926 44.6381L13.2199 47.2803C13.186 47.5967 13.1553 47.8657 13.1328 48.0809C13.1164 48.1744 13.1099 48.2693 13.1134 48.3641Z" fill="#E0E0E0"/>
<path d="M4.23752 46.7347C4.35356 46.7602 4.47196 46.774 4.59087 46.7758C4.81838 46.7964 5.14914 46.8233 5.55897 46.8692C6.36572 46.9562 7.49516 47.1128 8.71819 47.3438C9.94122 47.5748 11.0465 47.8264 11.8371 48.0321C12.2324 48.1333 12.5519 48.2219 12.7729 48.2836C12.8853 48.3211 13.0008 48.3486 13.1182 48.3659C13.0149 48.3131 12.9069 48.2696 12.7955 48.2362C12.5777 48.1618 12.263 48.059 11.8677 47.9466C11.082 47.7188 9.97994 47.4498 8.74885 47.2204C7.69982 47.0219 6.64103 46.8767 5.57672 46.7853C5.1685 46.7505 4.83612 46.7363 4.60862 46.7331C4.48516 46.7218 4.36088 46.7224 4.23752 46.7347Z" fill="#E0E0E0"/>
<path d="M16.9801 58.0377C17.0043 58.0049 17.0244 57.9693 17.0398 57.9317C17.0818 57.8463 17.1318 57.7419 17.1915 57.6153C17.3222 57.34 17.5013 56.9397 17.7142 56.4397C18.1434 55.443 18.6904 54.0475 19.2729 52.5001C19.8554 50.9527 20.3894 49.5525 20.796 48.5446L21.2801 47.3564C21.3317 47.2267 21.3736 47.1191 21.4091 47.04C21.4281 47.0033 21.4406 46.9637 21.4463 46.9229C21.4219 46.9562 21.4018 46.9923 21.3866 47.0305C21.3446 47.1144 21.2946 47.2188 21.2349 47.3469C21.1042 47.6222 20.9251 48.0225 20.7121 48.5225C20.2829 49.5193 19.736 50.9148 19.1535 52.4637C18.571 54.0127 18.0369 55.4097 17.6303 56.4192C17.4303 56.908 17.2673 57.3099 17.1463 57.6074C17.0947 57.7371 17.0527 57.8447 17.0172 57.9317C16.9996 57.9651 16.9871 58.0008 16.9801 58.0377Z" fill="#E0E0E0"/>
<path d="M5.17926 54.3101C5.21661 54.3298 5.25613 54.3452 5.29705 54.356L5.63911 54.4699L6.90247 54.8702C7.96899 55.2104 9.43566 55.6945 11.0572 56.2325C12.6788 56.7704 14.1519 57.2435 15.2265 57.5615C15.7622 57.7197 16.1946 57.8447 16.5012 57.9238L16.8513 58.014C16.8917 58.0265 16.9333 58.0344 16.9755 58.0377C16.9385 58.017 16.8989 58.0011 16.8577 57.9903L16.5157 57.8779L15.2523 57.4761C14.1858 57.1375 12.7175 56.6518 11.0976 56.1138C9.47761 55.5759 8.00288 55.1028 6.92829 54.7848C6.39261 54.6266 5.96019 54.5016 5.65363 54.4225L5.30834 54.3291C5.26658 54.3162 5.22303 54.3098 5.17926 54.3101Z" fill="#E0E0E0"/>
<path d="M26.394 17.9723V23.3786C26.394 23.8483 26.2038 24.2988 25.8653 24.631C25.5267 24.9633 25.0675 25.1502 24.5885 25.1506H4.81997C4.34098 25.1502 3.88174 24.9633 3.54319 24.631C3.20464 24.2988 3.01447 23.8483 3.01447 23.3786V18.8108L0.553894 16.2793L24.5837 16.1986C24.8214 16.198 25.057 16.2435 25.2768 16.3323C25.4967 16.4212 25.6964 16.5518 25.8646 16.7166C26.0328 16.8814 26.1662 17.0772 26.257 17.2927C26.3479 17.5082 26.3944 17.7391 26.394 17.9723Z" fill="#E0E0E0"/>
<path d="M5.92773 19.4762L23.8666 19.3955L23.8649 18.8544L5.92612 18.9351L5.92773 19.4762Z" fill="#FAFAFA"/>
<path d="M5.92773 21.2555L23.8666 21.1748L23.8649 20.6337L5.92612 20.7159L5.92773 21.2555Z" fill="#FAFAFA"/>
<path d="M13.0222 22.4159L5.92456 22.4499L5.92726 22.991L13.0249 22.957L13.0222 22.4159Z" fill="#FAFAFA"/>
<path d="M16.7073 27.9502L16.7073 65.1314C16.7073 66.1407 17.5416 66.9589 18.5709 66.9589H74.6075C75.6367 66.9589 76.4711 66.1407 76.4711 65.1314V27.9502C76.4711 26.941 75.6367 26.1228 74.6075 26.1228H18.5709C17.5416 26.1228 16.7073 26.941 16.7073 27.9502Z" fill="#263238"/>
<path d="M20.7955 27.4105L20.7955 65.6724H70.7057V27.4105H20.7955Z" fill="white"/>
<path d="M75.0277 46.9053C75.2296 46.0632 74.6971 45.22 73.8384 45.022C72.9796 44.8241 72.1197 45.3462 71.9178 46.1884C71.7159 47.0305 72.2484 47.8736 73.1072 48.0716C73.966 48.2696 74.8258 47.7474 75.0277 46.9053Z" fill="#455A64"/>
<path d="M18.4271 40.5844V52.4983C18.4271 52.6049 18.5152 52.6913 18.6239 52.6913H18.8901C18.9989 52.6913 19.087 52.6049 19.087 52.4983V40.5844C19.087 40.4778 18.9989 40.3914 18.8901 40.3914H18.6239C18.5152 40.3914 18.4271 40.4778 18.4271 40.5844Z" fill="#455A64"/>
<path d="M34.9539 49.8605C36.1781 48.0364 35.6626 45.5846 33.8024 44.3841C31.9422 43.1836 29.4418 43.6891 28.2176 45.5132C26.9934 47.3373 27.5089 49.7892 29.3691 50.9896C31.2292 52.1901 33.7296 51.6846 34.9539 49.8605Z" fill="#175594"/>
<path opacity="0.3" d="M34.9539 49.8605C36.1781 48.0364 35.6626 45.5846 33.8024 44.3841C31.9422 43.1836 29.4418 43.6891 28.2176 45.5132C26.9934 47.3373 27.5089 49.7892 29.3691 50.9896C31.2292 52.1901 33.7296 51.6846 34.9539 49.8605Z" fill="white"/>
<path d="M30.1873 46.6945C30.3389 46.6819 30.4777 46.8527 30.4971 47.0647C30.5164 47.2767 30.4051 47.465 30.2518 47.4777C30.0985 47.4903 29.9614 47.3195 29.9436 47.109C29.9259 46.8986 30.0404 46.7072 30.1873 46.6945Z" fill="#263238"/>
<path d="M32.7565 46.6426C32.6048 46.6426 32.4725 46.8009 32.4628 47.0255C32.4531 47.2502 32.5709 47.4227 32.7242 47.429C32.8775 47.4353 33.0098 47.2708 33.0178 47.0477C33.0259 46.8246 32.9097 46.649 32.7565 46.6426Z" fill="#263238"/>
<path d="M33.1973 48.4758C33.1973 48.5216 32.4455 48.5596 31.5193 48.5596C30.5932 48.5596 29.8397 48.5216 29.8397 48.4758C29.8397 48.4299 30.5915 48.3903 31.5193 48.3903C32.4471 48.3903 33.1973 48.4267 33.1973 48.4758Z" fill="#263238"/>
<path d="M30.5101 46.2404C30.5004 46.2879 30.3084 46.2863 30.0841 46.3211C29.8598 46.3559 29.6775 46.4129 29.6533 46.3718C29.6291 46.3306 29.7985 46.1946 30.0583 46.155C30.3181 46.1155 30.5101 46.1961 30.5101 46.2404Z" fill="#263238"/>
<path d="M33.4841 46.4321C33.4551 46.47 33.2808 46.3814 33.0566 46.315C32.8323 46.2485 32.6387 46.2248 32.6338 46.1758C32.629 46.1267 32.8484 46.0745 33.1066 46.1536C33.3647 46.2327 33.5148 46.3988 33.4841 46.4321Z" fill="#263238"/>
<path d="M64.9041 48.0101C65.2672 45.7751 63.7138 43.6747 61.4345 43.3187C59.1553 42.9627 57.0133 44.486 56.6503 46.721C56.2872 48.956 57.8406 51.0564 60.1199 51.4124C62.3991 51.7684 64.5411 50.2451 64.9041 48.0101Z" fill="#175594"/>
<path opacity="0.3" d="M64.9041 48.0101C65.2672 45.7751 63.7138 43.6747 61.4345 43.3187C59.1553 42.9627 57.0133 44.486 56.6503 46.721C56.2872 48.956 57.8406 51.0564 60.1199 51.4124C62.3991 51.7684 64.5411 50.2451 64.9041 48.0101Z" fill="black"/>
<path d="M59.3317 46.3311C59.4931 46.3184 59.6351 46.4893 59.6544 46.714C59.6738 46.9387 59.5608 47.1301 59.4027 47.1428C59.2446 47.1554 59.0994 46.9845 59.08 46.7599C59.0606 46.5352 59.1736 46.3438 59.3317 46.3311Z" fill="#263238"/>
<path d="M61.9895 46.2769C61.8282 46.2769 61.6943 46.4477 61.6846 46.6724C61.6749 46.8971 61.7975 47.0838 61.9557 47.0901C62.1138 47.0964 62.2509 46.9192 62.2606 46.6945C62.2703 46.4699 62.1493 46.2832 61.9895 46.2769Z" fill="#263238"/>
<path d="M62.4466 48.1761C62.4288 48.1982 62.2546 48.0764 61.9625 47.9261C61.5785 47.7294 61.1518 47.6263 60.7185 47.6255C60.2848 47.6443 59.8599 47.7521 59.4713 47.9419C59.168 48.0875 58.9872 48.1982 58.9727 48.1761C58.9582 48.1539 59.1163 48.0179 59.4148 47.8375C59.8083 47.6042 60.2558 47.473 60.7153 47.4562C61.1773 47.4549 61.6304 47.5816 62.0222 47.8217C62.311 48.002 62.4579 48.1603 62.4466 48.1761Z" fill="#263238"/>
<path d="M59.6516 45.8588C59.6661 45.8762 59.6387 45.9284 59.5693 45.987C59.4783 46.0674 59.3668 46.1221 59.2466 46.1452C59.1243 46.1681 58.9978 46.1543 58.8836 46.1056C58.798 46.0677 58.7593 46.0234 58.769 46.0028C58.7787 45.9822 58.9868 46.0234 59.2159 45.9791C59.4451 45.9348 59.6209 45.8208 59.6516 45.8588Z" fill="#263238"/>
<path d="M62.7447 46.0585C62.7447 46.0791 62.706 46.1186 62.6124 46.1471C62.4894 46.1813 62.3585 46.1768 62.2381 46.1344C62.1199 46.0936 62.014 46.0245 61.9299 45.9335C61.8686 45.8639 61.846 45.8085 61.8622 45.7927C61.8783 45.7769 62.0671 45.8971 62.293 45.9746C62.5189 46.0522 62.7286 46.011 62.7447 46.0585Z" fill="#263238"/>
<path d="M52.7651 58.7383L53.7332 58.2684L54.6787 58.7841L54.5206 57.7352L55.3128 57.0137L54.2463 56.8365L53.7913 55.8745L53.2911 56.8143L52.2181 56.9409L52.9733 57.6988L52.7651 58.7383Z" fill="#E0E0E0"/>
<path d="M48.8157 58.7383L49.7838 58.2684L50.7293 58.7841L50.5711 57.7352L51.3634 57.0137L50.2968 56.8365L49.8418 55.8745L49.3416 56.8143L48.2687 56.9409L49.0238 57.6988L48.8157 58.7383Z" fill="#175594"/>
<path d="M44.8654 58.7383L45.8335 58.2684L46.7774 58.7841L46.6209 57.7352L47.4131 57.0137L46.3466 56.8365L45.8916 55.8745L45.3914 56.8143L44.3184 56.9409L45.0735 57.6988L44.8654 58.7383Z" fill="#175594"/>
<path d="M40.9159 58.7383L41.884 58.2684L42.8279 58.7841L42.6714 57.7352L43.4636 57.0137L42.3971 56.8365L41.9421 55.8745L41.4419 56.8143L40.369 56.9409L41.1241 57.6988L40.9159 58.7383Z" fill="#175594"/>
<path d="M36.9657 58.7383L37.9338 58.2684L38.8777 58.7841L38.7212 57.7352L39.5134 57.0137L38.4469 56.8365L37.9919 55.8745L37.4917 56.8143L36.4187 56.9409L37.1738 57.6988L36.9657 58.7383Z" fill="#175594"/>
<path d="M55.3581 35.4244C55.3581 35.4481 51.0243 35.4671 45.6772 35.4671C40.33 35.4671 35.9962 35.4481 35.9962 35.4244C35.9962 35.4006 40.3284 35.3832 45.6772 35.3832C51.0259 35.3832 55.3581 35.4022 55.3581 35.4244Z" fill="#263238"/>
<path d="M50.5986 34.2861C50.5986 34.3098 48.4591 34.3288 45.8194 34.3288C43.1797 34.3288 41.0386 34.3098 41.0386 34.2861C41.0386 34.2623 43.1781 34.2433 45.8194 34.2433C48.4607 34.2433 50.5986 34.2623 50.5986 34.2861Z" fill="#263238"/>
<path d="M51.7491 48.0793C52.6816 45.2415 51.0915 42.1998 48.1975 41.2854C45.3036 40.371 42.2017 41.9302 41.2692 44.768C40.3367 47.6058 41.9268 50.6475 44.8207 51.5619C47.7147 52.4763 50.8166 50.9171 51.7491 48.0793Z" fill="#175594"/>
<path d="M44.6058 45.0582C44.814 45.0423 45.0028 45.267 45.0286 45.5629C45.0544 45.8587 44.9043 46.1103 44.6962 46.1277C44.4881 46.1451 44.2977 45.9189 44.2735 45.6246C44.2493 45.3303 44.3977 45.0756 44.6058 45.0582Z" fill="#263238"/>
<path d="M48.1057 44.9953C47.8976 44.9858 47.7169 45.22 47.7056 45.5159C47.6943 45.8117 47.8524 46.0586 48.0606 46.0665C48.2687 46.0744 48.4494 45.8418 48.4623 45.5459C48.4752 45.2501 48.3155 44.9953 48.1057 44.9953Z" fill="#263238"/>
<path d="M48.7063 46.7593C48.716 46.7688 48.6708 46.8241 48.5821 46.9175C48.4557 47.0511 48.3175 47.1734 48.169 47.283C47.9465 47.4463 47.7015 47.5779 47.4413 47.6738C47.1189 47.7924 46.7754 47.8462 46.4313 47.832C46.0897 47.8141 45.754 47.7381 45.439 47.6073C45.1835 47.5059 44.9387 47.3803 44.7081 47.2323C44.3176 46.976 44.1111 46.7767 44.1224 46.7577C44.1337 46.7387 44.3741 46.9001 44.7678 47.1247C45 47.2544 45.2422 47.366 45.4922 47.4586C45.7942 47.5737 46.1127 47.6416 46.4361 47.6595C46.7582 47.6729 47.0799 47.6273 47.3849 47.525C47.6352 47.4397 47.8742 47.3249 48.0964 47.1833C48.2836 47.0567 48.4353 46.9507 48.5337 46.8668C48.6321 46.783 48.6983 46.7513 48.7063 46.7593Z" fill="#263238"/>
<path d="M44.8545 43.8447C44.8448 43.8922 44.5818 43.8748 44.2688 43.9238C43.9558 43.9729 43.7105 44.0662 43.6863 44.0235C43.6621 43.9808 43.8945 43.8099 44.243 43.7577C44.5915 43.7055 44.8706 43.8004 44.8545 43.8447Z" fill="#263238"/>
<path d="M49.2869 44.0963C49.2562 44.1343 49.0239 43.9982 48.7109 43.9065C48.3978 43.8147 48.1284 43.7957 48.1268 43.7482C48.1252 43.7008 48.4156 43.6407 48.7625 43.7482C49.1094 43.8558 49.3175 44.0631 49.2869 44.0963Z" fill="#263238"/>
<path d="M44.2122 46.3715C44.2332 46.3715 44.2687 46.4237 44.2735 46.5297C44.2761 46.6635 44.2342 46.7946 44.1541 46.9031C44.0758 47.0139 43.9624 47.0962 43.8314 47.1372C43.7314 47.1657 43.6701 47.1515 43.662 47.1372C43.662 47.0898 43.8653 47.0202 44.0105 46.8113C44.1557 46.6025 44.1638 46.3794 44.2122 46.3715Z" fill="#263238"/>
<path d="M49.1725 46.8681C49.1725 46.8886 49.1305 46.9219 49.045 46.9282C48.9326 46.9332 48.8219 46.8996 48.732 46.8333C48.6401 46.7682 48.5744 46.6736 48.5464 46.5659C48.5287 46.4836 48.5464 46.4314 48.569 46.4298C48.6174 46.4298 48.6723 46.588 48.8336 46.6972C48.995 46.8064 49.1612 46.8206 49.1725 46.8681Z" fill="#263238"/>
<path d="M53.2366 46.3715C53.2366 46.3715 53.2366 46.3351 53.2269 46.2623L53.2059 45.9459C53.2059 45.8763 53.1978 45.7972 53.193 45.7117C53.1882 45.6263 53.164 45.533 53.1494 45.4317C53.1349 45.3304 53.1156 45.2213 53.0962 45.1058C53.073 44.982 53.0434 44.8595 53.0075 44.7387C52.8477 44.1118 52.592 43.5122 52.2491 42.9603C51.8017 42.2243 51.2139 41.5797 50.5178 41.0617L50.2226 40.8481C50.1193 40.7817 50.0112 40.72 49.8999 40.6551C49.7885 40.5902 49.6853 40.519 49.5675 40.4668L49.2141 40.3007L49.035 40.2168L48.8463 40.1504L48.4622 40.0127C48.3332 39.97 48.196 39.9431 48.0621 39.9083C47.9272 39.8688 47.7897 39.8381 47.6507 39.8165C47.3666 39.7645 47.0793 39.7317 46.7907 39.7184C46.6438 39.7184 46.4954 39.6995 46.347 39.7026L45.8968 39.7248C45.821 39.7248 45.7451 39.7248 45.6693 39.739L45.4418 39.7738C45.2917 39.7976 45.1368 39.815 44.9852 39.8466C44.6772 39.9132 44.3742 40.0004 44.0784 40.1077C43.7741 40.2149 43.4776 40.3423 43.191 40.489C43.0474 40.5665 42.9102 40.6551 42.7682 40.7374C42.6988 40.7817 42.6246 40.8181 42.5585 40.8671L42.3584 41.0142C42.0874 41.2117 41.8297 41.4263 41.5871 41.6566L41.2419 42.03L41.1547 42.1249L41.0757 42.2262L40.9143 42.4303L40.753 42.6344L40.6158 42.8543L40.4787 43.0758L40.4109 43.1866L40.3528 43.3021L40.1221 43.7767L39.9382 44.2704C39.4702 45.6352 39.4702 47.1126 39.9382 48.4774C40.0011 48.6356 40.0624 48.8065 40.1237 48.971C40.185 49.1356 40.277 49.2875 40.3544 49.4457L40.4125 49.5628L40.4803 49.6735L40.6174 49.8934L40.7546 50.1134L40.9159 50.319L41.0773 50.5231L41.1547 50.6244L41.2419 50.7178L41.5871 51.0912C41.8296 51.322 42.0873 51.5372 42.3584 51.7351L42.5601 51.8807C42.6262 51.9313 42.7005 51.9677 42.7698 52.012C42.9118 52.0943 43.049 52.1829 43.1926 52.2604C43.7603 52.5485 44.3633 52.7643 44.9868 52.9027C45.1384 52.9344 45.2933 52.9518 45.445 52.9755L45.6709 53.0103C45.7467 53.0198 45.8226 53.0198 45.8984 53.0246L46.3486 53.0467C46.497 53.0467 46.6455 53.0357 46.7923 53.0309C47.0809 53.0177 47.3683 52.9849 47.6523 52.9328C47.7912 52.9105 47.9286 52.8798 48.0637 52.841C48.1992 52.8062 48.3348 52.7778 48.4655 52.7366L48.8479 52.599L49.0366 52.5325L49.2157 52.4487L49.5691 52.2825C49.6831 52.2254 49.7941 52.1626 49.9015 52.0943C50.0096 52.0294 50.1193 51.9677 50.2242 51.9012L50.5178 51.6861C51.2145 51.1682 51.8028 50.5236 52.2507 49.7874C52.5934 49.2328 52.8485 48.6306 53.0075 48.0012C53.0434 47.8809 53.073 47.7589 53.0962 47.6357C53.1156 47.5202 53.1333 47.411 53.1494 47.3097C53.1656 47.2085 53.1833 47.1151 53.193 47.0297C53.2027 46.9443 53.2027 46.8715 53.2059 46.7955C53.2156 46.6579 53.2221 46.5519 53.2269 46.4791C53.2317 46.4063 53.2366 46.3699 53.2366 46.3699C53.2366 46.3699 53.2366 46.4063 53.2366 46.4791C53.2366 46.5519 53.2285 46.6595 53.2237 46.7955C53.2237 46.8667 53.2237 46.9537 53.214 47.0313C53.2043 47.1088 53.1882 47.2116 53.1753 47.3129C53.1624 47.4142 53.143 47.5249 53.1252 47.642C53.103 47.7657 53.0745 47.8882 53.0397 48.0091C52.8863 48.6427 52.6343 49.2495 52.2927 49.808C51.8456 50.5511 51.256 51.2023 50.5566 51.7256L50.2597 51.9439C50.1564 52.012 50.0467 52.0737 49.937 52.1401C49.8273 52.2066 49.7208 52.2778 49.6014 52.33L49.2464 52.4993L49.0657 52.5895L48.8753 52.6575L48.4897 52.7967C48.3574 52.841 48.2202 52.8679 48.0847 52.9043C47.948 52.9441 47.809 52.9758 47.6684 52.9993C47.3812 53.052 47.0906 53.0853 46.7987 53.0989C46.6519 53.0989 46.5018 53.1195 46.3518 53.1179L45.8968 53.0958C45.8193 53.0958 45.7354 53.0958 45.6661 53.0815L45.4369 53.0467C45.2837 53.023 45.1272 53.0056 44.9739 52.9739C44.6624 52.9059 44.3557 52.8181 44.0558 52.7113C43.7483 52.603 43.4486 52.4745 43.1587 52.3268C43.0119 52.2493 42.8731 52.1591 42.7295 52.0753C42.6561 52.0354 42.585 51.9916 42.5165 51.9439L42.3132 51.7952C42.0385 51.5962 41.7776 51.3795 41.5323 51.1465L41.1822 50.7684L41.0934 50.6735L41.0144 50.5706L40.853 50.3649L40.6917 50.1561L40.5529 49.9346L40.4141 49.7115L40.3448 49.5992L40.2867 49.4805L40.0527 49.0058C39.9898 48.8397 39.9285 48.672 39.8655 48.5059C39.3923 47.124 39.3923 45.6285 39.8655 44.2466L40.0527 43.7467L40.2867 43.272L40.3464 43.1534L40.4158 43.041L40.5545 42.8179L40.6933 42.5964L40.8546 42.3892L41.016 42.1819L41.095 42.0791L41.1822 41.9841C41.2999 41.8591 41.4161 41.7326 41.5323 41.6076C41.778 41.3745 42.0389 41.1573 42.3132 40.9573L42.5165 40.8086C42.5843 40.7595 42.6585 40.7215 42.7295 40.6772C42.8731 40.595 43.0135 40.5048 43.1587 40.4273C43.4486 40.2796 43.7483 40.1511 44.0558 40.0428C44.3557 39.936 44.6624 39.8482 44.9739 39.7801C45.1272 39.7485 45.2837 39.7311 45.4369 39.7074L45.6661 39.6726C45.7419 39.6631 45.8193 39.6631 45.8952 39.6583L46.3502 39.6362C46.5019 39.6362 46.6503 39.6488 46.7987 39.6552C47.0906 39.6688 47.3812 39.7021 47.6684 39.7548C47.8088 39.7786 47.9477 39.8098 48.0847 39.8482C48.2202 39.8862 48.3574 39.913 48.4881 39.9558L48.8753 40.095L49.0657 40.1646L49.2464 40.2501L49.603 40.4178C49.7224 40.4716 49.8273 40.5475 49.937 40.6092C50.0467 40.6709 50.1564 40.7374 50.2597 40.8054L50.5566 41.0237C51.2557 41.5462 51.8453 42.1962 52.2927 42.9382C52.6342 43.4952 52.8867 44.1003 53.0413 44.7324C53.0704 44.8637 53.114 44.9839 53.1269 45.101C53.1398 45.2181 53.1607 45.3273 53.1769 45.4301C53.193 45.533 53.2075 45.6247 53.2156 45.7117C53.2237 45.7988 53.2156 45.87 53.2253 45.9459C53.2253 46.0851 53.235 46.1911 53.2382 46.2623C53.2414 46.3335 53.2366 46.3715 53.2366 46.3715Z" fill="#175594"/>
<path d="M70.7057 27.4111H20.7955V29.8524H70.7057V27.4111Z" fill="#E0E0E0"/>
<path d="M22.4055 28.564C22.4055 28.6294 22.3857 28.6933 22.3486 28.7477C22.3116 28.802 22.2589 28.8444 22.1973 28.8695C22.1357 28.8945 22.0679 28.901 22.0025 28.8883C21.937 28.8755 21.8769 28.844 21.8298 28.7978C21.7826 28.7515 21.7505 28.6926 21.7375 28.6285C21.7245 28.5643 21.7312 28.4978 21.7567 28.4374C21.7822 28.377 21.8254 28.3253 21.8809 28.289C21.9363 28.2527 22.0015 28.2333 22.0682 28.2333C22.1577 28.2333 22.2434 28.2681 22.3067 28.3301C22.3699 28.3921 22.4055 28.4763 22.4055 28.564Z" fill="white"/>
<path d="M23.525 28.564C23.525 28.6294 23.5052 28.6933 23.4681 28.7477C23.4311 28.802 23.3784 28.8444 23.3168 28.8695C23.2552 28.8945 23.1874 28.901 23.122 28.8883C23.0565 28.8755 22.9965 28.844 22.9493 28.7978C22.9021 28.7515 22.87 28.6926 22.857 28.6285C22.844 28.5643 22.8507 28.4978 22.8762 28.4374C22.9017 28.377 22.9449 28.3253 23.0004 28.289C23.0559 28.2527 23.121 28.2333 23.1877 28.2333C23.2772 28.2333 23.363 28.2681 23.4262 28.3301C23.4894 28.3921 23.525 28.4763 23.525 28.564Z" fill="white"/>
<path d="M24.6468 28.564C24.6468 28.6294 24.627 28.6933 24.59 28.7477C24.5529 28.802 24.5003 28.8444 24.4387 28.8695C24.377 28.8945 24.3092 28.901 24.2438 28.8883C24.1784 28.8755 24.1183 28.844 24.0712 28.7978C24.024 28.7515 23.9919 28.6926 23.9789 28.6285C23.9658 28.5643 23.9725 28.4978 23.9981 28.4374C24.0236 28.377 24.0668 28.3253 24.1223 28.289C24.1777 28.2527 24.2429 28.2333 24.3096 28.2333C24.3989 28.2337 24.4844 28.2687 24.5476 28.3306C24.6107 28.3925 24.6464 28.4764 24.6468 28.564Z" fill="white"/>
<path d="M65.2005 37.3502C65.2005 37.3739 56.5409 37.3929 45.8596 37.3929C35.1782 37.3929 26.517 37.3739 26.517 37.3502C26.517 37.3265 35.1766 37.3091 45.8596 37.3091C56.5425 37.3091 65.2005 37.3281 65.2005 37.3502Z" fill="#E0E0E0"/>
<path d="M65.2005 38.2914C65.2005 38.3136 56.5409 38.3326 45.8596 38.3326C35.1782 38.3326 26.517 38.3136 26.517 38.2914C26.517 38.2693 35.1766 38.2487 45.8596 38.2487C56.5425 38.2487 65.2005 38.2677 65.2005 38.2914Z" fill="#E0E0E0"/>
<path d="M39.8202 26.3808C39.8202 26.3808 39.4797 25.623 39.4152 25.4568C39.2425 25.0027 38.1244 21.9602 38.3938 21.5014C39.6314 19.3702 40.5914 17.8624 43.0326 17.8624L47.3455 17.8339C47.3455 17.8339 51.4309 17.0175 54.311 26.1308L39.8202 26.3808Z" fill="#455A64"/>
<path d="M30.7239 27.1437L36.3711 25.9508L43.009 22.5285L43.0332 17.8563C42.0377 17.5874 40.1289 18.2645 36.7003 19.9781L31.6032 22.5586C31.1951 22.7649 30.8403 23.0598 30.566 23.4208C30.2917 23.7819 30.105 24.1995 30.0202 24.642C29.9354 25.0845 29.9547 25.5402 30.0766 25.9743C30.1986 26.4083 30.42 26.8094 30.7239 27.1469V27.1437Z" fill="#455A64"/>
<path d="M43.4317 36.1873C43.3494 35.9246 43.4059 35.7553 43.7963 35.8851C44.6579 36.1683 45.4276 36.0749 45.6147 35.912C45.8019 35.749 45.6309 35.4373 45.3501 35.4611C45.0436 35.4602 44.7386 35.4187 44.4434 35.3376C44.2037 35.2818 43.9752 35.1871 43.7673 35.0576C43.5866 34.9453 43.4317 34.8393 43.2945 34.7412C43.2945 34.7412 42.4991 34.1779 42.2506 33.7254L39.5254 34.8693L39.9643 36.2078C40.0164 36.4425 40.1282 36.6604 40.2893 36.8414C40.4504 37.0223 40.6555 37.1603 40.8856 37.2426C41.6649 37.491 42.9041 37.4008 42.9041 37.4008C43.1316 37.2552 44.0077 38.4988 44.2739 38.9371C44.5402 39.3754 44.8548 39.4307 44.9581 39.1634C45.0274 38.9798 44.2481 37.6176 43.9771 37.1888C43.7583 36.8745 43.5754 36.5376 43.4317 36.1841" fill="#B77153"/>
<path d="M41.5852 37.4004C41.5852 37.4098 41.5174 37.4004 41.4238 37.3624C41.3028 37.302 41.2032 37.2071 41.1382 37.0902C41.0715 36.9743 41.0407 36.8418 41.0495 36.7089C41.0592 36.6077 41.0914 36.5507 41.1011 36.5507C41.089 36.7225 41.1284 36.894 41.2144 37.0441C41.3004 37.1942 41.4293 37.3164 41.5852 37.3956V37.4004Z" fill="#995037"/>
<path d="M42.4498 37.4402C42.4498 37.4497 42.3853 37.4402 42.2982 37.3974C42.1851 37.3352 42.0927 37.2424 42.0319 37.1301C41.9696 37.0184 41.9405 36.8917 41.948 36.7646C41.9577 36.6681 41.9851 36.6064 41.9964 36.6174C42.0014 36.7813 42.0392 36.9426 42.1078 37.0921C42.1983 37.2283 42.3144 37.3464 42.4498 37.4402Z" fill="#995037"/>
<path d="M30.5623 26.9584C30.5623 26.9584 39.2139 36.7078 39.2026 36.5465C39.1913 36.3851 43.075 33.5403 43.075 33.5403L34.5993 23.6359L30.5623 26.9584Z" fill="#455A64"/>
<path d="M35.8091 25.0469C35.8091 25.0469 35.8317 25.0643 35.8704 25.1039L36.0317 25.2811L36.6126 25.9393C37.0967 26.4962 37.7695 27.2715 38.5052 28.1306C39.241 28.9897 39.9041 29.7713 40.3801 30.3457L40.94 31.0212L41.0901 31.2079C41.1223 31.2507 41.1401 31.2744 41.1368 31.276C41.1146 31.2595 41.0945 31.2404 41.0771 31.219L40.9158 31.0418C40.769 30.8836 40.5737 30.6542 40.3349 30.3836C39.8509 29.8267 39.1764 29.0514 38.4407 28.1923C37.7049 27.3332 37.0434 26.5516 36.5658 25.9773L36.0059 25.3017C35.9462 25.2273 35.8962 25.1656 35.8575 25.115C35.8387 25.0942 35.8224 25.0714 35.8091 25.0469Z" fill="#263238"/>
<path d="M51.1137 26.1672C51.1722 25.9607 51.2068 25.7484 51.217 25.5344C51.2224 25.2809 51.1751 25.0289 51.078 24.7939C50.9809 24.5589 50.8361 24.3457 50.6523 24.1674C50.4425 23.9506 50.2166 23.7639 50.0343 23.5677C49.8673 23.3969 49.7358 23.196 49.6471 22.976C49.5862 22.8253 49.5619 22.6628 49.5761 22.5013C49.5793 22.4425 49.5947 22.3849 49.6212 22.332C49.5924 22.5412 49.6208 22.7542 49.7035 22.9491C49.7979 23.1576 49.9296 23.3478 50.0924 23.5108C50.2731 23.699 50.499 23.8826 50.7136 24.1041C50.923 24.3103 51.0824 24.5601 51.1799 24.835C51.2572 25.0589 51.2906 25.2951 51.2783 25.5312C51.2708 25.6898 51.2399 25.8465 51.1863 25.9964C51.172 26.0569 51.1474 26.1146 51.1137 26.1672Z" fill="#263238"/>
<path d="M39.4437 18.6677C39.4437 18.6677 39.4873 18.6456 39.5696 18.6092C39.6519 18.5728 39.7793 18.5269 39.9439 18.4763C40.1458 18.4154 40.3533 18.374 40.5635 18.3529C40.8445 18.323 41.1287 18.3488 41.3993 18.4288C41.7273 18.531 42.0218 18.7167 42.2528 18.9668C42.5154 19.2593 42.6946 19.6146 42.7724 19.9968C42.8699 20.4115 42.8977 20.839 42.8547 21.2625C42.8032 21.7173 42.6369 22.1524 42.3706 22.5283C42.0894 22.8919 41.738 23.1978 41.3364 23.4285C40.9572 23.6627 40.5764 23.8525 40.215 24.0392L38.2933 25.0297L37.0025 25.6895L36.6475 25.8651C36.6071 25.8877 36.5644 25.9063 36.5201 25.9205C36.5582 25.8942 36.5981 25.8704 36.6395 25.8493L36.9864 25.6594L38.2772 24.9759L40.1876 23.9712C40.5474 23.7829 40.9298 23.5899 41.3025 23.3573C41.694 23.1315 42.037 22.8333 42.3125 22.4792C42.57 22.1129 42.7297 21.6891 42.7772 21.2467C42.8192 20.834 42.7936 20.4174 42.7014 20.0126C42.6308 19.6453 42.464 19.3024 42.2173 19.0174C41.9968 18.773 41.7139 18.5906 41.3977 18.489C41.1371 18.4087 40.8631 18.3792 40.5909 18.4019C40.383 18.4193 40.1772 18.4559 39.9762 18.5111C39.8148 18.557 39.6841 18.5981 39.5986 18.6282C39.5488 18.6475 39.4968 18.6608 39.4437 18.6677Z" fill="#263238"/>
<path d="M36.7606 25.9409C36.7315 25.9488 36.6606 25.3808 36.2765 24.8097C35.8925 24.2385 35.402 23.9379 35.4214 23.9157C35.5394 23.9615 35.6486 24.0268 35.7441 24.1088C36.2229 24.4803 36.5632 24.9964 36.7122 25.577C36.7496 25.6947 36.766 25.8178 36.7606 25.9409Z" fill="#263238"/>
<path d="M49.4758 24.8812C49.4162 24.903 49.3546 24.9195 49.2919 24.9303C49.1122 24.9643 48.9285 24.9723 48.7465 24.954C48.4571 24.9247 48.1776 24.8345 47.9269 24.6898C47.5931 24.4949 47.3288 24.2037 47.1701 23.856C46.9742 23.4334 46.9371 22.9564 47.0653 22.5095C47.1375 22.2562 47.2994 22.0363 47.5219 21.8893C47.6434 21.8103 47.7914 21.7802 47.9349 21.8055C48.0794 21.8382 48.2067 21.9215 48.2931 22.0396C48.4526 22.2887 48.5528 22.5698 48.5863 22.8621C48.6198 23.1543 48.5858 23.4502 48.4867 23.7278C48.3904 24.0249 48.2246 24.2957 48.0027 24.5189C47.77 24.747 47.48 24.9108 47.1621 24.9936C46.8488 25.0783 46.5188 25.0839 46.2028 25.0098C45.8868 24.9356 45.5951 24.7842 45.355 24.5695C45.1409 24.3631 44.9802 24.1096 44.8862 23.83C44.7922 23.5504 44.7676 23.2528 44.8144 22.9621C44.8555 22.6912 44.9666 22.4352 45.1371 22.2184C45.2223 22.1125 45.3333 22.0293 45.4598 21.9764C45.5869 21.9248 45.7297 21.9248 45.8567 21.9764C45.9714 22.029 46.0703 22.1095 46.144 22.2104C46.2177 22.3112 46.2638 22.4289 46.2779 22.5523C46.2957 22.7751 46.2505 22.9985 46.1472 23.1978C45.9759 23.536 45.743 23.8406 45.4598 24.0965C45.248 24.2894 45.0108 24.4538 44.7547 24.5854C44.5936 24.6691 44.4251 24.7385 44.2513 24.7926C44.1932 24.8116 44.1464 24.8211 44.1158 24.829C44.1001 24.8342 44.0839 24.8374 44.0674 24.8385C44.0815 24.8305 44.0967 24.8246 44.1126 24.8211C44.1432 24.81 44.1884 24.7974 44.2465 24.7752C44.4162 24.7154 44.5807 24.6424 44.7386 24.5569C44.9889 24.4215 45.2205 24.255 45.4276 24.0617C45.7019 23.8075 45.9271 23.5068 46.0923 23.1741C46.1881 22.9838 46.2294 22.7716 46.2117 22.5602C46.198 22.449 46.1557 22.3431 46.0888 22.2523C46.0219 22.1615 45.9327 22.0889 45.8293 22.0412C45.7198 21.9969 45.5968 21.9969 45.4873 22.0412C45.373 22.0899 45.2731 22.1661 45.1968 22.2627C45.0326 22.4692 44.9258 22.714 44.887 22.9731C44.8431 23.251 44.8673 23.5352 44.9577 23.802C45.048 24.0689 45.2019 24.3109 45.4066 24.5078C45.6368 24.7104 45.9154 24.8527 46.2167 24.9216C46.5179 24.9904 46.832 24.9836 47.1298 24.9018C47.4341 24.8272 47.7126 24.6743 47.9365 24.4588C48.1505 24.2475 48.3112 23.9901 48.4061 23.7073C48.4981 23.4337 48.5306 23.1442 48.5013 22.8576C48.489 22.719 48.4592 22.5824 48.4125 22.451C48.3737 22.322 48.3126 22.2005 48.2318 22.0919C48.1564 21.988 48.0452 21.9144 47.9188 21.8846C47.7948 21.8624 47.6669 21.8885 47.5622 21.9574C47.3533 22.0912 47.1999 22.2937 47.1298 22.5285C47.003 22.9595 47.035 23.4205 47.2202 23.8307C47.3709 24.1704 47.6251 24.456 47.9478 24.6487C48.1911 24.7944 48.4635 24.8872 48.7465 24.9208C48.9902 24.9474 49.2367 24.9341 49.4758 24.8812Z" fill="#FAFAFA"/>
<path d="M50.1273 15.388C49.9436 15.1686 49.8119 14.9119 49.7417 14.6365C49.7127 14.5479 49.7093 14.4531 49.732 14.3628C49.7436 14.3173 49.7704 14.277 49.8081 14.2483C49.8459 14.2197 49.8924 14.2042 49.9401 14.2046C50.0369 14.2046 50.1015 14.3011 50.1547 14.3818C50.3125 14.6146 50.4455 14.8627 50.5516 15.1222C50.5829 15.1932 50.5988 15.2696 50.5984 15.3469C50.5981 15.3855 50.5876 15.4233 50.5681 15.4568C50.5487 15.4903 50.5208 15.5184 50.4871 15.5383C50.4474 15.5552 50.4037 15.5612 50.3608 15.5556C50.3179 15.55 50.2773 15.5331 50.2435 15.5067C50.1786 15.4527 50.124 15.3879 50.0821 15.3153" fill="#995037"/>
<path d="M50.5422 15.2126L50.1163 14.3361C50.068 14.2523 50.0378 14.1597 50.0275 14.064C50.0234 14.0159 50.0343 13.9677 50.0588 13.9259C50.0833 13.8841 50.1202 13.8505 50.1647 13.8298C50.2058 13.8182 50.2494 13.8177 50.2909 13.8282C50.3323 13.8388 50.3701 13.8601 50.4002 13.8899C50.461 13.9489 50.5097 14.0187 50.5438 14.0956L50.7455 14.4801C50.8053 14.582 50.8498 14.6917 50.8778 14.806C50.8916 14.8636 50.8928 14.9234 50.8814 14.9814C50.87 15.0395 50.8462 15.0946 50.8117 15.143C50.7748 15.1898 50.7225 15.2228 50.6638 15.2363C50.605 15.2499 50.5433 15.2432 50.489 15.2174" fill="#995037"/>
<path d="M48.6456 17.9228C48.6456 17.9228 48.0519 17.1681 48.0002 16.771C47.9486 16.3739 48.4439 15.6635 49.5105 15.5053C49.8996 15.4652 50.2746 15.3397 50.6076 15.1382C50.6731 15.0946 50.7212 15.0302 50.7439 14.9558C50.7665 14.8814 50.7623 14.8017 50.7319 14.73C50.5915 14.3962 50.3398 13.7807 50.3592 13.6937C50.4092 13.4801 50.5512 13.4848 50.919 14.0101C51.2869 14.5354 51.7145 15.0765 51.6322 15.3202C51.5499 15.5638 50.2494 16.3185 50.2494 16.3185L50.6044 16.8802L48.6456 17.9228Z" fill="#B77153"/>
<path d="M52.1734 25.682L48.08 17.817L50.7164 16.3693L56.2539 24.9763C56.2539 24.9763 56.546 25.5269 56.9542 26.1709H52.3122" fill="#455A64"/>
<path d="M50.679 16.3693C50.679 16.3693 50.6645 16.3819 50.6338 16.4009L50.4951 16.4832L49.9658 16.7854L48.0619 17.8486L48.0764 17.8011C48.475 18.5922 48.9929 19.5178 49.5141 20.5193C50.2902 21.9987 50.9662 23.3546 51.4341 24.3419C51.6697 24.8355 51.8569 25.2374 51.9843 25.5143C52.044 25.6487 52.0924 25.7548 52.1279 25.8307C52.1471 25.867 52.1622 25.9052 52.1731 25.9446C52.1489 25.9109 52.1284 25.8749 52.1118 25.837C52.0731 25.7579 52.0198 25.6535 51.9504 25.5206L51.376 24.3593C50.892 23.3799 50.2111 22.0287 49.4398 20.5494C48.9187 19.5494 48.404 18.627 48.0119 17.8264L47.9974 17.7948L48.028 17.7774L49.9465 16.7411L50.487 16.4547L50.6306 16.3819C50.6461 16.3756 50.6624 16.3714 50.679 16.3693Z" fill="#263238"/>
<path d="M39.8197 26.3809C39.4663 25.8169 39.234 25.1881 39.1372 24.533C39.163 24.533 39.2744 24.9538 39.4599 25.4617C39.6455 25.9696 39.8423 26.3699 39.8197 26.3809Z" fill="#263238"/>
<path d="M48.8368 14.7868C49.1621 14.9162 49.5214 14.938 49.8605 14.849C50.1995 14.76 50.4997 14.565 50.7155 14.2936C50.9314 14.0222 51.0511 13.6892 51.0565 13.345C51.0619 13.0009 50.9528 12.6644 50.7456 12.3866C51.6701 12.1572 52.2461 11.1114 52.059 10.1937C51.8718 9.27608 51.0376 8.56093 50.105 8.36316C49.7485 8.27932 49.3757 8.28859 49.024 8.39006C48.8491 8.44269 48.6872 8.53014 48.5484 8.64693C48.4096 8.76372 48.2968 8.90734 48.2172 9.06881" fill="#263238"/>
<path d="M48.706 12.7362C48.706 12.7457 48.5866 12.7678 48.3914 12.8675C48.1168 13.0108 47.8992 13.2404 47.7734 13.5194C47.681 13.7236 47.642 13.9472 47.6601 14.1698C47.6781 14.3925 47.7525 14.6073 47.8767 14.7946C47.9475 14.9028 48.0345 14.9999 48.1348 15.0826C48.2378 15.1703 48.3543 15.2413 48.4801 15.293C48.7448 15.4054 49.0391 15.4321 49.3202 15.3692C49.6014 15.3064 49.8548 15.1572 50.0436 14.9433C50.1336 14.8428 50.2071 14.7291 50.2614 14.6063C50.3146 14.4891 50.3499 14.3649 50.3663 14.2377C50.3896 14.0517 50.3734 13.8631 50.3186 13.6836C50.2638 13.5041 50.1716 13.3377 50.0479 13.195C49.9241 13.0522 49.7715 12.9362 49.5997 12.8542C49.4279 12.7723 49.2406 12.7261 49.0497 12.7188C48.8286 12.7109 48.7076 12.7457 48.706 12.7346C48.7338 12.7229 48.7631 12.7149 48.7931 12.7109C48.8774 12.6932 48.9635 12.6847 49.0497 12.6856C49.3232 12.6862 49.5907 12.7645 49.8198 12.9111C50.0489 13.0576 50.2297 13.2662 50.3405 13.5115C50.4446 13.7418 50.483 13.9955 50.4518 14.2456C50.4377 14.3808 50.4012 14.5128 50.3437 14.6364C50.2879 14.7676 50.2105 14.8889 50.1146 14.9956C49.9148 15.2235 49.6457 15.3827 49.3469 15.4496C49.048 15.5165 48.7352 15.4877 48.4543 15.3674C48.3213 15.3113 48.1983 15.2349 48.0896 15.1411C47.9837 15.0537 47.8922 14.9507 47.8186 14.8358C47.6812 14.6231 47.6039 14.3785 47.5943 14.1269C47.5853 13.8603 47.655 13.5969 47.795 13.3682C47.9349 13.1394 48.1392 12.9552 48.3833 12.8375C48.4607 12.7991 48.5425 12.7699 48.6269 12.7504C48.6527 12.7428 48.6792 12.738 48.706 12.7362Z" fill="#175594"/>
<path d="M49.4067 10.2427C49.7434 10.2239 50.0652 10.1004 50.3254 9.89011C50.5857 9.6798 50.7708 9.39364 50.8539 9.07316C50.937 8.75268 50.9137 8.41457 50.7876 8.10792C50.6614 7.80127 50.4388 7.54203 50.1521 7.36786C50.291 6.98611 50.3039 6.5712 50.189 6.18186C50.0741 5.79253 49.8373 5.44849 49.512 5.19845C49.1867 4.9484 48.7894 4.80502 48.3764 4.78859C47.9634 4.77217 47.5556 4.88353 47.2107 5.10692C46.9485 4.65095 46.5502 4.28465 46.0693 4.05727C45.5885 3.82989 45.0482 3.75234 44.521 3.83505C43.9939 3.91775 43.5052 4.15675 43.1207 4.5199C42.7362 4.88304 42.4743 5.35293 42.3703 5.86637C41.8976 5.67478 41.3769 5.62833 40.8767 5.73316C40.3766 5.838 39.9207 6.08918 39.5693 6.45351C39.2179 6.81783 38.9874 7.27816 38.9085 7.77363C38.8295 8.26911 38.9058 8.77642 39.1271 9.2285C38.6098 9.27172 38.1311 9.5147 37.7965 9.904C37.4618 10.2933 37.2985 10.797 37.3426 11.3043C37.3867 11.8116 37.6345 12.281 38.0315 12.6092C38.4285 12.9374 38.9422 13.0974 39.4595 13.0542C39.355 13.389 39.3588 13.7473 39.4706 14.0798C39.5823 14.4123 39.7965 14.7027 40.0835 14.9109C40.3705 15.1191 40.7163 15.235 41.0732 15.2425C41.4302 15.25 41.7807 15.1488 42.0766 14.9528C42.2656 15.2515 42.5373 15.4914 42.86 15.6445C43.1828 15.7976 43.5432 15.8576 43.8994 15.8174C44.2555 15.7773 44.5927 15.6387 44.8716 15.4179C45.1505 15.197 45.3596 14.9029 45.4746 14.5699" fill="#263238"/>
<path d="M47.4637 17.6669C47.4976 16.8963 47.5396 16.1986 47.5396 16.1986C47.5396 16.1986 49.2966 15.9818 49.3725 14.224C49.4483 12.4662 49.2692 8.41903 49.2692 8.41903L46.0422 6.89697L42.5635 9.64364L43.1089 17.7128C43.1471 18.2718 43.4072 18.794 43.8334 19.1672C44.2596 19.5405 44.8179 19.7351 45.3888 19.7095C45.9321 19.6839 46.446 19.4603 46.8299 19.0824C47.2137 18.7046 47.4398 18.1997 47.4637 17.6669Z" fill="#B77153"/>
<path d="M49.1839 11.4275C49.1549 11.4576 48.9871 11.32 48.7467 11.3105C48.5063 11.301 48.3272 11.4212 48.303 11.3896C48.2788 11.3579 48.3191 11.3215 48.3965 11.2646C48.5007 11.1932 48.6262 11.1581 48.7531 11.1649C48.8804 11.17 49.0023 11.2161 49.1 11.2962C49.1726 11.3595 49.1968 11.4149 49.1839 11.4275Z" fill="#263238"/>
<path d="M46.5183 11.4275C46.4892 11.4576 46.3231 11.32 46.081 11.3105C45.839 11.301 45.6631 11.4212 45.6373 11.3896C45.6115 11.3579 45.6534 11.3215 45.7309 11.2646C45.835 11.1932 45.9606 11.1581 46.0875 11.1649C46.2147 11.17 46.3367 11.2161 46.4344 11.2962C46.507 11.3595 46.5312 11.4149 46.5183 11.4275Z" fill="#263238"/>
<path d="M47.4212 13.2015C47.5485 13.1643 47.6804 13.1446 47.8133 13.143C47.8746 13.143 47.9327 13.1271 47.944 13.0844C47.9505 13.0179 47.9376 12.951 47.9069 12.8914C47.8509 12.7332 47.7928 12.5671 47.7326 12.393C47.4906 11.6826 47.3179 11.1004 47.3454 11.0909C47.3728 11.0814 47.589 11.6494 47.8294 12.3566L47.9908 12.8582C48.0271 12.9381 48.0367 13.0273 48.0182 13.1129C48.0089 13.1345 47.9948 13.1538 47.9769 13.1694C47.9591 13.185 47.9379 13.1965 47.9149 13.2031C47.8812 13.2117 47.8465 13.2155 47.8117 13.2142C47.6815 13.227 47.5502 13.2227 47.4212 13.2015Z" fill="#263238"/>
<path d="M47.5392 16.2C46.7065 16.1787 45.8984 15.9191 45.2142 15.4532C45.2142 15.4532 45.7611 16.7332 47.5086 16.632L47.5392 16.2Z" fill="#995037"/>
<path d="M45.0448 6.99419C44.7649 7.39039 44.6176 7.86215 44.6234 8.34409C44.6292 8.82602 44.7877 9.29426 45.077 9.68389C45.3384 10.0193 45.7321 10.293 46.1629 10.2772C46.5937 10.2614 47.01 9.86268 46.918 9.44973C46.8761 9.57935 46.8656 9.71678 46.8875 9.85106C46.9093 9.98535 46.9627 10.1128 47.0436 10.2232C47.1245 10.3337 47.2306 10.4241 47.3534 10.4872C47.4762 10.5504 47.6124 10.5845 47.751 10.587C47.8897 10.5894 48.027 10.5601 48.152 10.5013C48.2771 10.4425 48.3864 10.3559 48.4713 10.2484C48.5562 10.1409 48.6143 10.0154 48.641 9.88194C48.6677 9.74851 48.6623 9.6108 48.6251 9.47979C48.6587 9.66958 48.727 9.85183 48.8268 10.0177C48.8779 10.1005 48.951 10.1681 49.0382 10.2132C49.1255 10.2584 49.2236 10.2794 49.3222 10.274C49.5916 10.2392 49.7481 9.95761 49.8062 9.69339C49.8897 9.30033 49.8706 8.89296 49.7508 8.50906C49.6309 8.12515 49.4141 7.77715 49.1205 7.49732C48.8223 7.22331 48.4691 7.01326 48.0835 6.88059C47.6979 6.74792 47.2883 6.69555 46.8809 6.7268C46.0614 6.79754 45.2884 7.13119 44.6817 7.67611" fill="#263238"/>
<path d="M45.2728 7.61511C45.5001 8.11345 45.623 8.65149 45.6342 9.19729C45.6439 9.74614 45.4356 10.2772 45.0534 10.6782C44.8599 10.8734 44.6139 11.0108 44.344 11.0744C44.0741 11.138 43.7914 11.1251 43.5286 11.0374C43.5994 11.2729 43.6161 11.5209 43.5776 11.7635C43.5391 12.0062 43.4463 12.2374 43.3059 12.4408C43.0058 12.8316 42.4153 13.0183 41.978 12.7825C41.5811 12.5705 41.4101 12.099 41.3552 11.6592C41.2893 11.1253 41.3463 10.5837 41.522 10.0743C41.6977 9.56489 41.9876 9.10056 42.3704 8.71548C42.7532 8.3304 43.2191 8.03436 43.734 7.84914C44.2488 7.66392 44.7995 7.59422 45.3454 7.64517" fill="#263238"/>
<path d="M43.055 11.8033C42.8162 11.6577 42.4903 11.7764 42.2999 11.9805C42.15 12.1418 42.0574 12.3464 42.0359 12.5637C42.0144 12.781 42.0652 12.9992 42.1807 13.1858C42.2962 13.3724 42.4701 13.5173 42.6766 13.599C42.883 13.6806 43.1109 13.6945 43.3261 13.6386" fill="#B77153"/>
<path d="M43.0002 13.1118C43.0002 13.1212 42.9211 13.1323 42.7969 13.0991C42.7146 13.0782 42.6385 13.0387 42.5746 12.9838C42.5107 12.9288 42.4608 12.8599 42.429 12.7827C42.3964 12.6909 42.3999 12.5905 42.4387 12.501C42.4713 12.4314 42.5226 12.3718 42.5871 12.3286C42.6985 12.2574 42.7824 12.259 42.784 12.2685C42.7856 12.2779 42.7114 12.3017 42.6226 12.376C42.5663 12.4203 42.5251 12.4804 42.5046 12.5483C42.4841 12.6162 42.4853 12.6886 42.5081 12.7558C42.5363 12.8226 42.5782 12.8831 42.6312 12.9335C42.6842 12.9838 42.7472 13.023 42.8162 13.0485C42.934 13.088 43.0018 13.0991 43.0002 13.1118Z" fill="#995037"/>
<path d="M46.666 10.6957C46.6434 10.7638 46.3804 10.7384 46.069 10.7527C45.7576 10.7669 45.4978 10.8049 45.4704 10.7384C45.4429 10.672 45.6962 10.5122 46.0593 10.4995C46.4223 10.4869 46.6902 10.6309 46.666 10.6957Z" fill="#263238"/>
<path d="M49.1775 10.6465C49.1501 10.6702 49.0968 10.6465 49.0339 10.6386C48.9621 10.6217 48.8878 10.6174 48.8145 10.6259C48.7209 10.6259 48.6176 10.6513 48.5386 10.6497C48.4595 10.6481 48.4047 10.6323 48.395 10.5975C48.3853 10.5627 48.4208 10.5215 48.4869 10.4772C48.5789 10.4196 48.6833 10.3839 48.7919 10.3728C48.8553 10.3647 48.9197 10.3713 48.98 10.3922C49.0403 10.4131 49.0947 10.4477 49.1388 10.493C49.1985 10.5642 49.2033 10.6244 49.1775 10.6465Z" fill="#263238"/>
<path d="M47.003 13.6512C47.0694 13.609 47.1443 13.5815 47.2226 13.5706C47.3009 13.5597 47.3807 13.5656 47.4564 13.5879C47.5313 13.6133 47.5947 13.6636 47.6357 13.73C47.6767 13.7965 47.6926 13.875 47.6807 13.9518C47.6587 14.0342 47.6071 14.1061 47.5355 14.1543C47.4832 14.1939 47.423 14.2223 47.3588 14.2376C47.2945 14.2529 47.2277 14.2547 47.1627 14.2429C47.0976 14.2302 47.0373 14.2004 46.9881 14.1566C46.9389 14.1129 46.9028 14.0568 46.8836 13.9945C46.8676 13.9314 46.8733 13.865 46.8999 13.8054C46.9264 13.7459 46.9724 13.6967 47.0304 13.6654" fill="#995037"/>
<path d="M47.885 13.839C47.885 13.839 47.8269 13.8881 47.7123 13.9118C47.5598 13.9429 47.4012 13.928 47.2573 13.8691C47.1139 13.8097 46.9915 13.71 46.9056 13.5827C46.8411 13.4862 46.8282 13.415 46.8378 13.4102C46.8475 13.4055 46.883 13.4656 46.954 13.5479C47.0457 13.6529 47.1604 13.7362 47.2896 13.7915C47.4206 13.843 47.562 13.8641 47.7027 13.8532C47.8124 13.8453 47.8801 13.8263 47.885 13.839Z" fill="#263238"/>
<path d="M44.2456 14.677C44.2343 14.677 44.2456 14.5536 44.1842 14.3447C44.103 14.0509 43.9235 13.7923 43.6744 13.6106C43.5047 13.4853 43.3074 13.4007 43.0984 13.3638C42.8588 13.322 42.6123 13.3427 42.3836 13.4239C42.2602 13.4676 42.1443 13.5295 42.0399 13.6074C41.9295 13.6859 41.8331 13.7815 41.7543 13.8906C41.5835 14.1183 41.4914 14.3935 41.4914 14.6762C41.4914 14.9588 41.5835 15.234 41.7543 15.4617C41.8331 15.5708 41.9295 15.6665 42.0399 15.7449C42.1443 15.8229 42.2602 15.8848 42.3836 15.9285C42.5631 15.9923 42.7542 16.0188 42.9447 16.0064C43.1352 15.9939 43.321 15.9428 43.4904 15.8562C43.6597 15.7697 43.8088 15.6495 43.9282 15.5034C44.0477 15.3573 44.1349 15.1885 44.1842 15.0076C44.2407 14.7988 44.2343 14.6754 44.2456 14.677C44.248 14.7059 44.248 14.735 44.2456 14.764C44.2454 14.8487 44.2351 14.9332 44.2149 15.0156C44.1426 15.3232 43.9635 15.5967 43.7083 15.7892C43.5325 15.9239 43.3269 16.016 43.108 16.0582C42.8557 16.1057 42.5949 16.0861 42.3529 16.0013C42.2221 15.9562 42.0991 15.8916 41.9883 15.8098C41.8708 15.727 41.7678 15.626 41.6833 15.5108C41.5001 15.2696 41.4012 14.9769 41.4012 14.6762C41.4012 14.3754 41.5001 14.0827 41.6833 13.8416C41.7678 13.7263 41.8708 13.6253 41.9883 13.5425C42.0991 13.4608 42.2221 13.3962 42.3529 13.3511C42.5786 13.2709 42.8214 13.2483 43.0585 13.2854C43.2956 13.3225 43.5192 13.4181 43.7083 13.5631C43.9635 13.7556 44.1426 14.0291 44.2149 14.3368C44.2351 14.4192 44.2454 14.5036 44.2456 14.5884C44.248 14.6178 44.248 14.6475 44.2456 14.677Z" fill="#175594"/>
<path d="M49.1756 6.81104C49.1912 6.81208 49.2065 6.81583 49.2208 6.82211C49.2628 6.83837 49.3012 6.86256 49.3337 6.89331C49.3946 6.95274 49.4396 7.02602 49.4647 7.10662C49.4897 7.18723 49.4941 7.27266 49.4773 7.3553C49.4431 7.48087 49.3719 7.59375 49.2726 7.67986C49.1733 7.76597 49.0503 7.82148 48.919 7.83945C48.587 7.87854 48.2517 7.79998 47.9735 7.61795L47.6412 7.42967L48.0058 7.54675C48.0685 7.56851 48.1246 7.60545 48.1689 7.65412C48.2132 7.7028 48.2442 7.76165 48.2591 7.82521C48.2766 7.88844 48.2811 7.95446 48.2722 8.01939C48.2633 8.08432 48.2413 8.14687 48.2075 8.20335C48.1336 8.31697 48.0181 8.3985 47.8848 8.43119C47.7504 8.46444 47.6092 8.46116 47.4766 8.42169C47.1795 8.3082 46.9312 8.09821 46.7731 7.82679L46.5278 7.4977L46.8247 7.78091C46.9016 7.85873 46.9567 7.95458 46.985 8.05929C47.0132 8.16401 47.0136 8.27408 46.9861 8.37897C46.9646 8.47482 46.9211 8.56464 46.8591 8.64165C46.7971 8.71866 46.718 8.78086 46.6279 8.82357C46.48 8.89244 46.3152 8.91875 46.1527 8.89942C45.9902 8.8801 45.8366 8.81594 45.7098 8.7144C45.5424 8.58099 45.419 8.40212 45.3548 8.20019C45.3379 8.14847 45.325 8.09558 45.3161 8.04197C45.3143 8.02303 45.3143 8.00396 45.3161 7.98501C45.3242 7.98501 45.3339 8.06096 45.3855 8.19228C45.4569 8.37915 45.5791 8.5433 45.7388 8.66693C45.8589 8.75769 46.0023 8.81391 46.153 8.82928C46.3038 8.84464 46.4559 8.81856 46.5924 8.75395C46.672 8.71495 46.7417 8.65885 46.7961 8.58983C46.8506 8.5208 46.8885 8.44062 46.907 8.35524C46.9305 8.26367 46.93 8.16775 46.9054 8.07644C46.8809 7.98513 46.8331 7.90142 46.7666 7.83312L46.8296 7.78091C46.9778 8.03489 47.2092 8.23227 47.4863 8.341C47.5994 8.38207 47.723 8.38672 47.839 8.35429C47.9551 8.32186 48.0576 8.25403 48.1317 8.16063C48.2478 7.97394 48.1784 7.68598 47.9816 7.62111L48.0139 7.54991C48.2745 7.72548 48.5898 7.80557 48.9045 7.77616C49.0262 7.76202 49.141 7.71308 49.2345 7.63543C49.3281 7.55778 49.3962 7.45485 49.4305 7.33948C49.4474 7.26322 49.4458 7.18415 49.4259 7.1086C49.406 7.03305 49.3684 6.96311 49.316 6.90438C49.2738 6.86704 49.2266 6.83562 49.1756 6.81104Z" fill="#455A64"/>
<path d="M44.8701 9.63801C44.8701 9.63801 44.8701 9.64908 44.8492 9.66807C44.8259 9.69624 44.8006 9.72269 44.7733 9.74718C44.669 9.84026 44.5466 9.91183 44.4135 9.95761C44.205 10.0288 43.9787 10.0321 43.7681 9.9671C43.6286 9.92428 43.4995 9.85409 43.3885 9.76079C43.2776 9.6675 43.1872 9.55305 43.1227 9.42441L43.1905 9.41492C43.1643 9.57513 43.0997 9.72696 43.0019 9.85787C42.9042 9.98878 42.7761 10.095 42.6282 10.1678C42.4804 10.2407 42.317 10.278 42.1515 10.2767C41.986 10.2754 41.8232 10.2356 41.6766 10.1605C41.5299 10.0854 41.4035 9.97723 41.3079 9.84483C41.2122 9.71243 41.15 9.55963 41.1264 9.39904C41.1028 9.23844 41.1185 9.07464 41.1722 8.92115C41.2258 8.76766 41.3159 8.62888 41.435 8.51624L41.4915 8.57478C41.301 8.72996 41.0615 8.81552 40.8138 8.81685C40.589 8.82113 40.3678 8.76181 40.1765 8.64598C40.0055 8.5419 39.8718 8.38816 39.7941 8.20613C39.7308 8.05102 39.7038 7.88395 39.715 7.71724C39.7286 7.48036 39.8216 7.25453 39.9796 7.07487C40.0348 7.01079 40.1016 6.95716 40.1765 6.91666C40.1765 6.91666 40.1039 6.97045 40.0022 7.09544C39.8579 7.27693 39.7755 7.49834 39.7666 7.72831C39.76 7.88662 39.7892 8.04441 39.8522 8.19031C39.9275 8.358 40.0537 8.49886 40.2136 8.59377C40.3934 8.70192 40.6013 8.75686 40.8122 8.75198C41.0408 8.74885 41.2616 8.66963 41.4382 8.52732L41.4931 8.58586C41.3559 8.72387 41.2632 8.89853 41.2268 9.08794C41.1903 9.27735 41.2117 9.4731 41.2882 9.65066C41.3819 9.84451 41.5385 10.0024 41.7336 10.0994C41.9287 10.1965 42.1511 10.2273 42.366 10.187C42.5542 10.1436 42.7255 10.0477 42.8595 9.91102C42.9935 9.77433 43.0843 9.60261 43.1211 9.4165L43.1389 9.30575L43.1889 9.40701C43.2476 9.5279 43.3304 9.63608 43.4324 9.72519C43.5344 9.8143 43.6534 9.88256 43.7826 9.92596C43.9843 9.99172 44.2022 9.99172 44.4038 9.92596C44.5342 9.88659 44.6558 9.82323 44.762 9.73926C44.8395 9.67281 44.8701 9.63484 44.8701 9.63801Z" fill="#455A64"/>
<path d="M41.6779 12.4519C41.6373 12.4885 41.5895 12.5165 41.5375 12.5342C41.3963 12.5918 41.243 12.6152 41.0906 12.6023C40.8547 12.5852 40.6346 12.4798 40.4758 12.308C40.3757 12.1993 40.3019 12.0699 40.2597 11.9294C40.2175 11.7889 40.2081 11.6409 40.2322 11.4963L40.3064 11.528C40.1471 11.7348 39.9396 11.9014 39.7014 12.0137C39.5176 12.0992 39.3158 12.141 39.1124 12.1355C38.9229 12.1303 38.7375 12.0804 38.5719 11.9899C38.4289 11.9177 38.3067 11.8113 38.2167 11.6804C38.1268 11.5496 38.0719 11.3987 38.0572 11.2416C38.038 11.0313 38.0951 10.8212 38.2186 10.6483C38.2534 10.6032 38.2941 10.5628 38.3396 10.528C38.3546 10.5143 38.3721 10.5036 38.3912 10.4964C38.3912 10.4964 38.3283 10.5502 38.246 10.6672C38.138 10.8372 38.0914 11.0378 38.1137 11.2368C38.1304 11.3838 38.1848 11.5242 38.2717 11.6451C38.3585 11.7659 38.4751 11.8633 38.6106 11.9282C38.7726 12.0122 38.9525 12.0573 39.1357 12.0598C39.3189 12.0623 39.5 12.0221 39.6642 11.9425C39.8903 11.8368 40.0877 11.6801 40.2403 11.4852L40.3451 11.3523L40.3145 11.5105C40.2916 11.6433 40.299 11.7794 40.3361 11.9091C40.3732 12.0387 40.4391 12.1588 40.5291 12.2605C40.6747 12.4236 40.8773 12.5275 41.097 12.5516C41.2421 12.5683 41.3891 12.5537 41.5278 12.5089C41.6246 12.4757 41.6747 12.4472 41.6779 12.4519Z" fill="#455A64"/>
<path d="M50.8149 9.0246C50.8539 9.11713 50.8662 9.21839 50.8504 9.3173C50.8313 9.5606 50.7268 9.78989 50.5547 9.96615C50.3826 10.1424 50.1536 10.2547 49.9065 10.284C49.8069 10.3047 49.7033 10.297 49.608 10.2619C49.608 10.2476 49.7226 10.2619 49.8968 10.2255C50.1246 10.1834 50.3331 10.0724 50.4931 9.90806C50.6532 9.74375 50.7567 9.53438 50.7891 9.30939C50.8182 9.13693 50.8004 9.02618 50.8149 9.0246Z" fill="#455A64"/>
<path d="M51.8086 10.6808C51.8306 10.7177 51.8443 10.7587 51.849 10.8011C51.8683 10.9175 51.8566 11.0369 51.8151 11.1476C51.7855 11.2339 51.7342 11.3114 51.666 11.3731C51.5977 11.4348 51.5147 11.4786 51.4246 11.5004C51.3165 11.5221 51.2043 11.5122 51.1019 11.4719C51.0445 11.4506 50.9921 11.418 50.948 11.3761C50.9038 11.3342 50.8689 11.2839 50.8454 11.2283L50.9261 11.2014C50.9408 11.2529 50.9478 11.3061 50.947 11.3596C50.9423 11.4818 50.9015 11.6001 50.8296 11.7C50.7577 11.8 50.6578 11.8774 50.542 11.9229C50.4385 11.9601 50.3258 11.965 50.2193 11.9371C50.1296 11.9119 50.0468 11.867 49.9773 11.8058C49.8749 11.7206 49.8059 11.6031 49.7821 11.4735C49.7676 11.3833 49.7821 11.3327 49.7821 11.3343C49.7821 11.3359 49.7821 11.3833 49.8095 11.4672C49.8448 11.5826 49.9151 11.6847 50.0112 11.7599C50.0786 11.8166 50.16 11.8547 50.2473 11.8706C50.3346 11.8864 50.4246 11.8793 50.5082 11.8501C50.6076 11.8088 50.693 11.7406 50.7545 11.6534C50.8159 11.5663 50.8508 11.4639 50.8551 11.358C50.856 11.3141 50.85 11.2704 50.8373 11.2283L50.9196 11.2014C50.963 11.2867 51.0341 11.3555 51.1218 11.3967C51.2094 11.438 51.3086 11.4494 51.4036 11.4292C51.4827 11.4113 51.5561 11.3747 51.6174 11.3226C51.6788 11.2705 51.7261 11.2044 51.7554 11.1302C51.7982 11.0302 51.8175 10.922 51.8119 10.8137C51.8086 10.7251 51.7941 10.6824 51.8086 10.6808Z" fill="#455A64"/>
<path d="M46.8808 13.0355C46.8921 13.0355 46.8986 13.0719 46.8808 13.1257C46.8588 13.1952 46.8165 13.2568 46.7592 13.3029C46.7018 13.349 46.6319 13.3776 46.5581 13.3852C46.5017 13.3852 46.4678 13.3757 46.4694 13.3646C46.471 13.3535 46.5936 13.3298 46.7033 13.2365C46.8131 13.1431 46.8566 13.0355 46.8808 13.0355Z" fill="#263238"/>
<path d="M92.9824 66.959C92.9824 66.9827 72.1684 67.0001 46.4945 67.0001C20.8205 67.0001 0 66.9875 0 66.959C0 66.9305 20.8141 66.9178 46.4945 66.9178C72.1748 66.9178 92.9824 66.9368 92.9824 66.959Z" fill="#263238"/>
<path d="M28.6395 0.00052161C28.6021 0.00722521 28.5644 0.0119785 28.5266 0.0147613L28.2039 0.0416586C28.0258 0.0534662 27.8489 0.0783227 27.6746 0.116021C27.5698 0.138171 27.4552 0.147665 27.339 0.182473C27.2229 0.21728 27.097 0.252088 26.9663 0.288478C26.3299 0.488807 25.7305 0.788527 25.1915 1.17608C24.483 1.6949 23.8932 2.35353 23.4602 3.10951C22.7963 4.28246 22.51 5.62499 22.6389 6.96053C22.6486 7.10609 22.6809 7.25007 22.7018 7.39721C22.7219 7.54513 22.752 7.69155 22.7922 7.83548C22.9345 8.43904 23.1684 9.01824 23.486 9.55372C24.162 10.7125 25.2065 11.6222 26.4597 12.1438C27.12 12.4141 27.8258 12.5616 28.5411 12.5789C29.2778 12.6075 30.013 12.4935 30.7048 12.2434L30.9161 12.1643L30.9436 12.1548L30.9694 12.1659L34.035 13.65L33.9463 13.7275L32.9685 10.8654L32.9572 10.829L32.983 10.8021C33.715 10.0638 34.2537 9.16263 34.553 8.17565C34.8221 7.27379 34.8903 6.32574 34.753 5.39576C34.5341 3.84572 33.743 2.42825 32.5296 1.41183C32.07 1.04239 31.5628 0.733856 31.021 0.494162C30.6118 0.3268 30.1864 0.200632 29.7512 0.117603L29.2768 0.0448231L28.9267 0.0242546L28.7121 0.0100149C28.6877 0.0098003 28.6634 0.0071498 28.6395 0.00210413C28.6636 -0.000701376 28.688 -0.000701376 28.7121 0.00210413H28.9267L29.2801 0.0115968L29.7641 0.0764662C30.2061 0.152577 30.6388 0.274017 31.0549 0.438786C31.6062 0.674253 32.1223 0.981885 32.5893 1.35329C33.156 1.81978 33.6377 2.37725 34.014 3.00192C34.4534 3.73096 34.7434 4.53714 34.8676 5.37519C35.0111 6.32033 34.9451 7.2847 34.674 8.20254C34.3727 9.20939 33.8261 10.1292 33.0814 10.8828L33.0927 10.8195C33.4154 11.7371 33.7381 12.6944 34.0737 13.6801L34.1238 13.824L33.985 13.7576L30.9194 12.2751H30.9726L30.7564 12.3558C30.049 12.6103 29.2971 12.7248 28.5443 12.6928C27.8134 12.6754 27.0922 12.5247 26.4177 12.2482C25.1401 11.7138 24.0762 10.7834 23.3892 9.59961C23.067 9.05719 22.8293 8.47057 22.6841 7.85921C22.6434 7.71283 22.6137 7.5637 22.5954 7.41303C22.5744 7.26431 22.5405 7.11875 22.5324 6.97002C22.5048 6.67973 22.4973 6.38795 22.5098 6.09666C22.5266 5.54464 22.6127 4.99675 22.7664 4.46543C22.914 3.9777 23.1186 3.50836 23.3763 3.06679C23.8213 2.30217 24.4262 1.63844 25.1511 1.11912C25.6978 0.732241 26.3056 0.436117 26.9502 0.242596L27.3293 0.141336C27.4406 0.115662 27.5532 0.0955951 27.6666 0.0812131C27.8425 0.0458566 28.0211 0.0246899 28.2006 0.0179257L28.5314 0.00210413L28.6395 0.00052161Z" fill="#263238"/>
<path d="M30.0824 5.51889H29.6355L28.6448 4.19777L28.6351 3.32282C28.6351 3.32282 27.9445 3.2896 28.0381 4.43035C28.1317 5.5711 28.0381 5.28315 28.0381 5.28315C28.0381 5.28315 26.5731 5.3053 26.4521 5.43187C26.3649 5.52364 26.3407 6.95234 26.3359 7.72603C26.327 7.9158 26.3841 8.10289 26.4979 8.25667C26.6116 8.41044 26.7752 8.5218 26.9619 8.5725C27.0147 8.5852 27.0689 8.59157 27.1233 8.59148C27.4895 8.59148 29.3531 8.27505 29.3531 8.27505L30.126 8.26555L30.0824 5.51889Z" fill="#175594"/>
<path d="M31.3586 5.26511L31.1182 8.26334L30.3534 8.27283L30.3195 5.33789L31.3586 5.26511Z" fill="#175594"/>
</svg>
