<svg width="87" height="70" viewBox="0 0 87 70" fill="none" xmlns="http://www.w3.org/2000/svg">
<path d="M87 61.5149H0V61.5618H87V61.5149Z" fill="#EBEBEB"/>
<path d="M78.2821 64.538H72.5193V64.5849H78.2821V64.538Z" fill="#EBEBEB"/>
<path d="M57.6321 65.0495H56.1201V65.0964H57.6321V65.0495Z" fill="#EBEBEB"/>
<path d="M72.346 62.7944H69.007V62.8414H72.346V62.7944Z" fill="#EBEBEB"/>
<path d="M16.6433 63.1105H9.1282V63.1574H16.6433V63.1105Z" fill="#EBEBEB"/>
<path d="M19.295 63.1105H18.1935V63.1574H19.295V63.1105Z" fill="#EBEBEB"/>
<path d="M39.1761 63.9034H22.8757V63.9504H39.1761V63.9034Z" fill="#EBEBEB"/>
<path d="M41.2385 53.1353H7.64085C7.37765 53.1348 7.12538 53.0215 6.93943 52.8204C6.75348 52.6193 6.64905 52.3467 6.64905 52.0624V1.06346C6.65134 0.780876 6.75679 0.510681 6.94249 0.311563C7.12819 0.112444 7.37915 0.000484078 7.64085 0H41.2385C41.502 0 41.7547 0.113032 41.9411 0.314231C42.1274 0.51543 42.2321 0.788314 42.2321 1.07285V52.0624C42.2321 52.347 42.1274 52.6199 41.9411 52.8211C41.7547 53.0223 41.502 53.1353 41.2385 53.1353ZM7.64085 0.0375781C7.38918 0.0380759 7.14798 0.146379 6.97019 0.338714C6.7924 0.53105 6.69255 0.791703 6.69255 1.06346V52.0624C6.69255 52.3342 6.7924 52.5949 6.97019 52.7872C7.14798 52.9795 7.38918 53.0878 7.64085 53.0883H41.2385C41.4903 53.0878 41.7317 52.9796 41.9098 52.7873C42.0878 52.595 42.1881 52.3344 42.1886 52.0624V1.06346C42.1881 0.79153 42.0878 0.530882 41.9098 0.3386C41.7317 0.146318 41.4903 0.0380748 41.2385 0.0375781H7.64085Z" fill="#EBEBEB"/>
<path d="M78.8763 53.1353H45.2769C45.0135 53.1348 44.7611 53.0216 44.5748 52.8205C44.3886 52.6194 44.2838 52.3468 44.2833 52.0624V1.06346C44.2861 0.780704 44.3919 0.510512 44.5779 0.311445C44.7639 0.112379 45.015 0.000478798 45.2769 0H78.8763C79.1377 0.000977873 79.3882 0.113157 79.5735 0.312222C79.7588 0.511288 79.864 0.7812 79.8663 1.06346V52.0624C79.8663 52.3463 79.7621 52.6186 79.5766 52.8197C79.391 53.0208 79.1392 53.1343 78.8763 53.1353ZM45.2769 0.0375781C45.025 0.0380748 44.7837 0.146318 44.6056 0.3386C44.4275 0.530882 44.3273 0.79153 44.3268 1.06346V52.0624C44.3273 52.3344 44.4275 52.595 44.6056 52.7873C44.7837 52.9796 45.025 53.0878 45.2769 53.0883H78.8763C79.1281 53.0878 79.3695 52.9796 79.5475 52.7873C79.7256 52.595 79.8258 52.3344 79.8263 52.0624V1.06346C79.8258 0.79153 79.7256 0.530882 79.5475 0.3386C79.3695 0.146318 79.1281 0.0380748 78.8763 0.0375781H45.2769Z" fill="#EBEBEB"/>
<path d="M33.0566 13.7572H11.3448V37.9818H33.0566V13.7572Z" fill="#EBEBEB"/>
<path d="M33.8153 13.7572H12.1035V37.9818H33.8153V13.7572Z" fill="#F0F0F0"/>
<path d="M33.2393 14.3306H12.6498V37.4185H33.2393V14.3306Z" fill="#E0E0E0"/>
<path d="M32.7242 14.3306H12.6498V37.4185H32.7242V14.3306Z" fill="#F5F5F5"/>
<path d="M22.8946 14.3306H22.4875V37.4185H22.8946V14.3306Z" fill="#EBEBEB"/>
<path d="M20.14 14.3306L14.4189 37.4185H13.869L19.5901 14.3306H20.14Z" fill="white"/>
<path d="M23.0708 13.9751H22.7211V37.8616H23.0708V13.9751Z" fill="#F0F0F0"/>
<path d="M18.063 14.3306L12.6498 36.1803V24.1704L15.0876 14.3306H18.063Z" fill="white"/>
<path d="M32.724 16.4256V18.6427L28.0712 37.4186H27.5214L32.724 16.4256Z" fill="white"/>
<path d="M32.7243 20.9012V32.9111L31.609 37.4186H28.6318L32.7243 20.9012Z" fill="white"/>
<path d="M29.456 45.469H31.6675V45.3093C31.6675 44.9992 31.3439 44.7456 30.9593 44.7681L30.0893 44.8057C29.7413 44.8226 29.456 45.0594 29.456 45.3468V45.469Z" fill="#F0F0F0"/>
<path d="M33.8204 45.546H36.7366L37.2012 41.1475C37.1977 41.0683 37.1661 40.9935 37.113 40.9386C37.0599 40.8837 36.9894 40.8529 36.9159 40.8525H34.9618C34.8882 40.8525 34.8174 40.8831 34.7643 40.9381C34.7111 40.9931 34.6796 41.0681 34.6765 41.1475L33.8204 45.546Z" fill="#E6E6E6"/>
<path d="M29.3697 34.3834H30.1023L30.9218 42.6882H30.1928C30.1336 42.6878 30.0765 42.665 30.0314 42.6238C29.9862 42.5826 29.9559 42.5256 29.9457 42.4627L29.1749 34.6296C29.1693 34.599 29.1703 34.5675 29.1776 34.5374C29.185 34.5073 29.1985 34.4793 29.2172 34.4557C29.236 34.432 29.2594 34.4132 29.2858 34.4007C29.3123 34.3882 29.3409 34.3823 29.3697 34.3834Z" fill="#E6E6E6"/>
<path d="M30.4951 42.6946H41.4118C41.4397 42.6951 41.4673 42.6891 41.4929 42.6771C41.5184 42.665 41.5412 42.6471 41.5597 42.6246C41.5782 42.6021 41.592 42.5756 41.6001 42.5468C41.6082 42.518 41.6105 42.4876 41.6067 42.4578L40.8359 34.6247C40.828 34.5609 40.7994 34.5022 40.755 34.4591C40.7107 34.4161 40.6536 34.3915 40.594 34.3898H29.6773C29.6495 34.389 29.6219 34.3947 29.5963 34.4066C29.5708 34.4184 29.548 34.4361 29.5294 34.4585C29.5109 34.4809 29.4971 34.5073 29.489 34.536C29.4808 34.5647 29.4786 34.595 29.4824 34.6247L30.2532 42.4635C30.2621 42.5264 30.2912 42.584 30.3354 42.6263C30.3796 42.6685 30.4361 42.6927 30.4951 42.6946Z" fill="#EBEBEB"/>
<path d="M30.6985 41.9259H40.9889C41.0131 41.926 41.0371 41.9207 41.0593 41.9102C41.0815 41.8997 41.1014 41.8843 41.1178 41.8651C41.1342 41.8458 41.1466 41.823 41.1544 41.7982C41.1622 41.7734 41.1651 41.7472 41.1629 41.7211L40.4895 34.8876C40.4832 34.8315 40.4585 34.7798 40.4199 34.7419C40.3812 34.7039 40.3312 34.6823 40.279 34.6809H29.9851C29.9607 34.6807 29.9366 34.6862 29.9142 34.6967C29.8919 34.7073 29.8719 34.7229 29.8555 34.7424C29.8391 34.7619 29.8267 34.7849 29.819 34.8099C29.8114 34.8349 29.8087 34.8614 29.8111 34.8876L30.4845 41.7211C30.4912 41.7774 30.5166 41.8292 30.556 41.8668C30.5953 41.9045 30.6459 41.9255 30.6985 41.9259Z" fill="#FAFAFA"/>
<path d="M33.7111 45.2042H37.299C37.341 45.2042 37.3813 45.2223 37.4109 45.2543C37.4406 45.2864 37.4573 45.3299 37.4573 45.3752C37.4573 45.4206 37.4406 45.4641 37.4109 45.4961C37.3813 45.5282 37.341 45.5462 37.299 45.5462H33.7111C33.6691 45.5462 33.6288 45.5282 33.5991 45.4961C33.5694 45.4641 33.5528 45.4206 33.5528 45.3752C33.5528 45.3299 33.5694 45.2864 33.5991 45.2543C33.6288 45.2223 33.6691 45.2042 33.7111 45.2042Z" fill="#E6E6E6"/>
<path d="M24.8765 46.8955H33.7592V45.4488H24.8765V46.8955Z" fill="#E6E6E6"/>
<path d="M49.6301 61.6095H49.8511C49.8577 61.6095 49.8643 61.6081 49.8704 61.6053C49.8765 61.6026 49.8821 61.5986 49.8867 61.5935C49.8914 61.5885 49.8952 61.5825 49.8977 61.5758C49.9002 61.5692 49.9015 61.5621 49.9015 61.555L50.2495 46.8996H49.2247L49.5727 61.555C49.5731 61.5626 49.575 61.5701 49.5781 61.577C49.5812 61.5839 49.5856 61.5901 49.5909 61.5951C49.5962 61.6002 49.6024 61.6041 49.6092 61.6065C49.6159 61.609 49.623 61.61 49.6301 61.6095Z" fill="#E6E6E6"/>
<path d="M57.5365 61.6087H58.048L56.6021 46.8931H55.5772L57.5365 61.6087Z" fill="#F0F0F0"/>
<path d="M24.5299 61.6087L26.4927 46.8931H25.4695L24.0219 61.6087H24.5299Z" fill="#E6E6E6"/>
<path d="M31.2262 46.8955H57.194V45.4488H31.2262V46.8955Z" fill="#F5F5F5"/>
<path d="M32.0371 61.6087H32.6252L32.8427 46.8931H31.8196L32.0371 61.6087Z" fill="#F0F0F0"/>
<path d="M40.3314 45.1879H40.6046C40.6183 45.1874 40.6314 45.1813 40.641 45.1709C40.6507 45.1604 40.6564 45.1463 40.6568 45.1315V44.8215C40.6568 44.8141 40.6555 44.8068 40.6528 44.7999C40.6502 44.7931 40.6464 44.7869 40.6415 44.7816C40.6367 44.7764 40.6309 44.7723 40.6246 44.7694C40.6183 44.7666 40.6115 44.7651 40.6046 44.7651H40.408C40.3968 44.7652 40.3859 44.7693 40.3771 44.7768C40.3682 44.7843 40.362 44.7947 40.3593 44.8065L40.2827 45.1165C40.2806 45.1247 40.2803 45.1334 40.2817 45.1418C40.2831 45.1502 40.2863 45.1581 40.291 45.165C40.2957 45.1719 40.3018 45.1775 40.3088 45.1815C40.3158 45.1854 40.3235 45.1876 40.3314 45.1879Z" fill="#F5F5F5"/>
<path d="M39.9555 45.1879H40.2286C40.2422 45.1874 40.255 45.1812 40.2644 45.1707C40.2738 45.1602 40.2791 45.1462 40.2791 45.1315V44.8215C40.2793 44.8142 40.2782 44.8069 40.2758 44.8001C40.2733 44.7932 40.2697 44.787 40.2649 44.7818C40.2602 44.7765 40.2546 44.7723 40.2484 44.7695C40.2421 44.7666 40.2354 44.7651 40.2286 44.7651H40.032C40.0208 44.7652 40.0099 44.7693 40.0011 44.7768C39.9923 44.7843 39.986 44.7947 39.9833 44.8065L39.905 45.1165C39.9032 45.1248 39.9031 45.1335 39.9048 45.1419C39.9065 45.1503 39.9098 45.1582 39.9147 45.165C39.9195 45.1718 39.9256 45.1774 39.9327 45.1814C39.9397 45.1853 39.9475 45.1876 39.9555 45.1879Z" fill="#F5F5F5"/>
<path d="M39.5793 45.1879H39.8455C39.8591 45.1874 39.8719 45.1812 39.8813 45.1707C39.8907 45.1602 39.896 45.1462 39.896 45.1315V44.8215C39.8962 44.8142 39.8951 44.8069 39.8927 44.8001C39.8902 44.7932 39.8866 44.787 39.8818 44.7818C39.8771 44.7765 39.8715 44.7723 39.8653 44.7695C39.859 44.7666 39.8523 44.7651 39.8455 44.7651H39.6489C39.6375 44.7654 39.6265 44.7695 39.6175 44.777C39.6084 44.7844 39.6018 44.7947 39.5985 44.8065L39.5219 45.1165C39.5199 45.1255 39.52 45.1348 39.522 45.1438C39.5241 45.1528 39.5281 45.1611 39.5337 45.1681C39.5393 45.1751 39.5463 45.1805 39.5543 45.1839C39.5622 45.1874 39.5708 45.1887 39.5793 45.1879Z" fill="#F5F5F5"/>
<path d="M39.2041 45.1871H39.4755C39.4893 45.1871 39.5026 45.1812 39.5124 45.1706C39.5222 45.16 39.5277 45.1457 39.5277 45.1307V44.8207C39.5279 44.8133 39.5268 44.8058 39.5242 44.7989C39.5217 44.7919 39.5178 44.7856 39.5129 44.7803C39.508 44.775 39.5022 44.7709 39.4958 44.7681C39.4893 44.7654 39.4824 44.7641 39.4755 44.7644H39.2806C39.2692 44.7646 39.2582 44.7688 39.2492 44.7762C39.2401 44.7836 39.2335 44.7939 39.2302 44.8057L39.1536 45.1157C39.1514 45.1241 39.1511 45.1329 39.1527 45.1414C39.1542 45.15 39.1575 45.158 39.1624 45.1649C39.1673 45.1719 39.1736 45.1775 39.1808 45.1813C39.188 45.1852 39.196 45.1871 39.2041 45.1871Z" fill="#F5F5F5"/>
<path d="M38.8285 45.1871H39.1C39.1138 45.1871 39.1271 45.1812 39.1369 45.1706C39.1467 45.16 39.1522 45.1457 39.1522 45.1307V44.8207C39.1524 44.8133 39.1512 44.8058 39.1487 44.7989C39.1462 44.7919 39.1423 44.7856 39.1374 44.7803C39.1325 44.775 39.1267 44.7709 39.1202 44.7681C39.1138 44.7654 39.1069 44.7641 39.1 44.7644H38.9051C38.8937 44.7643 38.8825 44.7684 38.8734 44.7758C38.8643 44.7833 38.8577 44.7938 38.8546 44.8057L38.7781 45.1157C38.7759 45.1241 38.7756 45.1329 38.7771 45.1414C38.7787 45.15 38.782 45.158 38.7869 45.1649C38.7918 45.1719 38.7981 45.1775 38.8053 45.1813C38.8125 45.1852 38.8205 45.1871 38.8285 45.1871Z" fill="#F5F5F5"/>
<path d="M38.4538 45.1871H38.7253C38.7321 45.1871 38.7389 45.1857 38.7453 45.1828C38.7516 45.18 38.7573 45.1758 38.7622 45.1706C38.767 45.1654 38.7709 45.1592 38.7735 45.1523C38.7761 45.1455 38.7775 45.1382 38.7775 45.1307V44.8207C38.7777 44.8133 38.7765 44.8058 38.774 44.7989C38.7715 44.7919 38.7676 44.7856 38.7627 44.7803C38.7578 44.775 38.752 44.7709 38.7455 44.7681C38.7391 44.7654 38.7322 44.7641 38.7253 44.7644H38.5304C38.519 44.7643 38.5078 44.7684 38.4987 44.7758C38.4896 44.7833 38.483 44.7938 38.4799 44.8057L38.4034 45.1157C38.4012 45.1241 38.4009 45.1329 38.4024 45.1414C38.404 45.15 38.4073 45.158 38.4122 45.1649C38.4171 45.1719 38.4234 45.1775 38.4306 45.1813C38.4378 45.1852 38.4458 45.1871 38.4538 45.1871Z" fill="#F5F5F5"/>
<path d="M38.0766 45.1871H38.3481C38.3619 45.1871 38.3752 45.1812 38.385 45.1706C38.3948 45.16 38.4003 45.1457 38.4003 45.1307V44.8207C38.4005 44.8133 38.3993 44.8058 38.3968 44.7989C38.3942 44.7919 38.3904 44.7856 38.3855 44.7803C38.3806 44.775 38.3748 44.7709 38.3683 44.7681C38.3619 44.7654 38.355 44.7641 38.3481 44.7644H38.1532C38.1417 44.764 38.1304 44.7679 38.1212 44.7754C38.112 44.7829 38.1055 44.7936 38.1027 44.8057L38.0262 45.1157C38.024 45.1241 38.0237 45.1329 38.0252 45.1414C38.0267 45.15 38.0301 45.158 38.035 45.1649C38.0399 45.1719 38.0462 45.1775 38.0534 45.1813C38.0606 45.1852 38.0686 45.1871 38.0766 45.1871Z" fill="#F5F5F5"/>
<path d="M37.7002 45.1871H37.9717C37.9854 45.1866 37.9984 45.1805 38.0081 45.1701C38.0178 45.1596 38.0234 45.1455 38.0239 45.1307V44.8207C38.0239 44.8133 38.0225 44.806 38.0199 44.7991C38.0173 44.7923 38.0134 44.7861 38.0086 44.7809C38.0037 44.7756 37.998 44.7715 37.9917 44.7686C37.9853 44.7658 37.9785 44.7644 37.9717 44.7644H37.7768C37.7653 44.764 37.754 44.7679 37.7448 44.7754C37.7356 44.7829 37.7291 44.7936 37.7263 44.8057L37.6498 45.1157C37.6476 45.1241 37.6473 45.1329 37.6488 45.1414C37.6504 45.15 37.6537 45.158 37.6586 45.1649C37.6635 45.1718 37.6698 45.1774 37.677 45.1813C37.6842 45.1851 37.6922 45.1871 37.7002 45.1871Z" fill="#F5F5F5"/>
<path d="M37.323 45.1871H37.5962C37.6099 45.1866 37.623 45.1805 37.6326 45.1701C37.6423 45.1596 37.648 45.1455 37.6484 45.1307V44.8207C37.6484 44.8133 37.6471 44.806 37.6444 44.7991C37.6418 44.7923 37.638 44.7861 37.6331 44.7809C37.6283 44.7756 37.6225 44.7715 37.6162 44.7686C37.6099 44.7658 37.6031 44.7644 37.5962 44.7644H37.41C37.3985 44.764 37.3872 44.7679 37.3781 44.7754C37.3689 44.7829 37.3624 44.7936 37.3596 44.8057L37.283 45.1157C37.2809 45.1232 37.2804 45.1312 37.2813 45.139C37.2822 45.1467 37.2846 45.1542 37.2884 45.161C37.2922 45.1677 37.2972 45.1735 37.3032 45.178C37.3091 45.1825 37.3159 45.1856 37.323 45.1871Z" fill="#F5F5F5"/>
<path d="M36.947 45.1879H37.2202C37.2339 45.1874 37.2469 45.1813 37.2566 45.1709C37.2663 45.1604 37.2719 45.1463 37.2724 45.1315V44.8215C37.2724 44.8141 37.271 44.8068 37.2684 44.7999C37.2658 44.7931 37.2619 44.7869 37.2571 44.7816C37.2522 44.7764 37.2465 44.7723 37.2402 44.7694C37.2338 44.7666 37.227 44.7651 37.2202 44.7651H37.0236C37.0123 44.7652 37.0015 44.7693 36.9926 44.7768C36.9838 44.7843 36.9776 44.7947 36.9748 44.8065L36.8965 45.1165C36.8947 45.1248 36.8947 45.1335 36.8963 45.1419C36.898 45.1503 36.9014 45.1582 36.9062 45.165C36.911 45.1718 36.9172 45.1774 36.9242 45.1814C36.9313 45.1853 36.9391 45.1876 36.947 45.1879Z" fill="#F5F5F5"/>
<path d="M36.5715 45.1879H36.8446C36.8582 45.1874 36.871 45.1812 36.8804 45.1707C36.8898 45.1602 36.8951 45.1462 36.8951 45.1315V44.8215C36.8953 44.8142 36.8942 44.8069 36.8918 44.8001C36.8893 44.7932 36.8857 44.787 36.8809 44.7818C36.8762 44.7765 36.8706 44.7723 36.8644 44.7695C36.8581 44.7666 36.8514 44.7651 36.8446 44.7651H36.648C36.6366 44.7654 36.6256 44.7695 36.6166 44.777C36.6075 44.7844 36.6009 44.7947 36.5976 44.8065L36.521 45.1165C36.5192 45.1248 36.5191 45.1335 36.5208 45.1419C36.5225 45.1503 36.5258 45.1582 36.5307 45.165C36.5355 45.1718 36.5416 45.1774 36.5487 45.1814C36.5557 45.1853 36.5635 45.1876 36.5715 45.1879Z" fill="#F5F5F5"/>
<path d="M36.1922 45.1871H36.4636C36.4775 45.1871 36.4907 45.1812 36.5005 45.1706C36.5103 45.16 36.5158 45.1457 36.5158 45.1307V44.8207C36.5161 44.8133 36.5149 44.8058 36.5123 44.7989C36.5098 44.7919 36.506 44.7856 36.5011 44.7803C36.4962 44.775 36.4903 44.7709 36.4839 44.7681C36.4774 44.7654 36.4705 44.7641 36.4636 44.7644H36.2687C36.2574 44.7646 36.2464 44.7688 36.2373 44.7762C36.2282 44.7836 36.2216 44.7939 36.2183 44.8057L36.1417 45.1157C36.1396 45.1241 36.1393 45.1329 36.1408 45.1414C36.1423 45.15 36.1456 45.158 36.1505 45.1649C36.1554 45.1719 36.1617 45.1775 36.1689 45.1813C36.1762 45.1852 36.1841 45.1871 36.1922 45.1871Z" fill="#F5F5F5"/>
<path d="M35.8192 45.1871H36.0906C36.1045 45.1871 36.1178 45.1812 36.1275 45.1706C36.1373 45.16 36.1428 45.1457 36.1428 45.1307V44.8207C36.1431 44.8133 36.1419 44.8058 36.1394 44.7989C36.1368 44.7919 36.133 44.7856 36.1281 44.7803C36.1232 44.775 36.1173 44.7709 36.1109 44.7681C36.1045 44.7654 36.0976 44.7641 36.0906 44.7644H35.8958C35.8844 44.7646 35.8734 44.7688 35.8643 44.7762C35.8553 44.7836 35.8486 44.7939 35.8453 44.8057L35.7687 45.1157C35.7666 45.1241 35.7663 45.1329 35.7678 45.1414C35.7693 45.15 35.7727 45.158 35.7775 45.1649C35.7824 45.1719 35.7887 45.1775 35.796 45.1813C35.8032 45.1852 35.8111 45.1871 35.8192 45.1871Z" fill="#F5F5F5"/>
<path d="M35.4437 45.1871H35.7151C35.729 45.1871 35.7422 45.1812 35.752 45.1706C35.7618 45.16 35.7673 45.1457 35.7673 45.1307V44.8207C35.7676 44.8133 35.7664 44.8058 35.7638 44.7989C35.7613 44.7919 35.7575 44.7856 35.7526 44.7803C35.7477 44.775 35.7418 44.7709 35.7354 44.7681C35.7289 44.7654 35.722 44.7641 35.7151 44.7644H35.5202C35.5088 44.7643 35.4977 44.7684 35.4885 44.7758C35.4794 44.7833 35.4728 44.7938 35.4698 44.8057L35.3932 45.1157C35.3911 45.1241 35.3907 45.1329 35.3923 45.1414C35.3938 45.15 35.3971 45.158 35.402 45.1649C35.4069 45.1719 35.4132 45.1775 35.4204 45.1813C35.4277 45.1852 35.4356 45.1871 35.4437 45.1871Z" fill="#F5F5F5"/>
<path d="M35.0681 45.1871H35.3395C35.3534 45.1871 35.3667 45.1812 35.3764 45.1706C35.3862 45.16 35.3917 45.1457 35.3917 45.1307V44.8207C35.392 44.8133 35.3908 44.8058 35.3883 44.7989C35.3857 44.7919 35.3819 44.7856 35.377 44.7803C35.3721 44.775 35.3662 44.7709 35.3598 44.7681C35.3534 44.7654 35.3465 44.7641 35.3395 44.7644H35.1481C35.1366 44.764 35.1253 44.7679 35.1161 44.7754C35.107 44.7829 35.1005 44.7936 35.0977 44.8057L35.0211 45.1157C35.019 45.1238 35.0186 45.1323 35.02 45.1406C35.0213 45.1488 35.0243 45.1567 35.0288 45.1635C35.0333 45.1703 35.0392 45.176 35.046 45.1801C35.0528 45.1842 35.0603 45.1866 35.0681 45.1871Z" fill="#F5F5F5"/>
<path d="M34.7925 45.4656H40.8773V44.9771H34.7925V45.4656Z" fill="#EBEBEB"/>
<path d="M74.244 33.3838V9.79233L46.129 9.79233V33.3838H74.244Z" fill="#E0E0E0"/>
<path d="M46.5186 32.9638L73.854 32.9638V10.2141L46.5186 10.2141V32.9638Z" fill="#EBEBEB"/>
<path d="M59.7267 14.3226V17.496" stroke="#E0E0E0" stroke-miterlimit="10"/>
<path d="M53.0471 27.7079V17.4961H65.4463V23.3526" stroke="#E0E0E0" stroke-miterlimit="10"/>
<path d="M62.2381 26.4714V23.3525H69.0554V26.5804" stroke="#E0E0E0" stroke-miterlimit="10"/>
<path d="M62.8626 13.158H56.5916V15.4898H62.8626V13.158Z" fill="#F5F5F5"/>
<path d="M68.5277 18.7515H62.5508V21.2842H68.5277V18.7515Z" fill="#F5F5F5"/>
<path d="M64.291 25.166H60.1863V27.7777H64.291V25.166Z" fill="#F5F5F5"/>
<path d="M71.2544 25.5882H66.8575V27.5723H71.2544V25.5882Z" fill="#F5F5F5"/>
<path d="M56.9538 19.2871H50.1626V22.671H56.9538V19.2871Z" fill="#F5F5F5"/>
<path d="M55.2149 26.4721H50.8788V28.9447H55.2149V26.4721Z" fill="#F5F5F5"/>
<path d="M60.6656 17.579L59.7292 16.568L58.7929 17.579L59.7292 18.5901L60.6656 17.579Z" fill="#F5F5F5"/>
<path d="M66.3843 23.3542L65.448 22.3432L64.5117 23.3542L65.448 24.3653L66.3843 23.3542Z" fill="#F5F5F5"/>
<path d="M27.1633 57.4755C27.1929 57.4104 27.2074 57.3386 27.2056 57.2662C27.2039 57.1937 27.1859 57.1228 27.1532 57.0595C27.1206 56.9961 27.0742 56.9423 27.0181 56.9025C26.962 56.8627 26.8978 56.8382 26.831 56.8311C26.8879 56.6461 26.8915 56.4467 26.8411 56.2595C26.7908 56.0723 26.6889 55.906 26.5491 55.7826C26.5156 55.7492 26.4728 55.7287 26.4273 55.7244C26.3784 55.7302 26.3323 55.7518 26.2951 55.7864L25.519 56.3895C25.456 56.4307 25.403 56.4873 25.3642 56.5549C25.2041 56.8874 25.7783 57.3064 25.5382 57.5883C25.472 57.6672 25.3642 57.6841 25.2772 57.7405C25.0927 57.8645 25.0701 58.1388 24.9848 58.3567C24.8996 58.5747 24.5968 58.7325 24.482 58.5446C24.5672 58.3361 24.308 58.1576 24.1009 58.1313C23.8939 58.105 23.6746 58.0918 23.558 57.8814C23.2622 58.1613 22.5993 57.3797 22.615 57.0659C22.4979 57.0887 22.3904 57.1504 22.3075 57.2424C22.2245 57.3343 22.1702 57.452 22.1521 57.5789C22.1173 57.8383 22.1085 58.101 22.126 58.3624C22.126 58.8716 21.9659 59.3713 21.9746 59.8805C21.9746 60.277 22.1225 60.7166 22.4601 60.8763C22.6272 60.9411 22.8051 60.9667 22.9821 60.9515L26.8101 60.9252C26.9024 60.9329 26.9949 60.9161 27.0798 60.8763C27.2538 60.7786 27.2886 60.5344 27.3043 60.3258C27.3739 59.4277 27.4423 58.5296 27.5096 57.6315L27.1633 57.4755Z" fill="#E0E0E0"/>
<path d="M27.3878 53.109H21.4509L21.4996 53.7554L21.5344 54.2176L21.6249 55.422L21.6754 56.1134L21.745 57.0341L21.7746 57.4286V57.547L21.8094 58.0092L21.8563 58.6462L21.8859 59.0407L21.9172 59.4409L21.952 59.905L21.9781 60.2564L22.0077 60.6509L22.0199 60.8219H27.4696L27.4818 60.6509L27.5113 60.2583L27.5374 59.9031L27.5722 59.4391L27.6036 59.0407L27.6331 58.6462L27.6801 58.0092L27.7149 57.547V57.4286L27.7445 57.0341L27.8141 56.1134L27.8646 55.4238L27.955 54.2176L27.9898 53.7554L28.0386 53.109H27.3878ZM27.7358 53.5337L27.621 53.4097H27.7462L27.7358 53.5337ZM27.7062 53.9264L27.6958 54.0823L27.1633 54.6573L26.5543 53.9978L27.099 53.4097H27.2277L27.7062 53.9264ZM27.5531 55.9781L27.1633 56.399L26.5543 55.7395L27.1633 55.0838L27.5862 55.5385L27.5531 55.9781ZM21.9033 55.5385L22.3244 55.0838L22.9334 55.7395L22.3244 56.399L21.9364 55.9781L21.9033 55.5385ZM26.9702 54.8639L26.3612 55.5215L25.7522 54.8639L26.3612 54.2044L26.9702 54.8639ZM26.0132 53.404H26.7092L26.3612 53.7798L26.0132 53.404ZM26.1628 55.7339L25.5556 56.3934L24.9448 55.7339L25.5556 55.0781L26.1628 55.7339ZM24.1392 56.6057L24.7482 55.9481L25.3572 56.6057L24.7482 57.2633L24.1392 56.6057ZM24.5499 57.4756L23.9409 58.1332L23.3319 57.4775L23.9426 56.818L24.5499 57.4756ZM25.5556 56.818L26.1628 57.4775L25.5556 58.1332L24.9448 57.4756L25.5556 56.818ZM24.7482 55.5215L24.1392 54.8639L24.7482 54.2044L25.3572 54.8639L24.7482 55.5215ZM24.5499 55.7339L23.9426 56.3934L23.3319 55.7339L23.9426 55.0781L24.5499 55.7339ZM23.1422 55.5272L22.5349 54.8696L23.1422 54.2101L23.7529 54.8696L23.1422 55.5272ZM23.1422 55.9537L23.7529 56.6113L23.1422 57.2689L22.5349 56.6113L23.1422 55.9537ZM23.7529 58.3531L23.1422 59.0107L22.5349 58.3531L23.1422 57.6954L23.7529 58.3531ZM23.9496 58.5654L24.5586 59.2249L23.9513 59.8825L23.3406 59.2249L23.9496 58.5654ZM24.1479 58.3531L24.7569 57.6954L25.3659 58.3531L24.7569 59.0107L24.1479 58.3531ZM25.5643 58.5654L26.1715 59.2249L25.5643 59.8825L24.9535 59.2249L25.5643 58.5654ZM26.3699 59.4372L26.9789 60.0948L26.5839 60.5213H26.1541L25.7522 60.0948L26.3699 59.4372ZM25.7609 58.3531L26.3699 57.6954L26.9789 58.3531L26.3699 59.0107L25.7609 58.3531ZM25.7609 56.6113L26.3699 55.9537L26.9789 56.6113L26.3699 57.2689L25.7609 56.6113ZM26.1715 53.9978L25.5643 54.6573L24.9535 53.9978L25.4999 53.4097H25.6269L26.1715 53.9978ZM24.7569 53.7854L24.4089 53.4097H25.1049L24.7569 53.7854ZM24.5586 53.9978L23.9513 54.6573L23.3406 53.9978L23.8869 53.4097H24.0122L24.5586 53.9978ZM23.4902 53.4097L23.1422 53.7854L22.7942 53.4097H23.4902ZM22.3992 53.4097L22.9438 53.9978L22.3348 54.6573L21.8128 54.0823L21.8024 53.9264L22.2792 53.4097H22.3992ZM21.8772 53.4097L21.7641 53.5318V53.4097H21.8772ZM21.8389 54.5464L22.1382 54.8696L21.8842 55.1439L21.8389 54.5464ZM22.0129 56.7541L21.9886 56.4422L22.1452 56.6113L22.0129 56.7541ZM22.0425 57.1506L22.3418 56.8236L22.9508 57.4831L22.3418 58.1389L22.0878 57.8702L22.0425 57.1506ZM22.133 58.3662V58.338L22.1469 58.3531L22.1347 58.3662H22.133ZM22.2391 59.7697L22.1626 58.7608L22.3366 58.5729L22.9456 59.2324L22.3366 59.8881L22.2339 59.7773L22.2391 59.7697ZM22.2948 60.5213L22.2826 60.371L22.3418 60.3071L22.5402 60.5213H22.2948ZM22.5402 60.0948L23.1474 59.4372L23.7582 60.0948L23.3632 60.5213H22.9334L22.5402 60.0948ZM23.7582 60.5213L23.9565 60.3071L24.1549 60.5213H23.7582ZM24.5481 60.5213L24.1531 60.0948L24.7621 59.4372L25.3711 60.0948L24.9779 60.5213H24.5481ZM25.3711 60.5213L25.5608 60.3127L25.7574 60.5269L25.3711 60.5213ZM27.2295 60.5213H26.9702L27.1668 60.3071L27.226 60.371L27.2295 60.5213ZM27.2851 59.7697L27.1807 59.8806L26.5717 59.2249L27.1807 58.5654L27.3547 58.7533L27.2851 59.7697ZM27.393 58.3361V58.3662L27.3791 58.3531L27.3948 58.3361H27.393ZM27.4278 57.8739L27.1807 58.1389L26.5717 57.4831L27.1807 56.8236L27.4835 57.1506L27.4278 57.8739ZM27.5113 56.756L27.3774 56.6113L27.5357 56.4422L27.5113 56.756ZM27.6853 54.5445L27.6401 55.1458L27.3687 54.8639L27.6662 54.5445H27.6853Z" fill="#E6E6E6"/>
<path d="M21.3564 53.676H28.1511C28.3087 53.676 28.4364 53.5381 28.4364 53.3679V53.1462C28.4364 52.976 28.3087 52.838 28.1511 52.838H21.3564C21.1988 52.838 21.071 52.976 21.071 53.1462V53.3679C21.071 53.5381 21.1988 53.676 21.3564 53.676Z" fill="#F0F0F0"/>
<path d="M27.6191 60.3712H21.8858C21.7282 60.3712 21.6005 60.5092 21.6005 60.6794V60.9011C21.6005 61.0713 21.7282 61.2092 21.8858 61.2092H27.6191C27.7767 61.2092 27.9045 61.0713 27.9045 60.9011V60.6794C27.9045 60.5092 27.7767 60.3712 27.6191 60.3712Z" fill="#F0F0F0"/>
<path d="M70.5485 54.6436L72.3981 48.8867C72.3981 48.8867 69.8333 50.9403 69.8507 48.6631C69.8681 46.3859 71.0183 48.1539 71.4167 47.3141C71.8152 46.4742 70.2788 46.4817 70.8182 45.2059C71.3576 43.9302 72.8923 45.8898 73.162 44.7606C73.4317 43.6314 73.858 43.0546 74.982 43.156C74.982 43.156 75.5858 44.6441 74.8463 45.717C74.1068 46.7898 76.6768 45.9312 76.4123 47.0115C76.1478 48.0919 75.2917 49.0351 74.9141 48.2742C74.5366 47.5132 74.0563 48.9712 74.7036 49.347C75.3509 49.7228 73.858 51.3499 73.5308 50.4969C73.3034 49.9298 73.0224 49.3895 72.6922 48.8848L70.9922 55.0514L70.5485 54.6436Z" fill="#EBEBEB"/>
<path d="M68.6431 54.6944L66.5551 51.0137C66.5551 51.0137 68.617 52.0151 68.2951 50.45C67.9732 48.8849 67.4147 50.2884 67.0197 49.7717C66.6247 49.255 67.6913 49.0107 67.1397 48.216C66.5882 47.4212 65.7999 49.0277 65.4554 48.2892C65.1109 47.5508 64.7298 47.2258 63.9712 47.4776C63.9712 47.4776 63.7607 48.6049 64.4236 49.2268C65.0865 49.8487 63.1865 49.674 63.5188 50.3786C63.8511 51.0832 64.5767 51.5961 64.7368 51.008C64.8969 50.4199 65.4328 51.35 65.0343 51.7164C64.6359 52.0827 65.9043 52.9639 66.0053 52.3195C66.0807 51.8904 66.1973 51.4711 66.3533 51.0681L68.3908 55.0514L68.6431 54.6944Z" fill="#E6E6E6"/>
<path d="M70.047 54.7306L69.0917 48.799C69.0917 48.799 71.2911 51.2415 71.6095 49.0207C71.9279 46.7998 70.5446 48.3236 70.2784 47.4349C70.0122 46.5462 71.5103 46.8186 71.1728 45.4827C70.8352 44.1468 69.05 45.7927 68.9525 44.6447C68.8551 43.4967 68.5193 42.8616 67.4144 42.7658C67.4144 42.7658 66.607 44.1111 67.1708 45.2854C67.7345 46.4597 65.3542 45.1783 65.4499 46.2775C65.5456 47.3766 66.2434 48.442 66.7236 47.7656C67.2038 47.0892 67.4579 48.5923 66.7723 48.8478C66.0868 49.1033 67.2943 50.9447 67.745 50.163C68.05 49.6486 68.404 49.17 68.8012 48.7351L69.5563 55.0519L70.047 54.7306Z" fill="#F5F5F5"/>
<path d="M71.2303 61.3985H67.9522C67.8417 61.3983 67.7356 61.3527 67.6551 61.2711C67.5747 61.1895 67.526 61.0778 67.5189 60.9589L67.1709 54.8524C67.1673 54.7887 67.1759 54.7248 67.1961 54.6647C67.2162 54.6047 67.2476 54.5497 67.2882 54.5032C67.3288 54.4568 67.3777 54.4198 67.4321 54.3945C67.4864 54.3693 67.545 54.3563 67.6042 54.3564H71.5766C71.6357 54.3563 71.6943 54.3693 71.7486 54.3945C71.803 54.4198 71.8519 54.4568 71.8925 54.5032C71.9331 54.5497 71.9645 54.6047 71.9847 54.6647C72.0048 54.7248 72.0134 54.7887 72.0098 54.8524L71.6618 60.9589C71.6552 61.0777 71.6069 61.1893 71.5267 61.271C71.4465 61.3526 71.3405 61.3983 71.2303 61.3985Z" fill="#EBEBEB"/>
<path d="M71.9679 55.0514H67.1638C67.0575 55.0512 66.9549 55.0087 66.8756 54.9322C66.7964 54.8556 66.746 54.7502 66.734 54.6361C66.7266 54.5704 66.7322 54.5038 66.7505 54.4406C66.7687 54.3775 66.7991 54.3192 66.8397 54.2696C66.8803 54.2201 66.9302 54.1804 66.9861 54.1532C67.042 54.126 67.1025 54.112 67.1638 54.1119H71.961C72.0222 54.112 72.0826 54.1261 72.1384 54.1531C72.1942 54.1802 72.2441 54.2196 72.2848 54.2689C72.3256 54.3182 72.3562 54.3762 72.3748 54.4392C72.3933 54.5021 72.3994 54.5686 72.3925 54.6342C72.381 54.7477 72.3316 54.8528 72.2534 54.9296C72.1752 55.0064 72.0736 55.0497 71.9679 55.0514Z" fill="#F5F5F5"/>
<path d="M51.5772 51.7242H42.3552V51.369C42.3552 51.1199 42.4469 50.8809 42.6101 50.7048C42.7732 50.5286 42.9945 50.4296 43.2252 50.4296H50.7072C50.938 50.4296 51.1593 50.5286 51.3224 50.7048C51.4856 50.8809 51.5772 51.1199 51.5772 51.369V51.7242Z" fill="#E0E0E0"/>
<path d="M51.2756 59.0969L48.3176 58.7832V54.3001H47.1536V58.785L44.1851 59.1007C44.0425 59.1152 43.91 59.1865 43.8135 59.3008C43.717 59.4151 43.6634 59.5642 43.6631 59.7189V60.198H51.7994V59.7189C51.8 59.5632 51.7465 59.413 51.6495 59.2979C51.5526 59.1827 51.4191 59.111 51.2756 59.0969Z" fill="#E0E0E0"/>
<path d="M44.7389 60.7902C44.7389 60.9537 44.694 61.1136 44.6099 61.2495C44.5258 61.3855 44.4062 61.4914 44.2663 61.554C44.1264 61.6166 43.9725 61.6329 43.824 61.601C43.6755 61.5691 43.539 61.4904 43.432 61.3748C43.3249 61.2592 43.252 61.1119 43.2224 60.9515C43.1929 60.7911 43.2081 60.6249 43.266 60.4738C43.324 60.3228 43.4221 60.1937 43.548 60.1028C43.6739 60.012 43.8219 59.9635 43.9733 59.9635C44.1764 59.9635 44.3711 60.0506 44.5147 60.2056C44.6583 60.3607 44.7389 60.571 44.7389 60.7902Z" fill="#E0E0E0"/>
<path d="M50.7174 60.7902C50.7174 60.9537 50.7623 61.1136 50.8465 61.2495C50.9306 61.3855 51.0502 61.4914 51.1901 61.554C51.3299 61.6166 51.4839 61.6329 51.6324 61.601C51.7809 61.5691 51.9173 61.4904 52.0244 61.3748C52.1315 61.2592 52.2044 61.1119 52.2339 60.9515C52.2635 60.7911 52.2483 60.6249 52.1904 60.4738C52.1324 60.3228 52.0343 60.1937 51.9084 60.1028C51.7825 60.012 51.6345 59.9635 51.483 59.9635C51.28 59.9635 51.0853 60.0506 50.9417 60.2056C50.7981 60.3607 50.7174 60.571 50.7174 60.7902Z" fill="#E0E0E0"/>
<path d="M46.9469 51.2657H48.5216V54.488C48.5216 54.6938 48.4459 54.8912 48.3111 55.0367C48.1763 55.1823 47.9935 55.264 47.803 55.264H47.6655C47.4749 55.264 47.2921 55.1823 47.1573 55.0367C47.0226 54.8912 46.9469 54.6938 46.9469 54.488V51.2657Z" fill="#E6E6E6"/>
<path d="M46.1778 50.5125C47.0718 46.6845 47.5822 42.7639 47.7003 38.8182C47.7152 38.3937 47.882 37.992 48.1657 37.6976C48.4493 37.4032 48.8277 37.2391 49.2211 37.2399H51.9477C52.3501 37.2394 52.7363 37.4112 53.0217 37.7176C53.307 38.024 53.4683 38.44 53.4702 38.8746C53.4806 41.5576 53.3083 47.0422 51.9042 51.5008L46.7155 51.2941C46.6288 51.291 46.544 51.2669 46.4672 51.2235C46.3904 51.1801 46.3237 51.1185 46.272 51.0434C46.2203 50.9682 46.185 50.8815 46.1687 50.7896C46.1524 50.6976 46.1555 50.6029 46.1778 50.5125Z" fill="#EBEBEB"/>
<path d="M46.912 51.2019C47.856 47.212 48.4037 43.1249 48.5459 39.0097C48.5599 38.618 48.714 38.2473 48.9759 37.9757C49.2378 37.7041 49.587 37.5528 49.9501 37.5536H52.4609C52.8314 37.5531 53.187 37.7109 53.45 37.9925C53.7131 38.2741 53.8623 38.6567 53.8651 39.0567C53.8755 41.5331 53.7155 47.0853 52.4226 51.1982L46.912 51.2019Z" fill="#E6E6E6"/>
<path d="M47.9911 47.29C47.9911 47.29 45.0018 46.638 42.1151 46.9537C39.2285 47.2693 43.4723 51.3428 43.4723 51.3428H44.0691C44.0691 51.3428 41.8193 48.7593 41.9446 48.1167C42.0699 47.4741 47.7336 48.3215 47.7336 48.3215L47.9911 47.29Z" fill="#E6E6E6"/>
<path d="M52.4227 51.202H47.5263C48.4703 47.2121 49.018 43.125 49.1602 39.0098C49.1715 38.6174 49.3246 38.2453 49.5867 37.9732C49.8488 37.7011 50.199 37.5505 50.5626 37.5536H52.4609C52.8316 37.5531 53.1873 37.7109 53.4507 37.9924C53.7141 38.274 53.8636 38.6566 53.8669 39.0568C53.8756 41.535 53.7155 47.0891 52.4227 51.202Z" fill="#E0E0E0"/>
<path d="M42.3218 51.0759H52.2224C52.2617 51.0759 52.3007 51.0843 52.337 51.1005C52.3733 51.1168 52.4063 51.1406 52.4341 51.1706C52.4618 51.2006 52.4839 51.2362 52.4989 51.2754C52.514 51.3146 52.5217 51.3567 52.5217 51.3991C52.5217 51.485 52.4902 51.5674 52.4342 51.6283C52.3781 51.6892 52.302 51.7237 52.2224 51.7242H42.3218C42.242 51.7242 42.1654 51.6899 42.109 51.6289C42.0525 51.568 42.0208 51.4853 42.0208 51.3991C42.0208 51.3565 42.0286 51.3143 42.0438 51.275C42.0589 51.2357 42.0811 51.2 42.1091 51.1699C42.1371 51.1399 42.1703 51.1161 42.2068 51.1C42.2433 51.0839 42.2824 51.0757 42.3218 51.0759Z" fill="#E0E0E0"/>
<path d="M43.5006 69.9998C62.1329 69.9998 77.2374 69.0475 77.2374 67.8728C77.2374 66.6982 62.1329 65.7459 43.5006 65.7459C24.8682 65.7459 9.7637 66.6982 9.7637 67.8728C9.7637 69.0475 24.8682 69.9998 43.5006 69.9998Z" fill="#F5F5F5"/>
<path d="M47.6871 7.37477V66.7706C47.6871 66.8857 47.6659 66.9996 47.6248 67.1058C47.5836 67.212 47.5233 67.3083 47.4474 67.3891C47.3714 67.4698 47.2814 67.5335 47.1824 67.5764C47.0835 67.6192 46.9776 67.6404 46.871 67.6386H19.1842C19.0873 67.6399 18.9913 67.6201 18.9017 67.5804C18.8122 67.5407 18.7309 67.4819 18.6629 67.4076C18.5948 67.3332 18.5413 67.2448 18.5056 67.1476C18.4699 67.0504 18.4527 66.9465 18.4551 66.842V7.30337C18.4518 7.21132 18.4654 7.11948 18.4951 7.0331C18.5247 6.94672 18.5698 6.8675 18.6278 6.79996C18.6858 6.73243 18.7556 6.67791 18.8332 6.63952C18.9107 6.60113 18.9945 6.57962 19.0798 6.57623H25.6535C25.7552 6.57819 25.854 6.61285 25.9374 6.67576C26.0208 6.73868 26.0849 6.82701 26.1215 6.92947L26.4226 7.72988C26.4598 7.83163 26.5241 7.91916 26.6074 7.98138C26.6908 8.0436 26.7893 8.07769 26.8906 8.07935H39.2672C39.3681 8.0789 39.4665 8.04593 39.5499 7.98467C39.6333 7.92341 39.6979 7.83665 39.7353 7.73551L40.0363 6.93134C40.0739 6.82938 40.1381 6.74147 40.2213 6.67839C40.3044 6.61531 40.4028 6.57981 40.5044 6.57623H46.9807C47.1714 6.58404 47.3519 6.67179 47.4838 6.82086C47.6157 6.96993 47.6886 7.16861 47.6871 7.37477Z" fill="#8D1A1C"/>
<path opacity="0.6" d="M47.6871 7.37477V66.7706C47.6871 66.8857 47.6659 66.9996 47.6248 67.1058C47.5836 67.212 47.5233 67.3083 47.4474 67.3891C47.3714 67.4698 47.2814 67.5335 47.1824 67.5764C47.0835 67.6192 46.9776 67.6404 46.871 67.6386H19.1842C19.0873 67.6399 18.9913 67.6201 18.9017 67.5804C18.8122 67.5407 18.7309 67.4819 18.6629 67.4076C18.5948 67.3332 18.5413 67.2448 18.5056 67.1476C18.4699 67.0504 18.4527 66.9465 18.4551 66.842V7.30337C18.4518 7.21132 18.4654 7.11948 18.4951 7.0331C18.5247 6.94672 18.5698 6.8675 18.6278 6.79996C18.6858 6.73243 18.7556 6.67791 18.8332 6.63952C18.9107 6.60113 18.9945 6.57962 19.0798 6.57623H25.6535C25.7552 6.57819 25.854 6.61285 25.9374 6.67576C26.0208 6.73868 26.0849 6.82701 26.1215 6.92947L26.4226 7.72988C26.4598 7.83163 26.5241 7.91916 26.6074 7.98138C26.6908 8.0436 26.7893 8.07769 26.8906 8.07935H39.2672C39.3681 8.0789 39.4665 8.04593 39.5499 7.98467C39.6333 7.92341 39.6979 7.83665 39.7353 7.73551L40.0363 6.93134C40.0739 6.82938 40.1381 6.74147 40.2213 6.67839C40.3044 6.61531 40.4028 6.57981 40.5044 6.57623H46.9807C47.1714 6.58404 47.3519 6.67179 47.4838 6.82086C47.6157 6.96993 47.6886 7.16861 47.6871 7.37477Z" fill="white"/>
<path d="M26.5476 51.6606H20.5185C20.1937 51.6606 19.9304 51.945 19.9304 52.2957V58.8061C19.9304 59.1568 20.1937 59.4412 20.5185 59.4412H26.5476C26.8724 59.4412 27.1357 59.1568 27.1357 58.8061V52.2957C27.1357 51.945 26.8724 51.6606 26.5476 51.6606Z" fill="white"/>
<path opacity="0.5" d="M25.608 53.3061H21.4546V57.791H25.608V53.3061Z" fill="#8D1A1C"/>
<path opacity="0.3" d="M21.4546 53.3061V57.791H25.6097V53.3061H21.4546ZM23.3982 55.5495L21.646 57.4416V53.6575L23.3982 55.5495ZM21.78 53.5128H25.2843L23.5322 55.403L21.78 53.5128ZM23.5322 55.6942L25.2843 57.5862H21.78L23.5322 55.6942ZM23.6661 55.5495L25.4183 53.6575V57.4416L23.6661 55.5495Z" fill="white"/>
<path opacity="0.75" d="M27.199 61.0637H19.8667V61.9562H27.199V61.0637Z" fill="#8D1A1C"/>
<path d="M20.1672 61.3005H19.9584V61.2197H20.4613V61.3005H20.2525V61.8755H20.1672V61.3005Z" fill="white"/>
<path d="M35.9596 51.581H29.9305C29.6057 51.581 29.3424 51.8654 29.3424 52.2161V58.7265C29.3424 59.0772 29.6057 59.3616 29.9305 59.3616H35.9596C36.2844 59.3616 36.5477 59.0772 36.5477 58.7265V52.2161C36.5477 51.8654 36.2844 51.581 35.9596 51.581Z" fill="white"/>
<path opacity="0.5" d="M35.02 53.2289H30.8666V57.7138H35.02V53.2289Z" fill="#8D1A1C"/>
<path opacity="0.3" d="M30.8666 53.2289V57.7138H35.0217V53.2289H30.8666ZM32.8102 55.4723L31.058 57.3625V53.5803L32.8102 55.4723ZM31.192 53.4356H34.6963L32.9441 55.3258L31.192 53.4356ZM32.9441 55.6151L34.6963 57.5072H31.192L32.9441 55.6151ZM33.0781 55.4704L34.8303 53.5784V57.3625L33.0781 55.4704Z" fill="white"/>
<path opacity="0.75" d="M36.6102 60.9873H29.2778V61.8798H36.6102V60.9873Z" fill="#8D1A1C"/>
<path d="M29.5809 61.2241H29.3721V61.1433H29.875V61.2241H29.6662V61.7878H29.5809V61.2241Z" fill="white"/>
<path d="M45.3707 51.5046H39.3416C39.0168 51.5046 38.7535 51.789 38.7535 52.1397V58.6501C38.7535 59.0008 39.0168 59.2852 39.3416 59.2852H45.3707C45.6955 59.2852 45.9588 59.0008 45.9588 58.6501V52.1397C45.9588 51.789 45.6955 51.5046 45.3707 51.5046Z" fill="white"/>
<path opacity="0.5" d="M44.4319 53.1525H40.2785V57.6374H44.4319V53.1525Z" fill="#8D1A1C"/>
<path opacity="0.3" d="M40.2785 53.1525V57.6374H44.4319V53.1525H40.2785ZM42.2204 55.394L40.4699 57.2861V53.5038L42.2204 55.394ZM40.6039 53.3611H44.1083L42.3561 55.2531L40.6039 53.3611ZM42.3561 55.5443L44.1083 57.4364H40.6039L42.3561 55.5443ZM42.4901 55.3978L44.2423 53.5076V57.2898L42.4901 55.3978Z" fill="white"/>
<path opacity="0.75" d="M46.0221 60.9101H38.6898V61.8026H46.0221V60.9101Z" fill="#8D1A1C"/>
<path d="M38.9912 61.1464H38.7824V61.0637H39.2852V61.1464H39.0764V61.7195H38.9912V61.1464Z" fill="white"/>
<path d="M45.9388 12.115H20.2042C20.0178 12.115 19.8667 12.2782 19.8667 12.4795V25.4627C19.8667 25.664 20.0178 25.8272 20.2042 25.8272H45.9388C46.1253 25.8272 46.2764 25.664 46.2764 25.4627V12.4795C46.2764 12.2782 46.1253 12.115 45.9388 12.115Z" fill="white"/>
<path opacity="0.75" d="M21.1522 19.2493C21.4751 19.2493 21.7369 18.9666 21.7369 18.618C21.7369 18.2693 21.4751 17.9867 21.1522 17.9867C20.8293 17.9867 20.5676 18.2693 20.5676 18.618C20.5676 18.9666 20.8293 19.2493 21.1522 19.2493Z" fill="#8D1A1C"/>
<path d="M20.8633 18.6176L21.3157 18.9483V18.285L20.8633 18.6176Z" fill="white"/>
<path opacity="0.75" d="M44.9897 19.2493C45.3126 19.2493 45.5744 18.9666 45.5744 18.618C45.5744 18.2693 45.3126 17.9867 44.9897 17.9867C44.6668 17.9867 44.4051 18.2693 44.4051 18.618C44.4051 18.9666 44.6668 19.2493 44.9897 19.2493Z" fill="#8D1A1C"/>
<path d="M45.2789 18.6176L44.8265 18.285V18.9483L45.2789 18.6176Z" fill="white"/>
<path opacity="0.75" d="M38.985 15.4332H24.249V17.019H38.985V15.4332Z" fill="#8D1A1C"/>
<path opacity="0.75" d="M38.985 17.4929H24.249V19.0787H38.985V17.4929Z" fill="#8D1A1C"/>
<path opacity="0.75" d="M36.3176 19.7093H24.249V21.2951H36.3176V19.7093Z" fill="#8D1A1C"/>
<path d="M24.7853 15.8538H24.4146V15.7091H25.309V15.8538H24.9384V16.8759H24.7853V15.8538Z" fill="white"/>
<path opacity="0.75" d="M30.6683 25.0648C30.6683 25.1213 30.6528 25.1765 30.6237 25.2235C30.5946 25.2704 30.5533 25.307 30.505 25.3286C30.4567 25.3503 30.4035 25.3559 30.3522 25.3449C30.3009 25.3339 30.2538 25.3067 30.2168 25.2667C30.1798 25.2268 30.1546 25.1759 30.1444 25.1205C30.1342 25.0651 30.1394 25.0077 30.1594 24.9555C30.1795 24.9033 30.2134 24.8587 30.2569 24.8273C30.3003 24.796 30.3515 24.7792 30.4038 24.7792C30.4739 24.7792 30.5412 24.8093 30.5908 24.8629C30.6404 24.9164 30.6683 24.9891 30.6683 25.0648Z" fill="#8D1A1C"/>
<path opacity="0.75" d="M32.0005 25.0648C32.0005 25.1214 31.9849 25.1767 31.9558 25.2237C31.9266 25.2707 31.8852 25.3073 31.8368 25.3288C31.7884 25.3504 31.7351 25.3559 31.6837 25.3448C31.6324 25.3336 31.5853 25.3062 31.5483 25.2661C31.5114 25.2259 31.4864 25.1749 31.4764 25.1194C31.4664 25.0638 31.4718 25.0064 31.4921 24.9542C31.5124 24.9021 31.5466 24.8576 31.5903 24.8264C31.634 24.7953 31.6853 24.7788 31.7377 24.7792C31.8076 24.7797 31.8744 24.81 31.9236 24.8635C31.9728 24.917 32.0005 24.9894 32.0005 25.0648Z" fill="#8D1A1C"/>
<path opacity="0.75" d="M33.3352 25.0648C33.3352 25.1213 33.3197 25.1765 33.2906 25.2235C33.2615 25.2704 33.2202 25.307 33.1719 25.3286C33.1236 25.3503 33.0704 25.3559 33.0191 25.3449C32.9678 25.3339 32.9207 25.3067 32.8837 25.2667C32.8467 25.2268 32.8215 25.1759 32.8113 25.1205C32.8011 25.0651 32.8063 25.0077 32.8263 24.9555C32.8464 24.9033 32.8803 24.8587 32.9238 24.8273C32.9672 24.796 33.0184 24.7792 33.0707 24.7792C33.1054 24.7792 33.1398 24.7866 33.1719 24.8009C33.204 24.8153 33.2331 24.8363 33.2577 24.8629C33.2823 24.8894 33.3017 24.9209 33.315 24.9555C33.3283 24.9902 33.3352 25.0273 33.3352 25.0648Z" fill="#8D1A1C"/>
<path opacity="0.75" d="M34.6682 25.0648C34.6682 25.1214 34.6527 25.1767 34.6235 25.2237C34.5944 25.2707 34.553 25.3073 34.5045 25.3288C34.4561 25.3504 34.4028 25.3559 34.3515 25.3448C34.3001 25.3336 34.253 25.3062 34.2161 25.2661C34.1792 25.2259 34.1541 25.1749 34.1441 25.1194C34.1341 25.0638 34.1396 25.0064 34.1599 24.9542C34.1802 24.9021 34.2143 24.8576 34.2581 24.8264C34.3018 24.7953 34.3531 24.7788 34.4055 24.7792C34.4753 24.7797 34.5421 24.81 34.5914 24.8635C34.6406 24.917 34.6682 24.9894 34.6682 25.0648Z" fill="#8D1A1C"/>
<path opacity="0.75" d="M36.003 25.0648C36.003 25.1213 35.9874 25.1765 35.9584 25.2235C35.9293 25.2704 35.888 25.307 35.8397 25.3286C35.7914 25.3503 35.7382 25.3559 35.6869 25.3449C35.6356 25.3339 35.5885 25.3067 35.5515 25.2667C35.5145 25.2268 35.4893 25.1759 35.4791 25.1205C35.4689 25.0651 35.4741 25.0077 35.4941 24.9555C35.5142 24.9033 35.548 24.8587 35.5915 24.8273C35.635 24.796 35.6862 24.7792 35.7385 24.7792C35.8086 24.7792 35.8759 24.8093 35.9255 24.8629C35.9751 24.9164 36.003 24.9891 36.003 25.0648Z" fill="#8D1A1C"/>
<path d="M46.2764 27.7645H19.8667V29.9929H46.2764V27.7645Z" fill="white"/>
<path opacity="0.75" d="M46.2761 27.7404H44.1655V30.0195H46.2761V27.7404Z" fill="#8D1A1C"/>
<path d="M43.736 31.7157H20.3191C20.0692 31.7157 19.8667 31.9344 19.8667 32.2042V39.8814C19.8667 40.1512 20.0692 40.3699 20.3191 40.3699H43.736C43.9858 40.3699 44.1884 40.1512 44.1884 39.8814V32.2042C44.1884 31.9344 43.9858 31.7157 43.736 31.7157Z" fill="white"/>
<path opacity="0.5" d="M28.5572 32.9164H20.9499V39.1713H28.5572V32.9164Z" fill="#8D1A1C"/>
<path opacity="0.3" d="M20.9499 32.9164V39.1713H28.5572V32.9164H20.9499ZM28.2109 33.1043L24.7536 35.9227L21.2979 33.1043H28.2109ZM21.1239 33.1983L24.6039 36.0429L21.1239 38.8932V33.1983ZM21.2979 38.9834L24.7536 36.165L28.2109 38.9834H21.2979ZM24.898 36.0429L28.378 33.1983V38.8932L24.898 36.0429Z" fill="white"/>
<path opacity="0.75" d="M43.2241 33.0081H29.7391V33.8235H43.2241V33.0081Z" fill="#8D1A1C"/>
<path opacity="0.75" d="M43.2241 34.442H29.7391V35.2575H43.2241V34.442Z" fill="#8D1A1C"/>
<path opacity="0.75" d="M35.937 35.9564H29.7391V36.7719H35.937V35.9564Z" fill="#8D1A1C"/>
<path d="M30.0138 33.2264H29.8241V33.1513H30.2765V33.2264H30.0851V33.7506H30.0068L30.0138 33.2264Z" fill="white"/>
<path d="M43.736 41.1107H20.3191C20.0692 41.1107 19.8667 41.3294 19.8667 41.5992V49.2764C19.8667 49.5462 20.0692 49.7649 20.3191 49.7649H43.736C43.9858 49.7649 44.1884 49.5462 44.1884 49.2764V41.5992C44.1884 41.3294 43.9858 41.1107 43.736 41.1107Z" fill="white"/>
<path opacity="0.5" d="M28.5572 42.3107H20.9499V48.5655H28.5572V42.3107Z" fill="#8D1A1C"/>
<path opacity="0.3" d="M20.9499 42.3107V48.5655H28.5572V42.3107H20.9499ZM28.2109 42.4985L24.7536 45.3169L21.2979 42.4985H28.2109ZM21.1239 42.5925L24.6039 45.4371L21.1239 48.2874V42.5925ZM21.2979 48.3776L24.7536 45.5593L28.2109 48.3776H21.2979ZM24.898 45.4371L28.378 42.5925V48.2874L24.898 45.4371Z" fill="white"/>
<path opacity="0.75" d="M43.2241 42.4023H29.7391V43.2178H43.2241V42.4023Z" fill="#8D1A1C"/>
<path opacity="0.75" d="M43.2241 43.8363H29.7391V44.6517H43.2241V43.8363Z" fill="#8D1A1C"/>
<path opacity="0.75" d="M35.937 45.3506H29.7391V46.1661H35.937V45.3506Z" fill="#8D1A1C"/>
<path d="M30.0138 42.6206H29.8241V42.5455H30.2765V42.6206H30.0851V43.1449H30.0068L30.0138 42.6206Z" fill="white"/>
<path d="M46.0218 31.7254H45.0822V49.7666H46.0218V31.7254Z" fill="white"/>
<path opacity="0.75" d="M46.0218 32.7057H45.0822V35.5316H46.0218V32.7057Z" fill="#8D1A1C"/>
<path d="M47.6871 7.37477V10.2852H18.4551V7.30337C18.4518 7.21132 18.4654 7.11948 18.4951 7.0331C18.5247 6.94672 18.5698 6.8675 18.6278 6.79996C18.6858 6.73243 18.7556 6.67791 18.8332 6.63952C18.9107 6.60113 18.9945 6.57962 19.0798 6.57623H25.6535C25.7552 6.57819 25.854 6.61285 25.9374 6.67576C26.0208 6.73868 26.0849 6.82701 26.1215 6.92947L26.4226 7.72988C26.4598 7.83163 26.5241 7.91916 26.6074 7.98138C26.6908 8.0436 26.7893 8.07769 26.8906 8.07935H39.2672C39.3681 8.0789 39.4665 8.04593 39.5499 7.98467C39.6333 7.92341 39.6979 7.83665 39.7353 7.73551L40.0363 6.93134C40.0739 6.82938 40.1381 6.74147 40.2213 6.67839C40.3044 6.61531 40.4028 6.57981 40.5044 6.57623H46.9807C47.1714 6.58404 47.3519 6.67179 47.4838 6.82086C47.6157 6.96993 47.6886 7.16861 47.6871 7.37477Z" fill="#8D1A1C"/>
<path d="M18.4557 63.6952H47.6877V66.7728C47.6877 66.8879 47.6665 67.0019 47.6253 67.1081C47.5842 67.2142 47.5239 67.3105 47.4479 67.3913C47.372 67.4721 47.2819 67.5357 47.183 67.5786C47.0841 67.6214 46.9782 67.6426 46.8716 67.6409H19.1847C19.0879 67.6421 18.9919 67.6223 18.9023 67.5827C18.8127 67.543 18.7315 67.4842 18.6635 67.4098C18.5954 67.3354 18.5419 67.247 18.5062 67.1498C18.4705 67.0527 18.4533 66.9487 18.4557 66.8442V63.6952Z" fill="#8D1A1C"/>
<path d="M16.9766 6.88242H11.6765V9.66883H16.9766V6.88242Z" fill="#8D1A1C"/>
<path d="M12.555 7.64162H16.0994" stroke="white" stroke-linecap="round" stroke-linejoin="round"/>
<path d="M12.555 8.27454H16.0994" stroke="white" stroke-linecap="round" stroke-linejoin="round"/>
<path d="M12.555 8.90747H14.3281" stroke="white" stroke-linecap="round" stroke-linejoin="round"/>
<path d="M15.3859 9.55408L20.6164 14.4524" stroke="#8D1A1C" stroke-miterlimit="10"/>
<path d="M20.6168 14.7948C20.7917 14.7948 20.9334 14.6417 20.9334 14.4528C20.9334 14.264 20.7917 14.1109 20.6168 14.1109C20.4419 14.1109 20.3001 14.264 20.3001 14.4528C20.3001 14.6417 20.4419 14.7948 20.6168 14.7948Z" fill="#8D1A1C"/>
<path d="M16.4541 41.5126H11.154V44.299H16.4541V41.5126Z" fill="#8D1A1C"/>
<path d="M12.0325 42.2718H15.5769" stroke="white" stroke-linecap="round" stroke-linejoin="round"/>
<path d="M12.0325 42.9048H15.5769" stroke="white" stroke-linecap="round" stroke-linejoin="round"/>
<path d="M12.0325 43.5377H13.8056" stroke="white" stroke-linecap="round" stroke-linejoin="round"/>
<path d="M20.0942 43.2469C20.2691 43.2469 20.4109 43.0938 20.4109 42.9049C20.4109 42.7161 20.2691 42.563 20.0942 42.563C19.9193 42.563 19.7776 42.7161 19.7776 42.9049C19.7776 43.0938 19.9193 43.2469 20.0942 43.2469Z" fill="#8D1A1C"/>
<path d="M20.0946 42.9048H16.1378" stroke="#8D1A1C" stroke-miterlimit="10"/>
<path d="M53.8938 20.0718H48.5938V22.8582H53.8938V20.0718Z" fill="#8D1A1C"/>
<path d="M49.4706 20.8318H53.0167" stroke="white" stroke-linecap="round" stroke-linejoin="round"/>
<path d="M49.4706 21.4647H53.0167" stroke="white" stroke-linecap="round" stroke-linejoin="round"/>
<path d="M49.4706 22.0977H51.2436" stroke="white" stroke-linecap="round" stroke-linejoin="round"/>
<path d="M42.6182 28.7361C42.7931 28.7361 42.9349 28.583 42.9349 28.3942C42.9349 28.2053 42.7931 28.0522 42.6182 28.0522C42.4433 28.0522 42.3015 28.2053 42.3015 28.3942C42.3015 28.583 42.4433 28.7361 42.6182 28.7361Z" fill="#8D1A1C"/>
<path d="M42.6185 28.3937L50.2623 22.2159" stroke="#8D1A1C" stroke-miterlimit="10"/>
<path d="M54.4121 57.0713H49.112V59.8577H54.4121V57.0713Z" fill="#8D1A1C"/>
<path d="M49.9905 57.8321H53.5349" stroke="white" stroke-linecap="round" stroke-linejoin="round"/>
<path d="M49.9905 58.4658H53.5349" stroke="white" stroke-linecap="round" stroke-linejoin="round"/>
<path d="M49.9905 59.0988H51.7636" stroke="white" stroke-linecap="round" stroke-linejoin="round"/>
<path d="M43.454 58.466C43.454 58.5337 43.4354 58.5999 43.4005 58.6562C43.3657 58.7124 43.3161 58.7563 43.2581 58.7821C43.2002 58.8079 43.1364 58.8146 43.0749 58.8012C43.0135 58.7879 42.957 58.7551 42.9128 58.7071C42.8686 58.6591 42.8386 58.598 42.8266 58.5315C42.8145 58.4651 42.8211 58.3963 42.8453 58.3338C42.8695 58.2714 42.9104 58.2181 42.9627 58.1807C43.015 58.1434 43.0764 58.1237 43.1391 58.124C43.1806 58.124 43.2217 58.1329 43.26 58.1501C43.2983 58.1673 43.3331 58.1925 43.3624 58.2243C43.3917 58.2561 43.4148 58.2938 43.4306 58.3353C43.4463 58.3767 43.4543 58.4212 43.454 58.466Z" fill="#8D1A1C"/>
<path d="M43.1393 58.4658H49.5042" stroke="#8D1A1C" stroke-miterlimit="10"/>
<path d="M59.7504 27.7198C59.164 27.7499 56.7089 31.3104 56.7089 31.3104L55.7971 30.029C55.7971 30.029 54.3912 32.9788 55.0855 34.3843C55.7797 35.7897 59.4459 31.9417 59.4459 31.9417L59.7504 27.7198Z" fill="#8D1A1C"/>
<path opacity="0.2" d="M59.7502 27.7198L59.5084 30.5607L59.4457 31.9492C59.4457 31.9492 58.8437 32.5805 58.0816 33.2363C56.9628 34.1964 55.5064 35.2185 55.0853 34.3843C54.3893 32.9807 55.797 30.0309 55.797 30.0309L56.7087 31.3104V31.2991C56.8531 31.0849 59.183 27.748 59.7502 27.7198Z" fill="black"/>
<path opacity="0.2" d="M59.5084 30.5605L59.4458 31.949C59.4458 31.949 58.8437 32.5803 58.0816 33.2361C58.0085 31.5676 59.4458 29.1401 59.4458 29.1401L59.5084 30.5605Z" fill="black"/>
<path opacity="0.2" d="M56.7084 31.3101L56.8389 31.5807L56.4561 33.1871C56.4561 33.1871 57.5106 32.1519 56.8389 31.1354L56.7084 31.3101Z" fill="black"/>
<path d="M59.6443 36.6238L64.5894 37.0352C64.5894 37.0352 64.6572 33.8411 65.0505 32.1858C65.1792 31.6484 65.3393 31.0453 65.5429 30.3445C65.6299 30.0457 65.7169 29.7338 65.8282 29.405C65.9396 29.0762 66.0249 28.7606 66.138 28.413C65.462 28.179 64.7711 27.9987 64.0708 27.8737C63.3315 27.7319 62.5837 27.6472 61.8332 27.6201C60.864 27.6201 59.7452 27.729 59.7452 27.729C59.7452 27.729 59.5869 27.7723 59.4877 28.8789C59.4007 29.9123 59.4442 32.834 59.6443 36.6238Z" fill="#8D1A1C"/>
<path opacity="0.2" d="M59.644 36.6238L64.5891 37.0352C64.5891 37.0352 64.5891 36.9695 64.5891 36.8474C64.61 36.1484 64.7074 33.6044 65.045 32.182C65.1355 31.8063 65.2434 31.3798 65.3739 30.9175C65.4243 30.7297 65.4783 30.5418 65.5374 30.3407C65.6244 30.0439 65.7114 29.7301 65.821 29.4013C65.9307 29.0725 66.0194 28.7568 66.1325 28.4092C65.8628 28.3153 65.5914 28.2326 65.3182 28.1556C64.9058 28.0409 64.4865 27.947 64.0654 27.87C63.3276 27.7298 62.5816 27.6463 61.833 27.6201C61.2083 27.6201 60.5245 27.6614 60.1156 27.6971C59.8894 27.7159 59.7502 27.7309 59.7502 27.7309C59.7502 27.7309 59.5918 27.7723 59.4909 28.8789C59.4004 29.9142 59.4439 32.834 59.644 36.6238Z" fill="black"/>
<path d="M62.2434 28.8C63.4718 28.6309 63.8424 28.0635 63.8424 28.0635C63.3396 27.5525 63.43 26.7971 63.5588 26.3274C63.5975 26.1783 63.6482 26.0331 63.7102 25.8934L62.2312 26.1921C62.2667 26.4157 62.287 26.6418 62.2921 26.8685C62.2972 27.0345 62.2832 27.2005 62.2503 27.3627C62.1494 27.8399 61.9023 27.8456 61.9023 27.8456C61.6344 28.3717 62.2434 28.8 62.2434 28.8Z" fill="#EBB376"/>
<path opacity="0.2" d="M62.2918 26.8688C62.2969 27.0348 62.2829 27.2007 62.25 27.363C62.8381 27.2784 63.2818 26.7711 63.562 26.3314C63.6007 26.1823 63.6513 26.0371 63.7133 25.8974L62.2343 26.1962C62.2685 26.4186 62.2877 26.6434 62.2918 26.8688Z" fill="black"/>
<path d="M65.7093 19.6631H66.1373C66.0416 19.1313 65.4048 18.4136 64.7105 18.6034C64.8333 18.4743 64.9679 18.359 65.1124 18.2595C64.863 18.2017 64.6041 18.212 64.3592 18.2894C64.1143 18.3668 63.8912 18.509 63.71 18.7029C63.1114 19.3681 62.7982 20.7472 63.322 21.2864C63.3898 21.356 63.4716 21.3353 63.5604 21.2545C64.011 21.9102 64.6426 21.3052 64.7523 21.2864C64.8619 21.2676 64.7784 21.6284 64.7784 21.6284C65.1403 21.6284 65.2273 21.1324 65.2273 21.1324L65.5753 21.6284C65.6892 21.499 65.7718 21.3413 65.8158 21.1693C65.8598 20.9972 65.8638 20.8161 65.8276 20.642L66.1408 20.8599C66.1982 19.9674 65.7093 19.6631 65.7093 19.6631Z" fill="#263238"/>
<path d="M60.5276 24.0712C60.5276 24.0712 59.8003 22.0044 61.6882 20.9842C63.5761 19.9639 64.6758 21.4107 64.7454 22.8086C64.815 24.2065 64.3974 25.4109 63.7814 25.6514C63.1655 25.8919 60.5276 24.0712 60.5276 24.0712Z" fill="#263238"/>
<path d="M62.0313 21.9498C60.7576 22.1489 60.4462 22.9493 60.5419 24.381C60.6619 26.1698 61.1943 27.3723 62.736 26.7447C64.8309 25.8936 64.1454 21.6209 62.0313 21.9498Z" fill="#EBB376"/>
<path d="M61.3542 24.1764C61.2802 24.3977 61.1815 24.6084 61.0602 24.8039C61.1047 24.8555 61.1617 24.8926 61.2248 24.9109C61.2879 24.9292 61.3544 24.9279 61.4169 24.9073L61.3542 24.1764Z" fill="#D58745"/>
<path d="M62.1183 23.9415C62.1305 24.0542 62.1983 24.1387 62.2679 24.1294C62.3375 24.12 62.3845 24.0204 62.3706 23.9058C62.3567 23.7912 62.2923 23.7085 62.221 23.7179C62.1496 23.7273 62.1061 23.8287 62.1183 23.9415Z" fill="#263238"/>
<path d="M62.2544 23.7213L62.0143 23.6536C62.0143 23.6536 62.1518 23.8471 62.2544 23.7213Z" fill="#263238"/>
<path d="M60.8115 24.0876C60.8254 24.2003 60.8915 24.2848 60.9611 24.2755C61.0307 24.2661 61.0777 24.1684 61.0655 24.0537C61.0534 23.9391 60.9855 23.8565 60.9159 23.8659C60.8463 23.8752 60.7993 23.9748 60.8115 24.0876Z" fill="#263238"/>
<path d="M60.9451 23.8628L60.7068 23.7952C60.7068 23.7952 60.8425 23.9943 60.9451 23.8628Z" fill="#263238"/>
<path d="M62.0049 22.9908C62.1039 22.9616 62.2077 22.9573 62.3084 22.9781C62.4092 22.999 62.5042 23.0445 62.5861 23.1111" stroke="#263238" stroke-width="0.707962" stroke-linecap="round" stroke-linejoin="round"/>
<path d="M61.0743 23.0753C60.9844 23.0645 60.8934 23.0759 60.8081 23.1084C60.7229 23.1409 60.6455 23.1938 60.5818 23.2632" stroke="#263238" stroke-width="0.707962" stroke-linecap="round" stroke-linejoin="round"/>
<path d="M63.7332 24.0503C63.7332 24.0503 62.9868 23.0132 62.9607 22.1282C62.9607 22.1282 60.2863 21.4086 60.5334 24.195C60.5334 24.195 59.9574 21.7769 62.1394 21.3767C64.3214 20.9764 64.7755 24.4411 63.782 25.6493C63.782 25.6511 64.1961 24.7004 63.7332 24.0503Z" fill="#263238"/>
<path d="M63.5642 24.3731C63.5551 24.2131 63.6048 24.0557 63.7026 23.935C63.8003 23.8143 63.9381 23.7402 64.0862 23.7286C64.4864 23.7136 64.7926 24.5591 63.8391 24.9217C63.7069 24.9743 63.6077 24.8372 63.5642 24.3731Z" fill="#EBB376"/>
<path d="M61.688 25.6243C61.688 25.6243 62.2379 25.6732 62.384 25.1245" stroke="#263238" stroke-width="0.707962" stroke-linecap="round" stroke-linejoin="round"/>
<path d="M58.8559 30.0724C58.8581 30.092 58.8565 30.1118 58.851 30.1306C58.8455 30.1494 58.8363 30.1666 58.8241 30.1813C58.8119 30.1959 58.7969 30.2075 58.7802 30.2153C58.7635 30.2231 58.7454 30.2269 58.7271 30.2265H57.316C57.2772 30.2238 57.2404 30.2072 57.2113 30.1793C57.1823 30.1513 57.1628 30.1137 57.1559 30.0724L56.841 27.0662C56.838 27.0456 56.839 27.0246 56.8439 27.0045C56.8488 26.9843 56.8575 26.9655 56.8694 26.9491C56.8813 26.9327 56.8962 26.9191 56.9132 26.9092C56.9301 26.8993 56.9488 26.8933 56.968 26.8914H58.3809C58.4216 26.8971 58.4594 26.9174 58.4881 26.9491C58.5168 26.9808 58.5348 27.0221 58.5392 27.0662L58.8559 30.0724Z" fill="#263238"/>
<path opacity="0.5" d="M58.3828 27.0415L58.7029 30.0816C58.7071 30.0993 58.7073 30.1179 58.7035 30.1358C58.6997 30.1537 58.6921 30.1703 58.6813 30.1844C58.6704 30.1985 58.6566 30.2097 58.6411 30.2169C58.6255 30.2242 58.6085 30.2274 58.5916 30.2262H57.3944C57.3144 30.2262 57.1665 30.1774 57.1578 30.0909L56.8376 27.0415C56.8376 26.9569 56.9664 26.8874 57.0464 26.8874H58.2436C58.2807 26.8889 58.3158 26.9057 58.3417 26.9344C58.3677 26.9631 58.3823 27.0014 58.3828 27.0415Z" fill="white"/>
<path d="M55.8954 30.3218L56.6332 28.9727C56.6266 28.6794 56.647 28.3861 56.6941 28.0971C56.7585 27.9299 57.4806 27.5541 57.6215 27.6105C57.7624 27.6669 57.8146 29.0573 57.6859 29.2451C57.5571 29.433 57.1065 29.6416 57.1065 29.6416L57.1378 29.9046L56.708 31.3101L55.8954 30.3218Z" fill="#EBB376"/>
<path d="M55.6006 30.1698L55.846 29.9049L57.0048 31.3103L56.8395 31.8665L55.6006 30.1698Z" fill="#8D1A1C"/>
<path opacity="0.2" d="M61.4723 32.4128C61.4723 32.4128 62.8347 35.7648 64.5938 36.8508C64.6147 36.1518 64.7121 33.6078 65.0497 32.1855C65.1402 31.8097 65.2481 31.3832 65.3786 30.921L64.8426 30.2258C64.8426 30.2258 64.4703 31.4677 64.6356 32.5443L62.5841 31.1897L61.4723 32.4128Z" fill="black"/>
<path d="M62.7916 31.6425L61.1177 30.2258C61.0232 29.9185 60.9068 29.6195 60.7697 29.3315C60.6688 29.1999 59.2037 28.6156 59.0784 28.6006C58.9531 28.5855 59.0784 29.897 59.2629 30.1206C59.4473 30.3442 60.627 30.7857 60.627 30.7857L62.3792 32.5669L62.7916 31.6425Z" fill="#EBB376"/>
<path d="M66.1377 28.4058C67.1208 28.9375 67.5575 34.9294 65.8506 35.9646C64.1436 36.9999 61.5963 32.3177 61.5963 32.3177L62.5881 31.1903C62.5881 31.1903 64.6639 33.0692 64.9162 32.8964C65.1685 32.7235 64.8814 30.8878 64.8814 30.8878C64.8814 30.8878 64.5891 30.3242 65.2033 29.4599C65.8175 28.5956 66.1377 28.4058 66.1377 28.4058Z" fill="#8D1A1C"/>
<path opacity="0.2" d="M66.1377 28.4058C67.1208 28.9375 67.5575 34.9294 65.8506 35.9646C64.1436 36.9999 61.5963 32.3177 61.5963 32.3177L62.5881 31.1903C62.5881 31.1903 64.6639 33.0692 64.9162 32.8964C65.1685 32.7235 64.8814 30.8878 64.8814 30.8878C64.8814 30.8878 64.5891 30.3242 65.2033 29.4599C65.8175 28.5956 66.1377 28.4058 66.1377 28.4058Z" fill="black"/>
<path d="M61.5752 32.7404L61.2794 32.5469L62.3913 30.7863L62.8002 31.0325L61.5752 32.7404Z" fill="#8D1A1C"/>
<path d="M60.1154 27.6877C60.1213 27.9055 60.1928 28.1153 60.319 28.2852C60.4122 28.4099 60.5232 28.5178 60.6479 28.6046C60.9663 28.832 61.4622 29.0311 62.2313 29.1401C62.6522 29.2052 63.0794 29.2096 63.5015 29.1533C63.686 29.1264 63.8682 29.0831 64.0461 29.0236C64.54 28.8702 64.9831 28.5678 65.3232 28.1518C65.0518 28.0766 64.7769 28.009 64.5002 27.9526C64.4283 27.9351 64.357 27.9201 64.2862 27.9075L64.0704 27.8662C63.3309 27.727 62.5831 27.6448 61.8328 27.6201C61.5614 27.6201 61.283 27.6201 61.0167 27.637C60.9002 27.637 60.7853 27.6483 60.6774 27.6576C60.4634 27.6595 60.2703 27.6746 60.1154 27.6877Z" fill="#EBB376"/>
<path d="M63.5105 29.1529C63.695 29.1261 63.8772 29.0827 64.0551 29.0233C64.101 28.6244 64.2595 28.2504 64.5092 27.9523C64.4373 27.9348 64.366 27.9197 64.2952 27.9072C63.8585 28.2285 63.6149 28.8166 63.5105 29.1529Z" fill="#263238"/>
<path d="M60.3193 28.2849C60.4125 28.4097 60.5235 28.5175 60.6482 28.6043C60.6601 28.2418 60.7908 27.8955 61.0171 27.6273C60.9005 27.6273 60.7857 27.6386 60.6778 27.648C60.5227 27.8345 60.4012 28.0504 60.3193 28.2849Z" fill="#263238"/>
<path d="M59.1983 16.6286H60.9888C61.1184 16.6286 61.2428 16.6843 61.3345 16.7833C61.4262 16.8823 61.4777 17.0166 61.4777 17.1566V18.6597C61.4777 18.7998 61.4262 18.9341 61.3345 19.0331C61.2428 19.1321 61.1184 19.1877 60.9888 19.1877H60.3311L60.0927 19.8096L59.856 19.1952H59.1983C59.0686 19.1952 58.9443 19.1396 58.8526 19.0406C58.7609 18.9416 58.7094 18.8073 58.7094 18.6673V17.1641C58.7084 17.0942 58.7204 17.0247 58.7446 16.9598C58.7687 16.8949 58.8046 16.8358 58.8501 16.7859C58.8956 16.7361 58.9498 16.6965 59.0096 16.6695C59.0694 16.6425 59.1335 16.6286 59.1983 16.6286Z" fill="#8D1A1C"/>
<path d="M60.7628 17.9365H60.4235C60.3601 17.6671 60.3332 17.3893 60.3434 17.1116C60.2857 17.1025 60.2271 17.1025 60.1694 17.1116C60.1137 17.1304 60.0946 17.7617 60.0946 17.7617C59.8805 17.7429 59.6654 17.7385 59.4508 17.7486C59.4299 17.7655 59.4264 17.8632 59.4247 17.9365C59.4244 17.956 59.4305 17.975 59.442 17.9902C59.4535 18.0053 59.4695 18.0156 59.4873 18.0191H59.5082L59.5395 18.6467C59.5408 18.6703 59.5503 18.6925 59.5662 18.7089C59.582 18.7252 59.6029 18.7346 59.6248 18.735H60.1938C60.2502 18.7349 60.3054 18.7165 60.3521 18.6824L60.4148 18.6373L60.7628 18.6636V17.9365Z" fill="#8D1A1C"/>
<path opacity="0.7" d="M60.7628 17.9365H60.4235C60.3601 17.6671 60.3332 17.3893 60.3434 17.1116C60.2857 17.1025 60.2271 17.1025 60.1694 17.1116C60.1137 17.1304 60.0946 17.7617 60.0946 17.7617C59.8805 17.7429 59.6654 17.7385 59.4508 17.7486C59.4299 17.7655 59.4264 17.8632 59.4247 17.9365C59.4244 17.956 59.4305 17.975 59.442 17.9902C59.4535 18.0053 59.4695 18.0156 59.4873 18.0191H59.5082L59.5395 18.6467C59.5408 18.6703 59.5503 18.6925 59.5662 18.7089C59.582 18.7252 59.6029 18.7346 59.6248 18.735H60.1938C60.2502 18.7349 60.3054 18.7165 60.3521 18.6824L60.4148 18.6373L60.7628 18.6636V17.9365Z" fill="white"/>
<path d="M54.9982 65.3409L56.0405 65.5363L56.4668 64.0294L56.8566 62.6465L55.6559 62.2012L55.3079 63.8622L54.9982 65.3409Z" fill="#E4897B"/>
<path d="M56.2752 65.5067C56.2926 65.3846 54.8658 65.2155 54.8658 65.2155C54.8658 65.2155 53.841 65.9896 52.964 66.0422C52.087 66.0948 52.4664 66.7205 53.4181 66.8896L55.7497 67.3255C56.4109 67.4533 56.0925 66.775 56.2752 65.5067Z" fill="#263238"/>
<path d="M53.9401 65.4012C53.9243 65.3767 53.9158 65.3475 53.9158 65.3176C53.9158 65.2877 53.9243 65.2585 53.9401 65.234C53.9491 65.2135 53.9619 65.1952 53.9778 65.1803C53.9936 65.1654 54.0122 65.1543 54.0323 65.1476C54.1394 65.1221 54.251 65.1299 54.3542 65.1701C54.2515 65.0837 54.1628 64.9822 54.1802 64.9052C54.1802 64.8544 54.2237 64.8169 54.2933 64.7981C54.3503 64.7818 54.411 64.7905 54.4621 64.8225C54.6361 64.9428 54.7005 65.3129 54.7022 65.3298C54.704 65.3359 54.704 65.3425 54.7022 65.3486V65.358C54.7022 65.358 54.7022 65.358 54.6935 65.3693C54.6896 65.3707 54.6853 65.3707 54.6813 65.3693C54.5147 65.4209 54.343 65.4512 54.1698 65.4595C54.0891 65.4731 54.0067 65.4522 53.9401 65.4012ZM54.0515 65.2227C54.0408 65.2261 54.031 65.2318 54.0226 65.2396C54.0142 65.2474 54.0074 65.257 54.0027 65.2678C53.9784 65.3242 53.994 65.3411 54.0027 65.3486C54.0601 65.4181 54.3316 65.3843 54.5561 65.3298C54.4003 65.2442 54.2256 65.2071 54.0515 65.2227ZM54.2985 64.8751C54.2776 64.8751 54.2429 64.8939 54.2411 64.9146C54.2324 64.9841 54.4151 65.1382 54.61 65.2603C54.5854 65.1195 54.5195 64.9911 54.4221 64.8939C54.3982 64.8773 54.3705 64.8682 54.342 64.8676C54.3273 64.8684 54.3127 64.8709 54.2985 64.8751Z" fill="#8D1A1C"/>
<path opacity="0.2" d="M55.3007 63.8984L56.463 64.06L56.8545 62.6621L55.6539 62.2093L55.3007 63.8984Z" fill="black"/>
<path d="M61.9548 65.8147H63.011L63.185 64.2514L63.3434 62.8178L62.0871 62.6017L62.0157 64.3022L61.9548 65.8147Z" fill="#E4897B"/>
<path d="M63.2386 65.7416C63.2386 65.6195 61.8031 65.7153 61.8031 65.7153C61.8031 65.7153 60.9209 66.666 60.0631 66.8802C59.2053 67.0944 59.6855 67.6318 60.6425 67.6318H63.0089C63.6841 67.6412 63.2665 67.0249 63.2386 65.7416Z" fill="#263238"/>
<path d="M60.9227 66.0684C60.9018 66.0489 60.8872 66.0227 60.8809 65.9937C60.8747 65.9646 60.8771 65.9342 60.8879 65.9068C60.8932 65.8847 60.9027 65.8641 60.9159 65.8462C60.9291 65.8284 60.9456 65.8138 60.9644 65.8034C61.0657 65.7586 61.1767 65.7456 61.2846 65.7658C61.168 65.7001 61.0671 65.6193 61.0619 65.5404C61.0567 65.4615 61.0915 65.4446 61.1558 65.4126C61.1849 65.3977 61.2167 65.39 61.2489 65.39C61.2811 65.39 61.3129 65.3977 61.342 65.4126C61.5369 65.4972 61.657 65.8523 61.6622 65.8673C61.6656 65.8776 61.6656 65.8889 61.6622 65.8993C61.659 65.904 61.6548 65.9078 61.65 65.9105C61.4628 66.0088 61.2616 66.0723 61.0549 66.0984C61.0089 66.1057 60.962 66.0951 60.9227 66.0684ZM61.001 65.8805C60.9913 65.8858 60.9827 65.8932 60.9758 65.9022C60.969 65.9113 60.9639 65.9218 60.961 65.9331C60.947 65.9932 60.961 66.0082 60.961 66.0139C61.0288 66.0721 61.2916 65.9894 61.5021 65.8936C61.3398 65.8382 61.1667 65.8311 61.001 65.8729V65.8805ZM61.1889 65.4915C61.1698 65.5028 61.1367 65.5216 61.1384 65.5423C61.1384 65.6118 61.3472 65.7301 61.5595 65.8147C61.5113 65.6802 61.4248 65.5657 61.3124 65.4878C61.2941 65.4799 61.2747 65.4755 61.255 65.4746C61.2326 65.4725 61.21 65.4757 61.1889 65.484V65.4915Z" fill="#8D1A1C"/>
<path opacity="0.2" d="M62.0152 64.3376L63.1844 64.2831L63.3428 62.8326L62.0865 62.609L62.0152 64.3376Z" fill="black"/>
<path d="M55.203 63.0208L56.9151 63.3402C58.6447 58.7745 59.8731 54.9622 60.7431 51.7981C61.2112 50.0921 61.5748 48.5739 61.855 47.2268L61.7697 52.1983V63.4924H63.5097C67.7449 42.088 64.7469 37.2028 64.7469 37.2028L59.6817 36.2841C59.482 37.2755 59.3408 38.2796 59.2589 39.2903L59.0292 41.0659L57.0543 51.8996L55.203 63.0208Z" fill="#8D1A1C"/>
<path opacity="0.6" d="M55.203 63.0208L56.9151 63.3402C58.6447 58.7745 59.8731 54.9622 60.7431 51.7981C61.2112 50.0921 61.5748 48.5739 61.855 47.2268L61.7697 52.1983V63.4924H63.5097C67.7449 42.088 64.7469 37.2028 64.7469 37.2028L59.6817 36.2841C59.482 37.2755 59.3408 38.2796 59.2589 39.2903L59.0292 41.0659L57.0543 51.8996L55.203 63.0208Z" fill="white"/>
<path d="M57.1856 63.1163L55.0611 62.3685L55.0889 63.3268L56.8463 63.9224L57.1856 63.1163Z" fill="#8D1A1C"/>
<path d="M63.7416 63.2198L61.5283 62.876L61.7128 63.8154L63.5398 64.0766L63.7416 63.2198Z" fill="#8D1A1C"/>
<path d="M64.7478 36.4003V37.2007L59.587 36.7817V35.8329L64.7478 36.4003Z" fill="#263238"/>
<path d="M60.7034 36.9377L61.8309 37.0448L61.9075 36.1354L60.7799 36.0283L60.7034 36.9377Z" fill="white"/>
<path d="M62.948 37.445L63.2038 37.46L63.2699 36.0771L63.0141 36.0621L62.948 37.445Z" fill="#8D1A1C"/>
<path opacity="0.6" d="M62.948 37.445L63.2038 37.46L63.2699 36.0771L63.0141 36.0621L62.948 37.445Z" fill="white"/>
<path d="M59.7951 37.0782L60.0509 37.0914L60.117 35.7085L59.8613 35.6954L59.7951 37.0782Z" fill="#8D1A1C"/>
<path opacity="0.6" d="M59.7951 37.0782L60.0509 37.0914L60.117 35.7085L59.8613 35.6954L59.7951 37.0782Z" fill="white"/>
<path opacity="0.2" d="M60.7416 51.7982C61.2096 50.0921 61.5733 48.574 61.8534 47.2268C61.8297 45.6336 61.7205 44.0433 61.5263 42.4638C61.5263 42.4638 60.7851 48.6078 60.7416 51.7982Z" fill="black"/>
</svg>
