<svg width="80" height="64" viewBox="0 0 80 64" fill="none" xmlns="http://www.w3.org/2000/svg">
<path d="M80 56.2416H0V56.2846H80V56.2416Z" fill="#EBEBEB"/>
<path d="M71.9836 59.0059H66.6844V59.0488H71.9836V59.0059Z" fill="#EBEBEB"/>
<path d="M52.9958 59.4733H51.6054V59.5163H52.9958V59.4733Z" fill="#EBEBEB"/>
<path d="M66.5251 57.4125H63.4547V57.4554H66.5251V57.4125Z" fill="#EBEBEB"/>
<path d="M15.3041 57.7008H8.39368V57.7438H15.3041V57.7008Z" fill="#EBEBEB"/>
<path d="M17.743 57.7008H16.7302V57.7438H17.743V57.7008Z" fill="#EBEBEB"/>
<path d="M36.0235 58.4258H21.0347V58.4688H36.0235V58.4258Z" fill="#EBEBEB"/>
<path d="M37.9202 48.5806H7.02577C6.78375 48.5802 6.55178 48.4766 6.38079 48.2927C6.2098 48.1088 6.11377 47.8596 6.11377 47.5997V0.9723C6.11588 0.71394 6.21284 0.466906 6.3836 0.284856C6.55436 0.102806 6.78512 0.000442583 7.02577 0H37.9202C38.1625 0 38.3949 0.103343 38.5662 0.287296C38.7375 0.471248 38.8338 0.720741 38.8338 0.980889V47.5997C38.8338 47.8599 38.7375 48.1094 38.5662 48.2933C38.3949 48.4773 38.1625 48.5806 37.9202 48.5806ZM7.02577 0.034357C6.79435 0.0348121 6.57256 0.133831 6.40908 0.30968C6.24559 0.485529 6.15377 0.723839 6.15377 0.9723V47.5997C6.15377 47.8482 6.24559 48.0865 6.40908 48.2624C6.57256 48.4382 6.79435 48.5372 7.02577 48.5377H37.9202C38.1517 48.5372 38.3737 48.4383 38.5374 48.2625C38.7012 48.0867 38.7933 47.8484 38.7938 47.5997V0.9723C38.7933 0.723681 38.7012 0.485376 38.5374 0.309575C38.3737 0.133775 38.1517 0.0348111 37.9202 0.034357H7.02577Z" fill="#EBEBEB"/>
<path d="M72.5299 48.5806H41.6339C41.3917 48.5802 41.1596 48.4767 40.9883 48.2928C40.8171 48.109 40.7207 47.8597 40.7203 47.5997V0.9723C40.7228 0.713784 40.8201 0.466751 40.9911 0.284749C41.1622 0.102746 41.3931 0.000437756 41.6339 0H72.5299C72.7702 0.000894051 73.0006 0.103457 73.171 0.285459C73.3414 0.467461 73.4382 0.714237 73.4403 0.9723V47.5997C73.4403 47.8593 73.3445 48.1083 73.1738 48.2921C73.0032 48.476 72.7716 48.5797 72.5299 48.5806ZM41.6339 0.034357C41.4023 0.0348111 41.1804 0.133775 41.0166 0.309575C40.8529 0.485376 40.7607 0.723681 40.7603 0.9723V47.5997C40.7607 47.8484 40.8529 48.0867 41.0166 48.2625C41.1804 48.4383 41.4023 48.5372 41.6339 48.5377H72.5299C72.7614 48.5372 72.9834 48.4383 73.1471 48.2625C73.3109 48.0867 73.403 47.8484 73.4035 47.5997V0.9723C73.403 0.723681 73.3109 0.485376 73.1471 0.309575C72.9834 0.133775 72.7614 0.0348111 72.5299 0.034357H41.6339Z" fill="#EBEBEB"/>
<path d="M56.787 28.3567H52.7134V30.2171H56.787V28.3567Z" fill="#FAFAFA"/>
<path d="M51.8594 28.3567H47.7858V30.2171H51.8594V28.3567Z" fill="#FAFAFA"/>
<path d="M46.9299 28.3567H42.8563V30.2171H46.9299V28.3567Z" fill="#FAFAFA"/>
<path d="M59.2527 30.9467H55.1791V32.8071H59.2527V30.9467Z" fill="#FAFAFA"/>
<path d="M54.3232 30.9467H50.2496V32.8071H54.3232V30.9467Z" fill="#FAFAFA"/>
<path d="M49.3937 30.9467H45.3201V32.8071H49.3937V30.9467Z" fill="#FAFAFA"/>
<path d="M44.4642 30.9467H40.3906V32.8071H44.4642V30.9467Z" fill="#FAFAFA"/>
<path d="M61.7165 33.5375H57.6429V35.3979H61.7165V33.5375Z" fill="#FAFAFA"/>
<path d="M66.888 38.8908H62.8144V40.7513H66.888V38.8908Z" fill="#FAFAFA"/>
<path d="M56.787 33.5375H52.7134V35.3979H56.787V33.5375Z" fill="#FAFAFA"/>
<path d="M51.8594 33.5375H47.7858V35.3979H51.8594V33.5375Z" fill="#FAFAFA"/>
<path d="M46.9299 33.5375H42.8563V35.3979H46.9299V33.5375Z" fill="#FAFAFA"/>
<path d="M41.9995 33.5375H37.9259V35.3979H41.9995V33.5375Z" fill="#FAFAFA"/>
<path d="M59.2527 36.1283H55.1791V37.9888H59.2527V36.1283Z" fill="#FAFAFA"/>
<path d="M54.3232 36.1283H50.2496V37.9888H54.3232V36.1283Z" fill="#FAFAFA"/>
<path d="M49.3937 36.1283H45.3201V37.9888H49.3937V36.1283Z" fill="#FAFAFA"/>
<path d="M44.4642 36.1283H40.3906V37.9888H44.4642V36.1283Z" fill="#FAFAFA"/>
<path d="M30.0368 1.96335H25.9632V3.82377H30.0368V1.96335Z" fill="#FAFAFA"/>
<path d="M25.1083 1.96335H21.0347V3.82377H25.1083V1.96335Z" fill="#FAFAFA"/>
<path d="M32.5025 4.55417H28.4289V6.41459H32.5025V4.55417Z" fill="#FAFAFA"/>
<path d="M27.573 4.55417H23.4994V6.41459H27.573V4.55417Z" fill="#FAFAFA"/>
<path d="M17.715 4.55417H13.6414V6.41459H17.715V4.55417Z" fill="#FAFAFA"/>
<path d="M12.7855 4.55417H8.71188V6.41459H12.7855V4.55417Z" fill="#FAFAFA"/>
<path d="M30.0368 7.14499H25.9632V9.00541H30.0368V7.14499Z" fill="#FAFAFA"/>
<path d="M25.1083 7.14499H21.0347V9.00541H25.1083V7.14499Z" fill="#FAFAFA"/>
<path d="M15.2502 7.14499H11.1766V9.00541H15.2502V7.14499Z" fill="#FAFAFA"/>
<path d="M12.4863 15.8542H8.41272V17.7146H12.4863V15.8542Z" fill="#FAFAFA"/>
<path d="M17.4158 15.8542H13.3422V17.7146H17.4158V15.8542Z" fill="#FAFAFA"/>
<path d="M14.952 13.2633H10.8784V15.1238H14.952V13.2633Z" fill="#FAFAFA"/>
<path d="M34.0688 12.8833H29.9952V14.7438H34.0688V12.8833Z" fill="#FAFAFA"/>
<path d="M29.1403 12.8833H25.0667V14.7438H29.1403V12.8833Z" fill="#FAFAFA"/>
<path d="M31.605 15.475H27.5314V17.3354H31.605V15.475Z" fill="#FAFAFA"/>
<path d="M50.8829 2.07584H46.8093V3.93626H50.8829V2.07584Z" fill="#FAFAFA"/>
<path d="M45.9553 2.07584H41.8817V3.93626H45.9553V2.07584Z" fill="#FAFAFA"/>
<path d="M53.3486 4.66583H49.275V6.52626H53.3486V4.66583Z" fill="#FAFAFA"/>
<path d="M48.4191 4.66583H44.3455V6.52626H48.4191V4.66583Z" fill="#FAFAFA"/>
<path d="M65.9315 3.13501H61.8578V4.99544H65.9315V3.13501Z" fill="#FAFAFA"/>
<path d="M68.3953 5.72501H64.3217V7.58543H68.3953V5.72501Z" fill="#FAFAFA"/>
<path d="M67.4244 27.9942H63.3508V29.8546H67.4244V27.9942Z" fill="#FAFAFA"/>
<path d="M63.4657 5.72501H59.3922V7.58543H63.4657V5.72501Z" fill="#FAFAFA"/>
<path d="M43.4896 4.66583H39.416V6.52626H43.4896V4.66583Z" fill="#FAFAFA"/>
<path d="M55.8124 7.25583H51.7388V9.11625H55.8124V7.25583Z" fill="#FAFAFA"/>
<path d="M50.8829 7.25583H46.8093V9.11625H50.8829V7.25583Z" fill="#FAFAFA"/>
<path d="M45.9553 7.25583H41.8817V9.11625H45.9553V7.25583Z" fill="#FAFAFA"/>
<path d="M53.3486 9.84668H49.275V11.7071H53.3486V9.84668Z" fill="#FAFAFA"/>
<path d="M48.4191 9.84668H44.3455V11.7071H48.4191V9.84668Z" fill="#FAFAFA"/>
<path d="M17.2443 25.2992H13.1707V27.1596H17.2443V25.2992Z" fill="#FAFAFA"/>
<path d="M12.3158 25.2992H8.24219V27.1596H12.3158V25.2992Z" fill="#FAFAFA"/>
<path d="M29.5681 27.8892H25.4945V29.7496H29.5681V27.8892Z" fill="#FAFAFA"/>
<path d="M19.7091 27.8892H15.6355V29.7496H19.7091V27.8892Z" fill="#FAFAFA"/>
<path d="M14.7805 27.8892H10.7069V29.7496H14.7805V27.8892Z" fill="#FAFAFA"/>
<path d="M32.0319 30.4792H27.9583V32.3396H32.0319V30.4792Z" fill="#FAFAFA"/>
<path d="M27.1043 30.4792H23.0307V32.3396H27.1043V30.4792Z" fill="#FAFAFA"/>
<path d="M17.2443 30.4792H13.1707V32.3396H17.2443V30.4792Z" fill="#FAFAFA"/>
<path d="M12.3158 30.4792H8.24219V32.3396H12.3158V30.4792Z" fill="#FAFAFA"/>
<path d="M19.7091 33.07H15.6355V34.9304H19.7091V33.07Z" fill="#FAFAFA"/>
<path d="M14.7805 33.07H10.7069V34.9304H14.7805V33.07Z" fill="#FAFAFA"/>
<path d="M29.0784 38.2225H25.0048V40.0829H29.0784V38.2225Z" fill="#FAFAFA"/>
<path d="M24.1489 38.2225H20.0753V40.0829H24.1489V38.2225Z" fill="#FAFAFA"/>
<path d="M18.0942 42.5883H14.0206V44.4487H18.0942V42.5883Z" fill="#FAFAFA"/>
<path d="M13.1647 42.5883H9.09109V44.4487H13.1647V42.5883Z" fill="#FAFAFA"/>
<path d="M30.417 45.1791H26.3434V47.0396H30.417V45.1791Z" fill="#FAFAFA"/>
<path d="M26.6146 40.8125H22.541V42.6729H26.6146V40.8125Z" fill="#FAFAFA"/>
<path d="M15.6285 45.1791H11.5549V47.0396H15.6285V45.1791Z" fill="#FAFAFA"/>
<path d="M32.8817 47.77H28.8081V49.6304H32.8817V47.77Z" fill="#FAFAFA"/>
<path d="M27.9522 47.77H23.8786V49.6304H27.9522V47.77Z" fill="#FAFAFA"/>
<path d="M23.0227 47.77H18.9491V49.6304H23.0227V47.77Z" fill="#FAFAFA"/>
<path d="M30.417 50.36H26.3434V52.2204H30.417V50.36Z" fill="#FAFAFA"/>
<path d="M25.4884 50.36H21.4148V52.2204H25.4884V50.36Z" fill="#FAFAFA"/>
<path d="M20.5589 50.36H16.4853V52.2204H20.5589V50.36Z" fill="#FAFAFA"/>
<path d="M55.819 42.47H51.7454V44.3304H55.819V42.47Z" fill="#FAFAFA"/>
<path d="M50.8895 42.47H46.8159V44.3304H50.8895V42.47Z" fill="#FAFAFA"/>
<path d="M45.96 42.47H41.8864V44.3304H45.96V42.47Z" fill="#FAFAFA"/>
<path d="M58.2838 45.0609H54.2102V46.9213H58.2838V45.0609Z" fill="#FAFAFA"/>
<path d="M53.3533 45.0609H49.2797V46.9213H53.3533V45.0609Z" fill="#FAFAFA"/>
<path d="M48.4257 45.0609H44.3521V46.9213H48.4257V45.0609Z" fill="#FAFAFA"/>
<path d="M43.4962 45.0609H39.4226V46.9213H43.4962V45.0609Z" fill="#FAFAFA"/>
<path d="M50.8895 47.6508H46.8159V49.5112H50.8895V47.6508Z" fill="#FAFAFA"/>
<path d="M45.96 47.6508H41.8864V49.5112H45.96V47.6508Z" fill="#FAFAFA"/>
<path d="M53.3533 50.2416H49.2797V52.1021H53.3533V50.2416Z" fill="#FAFAFA"/>
<path d="M48.4257 50.2416H44.3521V52.1021H48.4257V50.2416Z" fill="#FAFAFA"/>
<path d="M43.4962 50.2416H39.4226V52.1021H43.4962V50.2416Z" fill="#FAFAFA"/>
<path d="M58.1014 24.2942H69.335V9.25615L58.1014 9.25615V24.2942Z" fill="#F5F5F5"/>
<path d="M67.2766 22.3323C65.8622 23.4214 65.859 24.0175 64.8446 22.7978C63.8302 21.5782 63.1262 20.0991 61.2878 20.8721C59.4494 21.6452 58.4238 19.649 59.6014 17.8161C60.779 15.9832 60.347 13.4803 59.6014 12.2812C58.8558 11.0821 59.203 9.46909 60.3918 10.3727C61.5806 11.2763 63.1902 11.2745 64.3406 10.6389C65.491 10.0033 66.8366 8.42636 66.7406 11.1801C66.6446 13.9338 67.9566 13.0697 68.2958 14.4611C68.635 15.8526 66.9966 14.9765 67.283 18.0205C67.5694 21.0645 68.531 21.3652 67.2766 22.3323Z" fill="#E0E0E0"/>
<path d="M60.357 22.7956C62.077 23.615 62.8066 24.0187 63.6114 22.1943C64.4162 20.37 66.0402 17.9409 67.213 18.6143C68.3858 19.2877 68.0306 16.2231 65.773 16.9927C63.5154 17.7623 62.981 17.3723 62.1858 15.5308C61.3906 13.6893 61.581 12.6672 60.6274 13.3371C59.6738 14.0071 60.989 16.0754 60.4482 17.7451C59.9074 19.4149 58.813 22.0621 60.357 22.7956Z" fill="#EBEBEB"/>
<path d="M66.3858 13.4833C65.6914 14.9126 66.6274 17.1956 64.8178 16.2319C63.0082 15.2682 63.7634 11.5937 62.205 12.4526C60.6466 13.3116 61.701 15.8454 60.3714 15.9708C59.0418 16.0962 59.1842 10.4737 61.1266 10.3586C63.069 10.2435 64.7426 12.0953 65.3266 11.4546C65.9106 10.8138 67.5426 9.35364 67.8866 11.166C68.2306 12.9783 66.9186 12.3874 66.3858 13.4833Z" fill="#EBEBEB"/>
<path d="M55.1383 13.2858H45.1991V27.5972H55.1383V13.2858Z" fill="#F5F5F5"/>
<path d="M53.7342 26.1594C53.4462 26.7332 46.3342 23.8541 46.5342 23.2391C46.7342 22.6241 52.091 22.1002 52.563 21.2584C53.035 20.4167 46.8798 19.2898 46.9838 18.7246C47.0878 18.1594 52.9198 18.6576 53.0286 18.089C53.1374 17.5204 46.8926 16.5309 47.3086 15.684C47.7246 14.8371 52.9086 15.4418 53.483 16.8865C54.0574 18.3312 50.9134 18.2367 50.8238 19.197C50.7342 20.1573 54.1694 20.3445 53.7342 21.8872C53.299 23.4298 48.7838 22.3166 49.2046 23.6617C49.6254 25.0068 54.2782 25.0806 53.7342 26.1594Z" fill="#E6E6E6"/>
<path d="M48.2939 26.0839C47.3659 26.3175 46.2923 24.5378 47.3947 24.9346C48.4971 25.3314 49.2219 25.8502 48.2939 26.0839Z" fill="#EBEBEB"/>
<path d="M52.4802 23.8301C52.4338 24.3265 53.8034 24.2389 53.8178 23.8301C53.8322 23.4212 52.5314 23.313 52.4802 23.8301Z" fill="#EBEBEB"/>
<path d="M47.3093 20.8406C47.8117 21.7287 49.2853 21.3457 49.2693 20.9351C49.2533 20.5245 46.7685 19.8821 47.3093 20.8406Z" fill="#EBEBEB"/>
<path d="M64.4192 50.4098C64.4448 50.2381 65.0032 46.086 63.8816 44.6551C63.77 44.5041 63.6286 44.3816 63.4676 44.2963C63.3066 44.2111 63.1299 44.1652 62.9504 44.162C60.6864 44.1054 60.376 46.0517 60.3744 46.0774L60.6416 46.1221C60.6512 46.0517 60.92 44.4043 62.944 44.4524C63.0857 44.4525 63.2254 44.487 63.3529 44.5534C63.4804 44.6197 63.5922 44.7161 63.68 44.8354C64.7248 46.1685 64.16 50.3205 64.16 50.3635L64.4192 50.4098Z" fill="#EBEBEB"/>
<path d="M64.557 50.2213L64.8274 50.2127C64.8274 50.1749 64.7378 46.3905 66.4738 45.6089C68.1762 44.8427 68.941 46.418 68.973 46.485L69.2146 46.3544C69.205 46.3356 68.3074 44.4648 66.3698 45.3409C64.461 46.1998 64.5522 50.0581 64.557 50.2213Z" fill="#EBEBEB"/>
<path d="M64.5482 50.5185C64.5482 50.4584 64.5642 44.4734 65.6506 42.7229C66.6954 41.0429 68.3786 41.8348 68.449 41.864L68.561 41.5995C68.5418 41.5909 66.5994 40.6701 65.4266 42.558C64.2938 44.3807 64.2778 50.2643 64.2778 50.5134L64.5482 50.5185Z" fill="#EBEBEB"/>
<path d="M62.6266 44.3069C62.6266 44.3069 63.6154 44.6968 63.321 45.621C63.0266 46.5452 59.9002 48.0655 59.9002 48.0655C59.9002 48.0655 58.5914 46.7772 59.793 44.6814C60.9946 42.5856 62.5994 43.6455 62.6266 44.3069Z" fill="#E0E0E0"/>
<path d="M65.7011 42.408C65.7011 42.408 64.9987 42.3273 65.0611 41.8686C65.1235 41.41 67.7811 40.2281 69.3651 42.1383C69.3651 42.1383 68.3571 44.0005 66.8963 44.028C65.4355 44.0555 65.7011 42.408 65.7011 42.408Z" fill="#E0E0E0"/>
<path d="M66.4205 45.4745C66.4205 45.4745 65.9405 45.0554 66.4589 44.8492C66.9773 44.6431 69.5469 44.7032 69.5741 47.426C69.5741 47.426 66.5869 47.9585 66.2141 46.9193C65.8413 45.88 66.4205 45.4745 66.4205 45.4745Z" fill="#E0E0E0"/>
<path d="M62.0957 55.969H66.7309L67.2317 50.5183H61.5949L62.0957 55.969Z" fill="#EBEBEB"/>
<path d="M61.3488 51.1216H67.48V49.9192H61.3488V51.1216Z" fill="#E0E0E0"/>
<path d="M40.0003 64.0005C57.1335 64.0005 71.0227 63.1299 71.0227 62.0559C71.0227 60.982 57.1335 60.1113 40.0003 60.1113C22.8671 60.1113 8.97787 60.982 8.97787 62.0559C8.97787 63.1299 22.8671 64.0005 40.0003 64.0005Z" fill="#F5F5F5"/>
<path d="M39.8118 8.25955H15.3638C14.4448 8.25955 13.6998 9.05942 13.6998 10.0461V60.1127C13.6998 61.0994 14.4448 61.8992 15.3638 61.8992H39.8118C40.7308 61.8992 41.4758 61.0994 41.4758 60.1127V10.0461C41.4758 9.05942 40.7308 8.25955 39.8118 8.25955Z" fill="#263238"/>
<path d="M40.5376 10.0579V60.006C40.5376 60.1027 40.5197 60.1985 40.485 60.2878C40.4502 60.377 40.3992 60.458 40.3351 60.5259C40.2709 60.5938 40.1948 60.6474 40.1112 60.6835C40.0276 60.7196 39.9381 60.7374 39.848 60.7361H15.2528C15.1709 60.7373 15.0897 60.7207 15.0139 60.6873C14.9382 60.654 14.8695 60.6045 14.8119 60.5419C14.7544 60.4794 14.7092 60.405 14.6791 60.3232C14.6491 60.2414 14.6347 60.154 14.6368 60.0661V9.99782C14.6338 9.92029 14.6451 9.84289 14.6701 9.77005C14.695 9.69722 14.7331 9.63039 14.7822 9.57341C14.8312 9.51643 14.8903 9.47041 14.9559 9.438C15.0216 9.40559 15.0926 9.38743 15.1648 9.38455H21.3136C21.3997 9.3858 21.4834 9.4148 21.5539 9.4678C21.6243 9.52081 21.6783 9.59535 21.7088 9.68174L21.9648 10.3534C21.9956 10.4395 22.0497 10.5137 22.1201 10.5663C22.1906 10.619 22.2742 10.6478 22.36 10.6489H32.8288C32.9141 10.6482 32.9973 10.6202 33.0677 10.5685C33.1381 10.5168 33.1925 10.4437 33.224 10.3586L33.4784 9.68346C33.5093 9.59687 33.5636 9.52217 33.6343 9.46891C33.705 9.41566 33.7889 9.38628 33.8752 9.38455H39.9344C40.0971 9.3895 40.2515 9.46284 40.3643 9.58879C40.4771 9.71474 40.5394 9.88322 40.5376 10.0579Z" fill="#EC2226" fill-opacity="0.63"/>
<path opacity="0.5" d="M40.5397 12.5045H14.6373V57.9278H40.5397V12.5045Z" fill="white"/>
<path opacity="0.6" d="M17.4909 11.3962H17.8109V10.9375H17.4909V11.3962Z" fill="white"/>
<path opacity="0.6" d="M16.9697 11.3962H17.2897V10.7847H16.9697V11.3962Z" fill="white"/>
<path opacity="0.6" d="M16.4486 11.3962H16.7686V10.6335H16.4486V11.3962Z" fill="white"/>
<path opacity="0.6" d="M15.9265 11.3979H16.2465V10.4823H15.9265V11.3979Z" fill="white"/>
<path opacity="0.6" d="M37.6078 10.7729H37.4174V11.2316H37.6078V10.7729Z" fill="white"/>
<path opacity="0.6" d="M37.7372 11.3979H39.2476V10.606H37.7372V11.3979Z" fill="white"/>
<path opacity="0.6" d="M27.5828 9.44841C27.5828 9.52384 27.562 9.59757 27.523 9.66029C27.4839 9.723 27.4285 9.77188 27.3636 9.80074C27.2987 9.82961 27.2272 9.83716 27.1583 9.82245C27.0894 9.80773 27.0261 9.77141 26.9765 9.71808C26.9268 9.66474 26.893 9.59679 26.8793 9.52281C26.8656 9.44884 26.8726 9.37216 26.8995 9.30247C26.9264 9.23279 26.9719 9.17323 27.0303 9.13132C27.0887 9.08942 27.1574 9.06705 27.2276 9.06705C27.2743 9.06682 27.3206 9.07653 27.3638 9.09562C27.407 9.1147 27.4462 9.14278 27.4793 9.17824C27.5123 9.2137 27.5385 9.25583 27.5562 9.3022C27.574 9.34858 27.583 9.39827 27.5828 9.44841Z" fill="white"/>
<path opacity="0.6" d="M28.3025 9.44849C28.3025 9.49674 28.2891 9.5439 28.2642 9.58402C28.2392 9.62413 28.2037 9.6554 28.1622 9.67386C28.1207 9.69232 28.075 9.69715 28.0309 9.68774C27.9869 9.67833 27.9464 9.65509 27.9146 9.62098C27.8828 9.58687 27.8612 9.5434 27.8524 9.49608C27.8437 9.44876 27.8482 9.39972 27.8653 9.35514C27.8825 9.31057 27.9117 9.27247 27.949 9.24567C27.9864 9.21887 28.0303 9.20456 28.0753 9.20456C28.1355 9.20456 28.1933 9.23026 28.2359 9.27601C28.2785 9.32175 28.3025 9.3838 28.3025 9.44849Z" fill="white"/>
<path d="M34.7168 15.1104H17.1568C16.4772 15.1104 15.9264 15.7018 15.9264 16.4314C15.9264 17.161 16.4772 17.7524 17.1568 17.7524H34.7168C35.3963 17.7524 35.9472 17.161 35.9472 16.4314C35.9472 15.7018 35.3963 15.1104 34.7168 15.1104Z" fill="white"/>
<path d="M34.2404 16.9641C34.1389 16.9637 34.039 16.9366 33.9496 16.885C33.8603 16.8334 33.7841 16.7589 33.7279 16.6682C33.6717 16.5775 33.6372 16.4733 33.6274 16.3648C33.6176 16.2564 33.6329 16.147 33.6719 16.0464C33.7108 15.9458 33.7723 15.857 33.8508 15.788C33.9293 15.719 34.0224 15.6717 34.122 15.6505C34.2215 15.6293 34.3244 15.6348 34.4215 15.6665C34.5186 15.6981 34.607 15.755 34.6788 15.832C34.7653 15.9248 34.8241 16.0432 34.8479 16.172C34.8717 16.3008 34.8594 16.4343 34.8124 16.5555C34.7655 16.6768 34.686 16.7804 34.5842 16.8531C34.4823 16.9258 34.3627 16.9644 34.2404 16.9641ZM34.2404 15.8097C34.1502 15.811 34.0625 15.8407 33.988 15.8952C33.9135 15.9496 33.8556 16.0264 33.8215 16.116C33.7874 16.2056 33.7786 16.3039 33.7961 16.3988C33.8137 16.4937 33.8569 16.581 33.9204 16.6497C33.9738 16.7066 34.0395 16.7485 34.1116 16.7717C34.1837 16.7948 34.2601 16.7985 34.3338 16.7824C34.4076 16.7663 34.4765 16.7309 34.5345 16.6794C34.5925 16.6279 34.6377 16.5618 34.6662 16.4869C34.6947 16.4121 34.7056 16.3309 34.6979 16.2505C34.6901 16.1701 34.6641 16.093 34.622 16.0261C34.5798 15.9591 34.523 15.9043 34.4564 15.8665C34.3898 15.8288 34.3156 15.8092 34.2404 15.8097Z" fill="#EC2226" fill-opacity="0.63"/>
<path d="M35.0175 17.2237C34.9962 17.2236 34.9757 17.215 34.9599 17.1997L34.5615 16.7702C34.5539 16.7625 34.5478 16.7532 34.5436 16.7428C34.5394 16.7325 34.5373 16.7213 34.5373 16.7101C34.5373 16.6988 34.5394 16.6877 34.5436 16.6773C34.5478 16.667 34.5539 16.6577 34.5615 16.6499C34.5689 16.6419 34.5778 16.6355 34.5875 16.6311C34.5973 16.6268 34.6077 16.6245 34.6183 16.6245C34.6289 16.6245 34.6393 16.6268 34.6491 16.6311C34.6588 16.6355 34.6677 16.6419 34.6751 16.6499L35.0735 17.0777C35.081 17.0857 35.087 17.0952 35.091 17.1056C35.0951 17.1161 35.0972 17.1273 35.0972 17.1387C35.0972 17.15 35.0951 17.1612 35.091 17.1717C35.087 17.1822 35.081 17.1917 35.0735 17.1997C35.0581 17.2146 35.0383 17.2232 35.0175 17.2237Z" fill="#EC2226" fill-opacity="0.63"/>
<path opacity="0.2" d="M38.8052 15.1104H37.0708C36.8702 15.1104 36.7076 15.285 36.7076 15.5003V17.3625C36.7076 17.5778 36.8702 17.7524 37.0708 17.7524H38.8052C39.0058 17.7524 39.1684 17.5778 39.1684 17.3625V15.5003C39.1684 15.285 39.0058 15.1104 38.8052 15.1104Z" fill="black"/>
<path d="M37.5192 15.8047C37.5192 15.8386 37.5098 15.8718 37.4923 15.9001C37.4747 15.9283 37.4497 15.9504 37.4204 15.9634C37.3912 15.9764 37.359 15.9798 37.328 15.9731C37.297 15.9665 37.2685 15.9502 37.2461 15.9261C37.2237 15.9021 37.2085 15.8715 37.2023 15.8382C37.1961 15.8048 37.1993 15.7703 37.2114 15.7389C37.2235 15.7075 37.244 15.6807 37.2703 15.6618C37.2966 15.6429 37.3276 15.6329 37.3592 15.6329C37.4017 15.6329 37.4424 15.651 37.4724 15.6832C37.5024 15.7154 37.5192 15.7591 37.5192 15.8047Z" fill="white"/>
<path d="M38.5753 16.6067C38.6654 16.6067 38.7385 16.5282 38.7385 16.4314C38.7385 16.3347 38.6654 16.2562 38.5753 16.2562C38.4851 16.2562 38.4121 16.3347 38.4121 16.4314C38.4121 16.5282 38.4851 16.6067 38.5753 16.6067Z" fill="white"/>
<path d="M37.4177 17.3133C37.5078 17.3133 37.5809 17.2349 37.5809 17.1381C37.5809 17.0413 37.5078 16.9629 37.4177 16.9629C37.3276 16.9629 37.2545 17.0413 37.2545 17.1381C37.2545 17.2349 37.3276 17.3133 37.4177 17.3133Z" fill="white"/>
<path d="M37.4375 17.1752L37.3975 17.1013L38.4887 16.4331L37.3383 15.8335L37.3735 15.7562L38.6599 16.4279L37.4375 17.1752Z" fill="white"/>
<path opacity="0.6" d="M40.5397 20.0871H14.6373V57.9277H40.5397V20.0871Z" fill="white"/>
<path opacity="0.2" d="M27.4901 28.7532L29.3105 26.7987L27.4901 24.8443L25.6698 26.7987L27.4901 28.7532Z" fill="white"/>
<path opacity="0.2" d="M17.602 29.9271H21.9252C22.3396 29.9271 22.6756 29.5664 22.6756 29.1214V24.4798C22.6756 24.0348 22.3396 23.6741 21.9252 23.6741H17.602C17.1876 23.6741 16.8516 24.0348 16.8516 24.4798V29.1214C16.8516 29.5664 17.1876 29.9271 17.602 29.9271Z" fill="black"/>
<path opacity="0.2" d="M17.1658 31.7634H22.3626C22.4474 31.7634 22.5288 31.7272 22.5888 31.6627C22.6488 31.5983 22.6826 31.5109 22.6826 31.4198C22.6826 31.3287 22.6488 31.2413 22.5888 31.1769C22.5288 31.1124 22.4474 31.0762 22.3626 31.0762H17.1658C17.0809 31.0762 16.9995 31.1124 16.9395 31.1769C16.8795 31.2413 16.8458 31.3287 16.8458 31.4198C16.8458 31.5109 16.8795 31.5983 16.9395 31.6627C16.9995 31.7272 17.0809 31.7634 17.1658 31.7634Z" fill="black"/>
<path opacity="0.2" d="M25.3287 41.6079H29.6519C30.0664 41.6079 30.4023 41.2472 30.4023 40.8022V36.1606C30.4023 35.7157 30.0664 35.355 29.6519 35.355H25.3287C24.9143 35.355 24.5783 35.7157 24.5783 36.1606V40.8022C24.5783 41.2472 24.9143 41.6079 25.3287 41.6079Z" fill="black"/>
<path opacity="0.2" d="M24.8916 43.445H30.0804C30.1652 43.445 30.2466 43.4088 30.3066 43.3444C30.3666 43.28 30.4004 43.1926 30.4004 43.1014C30.4004 43.0103 30.3666 42.9229 30.3066 42.8585C30.2466 42.7941 30.1652 42.7579 30.0804 42.7579H24.8916C24.8067 42.7579 24.7253 42.7941 24.6653 42.8585C24.6053 42.9229 24.5716 43.0103 24.5716 43.1014C24.5716 43.1926 24.6053 43.28 24.6653 43.3444C24.7253 43.4088 24.8067 43.445 24.8916 43.445Z" fill="black"/>
<path opacity="0.2" d="M17.602 41.6079H21.9252C22.3396 41.6079 22.6756 41.2472 22.6756 40.8022V36.1606C22.6756 35.7157 22.3396 35.355 21.9252 35.355H17.602C17.1876 35.355 16.8516 35.7157 16.8516 36.1606V40.8022C16.8516 41.2472 17.1876 41.6079 17.602 41.6079Z" fill="black"/>
<path opacity="0.2" d="M17.1658 43.445H22.3626C22.4474 43.445 22.5288 43.4088 22.5888 43.3444C22.6488 43.28 22.6826 43.1926 22.6826 43.1014C22.6826 43.0103 22.6488 42.9229 22.5888 42.8585C22.5288 42.7941 22.4474 42.7579 22.3626 42.7579H17.1658C17.0809 42.7579 16.9995 42.7941 16.9395 42.8585C16.8795 42.9229 16.8458 43.0103 16.8458 43.1014C16.8458 43.1926 16.8795 43.28 16.9395 43.3444C16.9995 43.4088 17.0809 43.445 17.1658 43.445Z" fill="black"/>
<path opacity="0.2" d="M18.8152 36.7179H20.7128L21.66 38.4804L20.7128 40.2446H18.8152L17.868 38.4804L18.8152 36.7179Z" fill="white"/>
<path opacity="0.2" d="M29.016 37.317V39.8199H25.9616L29.016 37.317Z" fill="white"/>
<path opacity="0.2" d="M33.0545 29.9271H37.3777C37.7922 29.9271 38.1281 29.5664 38.1281 29.1214V24.4798C38.1281 24.0348 37.7922 23.6741 37.3777 23.6741H33.0545C32.6401 23.6741 32.3041 24.0348 32.3041 24.4798V29.1214C32.3041 29.5664 32.6401 29.9271 33.0545 29.9271Z" fill="black"/>
<path opacity="0.2" d="M32.6183 31.7634H37.8135C37.8984 31.7634 37.9798 31.7272 38.0398 31.6627C38.0998 31.5983 38.1335 31.5109 38.1335 31.4198C38.1335 31.3287 38.0998 31.2413 38.0398 31.1769C37.9798 31.1124 37.8984 31.0762 37.8135 31.0762H32.6183C32.5334 31.0762 32.452 31.1124 32.392 31.1769C32.332 31.2413 32.2983 31.3287 32.2983 31.4198C32.2983 31.5109 32.332 31.5983 32.392 31.6627C32.452 31.7272 32.5334 31.7634 32.6183 31.7634Z" fill="black"/>
<path opacity="0.2" d="M35.681 28.4265C36.5591 28.204 37.1029 27.2594 36.8957 26.3166C36.6884 25.3738 35.8086 24.79 34.9305 25.0125C34.0524 25.235 33.5086 26.1796 33.7159 27.1224C33.9231 28.0652 34.8029 28.649 35.681 28.4265Z" fill="white"/>
<path opacity="0.2" d="M19.0577 24.9637C19.0577 24.9637 21.2977 27.6813 21.2273 27.6813C21.1569 27.6813 18.2977 28.3169 18.2977 28.3169L19.0577 24.9637Z" fill="white"/>
<path opacity="0.2" d="M25.3287 29.9271H29.6519C30.0664 29.9271 30.4023 29.5664 30.4023 29.1214V24.4798C30.4023 24.0348 30.0664 23.6741 29.6519 23.6741H25.3287C24.9143 23.6741 24.5783 24.0348 24.5783 24.4798V29.1214C24.5783 29.5664 24.9143 29.9271 25.3287 29.9271Z" fill="black"/>
<path opacity="0.2" d="M24.8916 31.7634H30.0804C30.1652 31.7634 30.2466 31.7272 30.3066 31.6627C30.3666 31.5983 30.4004 31.5109 30.4004 31.4198C30.4004 31.3287 30.3666 31.2413 30.3066 31.1769C30.2466 31.1124 30.1652 31.0762 30.0804 31.0762H24.8916C24.8067 31.0762 24.7253 31.1124 24.6653 31.1769C24.6053 31.2413 24.5716 31.3287 24.5716 31.4198C24.5716 31.5109 24.6053 31.5983 24.6653 31.6627C24.7253 31.7272 24.8067 31.7634 24.8916 31.7634Z" fill="black"/>
<g opacity="0.2">
<path d="M17.8031 16.4353V16.7239H17.7407V16.4421C17.7437 16.4213 17.7422 16.4 17.7365 16.3799C17.7307 16.3598 17.7207 16.3413 17.7073 16.326C17.6939 16.3106 17.6774 16.2987 17.6591 16.2911C17.6408 16.2836 17.6211 16.2806 17.6015 16.2824C17.5798 16.2824 17.5583 16.2871 17.5384 16.2962C17.5184 16.3054 17.5004 16.3188 17.4855 16.3357C17.4705 16.3526 17.4589 16.3725 17.4513 16.3944C17.4438 16.4162 17.4404 16.4395 17.4415 16.4628V16.7239H17.3775V16.0213H17.4415V16.3202C17.4603 16.29 17.4862 16.2657 17.5165 16.2497C17.5469 16.2337 17.5806 16.2266 17.6143 16.2291C17.6398 16.2273 17.6654 16.2314 17.6893 16.2412C17.7132 16.2509 17.7349 16.2661 17.7528 16.2857C17.7707 16.3053 17.7845 16.3288 17.7932 16.3546C17.8019 16.3804 17.8053 16.4079 17.8031 16.4353Z" fill="black"/>
<path d="M18.2177 16.6926C18.1904 16.7171 18.1557 16.73 18.1201 16.7286C18.1019 16.7308 18.0835 16.7285 18.0662 16.7221C18.0489 16.7156 18.0331 16.7051 18.0201 16.6912C18.0071 16.6774 17.9971 16.6607 17.9909 16.6422C17.9846 16.6237 17.9823 16.6039 17.9841 16.5843V16.282H17.9025V16.2253H17.9841V16.1171H18.0465V16.2253H18.1889V16.282H18.0465V16.5792C18.045 16.5912 18.0461 16.6035 18.0496 16.615C18.0531 16.6266 18.059 16.6371 18.0669 16.6458C18.0747 16.6546 18.0843 16.6613 18.0949 16.6656C18.1055 16.6698 18.1168 16.6714 18.1281 16.6702C18.1532 16.671 18.1777 16.6618 18.1969 16.6445L18.2177 16.6926Z" fill="black"/>
<path d="M18.5594 16.6926C18.5311 16.7162 18.4961 16.7289 18.4602 16.7286C18.4421 16.7308 18.4237 16.7286 18.4065 16.7221C18.3892 16.7156 18.3736 16.7051 18.3607 16.6912C18.3478 16.6774 18.3379 16.6606 18.3319 16.6421C18.3259 16.6236 18.3238 16.6038 18.3258 16.5843V16.282H18.2426V16.2253H18.3258V16.1171H18.3994V16.2253H18.5402V16.282H18.3994V16.5792C18.3976 16.5911 18.3985 16.6034 18.4018 16.6149C18.4051 16.6265 18.4108 16.637 18.4186 16.6458C18.4263 16.6546 18.4358 16.6614 18.4463 16.6656C18.4569 16.6699 18.4682 16.6714 18.4794 16.6702C18.5045 16.671 18.529 16.6618 18.5482 16.6445L18.5594 16.6926Z" fill="black"/>
<path d="M19.1468 16.4741C19.1486 16.5074 19.1439 16.5407 19.1331 16.572C19.1222 16.6032 19.1054 16.6317 19.0837 16.6556C19.0621 16.6795 19.036 16.6984 19.0072 16.7109C18.9784 16.7234 18.9475 16.7293 18.9164 16.7283C18.8817 16.7295 18.8473 16.7211 18.8165 16.704C18.7857 16.6868 18.7595 16.6615 18.7404 16.6304V16.907H18.678V16.2198H18.7372V16.3195C18.7559 16.2868 18.7823 16.26 18.8138 16.2419C18.8453 16.2238 18.8807 16.215 18.9164 16.2164C18.9478 16.2153 18.979 16.2214 19.008 16.2341C19.037 16.2468 19.0633 16.2659 19.085 16.2902C19.1067 16.3145 19.1234 16.3434 19.1341 16.3751C19.1447 16.4068 19.1491 16.4405 19.1468 16.4741ZM19.0844 16.4741C19.0838 16.4375 19.0731 16.402 19.0537 16.3719C19.0344 16.3419 19.0072 16.3187 18.9755 16.3051C18.9439 16.2916 18.9093 16.2884 18.876 16.296C18.8427 16.3035 18.8122 16.3214 18.7883 16.3475C18.7645 16.3736 18.7483 16.4067 18.7419 16.4426C18.7355 16.4784 18.7391 16.5156 18.7523 16.5493C18.7655 16.583 18.7876 16.6118 18.8159 16.632C18.8443 16.6522 18.8776 16.663 18.9116 16.663C18.9346 16.6633 18.9575 16.6585 18.9787 16.6491C19 16.6396 19.0193 16.6257 19.0354 16.608C19.0516 16.5904 19.0642 16.5694 19.0726 16.5464C19.0811 16.5234 19.0851 16.4988 19.0844 16.4741Z" fill="black"/>
<path d="M19.2106 16.6628L19.2394 16.6096C19.286 16.6457 19.3419 16.6655 19.3994 16.6663C19.4874 16.6663 19.5242 16.6336 19.5242 16.5838C19.5242 16.455 19.2234 16.5563 19.2234 16.3605C19.2234 16.2781 19.289 16.2179 19.4058 16.2179C19.462 16.218 19.5172 16.234 19.5658 16.2643L19.5386 16.3193C19.498 16.2899 19.4499 16.2749 19.401 16.2763C19.3178 16.2763 19.281 16.3107 19.281 16.3588C19.281 16.4928 19.5818 16.3914 19.5818 16.5821C19.5818 16.668 19.5114 16.7247 19.3898 16.7247C19.3256 16.7238 19.2632 16.7023 19.2106 16.6628Z" fill="black"/>
<path d="M19.667 16.2736C19.6668 16.267 19.6678 16.2603 19.6701 16.2541C19.6723 16.2478 19.6757 16.2421 19.68 16.2373C19.6843 16.2325 19.6895 16.2287 19.6953 16.2261C19.701 16.2234 19.7072 16.2221 19.7134 16.2221C19.7261 16.2221 19.7383 16.2275 19.7473 16.2372C19.7563 16.2469 19.7614 16.26 19.7614 16.2736C19.7614 16.2873 19.7563 16.3004 19.7473 16.3101C19.7383 16.3198 19.7261 16.3252 19.7134 16.3252C19.7072 16.3252 19.701 16.3238 19.6953 16.3212C19.6895 16.3186 19.6843 16.3148 19.68 16.31C19.6757 16.3052 19.6723 16.2995 19.6701 16.2932C19.6678 16.287 19.6668 16.2803 19.667 16.2736ZM19.667 16.6773C19.6668 16.6707 19.6678 16.664 19.6701 16.6577C19.6723 16.6515 19.6757 16.6458 19.68 16.641C19.6843 16.6362 19.6895 16.6324 19.6953 16.6298C19.701 16.6271 19.7072 16.6258 19.7134 16.6258C19.7198 16.6256 19.7261 16.6267 19.732 16.6292C19.7379 16.6317 19.7433 16.6355 19.7478 16.6404C19.7523 16.6452 19.7559 16.651 19.7582 16.6573C19.7605 16.6637 19.7616 16.6705 19.7614 16.6773C19.7614 16.691 19.7563 16.7041 19.7473 16.7138C19.7383 16.7234 19.7261 16.7289 19.7134 16.7289C19.7072 16.7289 19.701 16.7275 19.6953 16.7249C19.6895 16.7223 19.6843 16.7185 19.68 16.7137C19.6757 16.7089 19.6723 16.7032 19.6701 16.6969C19.6678 16.6907 19.6668 16.684 19.667 16.6773Z" fill="black"/>
<path d="M20.1163 15.9263H20.1723L19.8827 16.8178H19.8251L20.1163 15.9263Z" fill="black"/>
<path d="M20.3529 15.9263H20.4105L20.1193 16.8178H20.0633L20.3529 15.9263Z" fill="black"/>
<path d="M21.1731 16.4351V16.7237H21.1107V16.4419C21.1107 16.3372 21.0611 16.2822 20.9779 16.2822C20.9557 16.2802 20.9334 16.2835 20.9126 16.292C20.8917 16.3005 20.873 16.3139 20.8576 16.3312C20.8423 16.3485 20.8307 16.3693 20.8238 16.392C20.817 16.4148 20.8149 16.4389 20.8179 16.4626V16.7237H20.7555V16.4419C20.7555 16.3372 20.7059 16.2822 20.6211 16.2822C20.599 16.2805 20.5768 16.2841 20.5561 16.2927C20.5354 16.3013 20.5168 16.3147 20.5015 16.3319C20.4862 16.3491 20.4747 16.3698 20.4677 16.3924C20.4607 16.415 20.4584 16.4389 20.4611 16.4626V16.7237H20.3987V16.2255H20.4595V16.32C20.477 16.2891 20.5021 16.2639 20.532 16.2472C20.5619 16.2306 20.5955 16.2231 20.6291 16.2255C20.6626 16.2227 20.6961 16.2313 20.7249 16.2501C20.7536 16.2689 20.7761 16.297 20.7891 16.3303C20.8078 16.2968 20.8347 16.2693 20.8668 16.2509C20.8989 16.2324 20.9351 16.2236 20.9715 16.2255C20.9984 16.2207 21.026 16.2227 21.0521 16.2314C21.0781 16.2401 21.1019 16.2553 21.1215 16.2757C21.1412 16.296 21.156 16.3211 21.165 16.3488C21.1739 16.3765 21.1767 16.406 21.1731 16.4351Z" fill="black"/>
<path d="M21.7246 16.2254L21.4926 16.7837C21.4542 16.8816 21.4046 16.9126 21.3326 16.9126C21.2905 16.9138 21.2497 16.8971 21.219 16.8662L21.2494 16.8164C21.2601 16.8284 21.273 16.838 21.2873 16.8445C21.3017 16.851 21.3171 16.8543 21.3326 16.8542C21.3742 16.8542 21.403 16.8336 21.4286 16.7717L21.4494 16.7236L21.243 16.2254H21.307L21.483 16.6497L21.6574 16.2254H21.7246Z" fill="black"/>
<path d="M21.8145 16.0213H21.8769V16.7239H21.8145V16.0213Z" fill="black"/>
<path d="M22.0364 16.0694C22.0369 16.0565 22.0419 16.0443 22.0506 16.0353C22.0592 16.0263 22.0708 16.0213 22.0828 16.0213C22.0886 16.0211 22.0944 16.0221 22.0999 16.0243C22.1053 16.0266 22.1102 16.0299 22.1144 16.0343C22.1186 16.0386 22.1219 16.0438 22.1242 16.0495C22.1265 16.0553 22.1276 16.0614 22.1276 16.0677C22.1279 16.0741 22.1269 16.0806 22.1247 16.0866C22.1225 16.0927 22.1193 16.0982 22.1151 16.1028C22.1109 16.1075 22.1059 16.1112 22.1004 16.1137C22.0948 16.1162 22.0889 16.1175 22.0828 16.1175C22.0708 16.1175 22.0592 16.1125 22.0506 16.1035C22.0419 16.0946 22.0369 16.0823 22.0364 16.0694ZM22.0508 16.2257H22.1132V16.7239H22.0508V16.2257Z" fill="black"/>
<path d="M22.7196 16.4347V16.7233H22.6572V16.4416C22.6602 16.4208 22.6587 16.3995 22.6529 16.3794C22.6471 16.3592 22.6371 16.3408 22.6237 16.3254C22.6103 16.31 22.5939 16.2981 22.5755 16.2906C22.5572 16.283 22.5375 16.28 22.518 16.2818C22.4963 16.2818 22.4748 16.2865 22.4549 16.2957C22.4349 16.3048 22.4169 16.3183 22.4019 16.3351C22.387 16.352 22.3753 16.372 22.3678 16.3938C22.3602 16.4157 22.3569 16.4389 22.358 16.4622V16.7233H22.2956V16.2251H22.3564V16.3196C22.3749 16.288 22.401 16.2623 22.432 16.2454C22.463 16.2284 22.4977 16.2208 22.5324 16.2234C22.5582 16.2218 22.5841 16.2262 22.6081 16.2363C22.6322 16.2465 22.6539 16.2622 22.6718 16.2823C22.6896 16.3025 22.7031 16.3265 22.7114 16.3529C22.7196 16.3792 22.7224 16.4071 22.7196 16.4347Z" fill="black"/>
<path d="M23.0572 16.4748L22.9484 16.5813V16.7239H22.8796V16.0213H22.9436V16.492L23.2204 16.2205H23.2972L23.0988 16.425L23.3164 16.7187H23.2396L23.0572 16.4748Z" fill="black"/>
<path d="M23.5964 15.9263H23.654L23.3596 16.8178H23.3036L23.5964 15.9263Z" fill="black"/>
</g>
<path opacity="0.2" d="M45.4632 23.1151V37.545C45.4632 37.7641 45.3821 37.9743 45.2377 38.1293C45.0934 38.2842 44.8977 38.3713 44.6936 38.3713H19.4136C19.2094 38.3713 19.0137 38.2842 18.8694 38.1293C18.725 37.9743 18.644 37.7641 18.644 37.545V23.1151C18.644 23.0067 18.6639 22.8993 18.7026 22.7992C18.7413 22.699 18.798 22.608 18.8695 22.5314C18.9409 22.4548 19.0258 22.3941 19.1192 22.3528C19.2125 22.3115 19.3126 22.2903 19.4136 22.2905H44.6936C44.7945 22.2903 44.8946 22.3115 44.9879 22.3528C45.0813 22.3941 45.1662 22.4548 45.2376 22.5314C45.3091 22.608 45.3658 22.699 45.4045 22.7992C45.4432 22.8993 45.4632 23.0067 45.4632 23.1151Z" fill="black"/>
<path d="M46.5826 21.7409V36.1708C46.5826 36.2793 46.5627 36.3868 46.524 36.487C46.4854 36.5873 46.4287 36.6784 46.3572 36.7551C46.2858 36.8318 46.2009 36.8927 46.1075 36.9342C46.0142 36.9757 45.9141 36.9971 45.813 36.9971H20.533C20.3289 36.9971 20.1332 36.91 19.9888 36.7551C19.8445 36.6001 19.7634 36.39 19.7634 36.1708V21.7409C19.7634 21.6325 19.7833 21.5251 19.822 21.425C19.8607 21.3248 19.9175 21.2338 19.9889 21.1573C20.0604 21.0807 20.1453 21.02 20.2386 20.9786C20.332 20.9373 20.432 20.9161 20.533 20.9164H45.813C45.914 20.9161 46.0141 20.9373 46.1074 20.9786C46.2008 21.02 46.2856 21.0807 46.3571 21.1573C46.4286 21.2338 46.4853 21.3248 46.524 21.425C46.5627 21.5251 46.5826 21.6325 46.5826 21.7409Z" fill="#EC2226" fill-opacity="0.63"/>
<path opacity="0.5" d="M46.5826 23.7055V36.1805C46.5826 36.289 46.5627 36.3964 46.524 36.4967C46.4854 36.5969 46.4287 36.688 46.3572 36.7648C46.2858 36.8415 46.2009 36.9024 46.1075 36.9439C46.0142 36.9854 45.9141 37.0068 45.813 37.0068H20.533C20.3289 37.0068 20.1332 36.9197 19.9888 36.7648C19.8445 36.6098 19.7634 36.3996 19.7634 36.1805V23.7055H46.5826Z" fill="white"/>
<path d="M39.578 25.9272H21.3812V29.2839H39.578V25.9272Z" fill="white"/>
<path d="M23.27 27.5627V28.0419H23.1292V27.5798C23.1292 27.4081 23.054 27.3359 22.9212 27.3359C22.8872 27.3331 22.853 27.3384 22.8212 27.3515C22.7893 27.3646 22.7606 27.3851 22.737 27.4116C22.7134 27.438 22.6956 27.4698 22.6849 27.5045C22.6741 27.5393 22.6707 27.5761 22.6748 27.6125V28.0419H22.534V26.8755H22.6748V27.3273C22.7084 27.2853 22.7505 27.2521 22.798 27.2303C22.8454 27.2086 22.8969 27.1989 22.9484 27.2019C22.9928 27.1979 23.0375 27.2047 23.0792 27.2216C23.1209 27.2386 23.1585 27.2653 23.1893 27.2999C23.2202 27.3345 23.2434 27.376 23.2574 27.4215C23.2713 27.4669 23.2756 27.5152 23.27 27.5627Z" fill="#263238"/>
<path d="M23.9654 28.0001C23.917 28.0405 23.8569 28.0612 23.7958 28.0585C23.7628 28.0626 23.7295 28.0587 23.6981 28.047C23.6668 28.0354 23.6384 28.0163 23.6148 27.9912C23.5913 27.9661 23.5734 27.9357 23.5623 27.9021C23.5513 27.8686 23.5474 27.8328 23.551 27.7974V27.3405H23.4182V27.2168H23.551V27.0347H23.6902V27.2168H23.9126V27.3405H23.6902V27.7923C23.6877 27.8104 23.6891 27.8289 23.6942 27.8464C23.6993 27.8639 23.708 27.8799 23.7197 27.8933C23.7314 27.9067 23.7458 27.917 23.7617 27.9236C23.7776 27.9302 23.7947 27.9329 23.8118 27.9314C23.8517 27.9323 23.8907 27.9184 23.9222 27.8919L23.9654 28.0001Z" fill="#263238"/>
<path d="M24.5529 28.0001C24.5043 28.04 24.4444 28.0606 24.3833 28.0585C24.3503 28.0626 24.3169 28.0586 24.2855 28.047C24.2542 28.0353 24.2256 28.0163 24.202 27.9912C24.1784 27.9662 24.1602 27.9358 24.149 27.9022C24.1377 27.8687 24.1336 27.8329 24.1369 27.7974V27.3405H23.9993V27.2168H24.1305V27.0347H24.2713V27.2168H24.4937V27.3405H24.2713V27.7923C24.2689 27.8104 24.2702 27.8289 24.2754 27.8464C24.2805 27.8639 24.2892 27.8799 24.3009 27.8933C24.3126 27.9067 24.3269 27.917 24.3429 27.9236C24.3588 27.9302 24.3759 27.9329 24.3929 27.9314C24.4328 27.9321 24.4718 27.9181 24.5033 27.8919L24.5529 28.0001Z" fill="#263238"/>
<path d="M25.5256 27.6245C25.5286 27.6808 25.5205 27.7372 25.5019 27.79C25.4833 27.8427 25.4547 27.8908 25.4177 27.9309C25.3808 27.971 25.3364 28.0024 25.2875 28.023C25.2386 28.0436 25.1861 28.053 25.1336 28.0505C25.0817 28.0532 25.0299 28.0422 24.9828 28.0186C24.9357 27.9949 24.8946 27.9593 24.8632 27.9148V28.3442H24.7224V27.207H24.8568V27.3393C24.8891 27.2938 24.9311 27.2574 24.9793 27.2332C25.0275 27.209 25.0805 27.1976 25.1336 27.2002C25.1861 27.1974 25.2384 27.2065 25.2874 27.2269C25.3363 27.2473 25.3807 27.2786 25.4177 27.3186C25.4546 27.3586 25.4833 27.4065 25.5019 27.4592C25.5205 27.5119 25.5286 27.5682 25.5256 27.6245ZM25.3832 27.6245C25.3807 27.5697 25.3633 27.517 25.3332 27.4728C25.3031 27.4286 25.2615 27.3949 25.2137 27.3758C25.1659 27.3567 25.1139 27.353 25.0642 27.3654C25.0144 27.3777 24.9692 27.4054 24.934 27.445C24.8988 27.4847 24.8752 27.5345 24.8661 27.5884C24.857 27.6423 24.8629 27.6979 24.883 27.7483C24.903 27.7987 24.9364 27.8416 24.979 27.8718C25.0215 27.902 25.0714 27.9181 25.1224 27.9182C25.158 27.919 25.1933 27.9119 25.2262 27.8972C25.259 27.8825 25.2886 27.8607 25.3132 27.8331C25.3377 27.8054 25.3566 27.7726 25.3687 27.7367C25.3807 27.7008 25.3857 27.6625 25.3832 27.6245Z" fill="#263238"/>
<path d="M25.6219 27.9522L25.6811 27.8336C25.7621 27.8898 25.8566 27.9196 25.9531 27.9195C26.0827 27.9195 26.1371 27.8783 26.1371 27.8061C26.1371 27.6206 25.6475 27.7821 25.6475 27.4505C25.6475 27.3011 25.7723 27.2015 25.9675 27.2015C26.0657 27.1995 26.1627 27.225 26.2491 27.2753L26.1899 27.3956C26.1227 27.351 26.0448 27.3283 25.9659 27.3303C25.8427 27.3303 25.7835 27.3784 25.7835 27.4437C25.7835 27.6412 26.2747 27.4797 26.2747 27.8044C26.2747 27.9539 26.1451 28.0501 25.9403 28.0501C25.8274 28.0523 25.7165 28.0182 25.6219 27.9522Z" fill="#263238"/>
<path d="M26.3872 27.3137C26.3868 27.2996 26.389 27.2856 26.3939 27.2724C26.3987 27.2593 26.406 27.2474 26.4153 27.2374C26.4246 27.2274 26.4357 27.2196 26.4479 27.2144C26.4602 27.2092 26.4733 27.2068 26.4864 27.2072C26.4994 27.207 26.5122 27.2096 26.5242 27.2149C26.5362 27.2202 26.547 27.2281 26.556 27.2381C26.565 27.2481 26.572 27.26 26.5765 27.273C26.5811 27.286 26.5831 27.2999 26.5824 27.3137C26.5829 27.3277 26.5807 27.3415 26.5761 27.3545C26.5715 27.3675 26.5645 27.3794 26.5556 27.3895C26.5466 27.3995 26.5359 27.4076 26.524 27.4132C26.5122 27.4188 26.4994 27.4218 26.4864 27.422C26.4733 27.422 26.4602 27.4192 26.4481 27.4137C26.436 27.4082 26.4249 27.4002 26.4157 27.3902C26.4065 27.3801 26.3992 27.3682 26.3943 27.355C26.3894 27.3419 26.387 27.3279 26.3872 27.3137ZM26.3872 27.9476C26.3868 27.9335 26.389 27.9195 26.3939 27.9063C26.3987 27.8932 26.406 27.8812 26.4153 27.8713C26.4246 27.8613 26.4357 27.8534 26.4479 27.8483C26.4602 27.8431 26.4733 27.8406 26.4864 27.8411C26.4994 27.8409 26.5122 27.8435 26.5242 27.8488C26.5362 27.8541 26.547 27.862 26.556 27.872C26.565 27.882 26.572 27.8938 26.5765 27.9069C26.5811 27.9199 26.5831 27.9338 26.5824 27.9476C26.5831 27.9616 26.5811 27.9756 26.5766 27.9887C26.572 28.0018 26.565 28.0137 26.5561 28.0239C26.5471 28.034 26.5363 28.0421 26.5243 28.0475C26.5123 28.053 26.4995 28.0559 26.4864 28.0559C26.4728 28.0561 26.4592 28.0534 26.4466 28.0477C26.4341 28.042 26.4227 28.0335 26.4134 28.0228C26.404 28.0122 26.3969 27.9995 26.3924 27.9856C26.3879 27.9718 26.3861 27.9571 26.3872 27.9425V27.9476Z" fill="#263238"/>
<path d="M27.1648 26.7188H27.2912L26.8112 28.1979H26.6832L27.1648 26.7188Z" fill="#263238"/>
<path d="M27.5805 26.7188H27.7069L27.2269 28.1979H27.1005L27.5805 26.7188Z" fill="#263238"/>
<path d="M28.7566 28.0416V27.2394L28.3854 27.9076H28.3198L27.9502 27.2445V28.0416H27.8094V26.9422H27.9294L28.3566 27.7152L28.7774 26.9422H28.8974V28.0416H28.7566Z" fill="#263238"/>
<path d="M29.599 27.6569V28.0382H29.4534V27.6569L29.047 26.9405H29.207L29.527 27.5194L29.8566 26.9405H30.0022L29.599 27.6569Z" fill="#263238"/>
<path d="M30.1321 26.9422H30.2793V27.9042H30.8329V28.0416H30.1321V26.9422Z" fill="#263238"/>
<path d="M31.001 26.9422H31.1482V28.0416H31.001V26.9422Z" fill="#263238"/>
<path d="M32.3355 26.9422V28.0416H32.2155L31.6011 27.2205V28.0416H31.4555V26.9422H31.5755L32.1883 27.7616V26.9422H32.3355Z" fill="#263238"/>
<path d="M32.9758 27.552L32.7886 27.7565V28.0416H32.6398V26.9422H32.7854V27.5555L33.3422 26.9422H33.5022L33.0654 27.4369L33.5294 28.0416H33.3582L32.9758 27.552Z" fill="#263238"/>
<path d="M33.9931 26.7188H34.1195L33.6395 28.1979H33.5115L33.9931 26.7188Z" fill="#263238"/>
<path d="M21.9573 22.486H22.0437V22.8296C21.9567 22.9073 21.8463 22.9482 21.7333 22.9447C21.6749 22.9485 21.6163 22.9395 21.5613 22.9181C21.5063 22.8967 21.4559 22.8635 21.4133 22.8205C21.3707 22.7774 21.3367 22.7255 21.3135 22.6678C21.2903 22.6101 21.2783 22.548 21.2783 22.4851C21.2783 22.4223 21.2903 22.3601 21.3135 22.3025C21.3367 22.2448 21.3707 22.1928 21.4133 22.1498C21.4559 22.1068 21.5063 22.0735 21.5613 22.0522C21.6163 22.0308 21.6749 22.0218 21.7333 22.0256C21.7922 22.0215 21.8513 22.0311 21.9065 22.0536C21.9617 22.0761 22.0117 22.1111 22.0533 22.1562L21.9973 22.2163C21.9642 22.1808 21.9247 22.153 21.8812 22.1347C21.8377 22.1164 21.7912 22.1079 21.7445 22.1098C21.6966 22.1063 21.6485 22.1134 21.6033 22.1307C21.5581 22.148 21.5166 22.1751 21.4815 22.2103C21.4465 22.2455 21.4185 22.288 21.3994 22.3353C21.3803 22.3826 21.3704 22.4336 21.3704 22.4851C21.3704 22.5367 21.3803 22.5877 21.3994 22.6349C21.4185 22.6822 21.4465 22.7248 21.4815 22.76C21.5166 22.7952 21.5581 22.8223 21.6033 22.8395C21.6485 22.8568 21.6966 22.864 21.7445 22.8605C21.8227 22.8628 21.8995 22.8382 21.9637 22.79L21.9573 22.486Z" fill="white"/>
<path d="M22.828 22.627H22.2984C22.3002 22.6602 22.3081 22.6927 22.3217 22.7226C22.3352 22.7525 22.3541 22.7792 22.3773 22.8012C22.4005 22.8232 22.4275 22.8401 22.4568 22.8509C22.4861 22.8617 22.5171 22.8662 22.548 22.8641C22.5844 22.8654 22.6206 22.858 22.6541 22.8426C22.6875 22.8272 22.7174 22.804 22.7416 22.7748L22.7896 22.8349C22.7439 22.8857 22.6854 22.9211 22.6212 22.9365C22.557 22.952 22.49 22.9468 22.4285 22.9218C22.367 22.8967 22.3137 22.8528 22.2752 22.7956C22.2367 22.7383 22.2147 22.6701 22.212 22.5995C22.212 22.5116 22.2445 22.4273 22.3024 22.3651C22.3603 22.3029 22.4389 22.268 22.5208 22.268C22.6027 22.268 22.6812 22.3029 22.7391 22.3651C22.797 22.4273 22.8296 22.5116 22.8296 22.5995C22.8296 22.5995 22.828 22.6167 22.828 22.627ZM22.2984 22.56H22.7464C22.7464 22.4963 22.7228 22.4351 22.6808 22.39C22.6388 22.3449 22.5818 22.3195 22.5224 22.3195C22.463 22.3195 22.406 22.3449 22.364 22.39C22.322 22.4351 22.2984 22.4963 22.2984 22.56Z" fill="white"/>
<path d="M23.3376 22.8983C23.2991 22.9299 23.2516 22.9463 23.2032 22.9447C23.1783 22.9477 23.1531 22.9446 23.1294 22.9357C23.1057 22.9269 23.0842 22.9125 23.0664 22.8935C23.0486 22.8746 23.035 22.8516 23.0266 22.8263C23.0181 22.8009 23.015 22.7739 23.0176 22.7471V22.3314H22.9056V22.2541H23.0176V22.1047H23.104V22.2541H23.296V22.3314H23.104V22.7368C23.1018 22.7531 23.103 22.7697 23.1076 22.7854C23.1122 22.8011 23.12 22.8155 23.1304 22.8275C23.1408 22.8396 23.1537 22.8489 23.1679 22.8549C23.1822 22.8609 23.1975 22.8634 23.2128 22.8622C23.2473 22.8632 23.281 22.8504 23.3072 22.8262L23.3376 22.8983Z" fill="white"/>
<path d="M23.825 22.0347H23.913V22.8575H24.385V22.94H23.825V22.0347Z" fill="white"/>
<path d="M24.4957 22.045C24.4959 22.0364 24.4977 22.028 24.5009 22.0202C24.5042 22.0123 24.5088 22.0052 24.5146 21.9993C24.5204 21.9934 24.5272 21.9888 24.5347 21.9858C24.5422 21.9827 24.5501 21.9812 24.5581 21.9814C24.566 21.981 24.5739 21.9822 24.5814 21.9851C24.5888 21.988 24.5957 21.9924 24.6015 21.9982C24.6073 22.004 24.612 22.0109 24.6152 22.0187C24.6185 22.0264 24.6203 22.0348 24.6205 22.0433C24.6205 22.0611 24.6139 22.0781 24.6022 22.0907C24.5905 22.1032 24.5746 22.1103 24.5581 22.1103C24.5415 22.1103 24.5257 22.1032 24.514 22.0907C24.5023 22.0781 24.4957 22.0611 24.4957 22.0433V22.045ZM24.5149 22.2597H24.5997V22.9469H24.5149V22.2597Z" fill="white"/>
<path d="M25.4201 22.5444V22.9395H25.3353V22.553C25.339 22.5247 25.3367 22.4959 25.3286 22.4686C25.3205 22.4414 25.3068 22.4165 25.2886 22.3957C25.2703 22.3749 25.2479 22.3588 25.223 22.3486C25.1982 22.3383 25.1715 22.3342 25.1449 22.3366C25.1147 22.3344 25.0844 22.3393 25.0562 22.3511C25.0279 22.3628 25.0024 22.3809 24.9814 22.4043C24.9603 22.4277 24.9443 22.4558 24.9344 22.4865C24.9246 22.5172 24.921 22.5499 24.9241 22.5822V22.9395H24.8377V22.2524H24.9193V22.3778C24.9451 22.3349 24.9811 22.3002 25.0236 22.2773C25.0661 22.2543 25.1135 22.244 25.1609 22.2473C25.1973 22.244 25.2339 22.2496 25.2679 22.2636C25.302 22.2777 25.3327 22.2998 25.3576 22.3284C25.3825 22.357 25.4011 22.3913 25.412 22.4287C25.4228 22.4661 25.4256 22.5057 25.4201 22.5444Z" fill="white"/>
<path d="M25.8875 22.5978L25.7371 22.7456V22.9397H25.6523V21.988H25.7371V22.6374L26.1163 22.2663H26.2219L25.9515 22.5446L26.2475 22.9466H26.1419L25.8875 22.5978Z" fill="white"/>
<path d="M40.6533 27.588C40.6526 27.5261 40.6637 27.4646 40.6859 27.4073C40.7081 27.3501 40.741 27.2984 40.7825 27.2553C40.824 27.2122 40.8733 27.1786 40.9273 27.1567C40.9813 27.1347 41.0389 27.1249 41.0965 27.1277C41.1535 27.1256 41.2102 27.1362 41.2631 27.159C41.316 27.1818 41.3639 27.2162 41.4037 27.2599L41.3477 27.3218C41.3154 27.2862 41.2765 27.2581 41.2335 27.2395C41.1906 27.2209 41.1445 27.212 41.0981 27.2136C41.0056 27.2136 40.9169 27.253 40.8515 27.3232C40.7861 27.3935 40.7493 27.4887 40.7493 27.588C40.7493 27.6874 40.7861 27.7826 40.8515 27.8529C40.9169 27.9231 41.0056 27.9625 41.0981 27.9625C41.1445 27.9645 41.1907 27.9558 41.2338 27.9372C41.2768 27.9185 41.3156 27.8903 41.3477 27.8543L41.4037 27.9162C41.3637 27.9601 41.3155 27.9945 41.2624 28.0173C41.2092 28.0401 41.1522 28.0507 41.0949 28.0484C41.0373 28.0513 40.9798 28.0414 40.9259 28.0194C40.872 27.9975 40.8228 27.9639 40.7814 27.9208C40.7401 27.8776 40.7074 27.8259 40.6853 27.7686C40.6633 27.7114 40.6524 27.65 40.6533 27.588Z" fill="white"/>
<path d="M41.5015 27.5885C41.4986 27.4937 41.5222 27.4002 41.5692 27.3199C41.6161 27.2396 41.6844 27.1762 41.7652 27.1378C41.846 27.0995 41.9356 27.0879 42.0225 27.1046C42.1095 27.1214 42.1898 27.1656 42.2532 27.2317C42.3165 27.2977 42.3601 27.3826 42.3782 27.4754C42.3963 27.5682 42.3882 27.6648 42.3549 27.7526C42.3215 27.8404 42.2645 27.9155 42.1912 27.9683C42.1178 28.0211 42.0314 28.0492 41.9431 28.0489C41.8855 28.0515 41.8281 28.0414 41.7743 28.0194C41.7204 27.9973 41.6714 27.9637 41.63 27.9206C41.5887 27.8776 41.556 27.8259 41.5339 27.7688C41.5118 27.7117 41.5008 27.6503 41.5015 27.5885ZM42.3015 27.5885C42.3024 27.5132 42.2825 27.4393 42.2442 27.3762C42.2059 27.3131 42.1511 27.2636 42.0865 27.2341C42.022 27.2046 41.9508 27.1963 41.8819 27.2104C41.813 27.2244 41.7495 27.2602 41.6996 27.3131C41.6496 27.366 41.6155 27.4336 41.6014 27.5074C41.5874 27.5811 41.5941 27.6577 41.6207 27.7274C41.6474 27.7971 41.6927 27.8567 41.7509 27.8986C41.8092 27.9406 41.8777 27.963 41.9479 27.963C41.9939 27.9639 42.0396 27.9549 42.0824 27.9364C42.1251 27.9179 42.1639 27.8903 42.1964 27.8554C42.229 27.8204 42.2546 27.7788 42.2719 27.7329C42.2891 27.6871 42.2975 27.6379 42.2967 27.5885H42.3015Z" fill="white"/>
<path d="M43.2437 27.4471C43.2437 27.6395 43.1141 27.7546 42.8997 27.7546H42.6725V28.0415H42.5845V27.1414H42.9045C43.1141 27.1414 43.2437 27.253 43.2437 27.4471ZM43.1541 27.4471C43.1541 27.3011 43.0661 27.2187 42.8965 27.2187H42.6725V27.6705H42.8965C43.0661 27.6705 43.1541 27.588 43.1541 27.4471Z" fill="white"/>
<path d="M43.7256 27.7289V28.0415H43.6376V27.7289L43.3 27.1414H43.3944L43.684 27.6567L43.9736 27.1414H44.0616L43.7256 27.7289Z" fill="white"/>
<path d="M44.8103 26.099V29.1121H39.7367V26.099H44.8103ZM44.9703 25.9272H39.5767V29.2839H44.9703V25.9272Z" fill="white"/>
<path d="M44.2808 31.823H35.7064C35.3256 31.823 35.0168 32.1545 35.0168 32.5634V34.4823C35.0168 34.8912 35.3256 35.2226 35.7064 35.2226H44.2808C44.6617 35.2226 44.9704 34.8912 44.9704 34.4823V32.5634C44.9704 32.1545 44.6617 31.823 44.2808 31.823Z" fill="#EC2226" fill-opacity="0.63"/>
<path d="M37.4159 33.8664L37.4719 33.7409C37.5688 33.8261 37.6906 33.8717 37.8159 33.8698C37.9967 33.8698 38.0735 33.7959 38.0735 33.698C38.0735 33.4231 37.4335 33.5967 37.4335 33.1827C37.4335 33.0109 37.5583 32.8614 37.8335 32.8614C37.952 32.8598 38.0685 32.8943 38.1695 32.961L38.1199 33.0882C38.0342 33.0297 37.935 32.9982 37.8335 32.9971C37.6559 32.9971 37.5791 33.0779 37.5791 33.1689C37.5791 33.442 38.2191 33.2703 38.2191 33.6843C38.2191 33.856 38.0895 34.0038 37.8143 34.0038C37.6707 34.0086 37.53 33.96 37.4159 33.8664Z" fill="white"/>
<path d="M39.3358 32.8738V33.9939H39.187V33.4974H38.587V33.9973H38.4382V32.8773H38.587V33.3583H39.187V32.8773L39.3358 32.8738Z" fill="white"/>
<path d="M40.3195 33.7139H39.7595L39.6443 33.9939H39.4843L39.9643 32.8738H40.1115L40.5915 33.9939H40.4315L40.3195 33.7139ZM40.2667 33.585L40.0427 33.037L39.8171 33.585H40.2667Z" fill="white"/>
<path d="M41.4395 33.9939L41.2139 33.6503H41.1483H40.8907V33.9939H40.7419V32.8738H41.1483C41.4203 32.8738 41.5851 33.0199 41.5851 33.2638C41.5882 33.3417 41.5673 33.4186 41.5256 33.4826C41.484 33.5465 41.4239 33.594 41.3547 33.6177L41.6027 33.9939H41.4395ZM41.4395 33.2638C41.4395 33.104 41.3403 33.013 41.1499 33.013H40.8955V33.5163H41.1499C41.3355 33.5163 41.4395 33.4236 41.4395 33.2638Z" fill="white"/>
<path d="M42.5829 33.8547V33.9939H41.8261V32.8738H42.5589V33.013H41.9717V33.3566H42.4949V33.4974H41.9717V33.8599L42.5829 33.8547Z" fill="white"/>
<path d="M55.7212 20.6387H53.0828C52.8133 20.6387 52.5948 20.8732 52.5948 21.1626V23.9953C52.5948 24.2847 52.8133 24.5193 53.0828 24.5193H55.7212C55.9908 24.5193 56.2092 24.2847 56.2092 23.9953V21.1626C56.2092 20.8732 55.9908 20.6387 55.7212 20.6387Z" fill="#EC2226" fill-opacity="0.63"/>
<path d="M53.5696 21.9013C53.6933 21.9013 53.7936 21.7937 53.7936 21.6608C53.7936 21.528 53.6933 21.4203 53.5696 21.4203C53.4459 21.4203 53.3456 21.528 53.3456 21.6608C53.3456 21.7937 53.4459 21.9013 53.5696 21.9013Z" fill="white"/>
<path d="M55.236 22.7705C55.3597 22.7705 55.46 22.6628 55.46 22.53C55.46 22.3972 55.3597 22.2895 55.236 22.2895C55.1123 22.2895 55.012 22.3972 55.012 22.53C55.012 22.6628 55.1123 22.7705 55.236 22.7705Z" fill="white"/>
<path d="M53.8774 23.4975C53.8774 23.5451 53.8643 23.5916 53.8397 23.6311C53.8151 23.6707 53.7801 23.7015 53.7392 23.7197C53.6982 23.7379 53.6532 23.7427 53.6097 23.7334C53.5663 23.7241 53.5264 23.7012 53.4951 23.6676C53.4637 23.6339 53.4424 23.5911 53.4337 23.5444C53.4251 23.4978 53.4295 23.4494 53.4465 23.4055C53.4635 23.3615 53.4922 23.324 53.529 23.2975C53.5658 23.2711 53.6091 23.257 53.6534 23.257C53.7129 23.257 53.7698 23.2824 53.8118 23.3275C53.8538 23.3726 53.8774 23.4337 53.8774 23.4975Z" fill="white"/>
<path d="M53.673 23.5349L53.633 23.461L55.1498 22.5334L53.5514 21.6985L53.5866 21.6212L55.321 22.5265L53.673 23.5349Z" fill="white"/>
<path d="M54.4935 24.0503C54.4935 24.0503 54.4935 24.8577 54.9223 25.2356C54.9223 25.2356 54.3271 25.1257 54.0535 24.1878L54.4935 24.0503Z" fill="#EC2226" fill-opacity="0.63"/>
<path d="M54.4975 61.8994H55.6639V48.8009H54.4975V61.8994Z" fill="#EC2226" fill-opacity="0.63"/>
<path opacity="0.2" d="M54.4975 61.8994H55.6639V48.8009H54.4975V61.8994Z" fill="black"/>
<path d="M46.1467 61.8994H47.3131V48.8009H46.1467V61.8994Z" fill="#EC2226" fill-opacity="0.63"/>
<path opacity="0.2" d="M46.1467 61.8994H47.3131V48.8009H46.1467V61.8994Z" fill="black"/>
<path d="M56.0324 61.8994H57.1988V48.8009H56.0324V61.8994Z" fill="#EC2226" fill-opacity="0.63"/>
<path d="M64.3822 61.8994H65.5486V48.8009H64.3822V61.8994Z" fill="#EC2226" fill-opacity="0.63"/>
<path d="M43.7565 48.3162V49.285C43.7563 49.3222 43.7629 49.359 43.776 49.3934C43.7891 49.4277 43.8084 49.459 43.8328 49.4853C43.8572 49.5117 43.8862 49.5326 43.9181 49.5469C43.9501 49.5611 43.9843 49.5685 44.0189 49.5685H66.6525C66.7225 49.5685 66.7897 49.5386 66.8392 49.4854C66.8887 49.4323 66.9165 49.3602 66.9165 49.285V48.3162C66.9161 48.2413 66.8881 48.1696 66.8386 48.1168C66.7892 48.064 66.7222 48.0344 66.6525 48.0344H44.0189C43.9493 48.0344 43.8826 48.0641 43.8334 48.1169C43.7842 48.1698 43.7565 48.2414 43.7565 48.3162Z" fill="#EC2226" fill-opacity="0.63"/>
<path opacity="0.2" d="M43.7565 48.3162V49.285C43.7563 49.3222 43.7629 49.359 43.776 49.3934C43.7891 49.4277 43.8084 49.459 43.8328 49.4853C43.8572 49.5117 43.8862 49.5326 43.9181 49.5469C43.9501 49.5611 43.9843 49.5685 44.0189 49.5685H66.6525C66.7225 49.5685 66.7897 49.5386 66.8392 49.4854C66.8887 49.4323 66.9165 49.3602 66.9165 49.285V48.3162C66.9161 48.2413 66.8881 48.1696 66.8386 48.1168C66.7892 48.064 66.7222 48.0344 66.6525 48.0344H44.0189C43.9493 48.0344 43.8826 48.0641 43.8334 48.1169C43.7842 48.1698 43.7565 48.2414 43.7565 48.3162Z" fill="white"/>
<path opacity="0.3" d="M57.8161 48.3162V49.285C57.8161 49.3602 57.8439 49.4323 57.8935 49.4854C57.943 49.5386 58.0101 49.5685 58.0801 49.5685H66.6529C66.7229 49.5685 66.7901 49.5386 66.8396 49.4854C66.8891 49.4323 66.9169 49.3602 66.9169 49.285V48.3162C66.9165 48.2413 66.8885 48.1696 66.839 48.1168C66.7896 48.064 66.7227 48.0344 66.6529 48.0344H58.0801C58.0104 48.0344 57.9435 48.064 57.894 48.1168C57.8446 48.1696 57.8166 48.2413 57.8161 48.3162Z" fill="white"/>
<path d="M57.6429 26.4547C58.0167 26.566 58.3455 26.8077 58.5772 27.1417C58.809 27.4758 58.9306 27.8832 58.9229 28.2996C58.9229 29.1345 58.9453 29.1242 59.3885 29.43C59.8317 29.7357 59.1037 30.2889 59.1037 30.2889C59.1543 30.3776 59.1765 30.4817 59.167 30.5853C59.1575 30.6889 59.1167 30.7862 59.0509 30.8626C58.8189 31.1392 59.2717 31.2303 59.2717 31.2303C59.2717 31.2303 59.0829 31.6683 58.8397 31.4312C58.8397 31.4312 58.8653 31.9037 58.1517 31.9363C57.4381 31.9689 56.2925 32.2936 56.0205 31.8865C55.7485 31.4793 54.8829 30.3009 54.8829 30.3009C54.8829 30.3009 54.1229 29.9797 54.3453 28.8665C54.5677 27.7533 55.3693 26.9477 56.1181 26.9769C56.8669 27.0061 57.6429 26.4547 57.6429 26.4547Z" fill="#263238"/>
<path d="M52.5375 33.1888C52.5375 33.1888 51.9391 33.3177 51.9407 33.4362C51.9423 33.5547 52.1743 34.4806 52.2815 34.594C52.3927 34.6928 52.514 34.7775 52.6431 34.8465L52.4911 36.3445L53.3087 36.5713L53.3199 34.9737C53.3199 34.9737 53.6079 34.5047 53.4015 34.0426C53.1951 33.5805 52.5375 33.1888 52.5375 33.1888Z" fill="#E4897B"/>
<path opacity="0.2" d="M52.5375 33.1888C52.5375 33.1888 51.9391 33.3177 51.9407 33.4362C51.9423 33.5547 52.1743 34.4806 52.2815 34.594C52.3927 34.6928 52.514 34.7775 52.6431 34.8465L52.4911 36.3445L53.3087 36.5713L53.3199 34.9737C53.3199 34.9737 53.6079 34.5047 53.4015 34.0426C53.1951 33.5805 52.5375 33.1888 52.5375 33.1888Z" fill="black"/>
<path d="M54.7101 33.3647C54.1693 33.7804 53.9645 36.0788 53.7501 36.4121C53.5357 36.7454 53.4509 35.7765 53.4509 35.7765L52.3629 35.7215C52.3629 35.7215 52.2141 37.0872 52.8429 38.0595C53.4717 39.0318 54.6301 38.3086 55.2877 36.7505C55.9453 35.1924 54.7101 33.3647 54.7101 33.3647Z" fill="#263238"/>
<path opacity="0.2" d="M52.8429 38.0595C52.9573 38.2538 53.1318 38.3985 53.3357 38.4684C53.9677 38.6625 54.7757 37.953 55.2861 36.7505C55.4386 36.3762 55.5029 35.9674 55.4733 35.5601C55.4029 34.3902 54.7101 33.3647 54.7101 33.3647C54.1709 33.7804 53.9645 36.0788 53.7501 36.4121C53.5357 36.7454 53.4525 35.7765 53.4525 35.7765L52.3629 35.7198C52.3629 35.7198 52.2141 37.0889 52.8429 38.0595Z" fill="white"/>
<path d="M54.6949 33.3863C54.4181 33.4241 53.7109 35.9322 53.7109 35.9322L55.4805 36.7619L55.9493 35.2828L54.6949 33.3863Z" fill="#EC2226" fill-opacity="0.63"/>
<path opacity="0.5" d="M55.9493 35.2766L55.4805 36.7625L55.0245 36.5512L53.7109 35.9397C53.7109 35.9397 54.4181 33.4316 54.6949 33.3938L55.2165 34.1789L55.9493 35.2766Z" fill="white"/>
<path opacity="0.2" d="M55.9488 35.2757L55.4801 36.7616L55.024 36.5503C54.8615 36.171 54.7937 35.7528 54.8274 35.3368C54.861 34.9209 54.995 34.5215 55.2161 34.178L55.9488 35.2757Z" fill="black"/>
<path d="M47.6006 60.4475L46.5206 60.1297L46.7142 57.3021L47.791 57.6216L47.6006 60.4475Z" fill="#E4897B"/>
<path d="M46.4548 59.9758L47.7076 60.0702C47.718 60.0702 47.7282 60.0725 47.7378 60.0768C47.7473 60.0812 47.7559 60.0876 47.7631 60.0956C47.7703 60.1036 47.7758 60.1131 47.7795 60.1235C47.7832 60.1339 47.7848 60.145 47.7844 60.1561V61.2246C47.783 61.2523 47.7765 61.2794 47.7652 61.3044C47.7539 61.3294 47.7382 61.3517 47.7188 61.37C47.6995 61.3884 47.6769 61.4025 47.6525 61.4114C47.628 61.4204 47.6022 61.424 47.5764 61.4222C47.1396 61.3827 46.9364 61.3397 46.3828 61.2933C45.8914 61.2785 45.4017 61.2262 44.9172 61.137C44.4612 61.0236 44.578 60.5409 44.7796 60.5461C45.3087 60.515 45.8213 60.3374 46.2676 60.0307C46.3232 59.992 46.3886 59.9728 46.4548 59.9758Z" fill="#263238"/>
<path d="M45.8403 60.0747C45.8231 60.0533 45.812 60.027 45.8083 59.999C45.8046 59.9709 45.8085 59.9424 45.8195 59.9167C45.8234 59.8995 45.8313 59.8837 45.8425 59.8707C45.8537 59.8578 45.8679 59.8482 45.8835 59.8428C46.0243 59.7964 46.3251 60.0507 46.3635 60.0799C46.3668 60.0838 46.3691 60.0885 46.3705 60.0935C46.3719 60.0986 46.3723 60.1039 46.3715 60.1091C46.37 60.1141 46.3673 60.1187 46.3636 60.1223C46.36 60.1259 46.3555 60.1285 46.3507 60.1297C46.2515 60.1486 46.1506 60.1555 46.0499 60.1503C45.9737 60.1544 45.8988 60.1274 45.8403 60.0747ZM45.8995 59.9029C45.8916 59.9052 45.8845 59.9098 45.8788 59.9162C45.8732 59.9225 45.8693 59.9304 45.8675 59.939C45.8613 59.9555 45.8591 59.9735 45.8611 59.9912C45.863 60.0089 45.8691 60.0258 45.8787 60.0404C45.9283 60.0988 46.0739 60.1177 46.2771 60.0902C46.1523 59.9922 45.9747 59.8772 45.8995 59.9029Z" fill="#EC2226" fill-opacity="0.63"/>
<path d="M46.3267 60.1248C46.2211 60.0458 46.0706 59.7812 46.1042 59.6541C46.1103 59.6311 46.1234 59.611 46.1414 59.597C46.1594 59.583 46.1812 59.5759 46.2034 59.5768C46.2237 59.575 46.2441 59.5782 46.2629 59.5862C46.2818 59.5943 46.2987 59.6069 46.3123 59.6232C46.4163 59.7486 46.3682 60.0956 46.3682 60.1059C46.367 60.1103 46.365 60.1144 46.3622 60.1179C46.3595 60.1215 46.3561 60.1244 46.3523 60.1265C46.3505 60.1274 46.3486 60.1279 46.3467 60.1279C46.3447 60.1279 46.3428 60.1274 46.3411 60.1265C46.3362 60.1277 46.3311 60.1271 46.3267 60.1248ZM46.2051 59.6369C46.1683 59.6369 46.157 59.6575 46.1538 59.673C46.163 59.8156 46.2198 59.9498 46.3138 60.0509C46.3378 59.9205 46.3209 59.7852 46.2659 59.6661C46.2594 59.6572 46.2512 59.6499 46.2417 59.6449C46.2323 59.6398 46.222 59.6371 46.2115 59.6369H46.2051Z" fill="#EC2226" fill-opacity="0.63"/>
<path opacity="0.2" d="M47.7916 57.6216L46.7148 57.3038L46.6044 58.9203L47.6876 59.1797L47.7916 57.6216Z" fill="black"/>
<path d="M49.0101 60.4059L50.0293 60.9041L50.2885 59.7291L50.6373 58.1487L49.6213 57.6488L49.2709 59.2275L49.0101 60.4059Z" fill="#E4897B"/>
<path opacity="0.2" d="M49.2702 59.2275L50.2878 59.7291L50.6366 58.1487L49.6206 57.6488L49.2702 59.2275Z" fill="black"/>
<path d="M48.9689 60.2436L50.1913 60.5494C50.2121 60.5536 50.2305 60.5664 50.2425 60.585C50.2544 60.6037 50.2591 60.6267 50.2553 60.649L50.0953 61.7038C50.0897 61.7306 50.0791 61.756 50.0643 61.7785C50.0495 61.8009 50.0307 61.8201 50.009 61.8347C49.9873 61.8494 49.9632 61.8594 49.9379 61.864C49.9126 61.8687 49.8867 61.8679 49.8617 61.8618C49.4361 61.7484 49.2393 61.6711 48.7017 61.5303C48.2186 61.432 47.7427 61.2965 47.2777 61.1249C46.8441 60.9342 47.0313 60.4789 47.2313 60.5185C47.7579 60.577 48.2897 60.4889 48.7753 60.2625C48.8365 60.2348 48.9041 60.2282 48.9689 60.2436Z" fill="#263238"/>
<path d="M48.3482 60.2366C48.3337 60.2128 48.326 60.1851 48.326 60.1567C48.326 60.1283 48.3337 60.1006 48.3482 60.0768C48.3548 60.0605 48.3652 60.0463 48.3783 60.0354C48.3915 60.0246 48.407 60.0176 48.4234 60.015C48.569 59.9926 48.8282 60.295 48.8586 60.3311C48.8606 60.3356 48.8616 60.3406 48.8616 60.3457C48.8616 60.3507 48.8606 60.3557 48.8586 60.3603C48.8566 60.3652 48.8532 60.3694 48.8489 60.3721C48.8446 60.3749 48.8396 60.3762 48.8346 60.3757C48.7342 60.3772 48.6339 60.3674 48.5354 60.3465C48.4624 60.3361 48.3957 60.2969 48.3482 60.2366ZM48.4314 60.0751C48.4232 60.0761 48.4154 60.0795 48.4089 60.085C48.4024 60.0905 48.3975 60.0977 48.3946 60.106C48.3863 60.1214 48.3819 60.1389 48.3819 60.1567C48.3819 60.1745 48.3863 60.192 48.3946 60.2074C48.4346 60.2744 48.5754 60.3173 48.7802 60.3242C48.6714 60.2057 48.5114 60.0631 48.4346 60.0751H48.4314Z" fill="#EC2226" fill-opacity="0.63"/>
<path d="M48.8199 60.3717C48.7255 60.2772 48.6167 59.9903 48.6695 59.8701C48.6791 59.8483 48.6951 59.8306 48.7151 59.8197C48.7351 59.8088 48.7579 59.8054 48.7799 59.81C48.7998 59.8126 48.819 59.8198 48.8361 59.8311C48.8532 59.8423 48.8679 59.8574 48.8791 59.8752C48.9639 60.0178 48.8647 60.3511 48.8631 60.3614C48.8588 60.3698 48.8521 60.3765 48.8439 60.3803C48.8403 60.3816 48.8363 60.3816 48.8327 60.3803C48.83 60.3805 48.8273 60.3798 48.825 60.3782C48.8227 60.3767 48.8209 60.3744 48.8199 60.3717ZM48.7719 59.8701C48.7351 59.8701 48.7207 59.8821 48.7159 59.8976C48.7053 60.0413 48.744 60.1843 48.8247 60.2995C48.866 60.1745 48.8693 60.0386 48.8343 59.9113C48.829 59.9014 48.8219 59.8928 48.8134 59.886C48.8048 59.8792 48.7951 59.8743 48.7847 59.8718L48.7719 59.8701Z" fill="#EC2226" fill-opacity="0.63"/>
<path d="M56.5635 44.3535L56.8931 40.4471L62.9731 40.6C62.9731 40.6 63.6803 46.0387 63.1635 47.0437C62.2307 48.8285 56.1075 47.815 54.6835 47.9661C54.0899 48.3011 50.9603 59.4379 50.9603 59.4379L49.2083 58.6786C49.2083 58.6786 51.0931 49.2786 51.5219 47.5126C52.1187 45.0475 54.5603 45.0905 56.5635 44.3535Z" fill="#263238"/>
<path d="M46.4958 58.4859L48.0414 58.6388C48.0414 58.6388 49.9374 48.2716 50.0798 48.2321C50.3438 48.1514 51.1118 48.0604 51.5198 47.9435C54.387 47.143 61.451 45.6691 61.451 45.6691L58.8462 42.9738C58.8462 42.9738 47.0398 44.4924 46.7838 47.4729C46.6574 48.9038 46.4958 58.4859 46.4958 58.4859Z" fill="#263238"/>
<path opacity="0.2" d="M50.5032 48.2382C50.7672 48.1575 51.1175 48.0579 51.5303 47.9428C51.4151 48.008 51.7479 46.3967 52.0791 45.9758C52.7351 45.1444 55.3736 44.696 56.3208 44.5328C57.1112 44.3971 59.7672 44.1446 59.7672 44.1446C59.7672 44.1446 55.0792 43.71 51.5464 44.751C49.8008 45.2664 50.1112 47.0959 50.5032 48.2382Z" fill="black"/>
<path d="M53.7078 33.7029C53.7114 33.7167 53.7121 33.7312 53.71 33.7454C53.7078 33.7595 53.7029 33.773 53.6954 33.7849C53.688 33.7968 53.6782 33.8069 53.6668 33.8144C53.6555 33.8219 53.6427 33.8266 53.6294 33.8283L52.5974 33.9829C52.5689 33.9866 52.54 33.9793 52.516 33.9623C52.492 33.9454 52.4744 33.9198 52.4662 33.8902L51.9494 31.7377C51.9456 31.723 51.9445 31.7077 51.9464 31.6926C51.9482 31.6775 51.9528 31.6629 51.96 31.6498C51.9671 31.6366 51.9767 31.6252 51.9881 31.6161C51.9995 31.607 52.0124 31.6004 52.0262 31.5968L53.0582 31.4422C53.0888 31.4412 53.1187 31.4514 53.1431 31.471C53.1676 31.4907 53.185 31.5187 53.1926 31.5505L53.7078 33.7029Z" fill="#263238"/>
<path opacity="0.5" d="M53.0753 31.5536L53.6001 33.7267C53.6046 33.7391 53.6064 33.7524 53.6053 33.7657C53.6041 33.7789 53.6002 33.7917 53.5937 33.8031C53.5871 33.8144 53.5783 33.8239 53.5677 33.831C53.5572 33.838 53.5452 33.8423 53.5329 33.8435L52.6577 33.974C52.5985 33.974 52.4865 33.9654 52.4721 33.9036L51.9489 31.7236C51.9345 31.6618 52.0289 31.5965 52.0865 31.5879L52.9617 31.4557C52.9886 31.454 53.015 31.4631 53.036 31.4812C53.057 31.4993 53.071 31.5251 53.0753 31.5536Z" fill="white"/>
<path d="M49.0741 58.2421L49.0101 58.876L51.0373 59.6422L51.2277 59.1801L49.0741 58.2421Z" fill="#EC2226" fill-opacity="0.63"/>
<path d="M46.1747 57.9271L46.2371 58.5593L48.1667 58.7964L48.2483 58.2999L46.1747 57.9271Z" fill="#EC2226" fill-opacity="0.63"/>
<path d="M56.7543 41.2441C56.3991 39.0573 55.8023 36.1283 54.6951 33.3866C55.277 33.123 55.8759 32.9049 56.4871 32.7339C57.38 32.475 58.2861 32.2714 59.2007 32.124C59.833 32.0517 60.4697 32.0333 61.1047 32.0691C61.1047 32.0691 62.4743 34.8176 63.1687 41.2458L56.7543 41.2441Z" fill="#EC2226" fill-opacity="0.63"/>
<path opacity="0.6" d="M63.1671 41.2441H56.7543C56.3991 39.0573 55.8023 36.1283 54.6951 33.3866C55.2768 33.1223 55.8757 32.9041 56.4871 32.7339C57.38 32.475 58.2861 32.2714 59.2007 32.124C59.833 32.0517 60.4697 32.0333 61.1047 32.0691C61.2293 32.3338 61.3404 32.6056 61.4375 32.8833C61.7869 33.8686 62.0755 34.8774 62.3015 35.9033C62.6933 37.6625 62.9824 39.4462 63.1671 41.2441Z" fill="white"/>
<path opacity="0.2" d="M62.2992 35.903C61.2608 36.7327 59.7504 35.5594 59.7504 35.5594L61.44 32.8813C61.7877 33.8672 62.0748 34.8766 62.2992 35.903Z" fill="black"/>
<path d="M57.7333 33.8829C58.7445 34.1234 59.5285 32.5584 59.5285 32.5584C59.5285 32.5584 59.5285 32.1444 57.9957 32.3505C56.4629 32.5567 56.3093 33.5444 57.7333 33.8829Z" fill="#263238"/>
<path opacity="0.2" d="M57.7333 33.8829C58.7445 34.1234 59.5285 32.5584 59.5285 32.5584C59.5285 32.5584 59.5285 32.1444 57.9957 32.3505C56.4629 32.5567 56.3093 33.5444 57.7333 33.8829Z" fill="white"/>
<path opacity="0.5" d="M56.714 36.0409L59.2532 35.7472L59.8676 38.8908L57.4068 39.0987L56.714 36.0409Z" fill="white"/>
<path opacity="0.2" d="M56.714 36.0409L59.8676 38.8908L59.2532 35.7472L56.714 36.0409Z" fill="black"/>
<path d="M55.4143 34.8814L54.4927 34.2321C54.4927 34.2321 54.1007 32.966 54.0127 32.8406C53.9247 32.7152 52.9519 33.0004 52.8447 33.0124C52.7375 33.0244 53.0223 34.318 53.1519 34.4296C53.2815 34.5413 53.7055 34.555 53.7055 34.555L54.7519 35.56L55.4143 34.8814Z" fill="#E4897B"/>
<path d="M60.9493 32.0686C60.3349 32.2215 58.8581 34.9632 58.0693 35.4682C57.2805 35.9733 55.0965 34.3568 55.0965 34.3568L54.3493 35.3549C54.3493 35.3549 56.1173 37.028 57.6645 37.0727C59.2117 37.1174 61.4053 34.7622 61.7317 33.9016C62.0581 33.0409 61.6981 31.8831 60.9493 32.0686Z" fill="#263238"/>
<path opacity="0.2" d="M60.9493 32.0686C60.3349 32.2215 58.8581 34.9632 58.0693 35.4682C57.2805 35.9733 55.0965 34.3568 55.0965 34.3568L54.3493 35.3549C54.3493 35.3549 56.1173 37.028 57.6645 37.0727C59.2117 37.1174 61.4053 34.7622 61.7317 33.9016C62.0581 33.0409 61.6981 31.8831 60.9493 32.0686Z" fill="white"/>
<path d="M57.6889 29.668C57.9305 30.6077 58.5065 32.2602 59.3305 32.5316C59.3305 32.5316 58.7241 33.5984 57.8153 33.6878C57.2377 33.7444 56.9177 33.0436 56.9177 33.0436C57.5065 32.925 57.2809 32.4612 56.8169 31.8806L57.6889 29.668Z" fill="#E4897B"/>
<path opacity="0.2" d="M57.333 30.578L56.8178 31.887C56.9265 32.0225 57.0255 32.1666 57.1138 32.3182C57.693 32.3663 58.109 31.3802 57.9666 30.9783C57.9202 30.8048 57.4402 30.7034 57.333 30.578Z" fill="black"/>
<path d="M55.6799 28.1725C56.2319 28.4182 56.1263 29.0658 55.2111 30.2442C54.6463 29.7289 54.3407 28.5367 54.6367 28.1553C54.9327 27.774 55.1999 27.9561 55.6799 28.1725Z" fill="#263238"/>
<path d="M57.9573 28.6748C58.1493 29.958 58.3221 30.6967 57.8629 31.4903C57.1733 32.6825 55.5973 32.4541 55.0501 31.2584C54.5621 30.1848 54.3285 28.2659 55.3701 27.4792C55.6005 27.3058 55.8682 27.1985 56.1481 27.1674C56.4279 27.1363 56.7104 27.1825 56.969 27.3016C57.2275 27.4207 57.4534 27.6087 57.6252 27.8478C57.7971 28.0869 57.9092 28.3692 57.9509 28.6679L57.9573 28.6748Z" fill="#E4897B"/>
<path d="M56.2685 29.4452C56.2909 29.5482 56.2573 29.6444 56.1933 29.6582C56.1293 29.6719 56.0637 29.6032 56.0429 29.5001C56.0221 29.397 56.0541 29.3026 56.1149 29.2854C56.1757 29.2682 56.2413 29.3455 56.2685 29.4452Z" fill="#263238"/>
<path d="M55.1797 29.7192C55.2005 29.8223 55.1669 29.9185 55.1045 29.9322C55.0421 29.946 54.9733 29.8773 54.9445 29.7742C54.9157 29.6711 54.9573 29.5749 55.0197 29.5595C55.0821 29.544 55.1573 29.6076 55.1797 29.7192Z" fill="#263238"/>
<path d="M55.5458 29.673C55.4971 30.0154 55.4045 30.349 55.2706 30.6642C55.347 30.699 55.4296 30.7153 55.5125 30.7121C55.5955 30.7088 55.6767 30.686 55.7506 30.6453L55.5458 29.673Z" fill="#DE5753"/>
<path d="M56.4896 29.0045C56.496 29.0044 56.5023 29.0028 56.5081 28.9998C56.5139 28.9969 56.5191 28.9926 56.5232 28.9873C56.5286 28.9816 56.5328 28.9747 56.5357 28.9672C56.5386 28.9597 56.5401 28.9516 56.5401 28.9435C56.5401 28.9354 56.5386 28.9273 56.5357 28.9198C56.5328 28.9123 56.5286 28.9054 56.5232 28.8997C56.4543 28.8345 56.3719 28.7878 56.2829 28.7636C56.1938 28.7394 56.1007 28.7384 56.0112 28.7606C55.9972 28.7653 55.9853 28.7755 55.9779 28.7892C55.9705 28.8029 55.9681 28.819 55.9712 28.8344C55.976 28.8499 55.9861 28.8628 55.9995 28.8705C56.0129 28.8782 56.0285 28.88 56.0432 28.8757C56.1138 28.8596 56.187 28.8616 56.2568 28.8816C56.3266 28.9016 56.391 28.939 56.4448 28.9907C56.4509 28.9963 56.4581 29.0003 56.4658 29.0027C56.4735 29.0051 56.4816 29.0057 56.4896 29.0045Z" fill="#263238"/>
<path d="M54.6003 29.4349C54.611 29.4322 54.6207 29.4265 54.6286 29.4184C54.6365 29.4102 54.6422 29.3999 54.6451 29.3885C54.6602 29.3135 54.6915 29.2432 54.7365 29.1836C54.7815 29.1239 54.839 29.0764 54.9043 29.045C54.9167 29.0378 54.9263 29.0261 54.9314 29.0121C54.9365 28.998 54.9367 28.9824 54.9321 28.9682C54.9275 28.9539 54.9183 28.9419 54.9061 28.9342C54.894 28.9266 54.8797 28.9238 54.8659 28.9264C54.7818 28.966 54.7077 29.0265 54.6498 29.103C54.5919 29.1795 54.5519 29.2697 54.5331 29.3662C54.5312 29.374 54.5308 29.3821 54.5318 29.3901C54.5329 29.3981 54.5355 29.4057 54.5393 29.4126C54.5432 29.4195 54.5483 29.4255 54.5544 29.4302C54.5605 29.4349 54.5674 29.4383 54.5747 29.4401C54.5834 29.4401 54.5921 29.4384 54.6003 29.4349Z" fill="#263238"/>
<path d="M57.253 27.6662C56.7442 28.0098 56.9442 28.623 58.0242 29.6297C58.5042 29.0181 58.629 27.7933 58.2802 27.4686C57.9314 27.144 57.6962 27.3742 57.253 27.6662Z" fill="#263238"/>
<path d="M58.7299 29.5469C58.7122 29.8735 58.5747 30.1792 58.3475 30.3972C58.0435 30.6824 57.7187 30.435 57.6579 30.0313C57.6019 29.6654 57.6947 29.0779 58.0691 28.9491C58.1513 28.9214 58.2387 28.9164 58.3232 28.9346C58.4077 28.9528 58.4865 28.9936 58.5524 29.0532C58.6183 29.1128 58.6691 29.1893 58.7002 29.2756C58.7312 29.3619 58.7414 29.4552 58.7299 29.5469Z" fill="#E4897B"/>
<path d="M55.9489 30.9215C56.03 31.0506 56.1027 31.1854 56.1665 31.3252L56.2401 31.3011C56.5713 31.1895 56.6913 31.0211 56.7201 30.8682C56.738 30.7504 56.7189 30.6295 56.6657 30.5247C56.4896 30.6909 56.2823 30.8145 56.0577 30.8871L55.9489 30.9215Z" fill="#263238"/>
<path d="M56.0614 30.8854L56.1286 31.0023C56.4406 30.8975 56.647 30.7772 56.7142 30.6432C56.7042 30.6012 56.6891 30.5608 56.6694 30.523C56.4933 30.6892 56.2859 30.8128 56.0614 30.8854Z" fill="white"/>
<path d="M56.2405 31.3042C56.5717 31.1925 56.6917 31.0242 56.7205 30.8713C56.5949 30.9154 56.4778 30.9835 56.3749 31.0723C56.3085 31.1325 56.2614 31.2136 56.2405 31.3042Z" fill="#A24E3F"/>
<path d="M58.2744 27.6575C58.2744 27.6575 58.5688 27.1421 57.9368 26.6268C57.3048 26.1114 56.5384 26.6268 56.5384 26.6268C56.5384 26.6268 56.4088 26.4928 55.9496 26.3949C55.4904 26.2969 54.8664 26.9961 54.4872 27.1627C54.108 27.3294 53.7176 27.7708 53.9176 28.3034C54.1176 28.8359 53.516 30.0607 54.4136 29.9233C54.3323 29.8805 54.2694 29.8059 54.2379 29.7148C54.2063 29.6237 54.2085 29.5231 54.244 29.4337C54.3496 29.073 54.724 29.0627 54.7368 28.3154C54.7496 27.5681 55.4072 28.0405 55.4072 28.0405C55.4072 28.0405 55.6152 27.697 55.9 27.7262C56.1848 27.7554 56.6808 27.9907 56.7496 28.9287C56.8184 29.8666 57.492 30.1054 58.0728 29.5523C58.6536 28.9991 58.7704 29.0094 58.8728 29.2877C58.8728 29.2877 59.0936 28.8823 58.6184 28.7483C58.1432 28.6143 58.0952 27.9306 58.2744 27.6575Z" fill="#263238"/>
<path d="M59.0549 33.7644L61.0597 35.3671C61.0597 35.3671 62.4885 33.6493 61.6661 32.3111C60.8437 30.9729 59.0549 33.7644 59.0549 33.7644Z" fill="#EC2226" fill-opacity="0.63"/>
<path opacity="0.5" d="M59.0549 33.7644L61.0597 35.3671C61.0597 35.3671 62.4885 33.6493 61.6661 32.3111C60.8437 30.9729 59.0549 33.7644 59.0549 33.7644Z" fill="white"/>
</svg>
