<svg width="60" height="74" viewBox="0 0 60 74" fill="none" xmlns="http://www.w3.org/2000/svg">
<g filter="url(#filter0_dd_1_7)">
<path fill-rule="evenodd" clip-rule="evenodd" d="M30 57C41.0457 57 50 48.0457 50 37C50 25.9543 41.0457 17 30 17C18.9543 17 10 25.9543 10 37C10 48.0457 18.9543 57 30 57Z" fill="#EC2226"/>
</g>
<path d="M28.959 42.9143L28.9427 37.8768H26.7998V35.7178H28.9427V34.2785C28.9427 32.336 30.1366 31.3999 31.8565 31.3999C32.6804 31.3999 33.3884 31.4617 33.5948 31.4893V33.5193L32.4019 33.5199C31.4665 33.5199 31.2854 33.9677 31.2854 34.6248V35.7178H33.9427L33.2284 37.8768H31.2854V42.9143H28.959Z" fill="white"/>
<defs>
<filter id="filter0_dd_1_7" x="0" y="0" width="60" height="74" filterUnits="userSpaceOnUse" color-interpolation-filters="sRGB">
<feFlood flood-opacity="0" result="BackgroundImageFix"/>
<feColorMatrix in="SourceAlpha" type="matrix" values="0 0 0 0 0 0 0 0 0 0 0 0 0 0 0 0 0 0 127 0" result="hardAlpha"/>
<feOffset dy="7"/>
<feGaussianBlur stdDeviation="5"/>
<feColorMatrix type="matrix" values="0 0 0 0 0.294118 0 0 0 0 0.294118 0 0 0 0 0.294118 0 0 0 0.1 0"/>
<feBlend mode="normal" in2="BackgroundImageFix" result="effect1_dropShadow_1_7"/>
<feColorMatrix in="SourceAlpha" type="matrix" values="0 0 0 0 0 0 0 0 0 0 0 0 0 0 0 0 0 0 127 0" result="hardAlpha"/>
<feOffset dy="-7"/>
<feGaussianBlur stdDeviation="5"/>
<feColorMatrix type="matrix" values="0 0 0 0 0.294118 0 0 0 0 0.294118 0 0 0 0 0.294118 0 0 0 0.01 0"/>
<feBlend mode="normal" in2="effect1_dropShadow_1_7" result="effect2_dropShadow_1_7"/>
<feBlend mode="normal" in="SourceGraphic" in2="effect2_dropShadow_1_7" result="shape"/>
</filter>
</defs>
</svg>
