<svg width="108" height="108" viewBox="0 0 108 108" fill="none" xmlns="http://www.w3.org/2000/svg">
<g filter="url(#filter0_d_25_4155)">
<circle cx="54" cy="50" r="50" fill="white"/>
</g>
<path d="M33.1667 33.1524C33.1705 32.6162 33.3894 32.103 33.7761 31.7237C34.1628 31.3443 34.6862 31.1293 35.2333 31.125H72.7667C73.9083 31.125 74.8333 32.0335 74.8333 33.1524V65.8476C74.8295 66.3838 74.6106 66.897 74.2239 67.2763C73.8372 67.6557 73.3138 67.8707 72.7667 67.875H35.2333C34.685 67.8745 34.1594 67.6606 33.7719 67.2805C33.3843 66.9003 33.1667 66.385 33.1667 65.8476V33.1524ZM41.5 55.625V59.7083H66.5V55.625H41.5ZM41.5 39.2917V51.5417H54V39.2917H41.5ZM58.1667 39.2917V43.375H66.5V39.2917H58.1667ZM58.1667 47.4583V51.5417H66.5V47.4583H58.1667ZM45.6667 43.375H49.8333V47.4583H45.6667V43.375Z" fill="#8D1A1C"/>
<defs>
<filter id="filter0_d_25_4155" x="0" y="0" width="108" height="108" filterUnits="userSpaceOnUse" color-interpolation-filters="sRGB">
<feFlood flood-opacity="0" result="BackgroundImageFix"/>
<feColorMatrix in="SourceAlpha" type="matrix" values="0 0 0 0 0 0 0 0 0 0 0 0 0 0 0 0 0 0 127 0" result="hardAlpha"/>
<feOffset dy="4"/>
<feGaussianBlur stdDeviation="2"/>
<feComposite in2="hardAlpha" operator="out"/>
<feColorMatrix type="matrix" values="0 0 0 0 0 0 0 0 0 0 0 0 0 0 0 0 0 0 0.25 0"/>
<feBlend mode="normal" in2="BackgroundImageFix" result="effect1_dropShadow_25_4155"/>
<feBlend mode="normal" in="SourceGraphic" in2="effect1_dropShadow_25_4155" result="shape"/>
</filter>
</defs>
</svg>
