<svg width="108" height="108" viewBox="0 0 108 108" fill="none" xmlns="http://www.w3.org/2000/svg">
<g filter="url(#filter0_d_25_4158)">
<circle cx="54" cy="50" r="50" fill="white"/>
</g>
<path fill-rule="evenodd" clip-rule="evenodd" d="M30.732 47.9062C31.1734 42.5613 33.8164 37.5658 38.1314 33.9206C42.4463 30.2754 48.1145 28.2499 54 28.25C52.0633 28.25 50.3367 29.0235 48.9133 30.2071C47.5017 31.3844 46.3093 33.0291 45.3433 34.9714C44.3727 36.9264 43.6167 39.2129 43.1057 41.6928C42.6891 43.7442 42.4411 45.8212 42.3637 47.9062H30.732ZM30.732 51.0938H42.3637C42.4477 53.223 42.6973 55.3182 43.1057 57.3072C43.619 59.7871 44.3727 62.0736 45.3433 64.0286C46.3093 65.9709 47.5017 67.6156 48.9133 68.7929C50.3367 69.9765 52.0633 70.75 54 70.75C41.7033 70.75 31.6257 62.0864 30.732 51.0938Z" fill="#8D1A1C"/>
<path d="M54 31.2144C53.3584 31.2144 52.53 31.463 51.5664 32.2662C50.5957 33.0759 49.6227 34.3445 48.764 36.0721C47.91 37.7891 47.217 39.861 46.741 42.1772C46.3677 44.0005 46.1344 45.9342 46.0504 47.9062H61.9497C61.8737 45.9837 61.6428 44.0689 61.259 42.1772C60.783 39.861 60.0924 37.7891 59.236 36.0721C58.3774 34.3445 57.4067 33.0759 56.436 32.2684C55.47 31.463 54.6417 31.2144 54 31.2144ZM46.741 56.8227C47.217 59.139 47.91 61.2109 48.764 62.9279C49.6227 64.6555 50.5957 65.9241 51.564 66.7316C52.53 67.537 53.3607 67.7856 54 67.7856C54.6417 67.7856 55.47 67.537 56.4337 66.7337C57.4067 65.9241 58.3774 64.6555 59.236 62.9279C60.09 61.2109 60.783 59.139 61.259 56.8227C61.6347 54.9995 61.868 53.0657 61.9497 51.0937H46.0504C46.132 53.0657 46.3654 54.9995 46.741 56.8227Z" fill="#8D1A1C"/>
<path d="M54 28.25C55.939 28.25 57.6633 29.0235 59.0867 30.2071C60.4983 31.3844 61.693 33.0291 62.6567 34.9714C63.6297 36.9264 64.3833 39.2129 64.8943 41.6928C65.3027 43.6818 65.5523 45.777 65.6363 47.9062H77.268C76.8271 42.5611 74.1843 37.5653 69.8692 33.92C65.5541 30.2747 59.8857 28.2494 54 28.25ZM64.8943 57.3072C64.3833 59.7871 63.6297 62.0736 62.6567 64.0286C61.693 65.9709 60.4983 67.6156 59.0867 68.7929C57.6633 69.9765 55.939 70.75 54 70.75C66.2967 70.75 76.3743 62.0864 77.268 51.0938H65.6363C65.5589 53.1788 65.3109 55.2558 64.8943 57.3072Z" fill="#8D1A1C"/>
<defs>
<filter id="filter0_d_25_4158" x="0" y="0" width="108" height="108" filterUnits="userSpaceOnUse" color-interpolation-filters="sRGB">
<feFlood flood-opacity="0" result="BackgroundImageFix"/>
<feColorMatrix in="SourceAlpha" type="matrix" values="0 0 0 0 0 0 0 0 0 0 0 0 0 0 0 0 0 0 127 0" result="hardAlpha"/>
<feOffset dy="4"/>
<feGaussianBlur stdDeviation="2"/>
<feComposite in2="hardAlpha" operator="out"/>
<feColorMatrix type="matrix" values="0 0 0 0 0 0 0 0 0 0 0 0 0 0 0 0 0 0 0.25 0"/>
<feBlend mode="normal" in2="BackgroundImageFix" result="effect1_dropShadow_25_4158"/>
<feBlend mode="normal" in="SourceGraphic" in2="effect1_dropShadow_25_4158" result="shape"/>
</filter>
</defs>
</svg>
