<svg width="108" height="108" viewBox="0 0 108 108" fill="none" xmlns="http://www.w3.org/2000/svg">
<g filter="url(#filter0_d_25_4156)">
<circle cx="54" cy="50" r="50" fill="white"/>
</g>
<path d="M54 43.625L46.7083 36.7708L54 29.9166L61.2917 36.7708L54 43.625ZM31.0833 65.1666V57.3333C31.0833 56.2236 31.4917 55.2934 32.3083 54.5427C33.125 53.792 34.1056 53.4166 35.25 53.4166H42.0729C42.7674 53.4166 43.4271 53.5798 44.0521 53.9062C44.6771 54.2326 45.1805 54.6732 45.5625 55.2281C46.5694 56.501 47.8111 57.4965 49.2875 58.2145C50.7639 58.9326 52.3347 59.2916 54 59.2916C55.7014 59.2916 57.2903 58.9326 58.7667 58.2145C60.243 57.4965 61.4667 56.501 62.4375 55.2281C62.8889 54.6732 63.4187 54.2326 64.0271 53.9062C64.6354 53.5798 65.2687 53.4166 65.9271 53.4166H72.75C73.9305 53.4166 74.9201 53.792 75.7187 54.5427C76.5174 55.2934 76.9167 56.2236 76.9167 57.3333V65.1666H62.3333V60.7114C61.118 61.5274 59.8069 62.1475 58.4 62.5718C56.9931 62.9961 55.5264 63.2083 54 63.2083C52.5069 63.2083 51.0486 62.9877 49.625 62.5464C48.2014 62.1051 46.8819 61.4771 45.6667 60.6625V65.1666H31.0833ZM37.3333 51.4583C35.5972 51.4583 34.1215 50.8871 32.9062 49.7448C31.691 48.6024 31.0833 47.2152 31.0833 45.5833C31.0833 43.9187 31.691 42.5231 32.9062 41.3964C34.1215 40.2697 35.5972 39.707 37.3333 39.7083C39.1042 39.7083 40.5889 40.2716 41.7875 41.3983C42.9861 42.525 43.5847 43.92 43.5833 45.5833C43.5833 47.2152 42.984 48.6024 41.7854 49.7448C40.5868 50.8871 39.1028 51.4583 37.3333 51.4583ZM70.6667 51.4583C68.9305 51.4583 67.4549 50.8871 66.2396 49.7448C65.0243 48.6024 64.4167 47.2152 64.4167 45.5833C64.4167 43.9187 65.0243 42.5231 66.2396 41.3964C67.4549 40.2697 68.9305 39.707 70.6667 39.7083C72.4375 39.7083 73.9222 40.2716 75.1208 41.3983C76.3194 42.525 76.918 43.92 76.9167 45.5833C76.9167 47.2152 76.3174 48.6024 75.1187 49.7448C73.9201 50.8871 72.4361 51.4583 70.6667 51.4583Z" fill="#175594"/>
<defs>
<filter id="filter0_d_25_4156" x="0" y="0" width="108" height="108" filterUnits="userSpaceOnUse" color-interpolation-filters="sRGB">
<feFlood flood-opacity="0" result="BackgroundImageFix"/>
<feColorMatrix in="SourceAlpha" type="matrix" values="0 0 0 0 0 0 0 0 0 0 0 0 0 0 0 0 0 0 127 0" result="hardAlpha"/>
<feOffset dy="4"/>
<feGaussianBlur stdDeviation="2"/>
<feComposite in2="hardAlpha" operator="out"/>
<feColorMatrix type="matrix" values="0 0 0 0 0 0 0 0 0 0 0 0 0 0 0 0 0 0 0.25 0"/>
<feBlend mode="normal" in2="BackgroundImageFix" result="effect1_dropShadow_25_4156"/>
<feBlend mode="normal" in="SourceGraphic" in2="effect1_dropShadow_25_4156" result="shape"/>
</filter>
</defs>
</svg>
