<svg width="108" height="108" viewBox="0 0 108 108" fill="none" xmlns="http://www.w3.org/2000/svg">
<g filter="url(#filter0_d_25_4159)">
<circle cx="54" cy="50" r="50" fill="white"/>
</g>
<path d="M104 50.0114C104 77.6256 81.6142 100.011 54 100.011C26.3858 100.011 4 77.6256 4 50.0114C4 22.3971 26.3858 60 54 60C81.6142 60 104 22.3971 104 50.0114Z" fill="url(#paint0_radial_25_4159)" fill-opacity="0.8"/>
<path d="M54 33.1667C56.2985 33.1667 58.5029 34.0271 60.1282 35.5586C61.7536 37.0902 62.6667 39.1674 62.6667 41.3333C62.6667 43.4993 61.7536 45.5765 60.1282 47.108C58.5029 48.6396 56.2985 49.5 54 49.5C51.7014 49.5 49.497 48.6396 47.8717 47.108C46.2464 45.5765 45.3333 43.4993 45.3333 41.3333C45.3333 39.1674 46.2464 37.0902 47.8717 35.5586C49.497 34.0271 51.7014 33.1667 54 33.1667ZM54 53.5833C63.5767 53.5833 71.3333 57.2379 71.3333 61.75V65.8333H36.6667V61.75C36.6667 57.2379 44.4233 53.5833 54 53.5833Z" fill="#8D1A1C"/>
<defs>
<filter id="filter0_d_25_4159" x="0" y="0" width="108" height="108" filterUnits="userSpaceOnUse" color-interpolation-filters="sRGB">
<feFlood flood-opacity="0" result="BackgroundImageFix"/>
<feColorMatrix in="SourceAlpha" type="matrix" values="0 0 0 0 0 0 0 0 0 0 0 0 0 0 0 0 0 0 127 0" result="hardAlpha"/>
<feOffset dy="4"/>
<feGaussianBlur stdDeviation="2"/>
<feComposite in2="hardAlpha" operator="out"/>
<feColorMatrix type="matrix" values="0 0 0 0 0 0 0 0 0 0 0 0 0 0 0 0 0 0 0.25 0"/>
<feBlend mode="normal" in2="BackgroundImageFix" result="effect1_dropShadow_25_4159"/>
<feBlend mode="normal" in="SourceGraphic" in2="effect1_dropShadow_25_4159" result="shape"/>
</filter>
<radialGradient id="paint0_radial_25_4159" cx="0" cy="0" r="1" gradientUnits="userSpaceOnUse" gradientTransform="translate(54 71.0068) rotate(90) scale(29.0068 50)">
<stop stop-color="#941717" stop-opacity="0.29"/>
<stop offset="1" stop-color="#941717" stop-opacity="0"/>
</radialGradient>
</defs>
</svg>
