<svg width="108" height="108" viewBox="0 0 108 108" fill="none" xmlns="http://www.w3.org/2000/svg">
<g filter="url(#filter0_d_25_4161)">
<circle cx="54" cy="50" r="50" fill="white"/>
</g>
<path d="M104 50.0114C104 77.6256 81.6142 100.011 54 100.011C26.3858 100.011 4 77.6256 4 50.0114C4 22.3971 26.3858 60 54 60C81.6142 60 104 22.3971 104 50.0114Z" fill="url(#paint0_radial_25_4161)" fill-opacity="0.8"/>
<path d="M54 29C49.4432 29.0052 45.0747 30.7452 41.8525 33.8384C38.6304 36.9317 36.8179 41.1255 36.8125 45.5C36.807 49.0748 38.0234 52.5527 40.275 55.4C40.275 55.4 40.7438 55.9925 40.8203 56.078L54 71L67.1859 56.0705C67.2547 55.991 67.725 55.4 67.725 55.4L67.7266 55.3955C69.977 52.5494 71.1928 49.0732 71.1875 45.5C71.1821 41.1255 69.3696 36.9317 66.1475 33.8384C62.9253 30.7452 58.5568 29.0052 54 29ZM54 51.5C52.7639 51.5 51.5555 51.1481 50.5277 50.4888C49.4999 49.8295 48.6988 48.8925 48.2258 47.7961C47.7527 46.6997 47.6289 45.4933 47.8701 44.3295C48.1113 43.1656 48.7065 42.0965 49.5806 41.2574C50.4547 40.4182 51.5683 39.8468 52.7807 39.6153C53.9931 39.3838 55.2497 39.5026 56.3918 39.9567C57.5338 40.4108 58.5099 41.1799 59.1967 42.1666C59.8834 43.1533 60.25 44.3133 60.25 45.5C60.2479 47.0907 59.5888 48.6157 58.4171 49.7404C57.2455 50.8652 55.657 51.498 54 51.5Z" fill="#165593"/>
<defs>
<filter id="filter0_d_25_4161" x="0" y="0" width="108" height="108" filterUnits="userSpaceOnUse" color-interpolation-filters="sRGB">
<feFlood flood-opacity="0" result="BackgroundImageFix"/>
<feColorMatrix in="SourceAlpha" type="matrix" values="0 0 0 0 0 0 0 0 0 0 0 0 0 0 0 0 0 0 127 0" result="hardAlpha"/>
<feOffset dy="4"/>
<feGaussianBlur stdDeviation="2"/>
<feComposite in2="hardAlpha" operator="out"/>
<feColorMatrix type="matrix" values="0 0 0 0 0 0 0 0 0 0 0 0 0 0 0 0 0 0 0.25 0"/>
<feBlend mode="normal" in2="BackgroundImageFix" result="effect1_dropShadow_25_4161"/>
<feBlend mode="normal" in="SourceGraphic" in2="effect1_dropShadow_25_4161" result="shape"/>
</filter>
<radialGradient id="paint0_radial_25_4161" cx="0" cy="0" r="1" gradientUnits="userSpaceOnUse" gradientTransform="translate(54 71.0068) rotate(90) scale(29.0068 50)">
<stop stop-color="#175594" stop-opacity="0.29"/>
<stop offset="1" stop-color="#175594" stop-opacity="0"/>
</radialGradient>
</defs>
</svg>
