<svg width="108" height="108" viewBox="0 0 108 108" fill="none" xmlns="http://www.w3.org/2000/svg">
<g filter="url(#filter0_d_25_4154)">
<circle cx="54" cy="50" r="50" fill="white"/>
</g>
<path d="M54 33.1666C56.2985 33.1666 58.5029 34.027 60.1282 35.5586C61.7536 37.0901 62.6667 39.1674 62.6667 41.3333C62.6667 43.4992 61.7536 45.5765 60.1282 47.108C58.5029 48.6395 56.2985 49.5 54 49.5C51.7014 49.5 49.497 48.6395 47.8717 47.108C46.2464 45.5765 45.3333 43.4992 45.3333 41.3333C45.3333 39.1674 46.2464 37.0901 47.8717 35.5586C49.497 34.027 51.7014 33.1666 54 33.1666ZM54 53.5833C63.5767 53.5833 71.3333 57.2379 71.3333 61.75V65.8333H36.6667V61.75C36.6667 57.2379 44.4233 53.5833 54 53.5833Z" fill="#175594"/>
<defs>
<filter id="filter0_d_25_4154" x="0" y="0" width="108" height="108" filterUnits="userSpaceOnUse" color-interpolation-filters="sRGB">
<feFlood flood-opacity="0" result="BackgroundImageFix"/>
<feColorMatrix in="SourceAlpha" type="matrix" values="0 0 0 0 0 0 0 0 0 0 0 0 0 0 0 0 0 0 127 0" result="hardAlpha"/>
<feOffset dy="4"/>
<feGaussianBlur stdDeviation="2"/>
<feComposite in2="hardAlpha" operator="out"/>
<feColorMatrix type="matrix" values="0 0 0 0 0 0 0 0 0 0 0 0 0 0 0 0 0 0 0.25 0"/>
<feBlend mode="normal" in2="BackgroundImageFix" result="effect1_dropShadow_25_4154"/>
<feBlend mode="normal" in="SourceGraphic" in2="effect1_dropShadow_25_4154" result="shape"/>
</filter>
</defs>
</svg>
